<svg width="489" height="163" viewBox="0 0 489 163" fill="none" xmlns="http://www.w3.org/2000/svg">
<path d="M488.563 5.04732L451.985 5.04763L434.265 72.8733L415.49 5.88612H385.824L366.838 72.8733L349.126 5.05674H349.117H311.98L345.918 113.932H384.77H384.779L400.354 58.2544L416.572 113.932H455.634L479.185 35.8984L488.563 5.04732Z" fill="#FFFAED"/>
<path d="M118.682 4.82783L91.3724 11.317C83.7357 5.87592 74.5589 2.23038 64.5208 1.05469C62.1922 0.78125 59.8269 0.644531 57.4158 0.644531C24.5413 0.644531 0 23.885 0 55.7109C0 87.5367 24.3305 110.576 56.3431 110.576C57.5991 110.576 58.8733 110.54 60.1476 110.467C69.0586 109.984 78.2809 107.815 85.2026 104.333C85.6152 106.166 85.8257 108.106 85.8257 110.121C85.8257 123.172 76.7591 132.085 63.9432 133.161C63.0904 133.234 62.2198 133.27 61.3305 133.27C52.5662 133.27 45.4982 129.397 41.0519 123.163C41.0336 123.136 41.0061 123.099 40.9878 123.072C40.8411 122.871 40.7036 122.652 40.5661 122.443C38.7509 119.517 37.8983 115.945 37.8983 115.945H37.8709L3.97869 124.475C4.60208 127.127 5.56464 129.798 6.14219 131.302C6.6556 132.687 7.22396 133.99 8.13156 135.567C17.2624 153.512 37.935 163 61.3211 163C66.5101 163 71.4787 162.508 76.1726 161.542C101.502 156.365 118.719 137.618 118.719 110.121V4.83694H118.7L118.682 4.82783ZM60.0102 79.8261C45.929 79.8261 35.6707 69.7737 35.6707 55.966C35.6707 42.1582 45.9107 32.1058 60.0102 32.1058C60.8813 32.1058 61.743 32.1423 62.5864 32.2152C75.3198 33.3455 84.3133 42.8148 84.3133 55.966C84.3133 69.1172 74.7056 79.2066 61.3028 79.799C60.8719 79.8173 60.4411 79.8261 60.0102 79.8261Z" fill="#FFFAED"/>
<path d="M271.898 2.66114C266.902 1.50367 261.63 0.893066 256.157 0.893066C221.156 0.893066 194.69 25.6011 194.69 59.1034C194.69 92.6062 221.156 117.105 256.157 117.105C258.349 117.105 260.512 117.004 262.63 116.813C294.404 113.978 317.855 90.3097 317.855 59.1034C317.855 31.0147 298.86 8.88595 271.898 2.65203V2.66114ZM230.562 59.1128C230.562 44.6672 241.453 33.9854 256.176 33.9854C257.551 33.9854 258.899 34.077 260.209 34.2593C272.879 36.018 281.992 46.0162 281.992 59.1128C281.992 73.5583 271.11 84.2308 256.176 84.2396C241.453 84.2396 230.571 73.5583 230.571 59.1128H230.562Z" fill="#FFFAED"/>
<path d="M174.915 33.9398C191.16 33.9398 204.343 21.0166 204.343 5.07617H204.325H130.361V113.96H165.574H165.592L165.629 32.4726C167.811 33.1833 170.112 33.6482 172.486 33.8398C173.283 33.9033 174.09 33.9398 174.906 33.9398H174.915Z" fill="#FFFAED"/>
</svg>
