<?xml version="1.0" encoding="UTF-8" standalone="no"?>
<svg width="900px" height="640px" viewBox="0 0 900 640" version="1.1" xmlns="http://www.w3.org/2000/svg" xmlns:xlink="http://www.w3.org/1999/xlink">
    <!-- Generator: Sketch 3.8.3 (29802) - http://www.bohemiancoding.com/sketch -->
    <title>penner-browser</title>
    <desc>Created with Sketch.</desc>
    <defs>
        <radialGradient cx="102.145018%" cy="100.874442%" fx="102.145018%" fy="100.874442%" r="124.954694%" id="radialGradient-1">
            <stop stop-color="#9EEDB4" offset="0%"></stop>
            <stop stop-color="#5CAB6C" offset="36.3380899%"></stop>
            <stop stop-color="#404B67" offset="90.1985013%"></stop>
            <stop stop-color="#3C3D66" offset="100%"></stop>
        </radialGradient>
        <rect id="path-2" x="311.83688" y="326.0625" width="198.72624" height="39.246875" rx="3.2"></rect>
        <filter x="-50%" y="-50%" width="200%" height="200%" filterUnits="objectBoundingBox" id="filter-3">
            <feOffset dx="0" dy="8" in="SourceAlpha" result="shadowOffsetOuter1"></feOffset>
            <feGaussianBlur stdDeviation="14.5" in="shadowOffsetOuter1" result="shadowBlurOuter1"></feGaussianBlur>
            <feColorMatrix values="0 0 0 0 0.141682213   0 0 0 0 0.206207483   0 0 0 0 0.167939439  0 0 0 0.155344203 0" type="matrix" in="shadowBlurOuter1"></feColorMatrix>
        </filter>
    </defs>
    <g id="works" stroke="none" stroke-width="1" fill="none" fill-rule="evenodd">
        <g id="penner-browser">
            <g id="hero" transform="translate(38.800000, 39.000000)">
                <rect id="Rectangle-1" fill="url(#radialGradient-1)" x="0" y="0" width="822.4" height="560" rx="8"></rect>
                <path d="M345.082838,188.592548 L373.775968,177.143022 C373.775968,177.143022 376.38668,163.108492 365.490651,162.973394 C354.594621,162.838297 354.092542,168.89047 353.915604,177.954616 C354.131357,181.782215 352.595881,190.04132 371.753536,190.047369 C381.254229,190.151212 385.188192,190.132561 385.188192,190.132561 L385.188192,162.822074 C385.188192,162.822074 402.761474,162.874592 402.761474,173.635019 L402.761474,189.845763 L415.044175,189.845763 L415.044175,163.122202 C415.044175,163.122202 433.105517,163.353483 432.84742,173.811453 C432.589323,184.269423 432.583274,190.045352 432.583274,190.045352 C432.583274,190.045352 455.235824,180.086941 463.170795,176.852158 C463.170795,176.852158 465.928199,162.911391 454.503877,162.659343 C443.079555,162.407295 444.461786,171.661989 444.176468,178.110381 C444.068591,182.467785 443.439984,190.957261 460.343826,190.191036 L475.112824,190.02166 L475.338154,163.128152 L486.602174,163.128152 C490.700976,163.29904 494.838602,165.946814 494.759955,169.968731 C495.202551,176.189777 487.281695,178.589776 487.281695,178.589776 L499.875519,195.593934" id="Path-80" stroke="#FFFFFF" stroke-width="8.25910468" stroke-linecap="round" stroke-linejoin="round"></path>
                <path d="M325.087881,196.116177 L325.087881,163.079759 L338.785224,163.079759 L340.370551,163.35197 C340.370551,163.35197 344.456752,164.470307 344.703254,169.274087 C344.949757,174.077868 342.489266,175.635271 340.573702,176.500804 C340.311193,176.619417 338.785224,177.195712 338.785224,177.195712 L312.699224,185.792296" id="Path-79" stroke="#FFFFFF" stroke-width="8.25910468" stroke-linecap="round" stroke-linejoin="round"></path>
                <g id="Rectangle-42">
                    <use fill="black" fill-opacity="1" filter="url(#filter-3)" xlink:href="#path-2"></use>
                    <use fill="#64C76D" fill-rule="evenodd" xlink:href="#path-2"></use>
                </g>
                <path d="M226.104,266.4 L223.096,261.952 L223.096,261.936 C224.744,261.584 225.8,260.496 225.8,258.56 C225.8,256.544 224.664,255.04 222.04,255.04 L218.008,255.04 L218.008,266.4 L219.4,266.4 L219.4,262.064 L221.544,262.064 L224.424,266.4 L226.104,266.4 Z M219.4,256.32 L221.864,256.32 C223.416,256.32 224.36,257.088 224.36,258.528 C224.36,259.824 223.56,260.784 221.672,260.784 L219.4,260.784 L219.4,256.32 Z M234.872,262.384 C234.872,260.144 233.432,258.512 231.256,258.512 C229.144,258.512 227.528,260.16 227.528,262.512 C227.528,264.88 229.192,266.496 231.4,266.496 C232.824,266.496 233.88,265.904 234.552,265.04 L233.64,264.256 C233.16,264.864 232.424,265.312 231.448,265.312 C230.04,265.312 229.016,264.368 228.84,262.912 L234.84,262.912 C234.84,262.864 234.872,262.592 234.872,262.384 L234.872,262.384 Z M231.32,259.712 C232.568,259.712 233.384,260.56 233.592,261.84 L228.888,261.84 C229.128,260.512 230.104,259.712 231.32,259.712 L231.32,259.712 Z M240.216,266.496 C241.608,266.496 242.776,265.92 243.432,265.184 L242.536,264.384 C242.056,264.912 241.24,265.312 240.328,265.312 C238.76,265.312 237.672,264.176 237.672,262.512 C237.672,260.864 238.76,259.712 240.328,259.712 C241.256,259.712 242.024,260.096 242.504,260.688 L243.4,259.904 C242.632,258.992 241.432,258.512 240.264,258.512 C237.976,258.512 236.36,260.16 236.36,262.512 C236.36,264.88 237.976,266.496 240.216,266.496 L240.216,266.496 Z M252.056,262.384 C252.056,260.144 250.616,258.512 248.44,258.512 C246.328,258.512 244.712,260.16 244.712,262.512 C244.712,264.88 246.376,266.496 248.584,266.496 C250.008,266.496 251.064,265.904 251.736,265.04 L250.824,264.256 C250.344,264.864 249.608,265.312 248.632,265.312 C247.224,265.312 246.2,264.368 246.024,262.912 L252.024,262.912 C252.024,262.864 252.056,262.592 252.056,262.384 L252.056,262.384 Z M248.504,259.712 C249.752,259.712 250.568,260.56 250.776,261.84 L246.072,261.84 C246.312,260.512 247.288,259.712 248.504,259.712 L248.504,259.712 Z M254.792,257.168 C255.304,257.168 255.72,256.768 255.72,256.256 C255.72,255.76 255.304,255.344 254.792,255.344 C254.264,255.344 253.864,255.76 253.864,256.256 C253.864,256.768 254.264,257.168 254.792,257.168 L254.792,257.168 Z M254.136,266.4 L255.432,266.4 L255.432,258.608 L254.136,258.608 L254.136,266.4 Z M263.368,258.608 L261.016,264.752 L260.968,264.752 L258.568,258.608 L257.176,258.608 L260.36,266.4 L261.608,266.4 L264.776,258.608 L263.368,258.608 Z M272.824,262.384 C272.824,260.144 271.384,258.512 269.208,258.512 C267.096,258.512 265.48,260.16 265.48,262.512 C265.48,264.88 267.144,266.496 269.352,266.496 C270.776,266.496 271.832,265.904 272.504,265.04 L271.592,264.256 C271.112,264.864 270.376,265.312 269.4,265.312 C267.992,265.312 266.968,264.368 266.792,262.912 L272.792,262.912 C272.792,262.864 272.824,262.592 272.824,262.384 L272.824,262.384 Z M269.272,259.712 C270.52,259.712 271.336,260.56 271.544,261.84 L266.84,261.84 C267.08,260.512 268.056,259.712 269.272,259.712 L269.272,259.712 Z M283.384,258.512 C282.184,258.512 281.16,258.992 280.52,259.888 L280.488,259.888 L280.488,254.624 L279.192,254.624 L279.192,266.4 L280.488,266.4 L280.488,262.48 C280.488,260.736 281.464,259.712 283.016,259.712 C284.152,259.712 284.92,260.336 284.92,262.096 L284.92,266.4 L286.216,266.4 L286.216,261.728 C286.216,259.504 285.08,258.512 283.384,258.512 L283.384,258.512 Z M295.4,262.384 C295.4,260.144 293.96,258.512 291.784,258.512 C289.672,258.512 288.056,260.16 288.056,262.512 C288.056,264.88 289.72,266.496 291.928,266.496 C293.352,266.496 294.408,265.904 295.08,265.04 L294.168,264.256 C293.688,264.864 292.952,265.312 291.976,265.312 C290.568,265.312 289.544,264.368 289.368,262.912 L295.368,262.912 C295.368,262.864 295.4,262.592 295.4,262.384 L295.4,262.384 Z M291.848,259.712 C293.096,259.712 293.912,260.56 294.12,261.84 L289.416,261.84 C289.656,260.512 290.632,259.712 291.848,259.712 L291.848,259.712 Z M297.48,266.4 L298.776,266.4 L298.776,254.624 L297.48,254.624 L297.48,266.4 Z M305.352,258.512 C304.312,258.512 303.352,258.944 302.696,259.76 L302.68,259.76 L302.68,258.608 L301.384,258.608 L301.384,269.568 L302.664,269.568 L302.664,265.248 L302.696,265.248 C303.32,266.032 304.248,266.496 305.352,266.496 C307.496,266.496 309.16,264.944 309.16,262.56 C309.16,260.256 307.56,258.512 305.352,258.512 L305.352,258.512 Z M305.224,265.312 C303.848,265.312 302.632,264.208 302.632,262.56 C302.632,260.96 303.736,259.712 305.208,259.712 C306.696,259.712 307.848,260.832 307.848,262.56 C307.848,264.128 306.808,265.312 305.224,265.312 L305.224,265.312 Z M317.928,266.496 C319.8,266.496 320.712,265.488 320.712,264.272 C320.728,262.736 319.64,262.464 317.992,261.824 C317.16,261.504 316.52,261.216 316.52,260.608 C316.52,260.048 317.128,259.696 317.72,259.696 C318.376,259.696 319.096,259.904 319.784,260.496 L320.456,259.472 C319.592,258.768 318.712,258.512 317.784,258.512 C316.296,258.512 315.208,259.408 315.208,260.608 C315.208,262.032 316.28,262.56 317.544,263.008 C318.68,263.392 319.4,263.616 319.4,264.288 C319.4,264.848 318.856,265.328 317.928,265.328 C316.824,265.328 316.152,264.96 315.544,264.4 L314.872,265.376 C315.64,266.064 316.648,266.496 317.928,266.496 L317.928,266.496 Z M324.808,266.496 C325.72,266.496 326.264,266.256 326.696,266.016 L326.344,264.88 C325.976,265.088 325.496,265.28 325.032,265.28 C324.296,265.28 324.072,264.816 324.072,263.888 L324.072,259.728 L326.664,259.728 L326.664,258.608 L324.072,258.608 L324.072,255.808 L322.776,255.952 L322.776,258.608 L321.784,258.608 L321.784,259.728 L322.776,259.728 L322.776,264.08 C322.776,265.648 323.416,266.496 324.808,266.496 L324.808,266.496 Z M332.28,258.512 C331.224,258.512 330.312,259.056 329.736,259.984 L329.72,259.984 L329.72,258.608 L328.424,258.608 L328.424,266.4 L329.72,266.4 L329.72,262.64 C329.72,261.072 330.616,259.936 332.088,259.936 C332.216,259.936 332.424,259.952 332.6,259.968 L332.6,258.528 C332.52,258.512 332.408,258.512 332.28,258.512 L332.28,258.512 Z M339.48,258.608 L339.48,262.384 C339.48,264.24 338.408,265.312 337.176,265.312 C335.928,265.312 335.272,264.656 335.272,262.88 L335.272,258.608 L333.976,258.608 L333.976,263.248 C333.976,265.472 335.112,266.496 336.904,266.496 C337.912,266.496 338.84,266 339.464,265.104 L339.48,265.104 L339.48,266.4 L340.776,266.4 L340.776,258.608 L339.48,258.608 Z M346.536,266.496 C347.928,266.496 349.096,265.92 349.752,265.184 L348.856,264.384 C348.376,264.912 347.56,265.312 346.648,265.312 C345.08,265.312 343.992,264.176 343.992,262.512 C343.992,260.864 345.08,259.712 346.648,259.712 C347.576,259.712 348.344,260.096 348.824,260.688 L349.72,259.904 C348.952,258.992 347.752,258.512 346.584,258.512 C344.296,258.512 342.68,260.16 342.68,262.512 C342.68,264.88 344.296,266.496 346.536,266.496 L346.536,266.496 Z M353.72,266.496 C354.632,266.496 355.176,266.256 355.608,266.016 L355.256,264.88 C354.888,265.088 354.408,265.28 353.944,265.28 C353.208,265.28 352.984,264.816 352.984,263.888 L352.984,259.728 L355.576,259.728 L355.576,258.608 L352.984,258.608 L352.984,255.808 L351.688,255.952 L351.688,258.608 L350.696,258.608 L350.696,259.728 L351.688,259.728 L351.688,264.08 C351.688,265.648 352.328,266.496 353.72,266.496 L353.72,266.496 Z M362.68,258.608 L362.68,262.384 C362.68,264.24 361.608,265.312 360.376,265.312 C359.128,265.312 358.472,264.656 358.472,262.88 L358.472,258.608 L357.176,258.608 L357.176,263.248 C357.176,265.472 358.312,266.496 360.104,266.496 C361.112,266.496 362.04,266 362.664,265.104 L362.68,265.104 L362.68,266.4 L363.976,266.4 L363.976,258.608 L362.68,258.608 Z M370.216,258.512 C369.16,258.512 368.248,259.056 367.672,259.984 L367.656,259.984 L367.656,258.608 L366.36,258.608 L366.36,266.4 L367.656,266.4 L367.656,262.64 C367.656,261.072 368.552,259.936 370.024,259.936 C370.152,259.936 370.36,259.952 370.536,259.968 L370.536,258.528 C370.456,258.512 370.344,258.512 370.216,258.512 L370.216,258.512 Z M372.84,257.168 C373.352,257.168 373.768,256.768 373.768,256.256 C373.768,255.76 373.352,255.344 372.84,255.344 C372.312,255.344 371.912,255.76 371.912,256.256 C371.912,256.768 372.312,257.168 372.84,257.168 L372.84,257.168 Z M372.184,266.4 L373.48,266.4 L373.48,258.608 L372.184,258.608 L372.184,266.4 Z M380.216,258.512 C379.064,258.512 378.04,259.04 377.384,259.968 L377.368,259.968 L377.368,258.608 L376.072,258.608 L376.072,266.4 L377.368,266.4 L377.368,262.512 C377.368,260.752 378.344,259.712 379.816,259.712 C380.952,259.712 381.72,260.32 381.72,262.144 L381.72,266.4 L383.016,266.4 L383.016,261.776 C383.016,259.552 381.896,258.512 380.216,258.512 L380.216,258.512 Z M391.272,258.608 L391.272,259.696 L391.24,259.696 C390.568,258.928 389.592,258.512 388.552,258.512 C386.44,258.512 384.84,260.192 384.84,262.4 C384.84,264.72 386.536,266.256 388.616,266.256 C389.736,266.256 390.648,265.808 391.256,265.056 L391.288,265.056 L391.288,266.144 C391.288,267.408 390.424,268.432 388.664,268.432 C387.56,268.432 386.776,268.128 385.864,267.616 L385.56,268.816 C386.488,269.376 387.56,269.664 388.728,269.664 C391.448,269.664 392.552,268.064 392.552,265.808 L392.552,258.608 L391.272,258.608 Z M388.712,265.04 C387.32,265.04 386.168,264.016 386.168,262.352 C386.168,260.848 387.224,259.728 388.712,259.728 C390.184,259.728 391.32,260.768 391.32,262.336 C391.32,263.888 390.28,265.04 388.712,265.04 L388.712,265.04 Z M404.776,258.608 L402.424,264.544 L402.392,264.544 L399.864,258.608 L398.472,258.608 L401.768,266.08 L400.376,269.568 L401.752,269.568 L406.152,258.608 L404.776,258.608 Z M410.92,266.496 C413.208,266.496 414.92,264.88 414.92,262.512 C414.92,260.144 413.208,258.512 410.92,258.512 C408.488,258.512 406.888,260.272 406.888,262.512 C406.888,264.752 408.488,266.496 410.92,266.496 L410.92,266.496 Z M410.92,265.312 C409.304,265.312 408.2,264.064 408.2,262.512 C408.2,260.96 409.288,259.712 410.92,259.712 C412.424,259.712 413.608,260.848 413.608,262.512 C413.608,264.16 412.424,265.312 410.92,265.312 L410.92,265.312 Z M422.264,258.608 L422.264,262.384 C422.264,264.24 421.192,265.312 419.96,265.312 C418.712,265.312 418.056,264.656 418.056,262.88 L418.056,258.608 L416.76,258.608 L416.76,263.248 C416.76,265.472 417.896,266.496 419.688,266.496 C420.696,266.496 421.624,266 422.248,265.104 L422.264,265.104 L422.264,266.4 L423.56,266.4 L423.56,258.608 L422.264,258.608 Z M429.8,258.512 C428.744,258.512 427.832,259.056 427.256,259.984 L427.24,259.984 L427.24,258.608 L425.944,258.608 L425.944,266.4 L427.24,266.4 L427.24,262.64 C427.24,261.072 428.136,259.936 429.608,259.936 C429.736,259.936 429.944,259.952 430.12,259.968 L430.12,258.528 C430.04,258.512 429.928,258.512 429.8,258.512 L429.8,258.512 Z M440.072,258.512 C439,258.512 438.04,258.96 437.384,259.776 L437.368,259.776 L437.368,254.624 L436.072,254.624 L436.072,266.4 L437.304,266.4 L437.304,265.168 L437.336,265.168 C437.96,266 438.92,266.496 440.056,266.496 C442.2,266.496 443.88,264.944 443.88,262.56 C443.88,260.256 442.264,258.512 440.072,258.512 L440.072,258.512 Z M439.928,265.312 C438.536,265.312 437.32,264.208 437.32,262.56 C437.32,260.96 438.424,259.712 439.912,259.712 C441.4,259.712 442.552,260.832 442.552,262.56 C442.552,264.128 441.512,265.312 439.928,265.312 L439.928,265.312 Z M445.976,266.4 L447.272,266.4 L447.272,254.624 L445.976,254.624 L445.976,266.4 Z M453.416,266.496 C455.704,266.496 457.416,264.88 457.416,262.512 C457.416,260.144 455.704,258.512 453.416,258.512 C450.984,258.512 449.384,260.272 449.384,262.512 C449.384,264.752 450.984,266.496 453.416,266.496 L453.416,266.496 Z M453.416,265.312 C451.8,265.312 450.696,264.064 450.696,262.512 C450.696,260.96 451.784,259.712 453.416,259.712 C454.92,259.712 456.104,260.848 456.104,262.512 C456.104,264.16 454.92,265.312 453.416,265.312 L453.416,265.312 Z M465.336,258.608 L465.336,259.696 L465.304,259.696 C464.632,258.928 463.656,258.512 462.616,258.512 C460.504,258.512 458.904,260.192 458.904,262.4 C458.904,264.72 460.6,266.256 462.68,266.256 C463.8,266.256 464.712,265.808 465.32,265.056 L465.352,265.056 L465.352,266.144 C465.352,267.408 464.488,268.432 462.728,268.432 C461.624,268.432 460.84,268.128 459.928,267.616 L459.624,268.816 C460.552,269.376 461.624,269.664 462.792,269.664 C465.512,269.664 466.616,268.064 466.616,265.808 L466.616,258.608 L465.336,258.608 Z M462.776,265.04 C461.384,265.04 460.232,264.016 460.232,262.352 C460.232,260.848 461.288,259.728 462.776,259.728 C464.248,259.728 465.384,260.768 465.384,262.336 C465.384,263.888 464.344,265.04 462.776,265.04 L462.776,265.04 Z M474.92,258.608 L474.92,259.696 L474.888,259.696 C474.216,258.928 473.24,258.512 472.2,258.512 C470.088,258.512 468.488,260.192 468.488,262.4 C468.488,264.72 470.184,266.256 472.264,266.256 C473.384,266.256 474.296,265.808 474.904,265.056 L474.936,265.056 L474.936,266.144 C474.936,267.408 474.072,268.432 472.312,268.432 C471.208,268.432 470.424,268.128 469.512,267.616 L469.208,268.816 C470.136,269.376 471.208,269.664 472.376,269.664 C475.096,269.664 476.2,268.064 476.2,265.808 L476.2,258.608 L474.92,258.608 Z M472.36,265.04 C470.968,265.04 469.816,264.016 469.816,262.352 C469.816,260.848 470.872,259.728 472.36,259.728 C473.832,259.728 474.968,260.768 474.968,262.336 C474.968,263.888 473.928,265.04 472.36,265.04 L472.36,265.04 Z M479.352,257.168 C479.864,257.168 480.28,256.768 480.28,256.256 C480.28,255.76 479.864,255.344 479.352,255.344 C478.824,255.344 478.424,255.76 478.424,256.256 C478.424,256.768 478.824,257.168 479.352,257.168 L479.352,257.168 Z M478.696,266.4 L479.992,266.4 L479.992,258.608 L478.696,258.608 L478.696,266.4 Z M486.728,258.512 C485.576,258.512 484.552,259.04 483.896,259.968 L483.88,259.968 L483.88,258.608 L482.584,258.608 L482.584,266.4 L483.88,266.4 L483.88,262.512 C483.88,260.752 484.856,259.712 486.328,259.712 C487.464,259.712 488.232,260.32 488.232,262.144 L488.232,266.4 L489.528,266.4 L489.528,261.776 C489.528,259.552 488.408,258.512 486.728,258.512 L486.728,258.512 Z M497.784,258.608 L497.784,259.696 L497.752,259.696 C497.08,258.928 496.104,258.512 495.064,258.512 C492.952,258.512 491.352,260.192 491.352,262.4 C491.352,264.72 493.048,266.256 495.128,266.256 C496.248,266.256 497.16,265.808 497.768,265.056 L497.8,265.056 L497.8,266.144 C497.8,267.408 496.936,268.432 495.176,268.432 C494.072,268.432 493.288,268.128 492.376,267.616 L492.072,268.816 C493,269.376 494.072,269.664 495.24,269.664 C497.96,269.664 499.064,268.064 499.064,265.808 L499.064,258.608 L497.784,258.608 Z M495.224,265.04 C493.832,265.04 492.68,264.016 492.68,262.352 C492.68,260.848 493.736,259.728 495.224,259.728 C496.696,259.728 497.832,260.768 497.832,262.336 C497.832,263.888 496.792,265.04 495.224,265.04 L495.224,265.04 Z M506.616,257.168 C507.128,257.168 507.544,256.768 507.544,256.256 C507.544,255.76 507.128,255.344 506.616,255.344 C506.088,255.344 505.688,255.76 505.688,256.256 C505.688,256.768 506.088,257.168 506.616,257.168 L506.616,257.168 Z M505.96,266.4 L507.256,266.4 L507.256,258.608 L505.96,258.608 L505.96,266.4 Z M515.848,254.624 L515.848,259.776 L515.832,259.776 C515.192,258.96 514.232,258.512 513.176,258.512 C510.968,258.512 509.368,260.256 509.368,262.56 C509.368,264.944 511.032,266.496 513.192,266.496 C514.312,266.496 515.256,266 515.88,265.168 L515.912,265.168 L515.912,266.4 L517.144,266.4 L517.144,254.624 L515.848,254.624 Z M513.304,265.312 C511.72,265.312 510.68,264.128 510.68,262.56 C510.68,260.832 511.848,259.712 513.32,259.712 C514.792,259.712 515.896,260.96 515.896,262.56 C515.896,264.208 514.68,265.312 513.304,265.312 L513.304,265.312 Z M526.488,262.384 C526.488,260.144 525.048,258.512 522.872,258.512 C520.76,258.512 519.144,260.16 519.144,262.512 C519.144,264.88 520.808,266.496 523.016,266.496 C524.44,266.496 525.496,265.904 526.168,265.04 L525.256,264.256 C524.776,264.864 524.04,265.312 523.064,265.312 C521.656,265.312 520.632,264.368 520.456,262.912 L526.456,262.912 C526.456,262.864 526.488,262.592 526.488,262.384 L526.488,262.384 Z M522.936,259.712 C524.184,259.712 525,260.56 525.208,261.84 L520.504,261.84 C520.744,260.512 521.72,259.712 522.936,259.712 L522.936,259.712 Z M534.504,258.608 L534.504,259.776 L534.488,259.776 C533.832,258.96 532.872,258.512 531.8,258.512 C529.592,258.512 527.992,260.256 527.992,262.56 C527.992,264.944 529.656,266.496 531.816,266.496 C532.952,266.496 533.912,266 534.536,265.168 L534.552,265.168 L534.552,266.4 L535.8,266.4 L535.8,258.608 L534.504,258.608 Z M531.928,265.312 C530.344,265.312 529.304,264.128 529.304,262.56 C529.304,260.832 530.472,259.712 531.944,259.712 C533.448,259.712 534.552,260.96 534.552,262.56 C534.552,264.208 533.336,265.312 531.928,265.312 L531.928,265.312 Z M540.568,266.496 C542.44,266.496 543.352,265.488 543.352,264.272 C543.368,262.736 542.28,262.464 540.632,261.824 C539.8,261.504 539.16,261.216 539.16,260.608 C539.16,260.048 539.768,259.696 540.36,259.696 C541.016,259.696 541.736,259.904 542.424,260.496 L543.096,259.472 C542.232,258.768 541.352,258.512 540.424,258.512 C538.936,258.512 537.848,259.408 537.848,260.608 C537.848,262.032 538.92,262.56 540.184,263.008 C541.32,263.392 542.04,263.616 542.04,264.288 C542.04,264.848 541.496,265.328 540.568,265.328 C539.464,265.328 538.792,264.96 538.184,264.4 L537.512,265.376 C538.28,266.064 539.288,266.496 540.568,266.496 L540.568,266.496 Z M555.688,258.608 L555.688,259.776 L555.672,259.776 C555.016,258.96 554.056,258.512 552.984,258.512 C550.776,258.512 549.176,260.256 549.176,262.56 C549.176,264.944 550.84,266.496 553,266.496 C554.136,266.496 555.096,266 555.72,265.168 L555.736,265.168 L555.736,266.4 L556.984,266.4 L556.984,258.608 L555.688,258.608 Z M553.112,265.312 C551.528,265.312 550.488,264.128 550.488,262.56 C550.488,260.832 551.656,259.712 553.128,259.712 C554.632,259.712 555.736,260.96 555.736,262.56 C555.736,264.208 554.52,265.312 553.112,265.312 L553.112,265.312 Z M563.512,258.512 C562.36,258.512 561.336,259.04 560.68,259.968 L560.664,259.968 L560.664,258.608 L559.368,258.608 L559.368,266.4 L560.664,266.4 L560.664,262.512 C560.664,260.752 561.64,259.712 563.112,259.712 C564.248,259.712 565.016,260.32 565.016,262.144 L565.016,266.4 L566.312,266.4 L566.312,261.776 C566.312,259.552 565.192,258.512 563.512,258.512 L563.512,258.512 Z M574.648,254.624 L574.648,259.776 L574.632,259.776 C573.992,258.96 573.032,258.512 571.976,258.512 C569.768,258.512 568.168,260.256 568.168,262.56 C568.168,264.944 569.832,266.496 571.992,266.496 C573.112,266.496 574.056,266 574.68,265.168 L574.712,265.168 L574.712,266.4 L575.944,266.4 L575.944,254.624 L574.648,254.624 Z M572.104,265.312 C570.52,265.312 569.48,264.128 569.48,262.56 C569.48,260.832 570.648,259.712 572.12,259.712 C573.592,259.712 574.696,260.96 574.696,262.56 C574.696,264.208 573.48,265.312 572.104,265.312 L572.104,265.312 Z M588.744,258.608 L588.744,259.696 L588.712,259.696 C588.04,258.928 587.064,258.512 586.024,258.512 C583.912,258.512 582.312,260.192 582.312,262.4 C582.312,264.72 584.008,266.256 586.088,266.256 C587.208,266.256 588.12,265.808 588.728,265.056 L588.76,265.056 L588.76,266.144 C588.76,267.408 587.896,268.432 586.136,268.432 C585.032,268.432 584.248,268.128 583.336,267.616 L583.032,268.816 C583.96,269.376 585.032,269.664 586.2,269.664 C588.92,269.664 590.024,268.064 590.024,265.808 L590.024,258.608 L588.744,258.608 Z M586.184,265.04 C584.792,265.04 583.64,264.016 583.64,262.352 C583.64,260.848 584.696,259.728 586.184,259.728 C587.656,259.728 588.792,260.768 588.792,262.336 C588.792,263.888 587.752,265.04 586.184,265.04 L586.184,265.04 Z M599.272,262.384 C599.272,260.144 597.832,258.512 595.656,258.512 C593.544,258.512 591.928,260.16 591.928,262.512 C591.928,264.88 593.592,266.496 595.8,266.496 C597.224,266.496 598.28,265.904 598.952,265.04 L598.04,264.256 C597.56,264.864 596.824,265.312 595.848,265.312 C594.44,265.312 593.416,264.368 593.24,262.912 L599.24,262.912 C599.24,262.864 599.272,262.592 599.272,262.384 L599.272,262.384 Z M595.72,259.712 C596.968,259.712 597.784,260.56 597.992,261.84 L593.288,261.84 C593.528,260.512 594.504,259.712 595.72,259.712 L595.72,259.712 Z M603.448,266.496 C604.36,266.496 604.904,266.256 605.336,266.016 L604.984,264.88 C604.616,265.088 604.136,265.28 603.672,265.28 C602.936,265.28 602.712,264.816 602.712,263.888 L602.712,259.728 L605.304,259.728 L605.304,258.608 L602.712,258.608 L602.712,255.808 L601.416,255.952 L601.416,258.608 L600.424,258.608 L600.424,259.728 L601.416,259.728 L601.416,264.08 C601.416,265.648 602.056,266.496 603.448,266.496 L603.448,266.496 Z M307.552,282.384 C307.552,280.144 306.112,278.512 303.936,278.512 C301.824,278.512 300.208,280.16 300.208,282.512 C300.208,284.88 301.872,286.496 304.08,286.496 C305.504,286.496 306.56,285.904 307.232,285.04 L306.32,284.256 C305.84,284.864 305.104,285.312 304.128,285.312 C302.72,285.312 301.696,284.368 301.52,282.912 L307.52,282.912 C307.52,282.864 307.552,282.592 307.552,282.384 L307.552,282.384 Z M304,279.712 C305.248,279.712 306.064,280.56 306.272,281.84 L301.568,281.84 C301.808,280.512 302.784,279.712 304,279.712 L304,279.712 Z M313.664,278.512 C312.512,278.512 311.488,279.04 310.832,279.968 L310.816,279.968 L310.816,278.608 L309.52,278.608 L309.52,286.4 L310.816,286.4 L310.816,282.512 C310.816,280.752 311.792,279.712 313.264,279.712 C314.4,279.712 315.168,280.32 315.168,282.144 L315.168,286.4 L316.464,286.4 L316.464,281.776 C316.464,279.552 315.344,278.512 313.664,278.512 L313.664,278.512 Z M322.176,286.496 C323.568,286.496 324.736,285.92 325.392,285.184 L324.496,284.384 C324.016,284.912 323.2,285.312 322.288,285.312 C320.72,285.312 319.632,284.176 319.632,282.512 C319.632,280.864 320.72,279.712 322.288,279.712 C323.216,279.712 323.984,280.096 324.464,280.688 L325.36,279.904 C324.592,278.992 323.392,278.512 322.224,278.512 C319.936,278.512 318.32,280.16 318.32,282.512 C318.32,284.88 319.936,286.496 322.176,286.496 L322.176,286.496 Z M330.704,286.496 C332.992,286.496 334.704,284.88 334.704,282.512 C334.704,280.144 332.992,278.512 330.704,278.512 C328.272,278.512 326.672,280.272 326.672,282.512 C326.672,284.752 328.272,286.496 330.704,286.496 L330.704,286.496 Z M330.704,285.312 C329.088,285.312 327.984,284.064 327.984,282.512 C327.984,280.96 329.072,279.712 330.704,279.712 C332.208,279.712 333.392,280.848 333.392,282.512 C333.392,284.16 332.208,285.312 330.704,285.312 L330.704,285.312 Z M342.048,278.608 L342.048,282.384 C342.048,284.24 340.976,285.312 339.744,285.312 C338.496,285.312 337.84,284.656 337.84,282.88 L337.84,278.608 L336.544,278.608 L336.544,283.248 C336.544,285.472 337.68,286.496 339.472,286.496 C340.48,286.496 341.408,286 342.032,285.104 L342.048,285.104 L342.048,286.4 L343.344,286.4 L343.344,278.608 L342.048,278.608 Z M349.584,278.512 C348.528,278.512 347.616,279.056 347.04,279.984 L347.024,279.984 L347.024,278.608 L345.728,278.608 L345.728,286.4 L347.024,286.4 L347.024,282.64 C347.024,281.072 347.92,279.936 349.392,279.936 C349.52,279.936 349.728,279.952 349.904,279.968 L349.904,278.528 C349.824,278.512 349.712,278.512 349.584,278.512 L349.584,278.512 Z M357.232,278.608 L357.232,279.776 L357.216,279.776 C356.56,278.96 355.6,278.512 354.528,278.512 C352.32,278.512 350.72,280.256 350.72,282.56 C350.72,284.944 352.384,286.496 354.544,286.496 C355.68,286.496 356.64,286 357.264,285.168 L357.28,285.168 L357.28,286.4 L358.528,286.4 L358.528,278.608 L357.232,278.608 Z M354.656,285.312 C353.072,285.312 352.032,284.128 352.032,282.56 C352.032,280.832 353.2,279.712 354.672,279.712 C356.176,279.712 357.28,280.96 357.28,282.56 C357.28,284.208 356.064,285.312 354.656,285.312 L354.656,285.312 Z M366.832,278.608 L366.832,279.696 L366.8,279.696 C366.128,278.928 365.152,278.512 364.112,278.512 C362,278.512 360.4,280.192 360.4,282.4 C360.4,284.72 362.096,286.256 364.176,286.256 C365.296,286.256 366.208,285.808 366.816,285.056 L366.848,285.056 L366.848,286.144 C366.848,287.408 365.984,288.432 364.224,288.432 C363.12,288.432 362.336,288.128 361.424,287.616 L361.12,288.816 C362.048,289.376 363.12,289.664 364.288,289.664 C367.008,289.664 368.112,288.064 368.112,285.808 L368.112,278.608 L366.832,278.608 Z M364.272,285.04 C362.88,285.04 361.728,284.016 361.728,282.352 C361.728,280.848 362.784,279.728 364.272,279.728 C365.744,279.728 366.88,280.768 366.88,282.336 C366.88,283.888 365.84,285.04 364.272,285.04 L364.272,285.04 Z M377.36,282.384 C377.36,280.144 375.92,278.512 373.744,278.512 C371.632,278.512 370.016,280.16 370.016,282.512 C370.016,284.88 371.68,286.496 373.888,286.496 C375.312,286.496 376.368,285.904 377.04,285.04 L376.128,284.256 C375.648,284.864 374.912,285.312 373.936,285.312 C372.528,285.312 371.504,284.368 371.328,282.912 L377.328,282.912 C377.328,282.864 377.36,282.592 377.36,282.384 L377.36,282.384 Z M373.808,279.712 C375.056,279.712 375.872,280.56 376.08,281.84 L371.376,281.84 C371.616,280.512 372.592,279.712 373.808,279.712 L373.808,279.712 Z M388.592,278.512 C387.408,278.512 386.384,279.056 385.76,280.048 L385.744,280.048 C385.328,279.008 384.464,278.512 383.264,278.512 C382.256,278.512 381.28,279.024 380.64,279.952 L380.624,279.952 L380.624,278.608 L379.344,278.608 L379.344,286.4 L380.624,286.4 L380.624,282.528 C380.624,280.784 381.616,279.712 382.88,279.712 C384.096,279.712 384.736,280.448 384.736,282.176 L384.736,286.4 L386.032,286.4 L386.032,282.528 C386.032,280.784 387.008,279.712 388.208,279.712 C389.44,279.712 390.032,280.432 390.032,282.192 L390.032,286.4 L391.328,286.4 L391.328,281.84 C391.328,279.536 390.368,278.512 388.592,278.512 L388.592,278.512 Z M400.496,282.384 C400.496,280.144 399.056,278.512 396.88,278.512 C394.768,278.512 393.152,280.16 393.152,282.512 C393.152,284.88 394.816,286.496 397.024,286.496 C398.448,286.496 399.504,285.904 400.176,285.04 L399.264,284.256 C398.784,284.864 398.048,285.312 397.072,285.312 C395.664,285.312 394.64,284.368 394.464,282.912 L400.464,282.912 C400.464,282.864 400.496,282.592 400.496,282.384 L400.496,282.384 Z M396.944,279.712 C398.192,279.712 399.008,280.56 399.216,281.84 L394.512,281.84 C394.752,280.512 395.728,279.712 396.944,279.712 L396.944,279.712 Z M406.608,278.512 C405.456,278.512 404.432,279.04 403.776,279.968 L403.76,279.968 L403.76,278.608 L402.464,278.608 L402.464,286.4 L403.76,286.4 L403.76,282.512 C403.76,280.752 404.736,279.712 406.208,279.712 C407.344,279.712 408.112,280.32 408.112,282.144 L408.112,286.4 L409.408,286.4 L409.408,281.776 C409.408,279.552 408.288,278.512 406.608,278.512 L406.608,278.512 Z M413.952,286.496 C414.864,286.496 415.408,286.256 415.84,286.016 L415.488,284.88 C415.12,285.088 414.64,285.28 414.176,285.28 C413.44,285.28 413.216,284.816 413.216,283.888 L413.216,279.728 L415.808,279.728 L415.808,278.608 L413.216,278.608 L413.216,275.808 L411.92,275.952 L411.92,278.608 L410.928,278.608 L410.928,279.728 L411.92,279.728 L411.92,284.08 C411.92,285.648 412.56,286.496 413.952,286.496 L413.952,286.496 Z M424.176,286.496 C425.088,286.496 425.632,286.256 426.064,286.016 L425.712,284.88 C425.344,285.088 424.864,285.28 424.4,285.28 C423.664,285.28 423.44,284.816 423.44,283.888 L423.44,279.728 L426.032,279.728 L426.032,278.608 L423.44,278.608 L423.44,275.808 L422.144,275.952 L422.144,278.608 L421.152,278.608 L421.152,279.728 L422.144,279.728 L422.144,284.08 C422.144,285.648 422.784,286.496 424.176,286.496 L424.176,286.496 Z M430.992,286.496 C433.28,286.496 434.992,284.88 434.992,282.512 C434.992,280.144 433.28,278.512 430.992,278.512 C428.56,278.512 426.96,280.272 426.96,282.512 C426.96,284.752 428.56,286.496 430.992,286.496 L430.992,286.496 Z M430.992,285.312 C429.376,285.312 428.272,284.064 428.272,282.512 C428.272,280.96 429.36,279.712 430.992,279.712 C432.496,279.712 433.68,280.848 433.68,282.512 C433.68,284.16 432.496,285.312 430.992,285.312 L430.992,285.312 Z M450.672,278.608 L448.688,284.432 L448.656,284.432 L446.848,278.608 L445.728,278.608 L443.952,284.432 L443.92,284.432 L441.936,278.608 L440.624,278.608 L443.328,286.4 L444.512,286.4 L446.288,280.72 L446.304,280.72 L448.064,286.4 L449.28,286.4 L451.984,278.608 L450.672,278.608 Z M457.536,278.512 C456.48,278.512 455.568,279.056 454.992,279.984 L454.976,279.984 L454.976,278.608 L453.68,278.608 L453.68,286.4 L454.976,286.4 L454.976,282.64 C454.976,281.072 455.872,279.936 457.344,279.936 C457.472,279.936 457.68,279.952 457.856,279.968 L457.856,278.528 C457.776,278.512 457.664,278.512 457.536,278.512 L457.536,278.512 Z M460.16,277.168 C460.672,277.168 461.088,276.768 461.088,276.256 C461.088,275.76 460.672,275.344 460.16,275.344 C459.632,275.344 459.232,275.76 459.232,276.256 C459.232,276.768 459.632,277.168 460.16,277.168 L460.16,277.168 Z M459.504,286.4 L460.8,286.4 L460.8,278.608 L459.504,278.608 L459.504,286.4 Z M465.52,286.496 C466.432,286.496 466.976,286.256 467.408,286.016 L467.056,284.88 C466.688,285.088 466.208,285.28 465.744,285.28 C465.008,285.28 464.784,284.816 464.784,283.888 L464.784,279.728 L467.376,279.728 L467.376,278.608 L464.784,278.608 L464.784,275.808 L463.488,275.952 L463.488,278.608 L462.496,278.608 L462.496,279.728 L463.488,279.728 L463.488,284.08 C463.488,285.648 464.128,286.496 465.52,286.496 L465.52,286.496 Z M475.648,282.384 C475.648,280.144 474.208,278.512 472.032,278.512 C469.92,278.512 468.304,280.16 468.304,282.512 C468.304,284.88 469.968,286.496 472.176,286.496 C473.6,286.496 474.656,285.904 475.328,285.04 L474.416,284.256 C473.936,284.864 473.2,285.312 472.224,285.312 C470.816,285.312 469.792,284.368 469.616,282.912 L475.616,282.912 C475.616,282.864 475.648,282.592 475.648,282.384 L475.648,282.384 Z M472.096,279.712 C473.344,279.712 474.16,280.56 474.368,281.84 L469.664,281.84 C469.904,280.512 470.88,279.712 472.096,279.712 L472.096,279.712 Z M484.224,286.496 C485.136,286.496 485.68,286.256 486.112,286.016 L485.76,284.88 C485.392,285.088 484.912,285.28 484.448,285.28 C483.712,285.28 483.488,284.816 483.488,283.888 L483.488,279.728 L486.08,279.728 L486.08,278.608 L483.488,278.608 L483.488,275.808 L482.192,275.952 L482.192,278.608 L481.2,278.608 L481.2,279.728 L482.192,279.728 L482.192,284.08 C482.192,285.648 482.832,286.496 484.224,286.496 L484.224,286.496 Z M492.032,278.512 C490.832,278.512 489.808,278.992 489.168,279.888 L489.136,279.888 L489.136,274.624 L487.84,274.624 L487.84,286.4 L489.136,286.4 L489.136,282.48 C489.136,280.736 490.112,279.712 491.664,279.712 C492.8,279.712 493.568,280.336 493.568,282.096 L493.568,286.4 L494.864,286.4 L494.864,281.728 C494.864,279.504 493.728,278.512 492.032,278.512 L492.032,278.512 Z M504.048,282.384 C504.048,280.144 502.608,278.512 500.432,278.512 C498.32,278.512 496.704,280.16 496.704,282.512 C496.704,284.88 498.368,286.496 500.576,286.496 C502,286.496 503.056,285.904 503.728,285.04 L502.816,284.256 C502.336,284.864 501.6,285.312 500.624,285.312 C499.216,285.312 498.192,284.368 498.016,282.912 L504.016,282.912 C504.016,282.864 504.048,282.592 504.048,282.384 L504.048,282.384 Z M500.496,279.712 C501.744,279.712 502.56,280.56 502.768,281.84 L498.064,281.84 C498.304,280.512 499.28,279.712 500.496,279.712 L500.496,279.712 Z M515.28,278.512 C514.096,278.512 513.072,279.056 512.448,280.048 L512.432,280.048 C512.016,279.008 511.152,278.512 509.952,278.512 C508.944,278.512 507.968,279.024 507.328,279.952 L507.312,279.952 L507.312,278.608 L506.032,278.608 L506.032,286.4 L507.312,286.4 L507.312,282.528 C507.312,280.784 508.304,279.712 509.568,279.712 C510.784,279.712 511.424,280.448 511.424,282.176 L511.424,286.4 L512.72,286.4 L512.72,282.528 C512.72,280.784 513.696,279.712 514.896,279.712 C516.128,279.712 516.72,280.432 516.72,282.192 L516.72,286.4 L518.016,286.4 L518.016,281.84 C518.016,279.536 517.056,278.512 515.28,278.512 L515.28,278.512 Z M521.024,286.496 C521.52,286.496 521.936,286.096 521.936,285.6 C521.936,285.088 521.52,284.688 521.024,284.688 C520.496,284.688 520.096,285.088 520.096,285.6 C520.096,286.096 520.496,286.496 521.024,286.496 L521.024,286.496 Z" id="Receive-help-structu" fill="#FFFFFF" opacity="0.601270989"></path>
                <path d="M358.2656,424.8 L360.0704,424.8 L360.0704,421.2544 L363.7952,421.2544 L363.7952,424.8 L365.6,424.8 L365.6,415.712 L363.7952,415.712 L363.7952,419.6416 L360.0704,419.6416 L360.0704,415.712 L358.2656,415.712 L358.2656,424.8 Z M370.4256,424.9024 C372.3712,424.9024 373.7536,423.5968 373.7536,421.6768 C373.7536,419.7568 372.3712,418.4512 370.4256,418.4512 C368.4416,418.4512 367.1104,419.808 367.1104,421.6768 C367.1104,423.5456 368.4416,424.9024 370.4256,424.9024 L370.4256,424.9024 Z M370.4256,423.4048 C369.4784,423.4048 368.8,422.6496 368.8,421.6768 C368.8,420.6912 369.4528,419.9488 370.4256,419.9488 C371.36,419.9488 372.0512,420.6528 372.0512,421.6768 C372.0512,422.688 371.3344,423.4048 370.4256,423.4048 L370.4256,423.4048 Z M381.856,418.5536 L380.64,422.3552 L380.6144,422.3552 L379.5136,418.5536 L378.1696,418.5536 L377.0816,422.3552 L377.056,422.3552 L375.84,418.5536 L374.1632,418.5536 L376.3008,424.8 L377.7344,424.8 L378.8352,420.9472 L378.8608,420.9472 L379.9616,424.8 L381.408,424.8 L383.5328,418.5536 L381.856,418.5536 Z M392.5184,415.3792 L392.5184,419.2576 L392.48,419.2576 C392.0192,418.72 391.3664,418.4512 390.5984,418.4512 C388.9216,418.4512 387.6544,419.7952 387.6544,421.6896 C387.6544,423.6224 388.9216,424.9024 390.6496,424.9024 C391.4816,424.9024 392.1344,424.5952 392.5696,424.0448 L392.5952,424.0448 L392.5952,424.8 L394.1952,424.8 L394.1952,415.3792 L392.5184,415.3792 Z M390.9568,423.4048 C390.0224,423.4048 389.3568,422.7136 389.3568,421.7024 C389.3568,420.6272 390.0608,419.9488 390.9568,419.9488 C391.9168,419.9488 392.608,420.704 392.608,421.7024 C392.608,422.7264 391.8784,423.4048 390.9568,423.4048 L390.9568,423.4048 Z M398.8672,424.9024 C400.8128,424.9024 402.1952,423.5968 402.1952,421.6768 C402.1952,419.7568 400.8128,418.4512 398.8672,418.4512 C396.8832,418.4512 395.552,419.808 395.552,421.6768 C395.552,423.5456 396.8832,424.9024 398.8672,424.9024 L398.8672,424.9024 Z M398.8672,423.4048 C397.92,423.4048 397.2416,422.6496 397.2416,421.6768 C397.2416,420.6912 397.8944,419.9488 398.8672,419.9488 C399.8016,419.9488 400.4928,420.6528 400.4928,421.6768 C400.4928,422.688 399.776,423.4048 398.8672,423.4048 L398.8672,423.4048 Z M409.3632,421.6128 C409.3632,419.7824 408.1344,418.4512 406.304,418.4512 C404.5248,418.4512 403.2064,419.7696 403.2064,421.664 C403.2064,423.6224 404.5888,424.9024 406.4192,424.9024 C407.6736,424.9024 408.5824,424.4032 409.12,423.7248 L408.032,422.7136 C407.6864,423.136 407.2,423.4304 406.5344,423.4176 C405.728,423.4176 405.1392,422.9568 404.9344,422.2144 L409.3248,422.2144 C409.3632,422.112 409.3632,421.8176 409.3632,421.6128 L409.3632,421.6128 Z M406.3552,419.9232 C407.0848,419.9232 407.5328,420.3584 407.6992,421.0112 L404.9472,421.0112 C405.1392,420.2944 405.6768,419.9232 406.3552,419.9232 L406.3552,419.9232 Z M412.7296,424.9024 C414.368,424.9024 415.1616,424.0704 415.1616,422.9568 C415.1616,421.728 414.368,421.4336 413.0112,420.9344 C412.3968,420.704 412.064,420.5248 412.064,420.2688 C412.064,419.936 412.4096,419.7952 412.6784,419.7952 C413.1392,419.7952 413.6896,420 414.176,420.4608 L414.9824,419.232 C414.2784,418.6816 413.5744,418.4512 412.704,418.4512 C411.424,418.4512 410.4512,419.1936 410.4512,420.32 C410.4512,421.5232 411.3472,422.0096 412.3712,422.3552 C413.1904,422.6112 413.5104,422.752 413.5104,423.0464 C413.5104,423.3536 413.2288,423.5584 412.7424,423.5584 C412.064,423.5584 411.5264,423.3152 411.0144,422.8288 L410.1952,423.9936 C410.8864,424.5824 411.7312,424.9024 412.7296,424.9024 L412.7296,424.9024 Z M420.7296,417.6704 C421.3056,417.6704 421.7792,417.2096 421.7792,416.6464 C421.7792,416.0832 421.3056,415.6224 420.7296,415.6224 C420.1664,415.6224 419.6928,416.0832 419.6928,416.6464 C419.6928,417.2096 420.1664,417.6704 420.7296,417.6704 L420.7296,417.6704 Z M419.8848,424.8 L421.5616,424.8 L421.5616,418.5536 L419.8848,418.5536 L419.8848,424.8 Z M425.2352,424.9024 C426.08,424.9024 426.4896,424.736 426.8992,424.5184 L426.464,423.1744 C426.1824,423.3152 425.8752,423.392 425.6704,423.392 C425.2864,423.392 425.12,423.136 425.12,422.5984 L425.12,419.936 L426.8224,419.936 L426.8224,418.5536 L425.12,418.5536 L425.12,416.3264 L423.456,416.5056 L423.456,418.5536 L422.7136,418.5536 L422.7136,419.936 L423.456,419.936 L423.456,422.8288 C423.456,424.2368 424.16,424.9024 425.2352,424.9024 L425.2352,424.9024 Z M438.5344,418.5536 L437.3184,422.3552 L437.2928,422.3552 L436.192,418.5536 L434.848,418.5536 L433.76,422.3552 L433.7344,422.3552 L432.5184,418.5536 L430.8416,418.5536 L432.9792,424.8 L434.4128,424.8 L435.5136,420.9472 L435.5392,420.9472 L436.64,424.8 L438.0864,424.8 L440.2112,418.5536 L438.5344,418.5536 Z M443.9104,424.9024 C445.856,424.9024 447.2384,423.5968 447.2384,421.6768 C447.2384,419.7568 445.856,418.4512 443.9104,418.4512 C441.9264,418.4512 440.5952,419.808 440.5952,421.6768 C440.5952,423.5456 441.9264,424.9024 443.9104,424.9024 L443.9104,424.9024 Z M443.9104,423.4048 C442.9632,423.4048 442.2848,422.6496 442.2848,421.6768 C442.2848,420.6912 442.9376,419.9488 443.9104,419.9488 C444.8448,419.9488 445.536,420.6528 445.536,421.6768 C445.536,422.688 444.8192,423.4048 443.9104,423.4048 L443.9104,423.4048 Z M452.1664,418.4512 C451.424,418.4512 450.7456,418.8096 450.272,419.4752 L450.2592,419.4752 L450.2592,418.5536 L448.5824,418.5536 L448.5824,424.8 L450.2592,424.8 L450.2592,421.8944 C450.2592,420.9728 450.8224,420.2688 451.8592,420.2688 C451.9488,420.2688 452.128,420.2688 452.2944,420.2816 L452.2944,418.464 C452.2688,418.4512 452.2176,418.4512 452.1664,418.4512 L452.1664,418.4512 Z M455.9552,422.3168 L457.44,424.8 L459.3088,424.8 L457.0688,421.0368 L459.2704,418.5536 L457.312,418.5536 L455.072,421.0752 L455.0592,421.0752 L455.0592,415.3792 L453.3824,415.3792 L453.3824,424.8 L455.0592,424.8 L455.0592,423.3024 L455.9296,422.3168 L455.9552,422.3168 Z M460.9344,421.8432 L462.4192,421.8432 L462.4576,421.3056 C462.496,420.8448 462.9952,420.4608 463.52,419.9744 C464.0832,419.424 464.6464,418.7584 464.6464,417.76 C464.6464,416.0832 463.3792,415.264 461.9456,415.264 C460.8832,415.264 459.8976,415.7248 459.3216,416.4416 L460.512,417.5552 C460.832,417.12 461.3184,416.864 461.8048,416.864 C462.4064,416.864 462.8288,417.2224 462.8288,417.8624 C462.8288,418.4384 462.4192,418.8992 462.0096,419.3216 C461.4976,419.8848 460.9088,420.3968 460.9216,421.2032 L460.9344,421.8432 Z M461.7024,424.9024 C462.2656,424.9024 462.7392,424.4544 462.7392,423.8912 C462.7392,423.328 462.2656,422.8672 461.7024,422.8672 C461.1264,422.8672 460.6656,423.328 460.6656,423.8912 C460.6656,424.4544 461.1264,424.9024 461.7024,424.9024 L461.7024,424.9024 Z" id="How-does-it-work?" fill="#FFFFFF" opacity="0.673507463"></path>
                <path d="M361.6424,351.001138 C363.3128,351.001138 365.2568,350.093938 365.2568,347.861938 C365.2568,345.889138 363.86,345.428337 362.0888,344.737138 C360.9224,344.276338 360.3608,344.002738 360.3752,343.369138 C360.3752,342.721137 360.8936,342.346738 361.5992,342.346738 C362.2328,342.346738 362.9816,342.649138 363.8312,343.354738 L364.9976,341.828338 C364.004,340.993138 362.8232,340.517938 361.556,340.532338 C359.7128,340.561138 358.2728,341.813938 358.2728,343.455537 C358.2728,345.385138 359.8136,346.105138 361.3544,346.652337 C362.5928,347.069938 363.14,347.343538 363.14,348.092337 C363.14,348.725938 362.6504,349.172338 361.6712,349.172338 C360.8648,349.172338 359.8856,348.783538 359.1224,347.890738 L357.9128,349.388338 C358.9784,350.497138 360.3176,351.001138 361.6424,351.001138 L361.6424,351.001138 Z M368.108,342.865138 C368.756,342.865138 369.2888,342.346738 369.2888,341.713138 C369.2888,341.079538 368.756,340.561138 368.108,340.561138 C367.4744,340.561138 366.9416,341.079538 366.9416,341.713138 C366.9416,342.346738 367.4744,342.865138 368.108,342.865138 L368.108,342.865138 Z M367.1576,350.885938 L369.044,350.885938 L369.044,343.858738 L367.1576,343.858738 L367.1576,350.885938 Z M376.028,343.858738 L376.028,344.578737 L375.9848,344.578737 C375.4232,344.017137 374.6744,343.743538 373.8824,343.743538 C371.996,343.743538 370.628,345.226738 370.628,347.300338 C370.628,349.345138 372.0392,350.756338 373.9832,350.756338 C374.8328,350.756338 375.5384,350.468338 376.028,349.935538 L376.0712,349.935538 L376.0712,350.641138 C376.0712,351.505138 375.3944,352.210738 374.0696,352.210738 C373.1768,352.210738 372.4856,351.937138 371.7944,351.548338 L371.348,353.146738 C372.1832,353.607538 373.1336,353.852338 374.2424,353.852338 C376.9352,353.852338 377.9,352.268338 377.9,350.079538 L377.9,343.858738 L376.028,343.858738 Z M374.3288,349.057138 C373.3208,349.057138 372.5432,348.351538 372.5432,347.242738 C372.5432,346.177138 373.2776,345.457138 374.3288,345.457138 C375.3224,345.457138 376.1,346.148338 376.1,347.228338 C376.1,348.293938 375.3656,349.057138 374.3288,349.057138 L374.3288,349.057138 Z M383.9048,343.743538 C383.0408,343.743538 382.2344,344.089138 381.6584,344.765938 L381.6296,344.765938 L381.6296,343.858738 L379.7432,343.858738 L379.7432,350.885938 L381.6296,350.885938 L381.6296,347.343538 C381.6296,346.090737 382.2776,345.428337 383.228,345.428337 C384.1064,345.428337 384.5816,345.845937 384.5816,347.185138 L384.5816,350.885938 L386.468,350.885938 L386.468,346.709938 C386.468,344.549937 385.4168,343.743538 383.9048,343.743538 L383.9048,343.743538 Z M396.6344,343.858738 L396.6344,347.271538 C396.6344,348.625137 395.9,349.316338 395.0792,349.316338 C394.2008,349.316338 393.812,348.884338 393.812,347.588338 L393.812,343.858738 L391.94,343.858738 L391.94,348.092337 C391.94,350.237938 393.0056,351.001138 394.5176,351.001138 C395.3096,351.001138 396.0728,350.669938 396.6056,350.021938 L396.6344,350.021938 L396.6344,350.885938 L398.5208,350.885938 L398.5208,343.858738 L396.6344,343.858738 Z M404.4104,343.743538 C403.5464,343.743538 402.812,344.060338 402.2792,344.665138 L402.2504,344.665138 L402.2504,343.858738 L400.364,343.858738 L400.364,353.737138 L402.2504,353.737138 L402.2504,350.093938 L402.2792,350.093938 C402.7688,350.669938 403.46,351.001138 404.3528,351.001138 C406.3112,351.001138 407.7224,349.561138 407.7224,347.386737 C407.7224,345.255538 406.2968,343.743538 404.4104,343.743538 L404.4104,343.743538 Z M404.0072,349.316338 C402.9848,349.316338 402.1784,348.553138 402.1784,347.401138 C402.1784,346.277938 402.9272,345.428337 404.0072,345.428337 C405.0152,345.428337 405.8072,346.191538 405.8072,347.401138 C405.8072,348.538738 405.0728,349.316338 404.0072,349.316338 L404.0072,349.316338 Z M413.2952,350.885938 L415.1816,350.885938 L415.1816,345.413938 L416.7512,345.413938 L416.7512,343.858738 L415.1816,343.858738 L415.1816,342.778738 C415.1816,342.101938 415.4552,341.842738 415.9016,341.842738 C416.1608,341.842738 416.5496,341.943538 416.9528,342.145138 L417.3272,340.676338 C417.0104,340.460338 416.3624,340.157938 415.5128,340.157938 C414.116,340.157938 413.2952,341.007538 413.2952,342.649138 L413.2952,343.858738 L412.5608,343.858738 L412.5608,345.413938 L413.2952,345.413938 L413.2952,350.885938 Z M421.1576,351.001138 C423.3464,351.001138 424.9016,349.532338 424.9016,347.372338 C424.9016,345.212338 423.3464,343.743538 421.1576,343.743538 C418.9256,343.743538 417.428,345.269938 417.428,347.372338 C417.428,349.474738 418.9256,351.001138 421.1576,351.001138 L421.1576,351.001138 Z M421.1576,349.316338 C420.092,349.316338 419.3288,348.466738 419.3288,347.372338 C419.3288,346.263537 420.0632,345.428337 421.1576,345.428337 C422.2088,345.428337 422.9864,346.220338 422.9864,347.372338 C422.9864,348.509937 422.18,349.316338 421.1576,349.316338 L421.1576,349.316338 Z M430.4456,343.743538 C429.6104,343.743538 428.8472,344.146738 428.3144,344.895538 L428.3,344.895538 L428.3,343.858738 L426.4136,343.858738 L426.4136,350.885938 L428.3,350.885938 L428.3,347.617138 C428.3,346.580338 428.9336,345.788338 430.1,345.788338 C430.2008,345.788338 430.4024,345.788338 430.5896,345.802738 L430.5896,343.757938 C430.5608,343.743538 430.5032,343.743538 430.4456,343.743538 L430.4456,343.743538 Z M435.86,350.885938 L437.7464,350.885938 L437.7464,345.413938 L439.316,345.413938 L439.316,343.858738 L437.7464,343.858738 L437.7464,342.778738 C437.7464,342.101938 438.02,341.842738 438.4664,341.842738 C438.7256,341.842738 439.1144,341.943538 439.5176,342.145138 L439.892,340.676338 C439.5752,340.460338 438.9272,340.157938 438.0776,340.157938 C436.6808,340.157938 435.86,341.007538 435.86,342.649138 L435.86,343.858738 L435.1256,343.858738 L435.1256,345.413938 L435.86,345.413938 L435.86,350.885938 Z M444.5432,343.743538 C443.708,343.743538 442.9448,344.146738 442.412,344.895538 L442.3976,344.895538 L442.3976,343.858738 L440.5112,343.858738 L440.5112,350.885938 L442.3976,350.885938 L442.3976,347.617138 C442.3976,346.580338 443.0312,345.788338 444.1976,345.788338 C444.2984,345.788338 444.5,345.788338 444.6872,345.802738 L444.6872,343.757938 C444.6584,343.743538 444.6008,343.743538 444.5432,343.743538 L444.5432,343.743538 Z M452.2904,347.300338 C452.2904,345.241138 450.908,343.743538 448.8488,343.743538 C446.8472,343.743538 445.364,345.226738 445.364,347.357937 C445.364,349.561138 446.9192,351.001138 448.9784,351.001138 C450.3896,351.001138 451.412,350.439538 452.0168,349.676338 L450.7928,348.538738 C450.404,349.013938 449.8568,349.345138 449.108,349.330737 C448.2008,349.330737 447.5384,348.812338 447.308,347.977138 L452.2472,347.977138 C452.2904,347.861938 452.2904,347.530737 452.2904,347.300338 L452.2904,347.300338 Z M448.9064,345.399538 C449.7272,345.399538 450.2312,345.889138 450.4184,346.623538 L447.3224,346.623538 C447.5384,345.817138 448.1432,345.399538 448.9064,345.399538 L448.9064,345.399538 Z M460.3544,347.300338 C460.3544,345.241138 458.972,343.743538 456.9128,343.743538 C454.9112,343.743538 453.428,345.226738 453.428,347.357937 C453.428,349.561138 454.9832,351.001138 457.0424,351.001138 C458.4536,351.001138 459.476,350.439538 460.0808,349.676338 L458.8568,348.538738 C458.468,349.013938 457.9208,349.345138 457.172,349.330737 C456.2648,349.330737 455.6024,348.812338 455.372,347.977138 L460.3112,347.977138 C460.3544,347.861938 460.3544,347.530737 460.3544,347.300338 L460.3544,347.300338 Z M456.9704,345.399538 C457.7912,345.399538 458.2952,345.889138 458.4824,346.623538 L455.3864,346.623538 C455.6024,345.817138 456.2072,345.399538 456.9704,345.399538 L456.9704,345.399538 Z M462.2696,347.530737 L463.652,347.530737 L463.9976,340.287538 L461.9384,340.287538 L462.2696,347.530737 Z M462.932,351.001138 C463.5656,351.001138 464.0984,350.497138 464.0984,349.863538 C464.0984,349.229938 463.5656,348.711538 462.932,348.711538 C462.284,348.711538 461.7656,349.229938 461.7656,349.863538 C461.7656,350.497138 462.284,351.001138 462.932,351.001138 L462.932,351.001138 Z" id="Sign-up-for-free!" fill="#FFFFFF"></path>
                <path d="M258.6008,233.7125 L261.5336,233.7125 L261.5336,218.9445 L258.6008,218.9445 L258.6008,233.7125 Z M277.0088,223.3957 C275.5528,223.3957 274.3048,223.9573 273.4728,225.0181 L273.4312,225.0181 C272.8072,223.8949 271.7464,223.3957 270.4152,223.3957 C269.2712,223.3957 268.1688,223.9157 267.3784,224.9141 L267.3576,224.9141 L267.3576,223.5621 L264.6328,223.5621 L264.6328,233.7125 L267.3576,233.7125 L267.3576,228.6373 C267.3576,226.8069 268.2728,225.8293 269.5,225.8293 C270.7688,225.8293 271.2888,226.8485 271.2888,228.4709 L271.2888,233.7125 L274.0136,233.7125 L274.0136,228.6373 C274.0136,226.8069 274.9496,225.8293 276.0936,225.8293 C277.3624,225.8293 277.8616,226.8485 277.8616,228.4709 L277.8616,233.7125 L280.5864,233.7125 L280.5864,227.8053 C280.5864,224.7061 279.2136,223.3957 277.0088,223.3957 L277.0088,223.3957 Z M289.0312,223.3957 C287.7832,223.3957 286.7224,223.8533 285.9528,224.7269 L285.9112,224.7269 L285.9112,223.5621 L283.1864,223.5621 L283.1864,237.8309 L285.9112,237.8309 L285.9112,232.5685 L285.9528,232.5685 C286.66,233.4005 287.6584,233.8789 288.948,233.8789 C291.7768,233.8789 293.8152,231.7989 293.8152,228.6581 C293.8152,225.5797 291.756,223.3957 289.0312,223.3957 L289.0312,223.3957 Z M288.4488,231.4453 C286.972,231.4453 285.8072,230.3429 285.8072,228.6789 C285.8072,227.0565 286.8888,225.8293 288.4488,225.8293 C289.9048,225.8293 291.0488,226.9317 291.0488,228.6789 C291.0488,230.3221 289.988,231.4453 288.4488,231.4453 L288.4488,231.4453 Z M301.844,223.3957 C300.6376,223.3957 299.5352,223.9781 298.7656,225.0597 L298.7448,225.0597 L298.7448,223.5621 L296.02,223.5621 L296.02,233.7125 L298.7448,233.7125 L298.7448,228.9909 C298.7448,227.4933 299.66,226.3493 301.3448,226.3493 C301.4904,226.3493 301.7816,226.3493 302.052,226.3701 L302.052,223.4165 C302.0104,223.3957 301.9272,223.3957 301.844,223.3957 L301.844,223.3957 Z M308.4168,233.8789 C311.5784,233.8789 313.8248,231.7573 313.8248,228.6373 C313.8248,225.5173 311.5784,223.3957 308.4168,223.3957 C305.1928,223.3957 303.0296,225.6005 303.0296,228.6373 C303.0296,231.6741 305.1928,233.8789 308.4168,233.8789 L308.4168,233.8789 Z M308.4168,231.4453 C306.8776,231.4453 305.7752,230.2181 305.7752,228.6373 C305.7752,227.0357 306.836,225.8293 308.4168,225.8293 C309.9352,225.8293 311.0584,226.9733 311.0584,228.6373 C311.0584,230.2805 309.8936,231.4453 308.4168,231.4453 L308.4168,231.4453 Z M322.332,223.5621 L319.9816,230.3845 L319.9608,230.3845 L317.5688,223.5621 L314.6984,223.5621 L318.692,233.7125 L321.2504,233.7125 L325.2232,223.5621 L322.332,223.5621 Z M335.7896,228.5333 C335.7896,225.5589 333.7928,223.3957 330.8184,223.3957 C327.9272,223.3957 325.7848,225.5381 325.7848,228.6165 C325.7848,231.7989 328.0312,233.8789 331.0056,233.8789 C333.044,233.8789 334.5208,233.0677 335.3944,231.9653 L333.6264,230.3221 C333.0648,231.0085 332.2744,231.4869 331.1928,231.4661 C329.8824,231.4661 328.9256,230.7173 328.5928,229.5109 L335.7272,229.5109 C335.7896,229.3445 335.7896,228.8661 335.7896,228.5333 L335.7896,228.5333 Z M330.9016,225.7877 C332.0872,225.7877 332.8152,226.4949 333.0856,227.5557 L328.6136,227.5557 C328.9256,226.3909 329.7992,225.7877 330.9016,225.7877 L330.9016,225.7877 Z M350.1,223.5621 L347.7704,229.8437 L347.7496,229.8437 L345.2536,223.5621 L342.4248,223.5621 L346.46,233.0885 L344.6712,237.8309 L347.4584,237.8309 L352.9288,223.5621 L350.1,223.5621 Z M358.94,233.8789 C362.1016,233.8789 364.348,231.7573 364.348,228.6373 C364.348,225.5173 362.1016,223.3957 358.94,223.3957 C355.716,223.3957 353.5528,225.6005 353.5528,228.6373 C353.5528,231.6741 355.716,233.8789 358.94,233.8789 L358.94,233.8789 Z M358.94,231.4453 C357.4008,231.4453 356.2984,230.2181 356.2984,228.6373 C356.2984,227.0357 357.3592,225.8293 358.94,225.8293 C360.4584,225.8293 361.5816,226.9733 361.5816,228.6373 C361.5816,230.2805 360.4168,231.4453 358.94,231.4453 L358.94,231.4453 Z M373.1464,223.5621 L373.1464,228.4917 C373.1464,230.4469 372.0856,231.4453 370.9,231.4453 C369.6312,231.4453 369.0696,230.8213 369.0696,228.9493 L369.0696,223.5621 L366.3656,223.5621 L366.3656,229.6773 C366.3656,232.7765 367.9048,233.8789 370.0888,233.8789 C371.2328,233.8789 372.3352,233.4005 373.1048,232.4645 L373.1464,232.4645 L373.1464,233.7125 L375.8712,233.7125 L375.8712,223.5621 L373.1464,223.5621 Z M384.3576,223.3957 C383.1512,223.3957 382.0488,223.9781 381.2792,225.0597 L381.2584,225.0597 L381.2584,223.5621 L378.5336,223.5621 L378.5336,233.7125 L381.2584,233.7125 L381.2584,228.9909 C381.2584,227.4933 382.1736,226.3493 383.8584,226.3493 C384.004,226.3493 384.2952,226.3493 384.5656,226.3701 L384.5656,223.4165 C384.524,223.3957 384.4408,223.3957 384.3576,223.3957 L384.3576,223.3957 Z M393.3016,222.1269 C394.2376,222.1269 395.0072,221.3781 395.0072,220.4629 C395.0072,219.5477 394.2376,218.7989 393.3016,218.7989 C392.3864,218.7989 391.6168,219.5477 391.6168,220.4629 C391.6168,221.3781 392.3864,222.1269 393.3016,222.1269 L393.3016,222.1269 Z M391.9288,233.7125 L394.6536,233.7125 L394.6536,223.5621 L391.9288,223.5621 L391.9288,233.7125 Z M403.5352,223.3957 C402.2872,223.3957 401.1224,223.8949 400.2904,224.8725 L400.2488,224.8725 L400.2488,223.5621 L397.524,223.5621 L397.524,233.7125 L400.2488,233.7125 L400.2488,228.5957 C400.2488,226.7861 401.1848,225.8293 402.5576,225.8293 C403.8264,225.8293 404.5128,226.4325 404.5128,228.3669 L404.5128,233.7125 L407.2376,233.7125 L407.2376,227.6805 C407.2376,224.5605 405.7192,223.3957 403.5352,223.3957 L403.5352,223.3957 Z M412.9992,233.8789 C414.372,233.8789 415.0376,233.6085 415.7032,233.2549 L414.996,231.0709 C414.5384,231.2997 414.0392,231.4245 413.7064,231.4245 C413.0824,231.4245 412.812,231.0085 412.812,230.1349 L412.812,225.8085 L415.5784,225.8085 L415.5784,223.5621 L412.812,223.5621 L412.812,219.9429 L410.108,220.2341 L410.108,223.5621 L408.9016,223.5621 L408.9016,225.8085 L410.108,225.8085 L410.108,230.5093 C410.108,232.7973 411.252,233.8789 412.9992,233.8789 L412.9992,233.8789 Z M426.5608,228.5333 C426.5608,225.5589 424.564,223.3957 421.5896,223.3957 C418.6984,223.3957 416.556,225.5381 416.556,228.6165 C416.556,231.7989 418.8024,233.8789 421.7768,233.8789 C423.8152,233.8789 425.292,233.0677 426.1656,231.9653 L424.3976,230.3221 C423.836,231.0085 423.0456,231.4869 421.964,231.4661 C420.6536,231.4661 419.6968,230.7173 419.364,229.5109 L426.4984,229.5109 C426.5608,229.3445 426.5608,228.8661 426.5608,228.5333 L426.5608,228.5333 Z M421.6728,225.7877 C422.8584,225.7877 423.5864,226.4949 423.8568,227.5557 L419.3848,227.5557 C419.6968,226.3909 420.5704,225.7877 421.6728,225.7877 L421.6728,225.7877 Z M434.5688,223.3957 C433.3624,223.3957 432.26,223.9781 431.4904,225.0597 L431.4696,225.0597 L431.4696,223.5621 L428.7448,223.5621 L428.7448,233.7125 L431.4696,233.7125 L431.4696,228.9909 C431.4696,227.4933 432.3848,226.3493 434.0696,226.3493 C434.2152,226.3493 434.5064,226.3493 434.7768,226.3701 L434.7768,223.4165 C434.7352,223.3957 434.652,223.3957 434.5688,223.3957 L434.5688,223.3957 Z M442.556,223.3957 C441.308,223.3957 440.1432,223.8949 439.3112,224.8725 L439.2696,224.8725 L439.2696,223.5621 L436.5448,223.5621 L436.5448,233.7125 L439.2696,233.7125 L439.2696,228.5957 C439.2696,226.7861 440.2056,225.8293 441.5784,225.8293 C442.8472,225.8293 443.5336,226.4325 443.5336,228.3669 L443.5336,233.7125 L446.2584,233.7125 L446.2584,227.6805 C446.2584,224.5605 444.74,223.3957 442.556,223.3957 L442.556,223.3957 Z M458.3224,228.5333 C458.3224,225.5589 456.3256,223.3957 453.3512,223.3957 C450.46,223.3957 448.3176,225.5381 448.3176,228.6165 C448.3176,231.7989 450.564,233.8789 453.5384,233.8789 C455.5768,233.8789 457.0536,233.0677 457.9272,231.9653 L456.1592,230.3221 C455.5976,231.0085 454.8072,231.4869 453.7256,231.4661 C452.4152,231.4661 451.4584,230.7173 451.1256,229.5109 L458.26,229.5109 C458.3224,229.3445 458.3224,228.8661 458.3224,228.5333 L458.3224,228.5333 Z M453.4344,225.7877 C454.62,225.7877 455.348,226.4949 455.6184,227.5557 L451.1464,227.5557 C451.4584,226.3909 452.332,225.7877 453.4344,225.7877 L453.4344,225.7877 Z M463.668,233.8789 C465.0408,233.8789 465.7064,233.6085 466.372,233.2549 L465.6648,231.0709 C465.2072,231.2997 464.708,231.4245 464.3752,231.4245 C463.7512,231.4245 463.4808,231.0085 463.4808,230.1349 L463.4808,225.8085 L466.2472,225.8085 L466.2472,223.5621 L463.4808,223.5621 L463.4808,219.9429 L460.7768,220.2341 L460.7768,223.5621 L459.5704,223.5621 L459.5704,225.8085 L460.7768,225.8085 L460.7768,230.5093 C460.7768,232.7973 461.9208,233.8789 463.668,233.8789 L463.668,233.8789 Z M479.58,223.3957 C478.332,223.3957 477.2712,223.8533 476.5016,224.7269 L476.46,224.7269 L476.46,223.5621 L473.7352,223.5621 L473.7352,237.8309 L476.46,237.8309 L476.46,232.5685 L476.5016,232.5685 C477.2088,233.4005 478.2072,233.8789 479.4968,233.8789 C482.3256,233.8789 484.364,231.7989 484.364,228.6581 C484.364,225.5797 482.3048,223.3957 479.58,223.3957 L479.58,223.3957 Z M478.9976,231.4453 C477.5208,231.4453 476.356,230.3429 476.356,228.6789 C476.356,227.0565 477.4376,225.8293 478.9976,225.8293 C480.4536,225.8293 481.5976,226.9317 481.5976,228.6789 C481.5976,230.3221 480.5368,231.4453 478.9976,231.4453 L478.9976,231.4453 Z M492.3928,223.3957 C491.1864,223.3957 490.084,223.9781 489.3144,225.0597 L489.2936,225.0597 L489.2936,223.5621 L486.5688,223.5621 L486.5688,233.7125 L489.2936,233.7125 L489.2936,228.9909 C489.2936,227.4933 490.2088,226.3493 491.8936,226.3493 C492.0392,226.3493 492.3304,226.3493 492.6008,226.3701 L492.6008,223.4165 C492.5592,223.3957 492.476,223.3957 492.3928,223.3957 L492.3928,223.3957 Z M503.5832,228.5333 C503.5832,225.5589 501.5864,223.3957 498.612,223.3957 C495.7208,223.3957 493.5784,225.5381 493.5784,228.6165 C493.5784,231.7989 495.8248,233.8789 498.7992,233.8789 C500.8376,233.8789 502.3144,233.0677 503.188,231.9653 L501.42,230.3221 C500.8584,231.0085 500.068,231.4869 498.9864,231.4661 C497.676,231.4661 496.7192,230.7173 496.3864,229.5109 L503.5208,229.5109 C503.5832,229.3445 503.5832,228.8661 503.5832,228.5333 L503.5832,228.5333 Z M498.6952,225.7877 C499.8808,225.7877 500.6088,226.4949 500.8792,227.5557 L496.4072,227.5557 C496.7192,226.3909 497.5928,225.7877 498.6952,225.7877 L498.6952,225.7877 Z M509.0536,233.8789 C511.716,233.8789 513.0056,232.5269 513.0056,230.7173 C513.0056,228.7205 511.716,228.2421 509.5112,227.4309 C508.5128,227.0565 507.972,226.7653 507.972,226.3493 C507.972,225.8085 508.5336,225.5797 508.9704,225.5797 C509.7192,225.5797 510.6136,225.9125 511.404,226.6613 L512.7144,224.6645 C511.5704,223.7701 510.4264,223.3957 509.012,223.3957 C506.932,223.3957 505.3512,224.6021 505.3512,226.4325 C505.3512,228.3877 506.8072,229.1781 508.4712,229.7397 C509.8024,230.1557 510.3224,230.3845 510.3224,230.8629 C510.3224,231.3621 509.8648,231.6949 509.0744,231.6949 C507.972,231.6949 507.0984,231.2997 506.2664,230.5093 L504.9352,232.4021 C506.0584,233.3589 507.4312,233.8789 509.0536,233.8789 L509.0536,233.8789 Z M524.4664,228.5333 C524.4664,225.5589 522.4696,223.3957 519.4952,223.3957 C516.604,223.3957 514.4616,225.5381 514.4616,228.6165 C514.4616,231.7989 516.708,233.8789 519.6824,233.8789 C521.7208,233.8789 523.1976,233.0677 524.0712,231.9653 L522.3032,230.3221 C521.7416,231.0085 520.9512,231.4869 519.8696,231.4661 C518.5592,231.4661 517.6024,230.7173 517.2696,229.5109 L524.404,229.5109 C524.4664,229.3445 524.4664,228.8661 524.4664,228.5333 L524.4664,228.5333 Z M519.5784,225.7877 C520.764,225.7877 521.492,226.4949 521.7624,227.5557 L517.2904,227.5557 C517.6024,226.3909 518.476,225.7877 519.5784,225.7877 L519.5784,225.7877 Z M532.6616,223.3957 C531.4136,223.3957 530.2488,223.8949 529.4168,224.8725 L529.3752,224.8725 L529.3752,223.5621 L526.6504,223.5621 L526.6504,233.7125 L529.3752,233.7125 L529.3752,228.5957 C529.3752,226.7861 530.3112,225.8293 531.684,225.8293 C532.9528,225.8293 533.6392,226.4325 533.6392,228.3669 L533.6392,233.7125 L536.364,233.7125 L536.364,227.6805 C536.364,224.5605 534.8456,223.3957 532.6616,223.3957 L532.6616,223.3957 Z M543.644,233.8789 C545.6824,233.8789 547.2424,233.0677 548.116,232.0485 L546.2648,230.4053 C545.7864,230.9461 544.9752,231.4453 543.8936,231.4453 C542.292,231.4453 541.1688,230.2805 541.1688,228.6165 C541.1688,226.9733 542.2504,225.8293 543.8728,225.8293 C544.9128,225.8293 545.7032,226.2869 546.244,226.9109 L548.0744,225.3301 C547.0552,224.0405 545.3912,223.3957 543.7688,223.3957 C540.628,223.3957 538.4232,225.5173 538.4232,228.6373 C538.4232,231.7573 540.628,233.8789 543.644,233.8789 L543.644,233.8789 Z M559.4728,228.5333 C559.4728,225.5589 557.476,223.3957 554.5016,223.3957 C551.6104,223.3957 549.468,225.5381 549.468,228.6165 C549.468,231.7989 551.7144,233.8789 554.6888,233.8789 C556.7272,233.8789 558.204,233.0677 559.0776,231.9653 L557.3096,230.3221 C556.748,231.0085 555.9576,231.4869 554.876,231.4661 C553.5656,231.4661 552.6088,230.7173 552.276,229.5109 L559.4104,229.5109 C559.4728,229.3445 559.4728,228.8661 559.4728,228.5333 L559.4728,228.5333 Z M554.5848,225.7877 C555.7704,225.7877 556.4984,226.4949 556.7688,227.5557 L552.2968,227.5557 C552.6088,226.3909 553.4824,225.7877 554.5848,225.7877 L554.5848,225.7877 Z M562.7176,233.8789 C563.6328,233.8789 564.4024,233.1509 564.4024,232.2357 C564.4024,231.3205 563.6328,230.5717 562.7176,230.5717 C561.7816,230.5717 561.0328,231.3205 561.0328,232.2357 C561.0328,233.1509 561.7816,233.8789 562.7176,233.8789 L562.7176,233.8789 Z" id="Improve-your-interne" fill="#FFFFFF"></path>
                <path d="M411.2,439.146875 L411.2,557.336652" id="Path-328" stroke="#FFFFFF" stroke-width="0.8" stroke-linecap="round" stroke-linejoin="round" stroke-dasharray="4" opacity="0.620452425"></path>
            </g>
        </g>
    </g>
</svg>