<?xml version="1.0" encoding="UTF-8" standalone="no"?>
<svg width="200px" height="200px" viewBox="0 0 200 200" version="1.1" xmlns="http://www.w3.org/2000/svg" xmlns:xlink="http://www.w3.org/1999/xlink">
    <!-- Generator: Sketch 3.8.3 (29802) - http://www.bohemiancoding.com/sketch -->
    <title>piggy-logo</title>
    <desc>Created with Sketch.</desc>
    <defs></defs>
    <g stroke="none" stroke-width="1" fill="none" fill-rule="evenodd" stroke-linecap="round" stroke-linejoin="round">
        <g stroke-width="1.2474" stroke="#000000" fill="#000000">
            <path d="M53.3335342,93.269003 L57.5516968,93.269003 C58.3450856,93.2513722 59.0414942,93.4320858 59.6409435,93.8111493 C60.0376379,94.0403505 60.3461734,94.3532936 60.5665592,94.749988 C60.7781295,95.1907596 60.8839131,95.7329005 60.8839131,96.3764269 C60.8839131,97.1521849 60.6238618,97.8574088 60.1037514,98.4921198 C59.5571946,99.1444617 58.7417795,99.4794431 57.6574815,99.4970739 L53.3335342,99.4970739 L53.3335342,93.269003 Z M50.4112334,109.784631 L53.3335342,109.784631 L53.3335342,102.260698 L57.7764892,102.260698 C59.7599612,102.225436 61.2673773,101.590735 62.2987827,100.356574 C63.3037419,99.1841218 63.8062139,97.8838653 63.8062139,96.4557654 C63.8062139,95.3979137 63.6078697,94.4811226 63.2111753,93.7053647 C62.8321117,92.9031605 62.338455,92.2860895 61.7301903,91.8541334 C61.0073249,91.2811304 60.2932857,90.9020726 59.5880512,90.7169485 C58.8828167,90.5759016 58.1511469,90.5053792 57.3930199,90.5053792 L50.4112334,90.5053792 L50.4112334,109.784631 Z M74.3626389,109.784631 L77.2849397,109.784631 L77.2849397,90.5053792 L74.3626389,90.5053792 L74.3626389,109.784631 Z M95.4975283,101.930121 L99.4247832,101.930121 L99.4247832,102.935075 C99.4071523,104.142789 99.0280945,105.116879 98.2875983,105.857376 C97.5471021,106.633134 96.6082728,107.021007 95.4710821,107.021007 C94.7834785,107.021007 94.1928535,106.875554 93.6991894,106.584645 C93.1967098,106.337813 92.791206,106.016055 92.482666,105.61936 C92.1036024,105.205035 91.8523664,104.662894 91.7289504,103.992921 C91.5879035,103.322949 91.5173811,102.040323 91.5173811,100.145005 C91.5173811,98.2496872 91.5879035,96.9582459 91.7289504,96.2706423 C91.8523664,95.6183004 92.1036024,95.0849748 92.482666,94.6706496 C92.791206,94.2739552 93.1967098,93.9433815 93.6991894,93.6789185 C94.1928535,93.423271 94.7834785,93.2866339 95.4710821,93.269003 C96.4055178,93.2866339 97.1988947,93.5555005 97.8512366,94.0756109 C98.4771322,94.6221677 98.9090819,95.2833151 99.1470985,96.059073 L102.241299,96.059073 C101.932759,94.4458491 101.192274,93.0927008 100.019822,91.9995873 C98.8473695,90.9152893 97.3311381,90.3643331 95.4710821,90.3467022 C93.954828,90.3643331 92.6898326,90.7257604 91.676058,91.4309948 C90.6446526,92.1274139 89.8953522,92.9207908 89.4281344,93.8111493 C89.1372251,94.2783672 88.9212503,94.8910304 88.7802034,95.6491575 C88.647972,96.4072846 88.5818572,97.9058854 88.5818572,100.145005 C88.5818572,102.348863 88.647972,103.838648 88.7802034,104.614406 C88.8507269,105.028731 88.9388799,105.372528 89.044665,105.645806 C89.1592656,105.910269 89.2870875,106.187951 89.4281344,106.47886 C89.8953522,107.369219 90.6446526,108.153781 91.676058,108.832569 C92.6898326,109.537803 93.954828,109.908046 95.4710821,109.943308 C97.4369233,109.908046 99.0677536,109.242491 100.363622,107.946622 C101.650675,106.641939 102.311822,105.024331 102.347084,103.093752 L102.347084,99.1664969 L95.4975283,99.1664969 L95.4975283,101.930121 Z M119.911742,101.930121 L123.838997,101.930121 L123.838997,102.935075 C123.821366,104.142789 123.442308,105.116879 122.701812,105.857376 C121.961315,106.633134 121.022486,107.021007 119.885296,107.021007 C119.197692,107.021007 118.607067,106.875554 118.113403,106.584645 C117.610923,106.337813 117.205419,106.016055 116.896879,105.61936 C116.517816,105.205035 116.26658,104.662894 116.143164,103.992921 C116.002117,103.322949 115.931594,102.040323 115.931594,100.145005 C115.931594,98.2496872 116.002117,96.9582459 116.143164,96.2706423 C116.26658,95.6183004 116.517816,95.0849748 116.896879,94.6706496 C117.205419,94.2739552 117.610923,93.9433815 118.113403,93.6789185 C118.607067,93.423271 119.197692,93.2866339 119.885296,93.269003 C120.819731,93.2866339 121.613108,93.5555005 122.26545,94.0756109 C122.891346,94.6221677 123.323295,95.2833151 123.561312,96.059073 L126.655513,96.059073 C126.346973,94.4458491 125.606488,93.0927008 124.434035,91.9995873 C123.261583,90.9152893 121.745351,90.3643331 119.885296,90.3467022 C118.369041,90.3643331 117.104046,90.7257604 116.090271,91.4309948 C115.058866,92.1274139 114.309566,92.9207908 113.842348,93.8111493 C113.551438,94.2783672 113.335464,94.8910304 113.194417,95.6491575 C113.062185,96.4072846 112.996071,97.9058854 112.996071,100.145005 C112.996071,102.348863 113.062185,103.838648 113.194417,104.614406 C113.26494,105.028731 113.353093,105.372528 113.458878,105.645806 C113.573479,105.910269 113.701301,106.187951 113.842348,106.47886 C114.309566,107.369219 115.058866,108.153781 116.090271,108.832569 C117.104046,109.537803 118.369041,109.908046 119.885296,109.943308 C121.851137,109.908046 123.481967,109.242491 124.777835,107.946622 C126.064888,106.641939 126.726036,105.024331 126.761297,103.093752 L126.761297,99.1664969 L119.911742,99.1664969 L119.911742,101.930121 Z M141.4301,109.784631 L144.180501,109.784631 L144.180501,101.850782 L149.985433,90.5053792 L146.891233,90.5053792 L142.805301,99.0607123 L138.719369,90.5053792 L135.625168,90.5053792 L141.4301,101.850782 L141.4301,109.784631 Z"></path>
        </g>
    </g>
</svg>