<svg width="200" height="200" viewBox="0 0 200 200" fill="none" xmlns="http://www.w3.org/2000/svg">
<path fill-rule="evenodd" clip-rule="evenodd" d="M200 0H0V200H200V0ZM110.494 45.9388C107.457 44.7428 104.21 44.1708 100.946 44.2568C97.6799 44.1553 94.4267 44.7133 91.381 45.8974C88.3352 47.0815 85.5593 48.8674 83.2192 51.1483L81.363 48.4567C86.664 43.5059 93.6951 40.8317 100.946 41.0082C108.193 40.8527 115.21 43.553 120.483 48.5263L118.627 51.2179C116.298 48.9301 113.532 47.1348 110.494 45.9388ZM101.132 50.8931C105.494 50.8091 109.763 52.1536 113.29 54.7217H113.36C113.989 55.1912 114.578 55.7111 115.123 56.2764L116.979 53.5615C112.692 49.6056 107.033 47.475 101.201 47.6213C98.2368 47.5361 95.2851 48.0443 92.5198 49.1162C89.7544 50.1881 87.2313 51.8021 85.0986 53.8632L86.978 56.578C87.5882 55.8943 88.2644 55.2725 88.9967 54.7217C92.5163 52.1569 96.7776 50.8125 101.132 50.8931ZM111.434 61.5437C108.539 59.0125 104.789 57.677 100.946 57.8078C97.1311 57.7048 93.4181 59.0475 90.5513 61.5669L88.6718 58.852C92.1451 56.0013 96.4993 54.4433 100.993 54.4433C105.486 54.4433 109.84 56.0013 113.313 58.852L111.434 61.5437ZM78.0218 129.972V108.23H81.1773V154.058L79.0659 155.218V159H99.6932V155.218L97.6049 154.058V139.996H103.591V154.104L101.271 155.218V159H121.713V155.218L119.949 154.058V108.416H122.919V129.972C121.883 131.259 121.289 132.845 121.225 134.497C121.221 135.512 121.439 136.515 121.864 137.437C122.289 138.359 122.911 139.177 123.685 139.834L125.541 137.931C124.964 137.497 124.508 136.923 124.214 136.264C123.921 135.604 123.8 134.881 123.864 134.162C123.928 133.443 124.174 132.752 124.579 132.154C124.984 131.557 125.535 131.073 126.179 130.747C126.823 130.422 127.54 130.266 128.261 130.294C128.982 130.323 129.685 130.535 130.301 130.91C130.918 131.285 131.428 131.812 131.785 132.439C132.142 133.067 132.333 133.775 132.339 134.497C132.336 135.158 132.184 135.81 131.895 136.404C131.606 136.999 131.187 137.52 130.669 137.931L132.548 139.81C133.315 139.154 133.93 138.339 134.351 137.422C134.772 136.504 134.988 135.506 134.985 134.497C134.945 132.868 134.393 131.292 133.407 129.995V96.2103C133.346 95.5919 133.063 95.0164 132.611 94.5899C132.159 94.1635 131.568 93.9149 130.947 93.8899H70.0168C69.3984 93.9155 68.8104 94.165 68.3623 94.5918C67.9141 95.0187 67.6363 95.5938 67.5805 96.2103V129.972C66.5172 131.235 65.9557 132.846 66.0027 134.497C66.0022 135.508 66.2219 136.507 66.6466 137.425C67.0714 138.342 67.691 139.156 68.4622 139.81L70.3185 137.908C69.7983 137.504 69.3773 136.987 69.0878 136.396C68.7982 135.805 68.6477 135.155 68.6479 134.497C68.6047 133.914 68.6822 133.329 68.8754 132.778C69.0687 132.227 69.3736 131.721 69.771 131.293C70.1684 130.865 70.6499 130.524 71.1852 130.291C71.7206 130.057 72.2983 129.937 72.8824 129.937C73.4664 129.937 74.0442 130.057 74.5795 130.291C75.1149 130.524 75.5963 130.865 75.9937 131.293C76.3912 131.721 76.696 132.227 76.8893 132.778C77.0825 133.329 77.16 133.914 77.1169 134.497C77.1178 135.161 76.9654 135.816 76.6716 136.412C76.3779 137.008 75.9506 137.527 75.4231 137.931L77.2793 139.834C78.0463 139.167 78.6609 138.344 79.0813 137.419C79.5017 136.494 79.718 135.489 79.7156 134.473C79.6842 132.823 79.0861 131.234 78.0218 129.972ZM116.167 65.1171H85.1914C84.8828 65.117 84.5772 65.1785 84.2926 65.298C84.0081 65.4175 83.7502 65.5926 83.5341 65.813C83.318 66.0334 83.1481 66.2947 83.0343 66.5816C82.9204 66.8685 82.865 67.1753 82.8711 67.4839V87.9961C82.8711 88.6115 83.1156 89.2017 83.5507 89.6369C83.9859 90.072 84.576 90.3165 85.1914 90.3165H116.167C116.783 90.3165 117.373 90.072 117.808 89.6369C118.243 89.2017 118.487 88.6115 118.487 87.9961V67.4375C118.487 66.822 118.243 66.2318 117.808 65.7967C117.373 65.3615 116.783 65.1171 116.167 65.1171ZM90.5276 79.4627C91.1973 79.8964 91.981 80.1206 92.7787 80.1068C93.2998 80.1037 93.8151 79.9981 94.2953 79.7959C94.7756 79.5937 95.2112 79.2988 95.5775 78.9282C95.9438 78.5576 96.2335 78.1185 96.4301 77.6359C96.6267 77.1533 96.7263 76.6368 96.7232 76.1157C96.7277 75.3178 96.4943 74.5367 96.0529 73.8721C95.6115 73.2075 94.982 72.6895 94.2449 72.3842C93.5078 72.079 92.6964 72.0003 91.9144 72.1583C91.1323 72.3163 90.4151 72.7038 89.8543 73.2712C89.2934 73.8387 88.9144 74.5604 88.7656 75.3443C88.6167 76.1282 88.7049 76.9386 89.0187 77.6722C89.3326 78.4057 89.8579 79.0291 90.5276 79.4627ZM105.819 78.9296C105.076 78.1818 104.659 77.1702 104.659 76.1157C104.654 75.3188 104.887 74.5386 105.327 73.8744C105.767 73.2103 106.395 72.6922 107.131 72.3862C107.867 72.0802 108.677 72.0002 109.459 72.1562C110.24 72.3123 110.957 72.6974 111.519 73.2625C112.081 73.8277 112.462 74.5472 112.613 75.3296C112.765 76.112 112.68 76.9217 112.37 77.6557C112.06 78.3898 111.538 79.0148 110.871 79.4513C110.205 79.8878 109.423 80.116 108.626 80.1068C107.572 80.1006 106.563 79.6775 105.819 78.9296ZM94.4348 77.2243C94.6621 76.8985 94.7882 76.5129 94.7974 76.1157V76.1853C94.8127 75.6184 94.6044 75.0683 94.2173 74.6539C93.8337 74.2745 93.3182 74.0583 92.7787 74.0506C92.3815 74.0507 91.9931 74.168 91.6622 74.3878C91.3313 74.6077 91.0727 74.9202 90.9186 75.2864C90.7645 75.6526 90.722 76.0561 90.7962 76.4464C90.8704 76.8367 91.0581 77.1964 91.3357 77.4804C91.6134 77.7645 91.9688 77.9604 92.3572 78.0434C92.7457 78.1265 93.1501 78.0931 93.5196 77.9474C93.8892 77.8017 94.2076 77.5501 94.4348 77.2243ZM107.199 77.5432C106.82 77.1646 106.608 76.6511 106.608 76.1157C106.608 75.5803 106.82 75.0668 107.199 74.6882C107.577 74.3097 108.091 74.097 108.626 74.097C109.162 74.097 109.675 74.3097 110.054 74.6882C110.432 75.0668 110.645 75.5803 110.645 76.1157C110.645 76.6511 110.432 77.1646 110.054 77.5432C109.675 77.9218 109.162 78.1344 108.626 78.1344C108.091 78.1344 107.577 77.9218 107.199 77.5432Z" fill="#FFFAED"/>
</svg>
