<svg width="50" height="50" viewBox="0 0 50 50" fill="none" xmlns="http://www.w3.org/2000/svg">
<path fill-rule="evenodd" clip-rule="evenodd" d="M25 45.8333C36.5059 45.8333 45.8333 36.5059 45.8333 25C45.8333 13.4941 36.5059 4.16667 25 4.16667C13.4941 4.16667 4.16667 13.4941 4.16667 25C4.16667 36.5059 13.4941 45.8333 25 45.8333ZM25 50C38.8071 50 50 38.8071 50 25C50 11.1929 38.8071 0 25 0C11.1929 0 0 11.1929 0 25C0 38.8071 11.1929 50 25 50Z" fill="#E1E1E1"/>
<path fill-rule="evenodd" clip-rule="evenodd" d="M11.1111 25.6944C12.2617 25.6944 13.1945 26.6271 13.1945 27.7777H11.1111C13.1945 27.7777 13.1945 27.7765 13.1945 27.7753L13.1945 27.7731L13.1944 27.7695L13.1944 27.7651C13.1944 27.7635 13.1944 27.7643 13.1945 27.7676L13.1961 27.8158C13.1982 27.8665 13.2029 27.9529 13.2133 28.0699C13.2343 28.3046 13.2778 28.6577 13.3677 29.0889C13.5488 29.9582 13.9087 31.1007 14.6139 32.2291C15.9425 34.3549 18.7219 36.8055 25 36.8055C31.2782 36.8055 34.0575 34.3549 35.3861 32.2291C36.0914 31.1007 36.4513 29.9582 36.6324 29.0889C36.7222 28.6577 36.7657 28.3046 36.7867 28.0699C36.7972 27.9529 36.8019 27.8665 36.804 27.8158L36.8056 27.7676L36.8056 27.7695L36.8056 27.7731L36.8056 27.7753C36.8056 27.7765 36.8056 27.7777 38.8889 27.7777H36.8056C36.8056 26.6271 37.7383 25.6944 38.8889 25.6944C40.0395 25.6944 40.9722 26.6271 40.9722 27.7777H38.8889C40.9722 27.7777 40.9722 27.779 40.9722 27.7804L40.9722 27.7833L40.9722 27.79L40.9721 27.8065L40.9714 27.8516C40.9707 27.8871 40.9694 27.9332 40.967 27.9892C40.9624 28.1013 40.9535 28.2536 40.9369 28.4404C40.9036 28.8133 40.8386 29.3283 40.7114 29.9387C40.4585 31.1528 39.9503 32.7881 38.9195 34.4375C36.7759 37.8672 32.6108 40.9722 25 40.9722C17.3893 40.9722 13.2242 37.8672 11.0806 34.4375C10.0497 32.7881 9.54154 31.1528 9.28861 29.9387C9.16143 29.3283 9.09648 28.8133 9.06318 28.4404C9.0465 28.2536 9.03767 28.1013 9.033 27.9892C9.03066 27.9332 9.02936 27.8871 9.02865 27.8516L9.02796 27.8065L9.02783 27.79L9.02781 27.7833L9.0278 27.7804C9.0278 27.779 9.0278 27.7777 11.1111 27.7777H9.0278C9.0278 26.6271 9.96054 25.6944 11.1111 25.6944ZM36.8056 27.7676L36.8056 27.7651L36.8056 27.7644C36.8056 27.7648 36.8056 27.7658 36.8056 27.7676Z" fill="#E1E1E1"/>
<path fill-rule="evenodd" clip-rule="evenodd" d="M16.6667 12.332C16.5998 12.3081 16.5299 12.2839 16.4574 12.2597C15.8326 12.0515 14.8985 11.8056 13.8889 11.8056C12.8733 11.8056 11.5554 12.0609 10.5061 13.1102C9.45672 14.1596 9.0278 15.6511 9.0278 17.3612C9.0278 18.0772 9.29459 18.695 9.50496 19.096C9.73614 19.5367 10.0342 19.9642 10.3369 20.352C10.9441 21.1299 11.717 21.9338 12.4393 22.6335C13.1711 23.3424 13.8968 23.9885 14.4361 24.4547C14.7068 24.6888 16.4556 26.1204 16.6154 26.2538L17.9167 25.2778L17.9239 25.2724L18.8485 24.5445C19.3934 24.1017 20.1278 23.4825 20.8694 22.7873C21.6008 22.1015 22.3897 21.2951 23.0113 20.4792C23.3226 20.0707 23.6257 19.6162 23.8581 19.1368C24.0816 18.6758 24.3056 18.0587 24.3056 17.3612C24.3056 15.6511 23.8767 14.1596 22.8273 13.1102C21.778 12.0609 20.46 11.8056 19.4445 11.8056C18.4349 11.8056 17.5008 12.0515 16.8759 12.2597C16.8034 12.2839 16.7336 12.3081 16.6667 12.332ZM13.1977 17.1659C13.271 17.3044 13.4062 17.5125 13.6215 17.7883C14.056 18.345 14.6719 18.9951 15.3385 19.6409C15.8132 20.1008 16.2911 20.5368 16.7092 20.9072C17.1121 20.5686 17.5675 20.1713 18.0196 19.7475C18.677 19.1312 19.277 18.5053 19.697 17.954C19.9067 17.6789 20.0666 17.402 20.138 17.2548C20.1507 17.2286 20.1311 17.2714 20.138 17.2548C20.1297 16.7888 20.0678 16.4877 20.0071 16.3056C19.9456 16.121 19.4445 15.9723 19.4445 15.9723C19.4445 15.9723 18.6104 16.0736 18.1936 16.2126C17.9976 16.2779 17.597 16.4475 17.597 16.4475L16.6667 16.9126L15.6073 16.3898C15.5849 16.3793 15.6614 16.4129 15.6073 16.3898C15.4982 16.343 15.3358 16.2779 15.1398 16.2126C14.723 16.0736 14.2682 15.9723 13.8889 15.9723C13.5096 15.9723 13.3324 16.2994 13.3263 16.3056C13.2695 16.4758 13.2117 16.7501 13.1977 17.1659Z" fill="#E1E1E1"/>
<path fill-rule="evenodd" clip-rule="evenodd" d="M33.3889 12.332C33.322 12.3081 33.2521 12.2839 33.1796 12.2597C32.5548 12.0515 31.6207 11.8056 30.6111 11.8056C29.5955 11.8056 28.2776 12.0609 27.2282 13.1102C26.1789 14.1596 25.75 15.6511 25.75 17.3612C25.75 18.0772 26.0168 18.695 26.2272 19.096C26.4583 19.5367 26.7564 19.9642 27.0591 20.352C27.6662 21.1299 28.4392 21.9338 29.1615 22.6335C29.8933 23.3424 30.619 23.9885 31.1583 24.4547C31.429 24.6888 33.1778 26.1204 33.3376 26.2538L34.6389 25.2778L34.6461 25.2724L35.5707 24.5445C36.1156 24.1017 36.85 23.4825 37.5915 22.7873C38.323 22.1015 39.1119 21.2951 39.7335 20.4792C40.0448 20.0707 40.3479 19.6162 40.5803 19.1368C40.8038 18.6758 41.0278 18.0587 41.0278 17.3612C41.0278 15.6511 40.5989 14.1596 39.5495 13.1102C38.5002 12.0609 37.1822 11.8056 36.1667 11.8056C35.1571 11.8056 34.223 12.0515 33.5981 12.2597C33.5256 12.2839 33.4558 12.3081 33.3889 12.332ZM29.9199 17.1659C29.9932 17.3044 30.1284 17.5125 30.3437 17.7883C30.7782 18.345 31.3941 18.9951 32.0607 19.6409C32.5354 20.1008 33.0133 20.5368 33.4314 20.9072C33.8343 20.5686 34.2897 20.1713 34.7418 19.7475C35.3992 19.1312 35.9992 18.5053 36.4192 17.954C36.6289 17.6789 36.7888 17.402 36.8602 17.2548C36.8729 17.2286 36.8533 17.2714 36.8602 17.2548C36.8519 16.7888 36.79 16.4877 36.7293 16.3056C36.6678 16.121 36.1667 15.9723 36.1667 15.9723C36.1667 15.9723 35.3326 16.0736 34.9158 16.2126C34.7198 16.2779 34.3192 16.4475 34.3192 16.4475L33.3889 16.9126L32.3295 16.3898C32.3071 16.3793 32.3836 16.4129 32.3295 16.3898C32.2204 16.343 32.058 16.2779 31.862 16.2126C31.4452 16.0736 30.9904 15.9723 30.6111 15.9723C30.2318 15.9723 30.0546 16.2994 30.0485 16.3056C29.9917 16.4758 29.9339 16.7501 29.9199 17.1659Z" fill="#E1E1E1"/>
</svg>
