<?xml version="1.0" encoding="UTF-8" standalone="no"?>
<svg width="200px" height="200px" viewBox="0 0 200 200" version="1.1" xmlns="http://www.w3.org/2000/svg" xmlns:xlink="http://www.w3.org/1999/xlink">
    <!-- Generator: Sketch 3.7 (28169) - http://www.bohemiancoding.com/sketch -->
    <title>frida_and_fred</title>
    <desc>Created with Sketch.</desc>
    <defs></defs>
    <g id="Page-1" stroke="none" stroke-width="1" fill="none" fill-rule="evenodd" stroke-linecap="round" stroke-linejoin="round">
        <g id="frida_and_fred">
            <path d="M74.3321,106.577261 L79.55066,94.3084614 L80.27642,94.3084614 L85.49498,106.577261 L84.54458,106.577261 L82.83386,102.533741 L76.97594,102.533741 L75.26522,106.577261 L74.3321,106.577261 Z M79.91354,95.3798214 L77.1833,101.807981 L82.59194,101.807981 L79.91354,95.3798214 Z" id="Path" stroke="#000000" stroke-width="0.5" fill-opacity="0.876443614" fill="#000000"></path>
            <path d="M55.99034,106.577261 L55.99034,94.3084614 L60.06842,94.3084614 C61.0361048,94.3084614 61.8856963,94.4697398 62.61722,94.7923014 C63.3487437,95.114863 63.9564176,95.5526187 64.44026,96.1055814 C64.9241024,96.6585442 65.2869788,97.3065377 65.5289,98.0495814 C65.7708212,98.7926251 65.89178,99.5846172 65.89178,100.425581 C65.89178,101.358706 65.7564214,102.202538 65.4857,102.957101 C65.2149786,103.711665 64.8261825,104.356779 64.3193,104.892461 C63.8124175,105.428144 63.1989836,105.84286 62.47898,106.136621 C61.7589764,106.430383 60.9554644,106.577261 60.06842,106.577261 L55.99034,106.577261 Z M65.0105,100.425581 C65.0105,99.6537376 64.9010611,98.9423847 64.68218,98.2915014 C64.4632989,97.6406182 64.1436221,97.0790238 63.72314,96.6067014 C63.3026579,96.1343791 62.7871431,95.7657427 62.17658,95.5007814 C61.5660169,95.2358201 60.863304,95.1033414 60.06842,95.1033414 L56.87162,95.1033414 L56.87162,105.782381 L60.06842,105.782381 C60.874824,105.782381 61.5861769,105.647023 62.2025,105.376301 C62.8188231,105.10558 63.3343379,104.728304 63.74906,104.244461 C64.1637821,103.760619 64.4776989,103.193265 64.69082,102.542381 C64.9039411,101.891498 65.0105,101.185905 65.0105,100.425581 Z" id="Path" stroke="#000000" stroke-width="0.5" fill-opacity="0.876443614" fill="#000000"></path>
            <polygon id="Path" stroke="#000000" stroke-width="0.5" fill-opacity="0.876443614" fill="#000000" points="44.18042 106.577261 44.18042 94.3257414 45.0617 94.3257414 45.0617 106.577261"></polygon>
            <path d="M25.16474,106.577261 L25.16474,94.3084614 L30.27962,94.3084614 C30.7980226,94.3084614 31.2760978,94.4179003 31.71386,94.6367814 C32.1516222,94.8556625 32.5260184,95.1465396 32.83706,95.5094214 C33.1481016,95.8723032 33.3928991,96.2812591 33.57146,96.7363014 C33.7500209,97.1913437 33.8393,97.6492591 33.8393,98.1100614 C33.8393,98.5593437 33.7701807,98.9942193 33.63194,99.4147014 C33.4936993,99.8351835 33.2978613,100.21246 33.04442,100.546541 C32.7909787,100.880623 32.4748189,101.103446 32.1176972,101.322327 C32.1176972,101.322327 32.7399994,101.586826 33.1164472,101.946221 C33.4928949,102.305617 33.8392999,102.706697 33.8392999,103.256552 L33.8392999,106.577261 L32.99258,106.577261 C32.99258,106.577261 32.99258,104.363455 32.99258,103.256551 C32.99258,102.819775 32.658421,102.592722 32.4384869,102.397788 C32.2185529,102.202854 31.7370835,101.946221 31.3323029,101.946221 C30.7463635,101.946221 30.02042,101.946221 30.02042,101.946221 L26.04602,101.946221 L26.04602,106.577261 L25.16474,106.577261 Z M26.04602,101.134061 L30.34874,101.134061 C30.740422,101.134061 31.0975384,101.047662 31.4201,100.874861 C31.7426616,100.702061 32.0191388,100.474543 32.24954,100.192301 C32.4799412,99.91006 32.6556194,99.5875032 32.77658,99.2246214 C32.8975406,98.8617396 32.95802,98.4902233 32.95802,98.1100614 C32.95802,97.7183795 32.8860207,97.3411032 32.74202,96.9782214 C32.5980193,96.6153396 32.4021812,96.2956628 32.1545,96.0191814 C31.9068188,95.7427 31.6188216,95.5209423 31.2905,95.3539014 C30.9621784,95.1868606 30.6079419,95.1033414 30.22778,95.1033414 L26.04602,95.1033414 L26.04602,101.134061 Z" id="Path" stroke="#000000" stroke-width="0.5" fill-opacity="0.876443614" fill="#000000"></path>
            <polygon id="Path" stroke="#000000" stroke-width="0.5" fill-opacity="0.876443614" fill="#000000" points="7.30682 106.577261 7.30682 94.3084614 15.29018 94.3084614 15.29018 95.1033414 8.1881 95.1033414 8.1881 99.9763014 14.21882 99.9763014 14.21882 100.736621 8.1881 100.736621 8.1881 106.577261"></polygon>
            <path d="M183.28314,106.577261 L183.28314,94.3084614 L187.36122,94.3084614 C188.328905,94.3084614 189.178496,94.4697398 189.91002,94.7923014 C190.641544,95.114863 191.249218,95.5526187 191.73306,96.1055814 C192.216902,96.6585442 192.579779,97.3065377 192.8217,98.0495814 C193.063621,98.7926251 193.18458,99.5846172 193.18458,100.425581 C193.18458,101.358706 193.049221,102.202538 192.7785,102.957101 C192.507779,103.711665 192.118983,104.356779 191.6121,104.892461 C191.105217,105.428144 190.491784,105.84286 189.77178,106.136621 C189.051776,106.430383 188.248264,106.577261 187.36122,106.577261 L183.28314,106.577261 Z M192.3033,100.425581 C192.3033,99.6537376 192.193861,98.9423847 191.97498,98.2915014 C191.756099,97.6406182 191.436422,97.0790238 191.01594,96.6067014 C190.595458,96.1343791 190.079943,95.7657427 189.46938,95.5007814 C188.858817,95.2358201 188.156104,95.1033414 187.36122,95.1033414 L184.16442,95.1033414 L184.16442,105.782381 L187.36122,105.782381 C188.167624,105.782381 188.878977,105.647023 189.4953,105.376301 C190.111623,105.10558 190.627138,104.728304 191.04186,104.244461 C191.456582,103.760619 191.770499,103.193265 191.98362,102.542381 C192.196741,101.891498 192.3033,101.185905 192.3033,100.425581 Z" id="Path" stroke="#000000" stroke-width="0.5" fill-opacity="0.876443614" fill="#000000"></path>
            <polygon id="Path" stroke="#000000" stroke-width="0.5" fill-opacity="0.876443614" fill="#000000" points="173.14938 105.782381 173.14938 106.577261 164.97594 106.577261 164.97594 94.3084614 172.99386 94.3084614 172.99386 95.1033414 165.85722 95.1033414 165.85722 99.9244614 172.0953 99.9244614 172.0953 100.684781 165.85722 100.684781 165.85722 105.782381"></polygon>
            <path d="M145.80474,106.577261 L145.80474,94.3084614 L150.91962,94.3084614 C151.438023,94.3084614 151.916098,94.4179003 152.35386,94.6367814 C152.791622,94.8556625 153.166018,95.1465396 153.47706,95.5094214 C153.788102,95.8723032 154.032899,96.2812591 154.21146,96.7363014 C154.390021,97.1913437 154.4793,97.6492591 154.4793,98.1100614 C154.4793,98.5593437 154.410181,98.9942193 154.27194,99.4147014 C154.133699,99.8351835 153.937861,100.21246 153.68442,100.546541 C153.430979,100.880623 153.114819,101.103446 152.757697,101.322327 C152.757697,101.322327 153.379999,101.586826 153.756447,101.946221 C154.132895,102.305617 154.4793,102.706697 154.4793,103.256552 L154.4793,106.577261 L153.63258,106.577261 C153.63258,106.577261 153.63258,104.363455 153.63258,103.256551 C153.63258,102.819775 153.298421,102.592722 153.078487,102.397788 C152.858553,102.202854 152.377083,101.946221 151.972303,101.946221 C151.386364,101.946221 150.66042,101.946221 150.66042,101.946221 L146.68602,101.946221 L146.68602,106.577261 L145.80474,106.577261 Z M146.68602,101.134061 L150.98874,101.134061 C151.380422,101.134061 151.737538,101.047662 152.0601,100.874861 C152.382662,100.702061 152.659139,100.474543 152.88954,100.192301 C153.119941,99.91006 153.295619,99.5875032 153.41658,99.2246214 C153.537541,98.8617396 153.59802,98.4902233 153.59802,98.1100614 C153.59802,97.7183795 153.526021,97.3411032 153.38202,96.9782214 C153.238019,96.6153396 153.042181,96.2956628 152.7945,96.0191814 C152.546819,95.7427 152.258822,95.5209423 151.9305,95.3539014 C151.602178,95.1868606 151.247942,95.1033414 150.86778,95.1033414 L146.68602,95.1033414 L146.68602,101.134061 Z" id="Path" stroke="#000000" stroke-width="0.5" fill-opacity="0.876443614" fill="#000000"></path>
            <polygon id="Path" stroke="#000000" stroke-width="0.5" fill-opacity="0.876443614" fill="#000000" points="128.10234 106.577261 128.10234 94.3084614 136.0857 94.3084614 136.0857 95.1033414 128.98362 95.1033414 128.98362 99.9763014 135.01434 99.9763014 135.01434 100.736621 128.98362 100.736621 128.98362 106.577261"></polygon>
            <path d="M105.698486,101.120258 L101.076718,109.650322 L110.461196,109.650322 L105.839429,101.120258 L110.461196,92.5901932 L101.076718,92.5901932 L105.698486,101.120258 Z M105.768957,105.867612 L103.719406,109.650322 L107.818509,109.650322 L105.768957,105.867612 Z M105.698486,101.120258 L105.768957,100.990193 L105.839429,101.120258 L105.768957,101.250322 L105.698486,101.120258 Z M105.768957,96.3729029 L107.818509,92.5901932 L103.719406,92.5901932 L105.768957,96.3729029 Z" id="Path-67" stroke="#303A38" stroke-width="1.25"></path>
        </g>
    </g>
</svg>