<?xml version="1.0" encoding="UTF-8" standalone="no"?>
<svg width="410px" height="240px" viewBox="0 0 410 240" version="1.1" xmlns="http://www.w3.org/2000/svg" xmlns:xlink="http://www.w3.org/1999/xlink" xmlns:sketch="http://www.bohemiancoding.com/sketch/ns">
    <!-- Generator: Sketch 3.4.4 (17249) - http://www.bohemiancoding.com/sketch -->
    <title>frida_and_fred</title>
    <desc>Created with Sketch.</desc>
    <defs></defs>
    <g id="Page-1" stroke="none" stroke-width="1" fill="none" fill-rule="evenodd" sketch:type="MSPage">
        <g id="frida_and_fred" sketch:type="MSArtboardGroup">
            <g id="Path-+-Path-67" sketch:type="MSLayerGroup" transform="translate(38.000000, 109.000000)">
                <path d="M123.824477,15.9367742 L122.628228,19.5161605 C122.525984,19.8066629 122.423741,20.1179107 122.321497,20.4499135 C122.219253,20.7819162 122.117011,21.0827891 122.014767,21.3525413 C121.912523,21.6222935 121.794944,21.8453545 121.662027,22.0217309 C121.52911,22.1981074 121.370634,22.2862943 121.186595,22.2862943 C120.900311,22.2862943 120.695826,22.182545 120.573134,21.9750433 C120.450441,21.7675416 120.491338,21.3629193 120.695826,20.7611644 L127.198512,1.52585366 C127.403,0.88259841 127.822195,0.56097561 128.456107,0.56097561 C129.130918,0.56097561 129.570561,0.88259841 129.775049,1.52585366 L136.277735,20.7922895 C136.339082,20.9582909 136.390203,21.1242898 136.431101,21.2902911 C136.471998,21.4562925 136.482222,21.6171039 136.461774,21.7727301 C136.441325,21.9283564 136.379979,22.0528556 136.277735,22.1462313 C136.175491,22.2396071 136.011903,22.2862943 135.786967,22.2862943 C135.357542,22.2862943 135.071263,21.9646715 134.928121,21.3214162 L133.118411,15.9367742 L123.824477,15.9367742 Z M132.688988,14.598395 L128.486781,2.05498033 L124.284573,14.598395 L132.688988,14.598395 Z M93.5644234,0.56097561 C95.0162883,0.56097561 96.2738708,0.835911229 97.3372086,1.38579072 C98.4005463,1.9356702 99.2798316,2.68785256 99.9750909,3.64236035 C100.67035,4.59686813 101.186675,5.70698554 101.52408,6.97274587 C101.861485,8.2385062 102.030185,9.58724697 102.030185,11.0190087 C102.030185,12.4300202 101.866597,13.768386 101.539416,15.0341463 C101.212236,16.2999067 100.706135,17.420399 100.0211,18.395657 C99.3360656,19.3709149 98.4721166,20.1438471 97.4292277,20.7144768 C96.3863388,21.2851064 95.1492048,21.570417 93.7177886,21.570417 L87.9819282,21.570417 C87.7160938,21.570417 87.5116088,21.5548546 87.3684672,21.5237293 C87.2253256,21.4926041 87.1230831,21.4407294 87.0617367,21.3681039 C87.0003903,21.2954783 86.9646054,21.1865415 86.954381,21.0412903 C86.9441566,20.8960391 86.9390445,20.7092904 86.9390445,20.4810386 L86.9390445,1.65035405 C86.9390445,1.42210219 86.9441566,1.23535347 86.954381,1.09010228 C86.9646054,0.944851096 87.0003903,0.835914342 87.0617367,0.763288749 C87.1230831,0.690663156 87.2253256,0.638788511 87.3684672,0.607663257 C87.5116088,0.576538003 87.7160938,0.56097561 87.9819282,0.56097561 L93.5644234,0.56097561 Z M88.3500048,20.2320378 L93.7177886,20.2320378 C95.8853617,20.2320378 97.5774747,19.4279808 98.7941785,17.8198426 C100.010882,16.2117045 100.619225,13.9136577 100.619225,10.9256334 C100.619225,7.93760898 99.9802095,5.68624938 98.7021593,4.17148702 C97.4241091,2.65672466 95.5070627,1.89935484 92.9509624,1.89935484 L88.3500048,1.89935484 L88.3500048,20.2320378 Z M66.3094471,21.6326672 C66.3094471,22.0684207 66.0742894,22.2862943 65.6039669,22.2862943 C65.1540933,22.2862943 64.9291598,22.0684207 64.9291598,21.6326672 L64.9291598,1.21460268 C64.9291598,0.778849119 65.1540933,0.56097561 65.6039669,0.56097561 C66.0742894,0.56097561 66.3094471,0.789224048 66.3094471,1.24572777 L66.3094471,21.6326672 Z M31.3640857,1.68147915 C31.3640857,1.20422526 31.4407675,0.89816485 31.5941335,0.763288749 C31.7474996,0.628412648 32.0797876,0.56097561 32.5910077,0.56097561 L37.7747532,0.56097561 C39.758287,0.56097561 41.2868121,1.03822235 42.3603742,1.99273013 C43.4339364,2.94723792 43.9707094,4.3686032 43.9707094,6.25686861 C43.9707094,8.08288351 43.4492727,9.51462371 42.4063838,10.5521322 C41.8161942,11.1392769 41.5138538,11.399437 40.6027697,11.6543038 C40.5781331,11.6611957 42.4288409,12.5776586 43.0753804,13.8640819 C43.7219198,15.1505051 43.8326805,16.3704822 43.8326805,16.804238 L43.8326805,20.8856648 C43.8326805,20.8856648 43.9707096,21.8816679 43.2010746,21.881668 C42.4314396,21.881668 42.5694687,20.8856648 42.5694687,20.8856648 L42.5694687,16.804238 C42.5694687,15.8450977 42.2214737,15.0086063 42.0049549,14.60038 C40.7975851,12.323996 38.1936544,12.1083871 37.7747532,12.1083871 L33.4498531,12.1083871 L32.775046,12.1083871 L32.775046,20.8856648 C32.775046,21.5496702 32.5603368,21.881668 32.1309119,21.881668 C31.6196919,21.881668 31.3640857,21.5496702 31.3640857,20.8856648 L31.3640857,1.68147915 Z M32.775046,10.801133 L37.7747532,10.801133 C40.9647664,10.801133 42.5597491,9.31751811 42.5597491,6.3502439 C42.5597491,3.38296969 40.9647664,1.89935484 37.7747532,1.89935484 L32.775046,1.89935484 L32.775046,10.801133 Z M9.93806832,10.0230055 C10.3061468,10.0230055 10.5668651,10.0852551 10.7202311,10.2097561 C10.8735971,10.3342571 10.950279,10.5313808 10.950279,10.801133 C10.950279,10.9878845 10.8378123,11.1331335 10.6128754,11.2368843 C10.347041,11.3406352 10.1221075,11.3925098 9.93806832,11.3925098 L1.41096032,11.3925098 L1.41096032,20.8856648 C1.41096032,21.2384177 1.3649512,21.4926035 1.27293159,21.6482297 C1.18091198,21.803856 0.981539146,21.881668 0.674807108,21.881668 C0.388523873,21.881668 0.204487411,21.8090435 0.122692202,21.6637923 C0.0408969915,21.5185411 0,21.2591679 0,20.8856648 L0,1.65035405 C0,1.2146005 0.0613454873,0.924102483 0.184038302,0.778851298 C0.306731117,0.633600113 0.593010058,0.56097561 1.04288371,0.56097561 L10.7048946,0.56097561 C11.3592563,0.56097561 11.6864322,0.799598977 11.6864322,1.27685287 C11.6864322,1.54660507 11.6097503,1.72816633 11.4563843,1.82154209 C11.3030183,1.91491785 11.0525242,1.96160504 10.7048946,1.96160504 L1.41096032,1.96160504 L1.41096032,10.0230055 L9.93806832,10.0230055 Z M246.510708,1.68147915 C246.510708,1.20422526 246.58739,0.89816485 246.740756,0.763288749 C246.894122,0.628412648 247.22641,0.56097561 247.73763,0.56097561 L252.921376,0.56097561 C254.90491,0.56097561 256.433435,1.03822235 257.506997,1.99273013 C258.580559,2.94723792 259.117332,4.3686032 259.117332,6.25686861 C259.117332,8.08288351 258.595895,9.51462371 257.553007,10.5521322 C256.962817,11.1392769 256.660476,11.399437 255.749392,11.6543038 C255.724756,11.6611957 257.575464,12.5776586 258.222003,13.8640819 C258.868543,15.1505051 258.979303,16.3704822 258.979303,16.804238 L258.979303,20.8856648 C258.979303,20.8856648 259.117332,21.8816679 258.347697,21.881668 C257.578062,21.881668 257.716091,20.8856648 257.716091,20.8856648 L257.716091,16.804238 C257.716091,15.8450977 257.368096,15.0086063 257.151578,14.60038 C255.944208,12.323996 253.340277,12.1083871 252.921376,12.1083871 L248.596476,12.1083871 L247.921669,12.1083871 L247.921669,20.8856648 C247.921669,21.5496702 247.70696,21.881668 247.277535,21.881668 C246.766315,21.881668 246.510708,21.5496702 246.510708,20.8856648 L246.510708,1.68147915 Z M247.921669,10.801133 L252.921376,10.801133 C256.111389,10.801133 257.706372,9.31751811 257.706372,6.3502439 C257.706372,3.38296969 256.111389,1.89935484 252.921376,1.89935484 L247.921669,1.89935484 L247.921669,10.801133 Z M224.534444,10.0230055 C224.902522,10.0230055 225.163241,10.0852551 225.316607,10.2097561 C225.469973,10.3342571 225.546655,10.5313808 225.546655,10.801133 C225.546655,10.9878845 225.434188,11.1331335 225.209251,11.2368843 C224.943417,11.3406352 224.718483,11.3925098 224.534444,11.3925098 L216.007336,11.3925098 L216.007336,20.8856648 C216.007336,21.2384177 215.961327,21.4926035 215.869307,21.6482297 C215.777288,21.803856 215.577915,21.881668 215.271183,21.881668 C214.984899,21.881668 214.800863,21.8090435 214.719068,21.6637923 C214.637273,21.5185411 214.596376,21.2591679 214.596376,20.8856648 L214.596376,1.65035405 C214.596376,1.2146005 214.657721,0.924102483 214.780414,0.778851298 C214.903107,0.633600113 215.189386,0.56097561 215.639259,0.56097561 L225.30127,0.56097561 C225.955632,0.56097561 226.282808,0.799598977 226.282808,1.27685287 C226.282808,1.54660507 226.206126,1.72816633 226.05276,1.82154209 C225.899394,1.91491785 225.6489,1.96160504 225.30127,1.96160504 L216.007336,1.96160504 L216.007336,10.0230055 L224.534444,10.0230055 Z M325.21846,0.56097561 C326.670325,0.56097561 327.927907,0.835911229 328.991245,1.38579072 C330.054583,1.9356702 330.933868,2.68785256 331.629127,3.64236035 C332.324386,4.59686813 332.840711,5.70698554 333.178116,6.97274587 C333.515521,8.2385062 333.684222,9.58724697 333.684222,11.0190087 C333.684222,12.4300202 333.520634,13.768386 333.193453,15.0341463 C332.866272,16.2999067 332.360172,17.420399 331.675137,18.395657 C330.990102,19.3709149 330.126153,20.1438471 329.083264,20.7144768 C328.040375,21.2851064 326.803241,21.570417 325.371825,21.570417 L319.635964,21.570417 C319.37013,21.570417 319.165645,21.5548546 319.022503,21.5237293 C318.879362,21.4926041 318.777119,21.4407294 318.715773,21.3681039 C318.654427,21.2954783 318.618642,21.1865415 318.608417,21.0412903 C318.598193,20.8960391 318.593081,20.7092904 318.593081,20.4810386 L318.593081,1.65035405 C318.593081,1.42210219 318.598193,1.23535347 318.608417,1.09010228 C318.618642,0.944851096 318.654427,0.835914342 318.715773,0.763288749 C318.777119,0.690663156 318.879362,0.638788511 319.022503,0.607663257 C319.165645,0.576538003 319.37013,0.56097561 319.635964,0.56097561 L325.21846,0.56097561 Z M320.004041,20.2320378 L325.371825,20.2320378 C327.539398,20.2320378 329.231511,19.4279808 330.448215,17.8198426 C331.664918,16.2117045 332.273261,13.9136577 332.273261,10.9256334 C332.273261,7.93760898 331.634246,5.68624938 330.356196,4.17148702 C329.078145,2.65672466 327.161099,1.89935484 324.604999,1.89935484 L320.004041,1.89935484 L320.004041,20.2320378 Z M282.587237,20.2631629 L290.776942,20.2631629 C291.063225,20.2631629 291.36484,20.2527879 291.681797,20.2320378 C291.998753,20.2112876 292.285032,20.2164751 292.540642,20.2476003 C292.796252,20.2787256 293.005849,20.3409751 293.169439,20.4343509 C293.33303,20.5277267 293.414824,20.6885381 293.414824,20.9167899 C293.414824,21.2072923 293.338142,21.3888536 293.184776,21.4614792 C293.03141,21.5341047 292.780916,21.570417 292.433286,21.570417 L282.21916,21.570417 C281.830633,21.570417 281.559691,21.5081674 281.406325,21.3836664 C281.252959,21.2591654 281.176277,20.9582924 281.176277,20.4810386 L281.176277,1.65035405 C281.176277,1.23535067 281.242734,0.950040117 281.375652,0.794413847 C281.508569,0.638787577 281.789736,0.56097561 282.21916,0.56097561 L292.126556,0.56097561 C292.453737,0.56097561 292.699119,0.60766279 292.862709,0.701038552 C293.026299,0.794414314 293.108093,0.965600643 293.108093,1.21460268 C293.108093,1.46360471 293.026299,1.63479104 292.862709,1.7281668 C292.699119,1.82154256 292.453737,1.86822974 292.126556,1.86822974 L282.587237,1.86822974 L282.587237,10.0541306 L291.819825,10.0541306 C292.187904,10.0541306 292.44351,10.0956303 292.586652,10.178631 C292.729793,10.2616317 292.801363,10.4483804 292.801363,10.7388828 C292.801363,10.9878848 292.729793,11.1538837 292.586652,11.2368843 C292.44351,11.319885 292.187904,11.3613847 291.819825,11.3613847 L282.587237,11.3613847 L282.587237,20.2631629 Z" id="Path" fill="#000000" sketch:type="MSShapeGroup"></path>
                <path d="M174.430652,11.3932335 L168.375618,22.786467 L180.670338,22.786467 L174.615303,11.3932335 L180.670338,0 L168.375618,5.15143483e-14 L174.430652,11.3932335 Z M174.522978,17.7340673 L171.837835,22.786467 L177.20812,22.786467 L174.522978,17.7340673 Z M174.430652,11.3932335 L174.522978,11.2195122 L174.615303,11.3932335 L174.522978,11.5669548 L174.430652,11.3932335 Z M174.522978,5.0523997 L177.20812,7.99360578e-15 L171.837835,3.01980663e-14 L174.522978,5.0523997 Z" id="Path-67" stroke="#000000" stroke-width="1.42560003" stroke-linecap="round" stroke-linejoin="round" sketch:type="MSShapeGroup"></path>
            </g>
        </g>
    </g>
</svg>