<svg width="20" height="20" viewBox="0 0 20 20" fill="none" xmlns="http://www.w3.org/2000/svg">
<path fill-rule="evenodd" clip-rule="evenodd" d="M11.4905 6.34835C12.955 7.81282 12.955 10.1872 11.4905 11.6517C10.026 13.1161 7.65165 13.1161 6.18718 11.6517C4.72272 10.1872 4.72272 7.81282 6.18718 6.34835C7.65165 4.88388 10.026 4.88388 11.4905 6.34835ZM14.0537 12.4471C15.6615 10.0204 15.3963 6.71866 13.2583 4.58058C10.8175 2.13981 6.86019 2.13981 4.41942 4.58058C1.97864 7.02136 1.97864 10.9786 4.41942 13.4194C6.55749 15.5575 9.85925 15.8227 12.286 14.2149L15.5563 17.4853L17.3241 15.7175L14.0537 12.4471Z" fill="black"/>
</svg>
