<svg width="20" height="20" viewBox="0 0 20 20" fill="none" xmlns="http://www.w3.org/2000/svg">
<path fill-rule="evenodd" clip-rule="evenodd" d="M8.75 17.5V15.8696C8.02012 15.7149 7.33925 15.4276 6.73382 15.0339L5.58057 16.1872L3.8128 14.4194L4.96605 13.2662C4.57243 12.6607 4.28507 11.9799 4.13039 11.25H2.5V8.75H4.13039C4.28507 8.02013 4.57243 7.33926 4.96605 6.73384L3.8128 5.58058L5.58057 3.81282L6.73382 4.96607C7.33925 4.57244 8.02012 4.28507 8.75 4.13039V2.5H11.25V4.13039C11.9799 4.28507 12.6607 4.57243 13.2662 4.96605L14.4194 3.81281L16.1872 5.58058L15.0339 6.73382C15.4276 7.33925 15.7149 8.02012 15.8696 8.75H17.5V11.25H15.8696C15.7149 11.9799 15.4276 12.6608 15.0339 13.2662L16.1872 14.4194L14.4194 16.1872L13.2662 15.0339C12.6607 15.4276 11.9799 15.7149 11.25 15.8696V17.5H8.75ZM8.75 13.2702C8.6897 13.2471 8.6302 13.2224 8.57156 13.1962C7.78682 12.8449 7.15505 12.2132 6.8038 11.4284C6.77755 11.3698 6.75287 11.3103 6.72981 11.25C6.58134 10.8618 6.5 10.4404 6.5 10C6.5 9.5596 6.58134 9.1382 6.72981 8.75C6.75287 8.68971 6.77755 8.63022 6.8038 8.57158C7.15505 7.78683 7.78682 7.15506 8.57156 6.80381C8.6302 6.77756 8.6897 6.75288 8.75 6.72981C9.1382 6.58134 9.5596 6.5 10 6.5C10.4404 6.5 10.8618 6.58134 11.25 6.72981C11.3103 6.75287 11.3698 6.77755 11.4284 6.8038C12.2132 7.15505 12.8449 7.78682 13.1962 8.57156C13.2224 8.6302 13.2471 8.6897 13.2702 8.75C13.4187 9.1382 13.5 9.5596 13.5 10C13.5 10.4404 13.4187 10.8618 13.2702 11.25C13.2471 11.3103 13.2224 11.3698 13.1962 11.4284C12.8449 12.2132 12.2132 12.845 11.4284 13.1962C11.3698 13.2224 11.3103 13.2471 11.25 13.2702C10.8618 13.4187 10.4404 13.5 10 13.5C9.5596 13.5 9.1382 13.4187 8.75 13.2702Z" fill="#FFFAED"/>
</svg>
