<svg width="33" height="34" viewBox="0 0 33 34" fill="none" xmlns="http://www.w3.org/2000/svg">
<path fill-rule="evenodd" clip-rule="evenodd" d="M20 13C20 16.866 16.866 20 13 20C9.134 20 5.99999 16.866 5.99999 13C5.99999 9.13401 9.134 6 13 6C16.866 6 20 9.13401 20 13ZM19.1912 24.4339C17.3505 25.4327 15.2415 26 13 26C5.82029 26 0 20.1797 0 13C0 5.8203 5.82029 0 13 0C20.1797 0 26 5.8203 26 13C26 15.7617 25.1388 18.3222 23.6704 20.4278L32.1213 28.8787C33.2929 30.0503 33.2929 31.9498 32.1213 33.1213C30.9497 34.2929 29.0502 34.2929 27.8787 33.1213L19.1912 24.4339Z" fill="#E1E1E1"/>
</svg>
