<svg width="20" height="20" viewBox="0 0 20 20" fill="none" xmlns="http://www.w3.org/2000/svg">
<path fill-rule="evenodd" clip-rule="evenodd" d="M3.67556 8.92098C3.61873 8.688 3.58086 8.4881 3.55609 8.33483C3.58107 8.29448 3.60978 8.25001 3.64248 8.202C3.82866 7.92858 4.1427 7.54204 4.63128 7.14774C5.09613 6.77259 5.73967 6.37367 6.61631 6.06231C6.23186 6.70139 6.01075 7.44987 6.01075 8.25C6.01075 10.5972 7.91354 12.5 10.2608 12.5C12.608 12.5 14.5108 10.5972 14.5108 8.25C14.5108 7.44987 14.2896 6.70137 13.9052 6.0623C14.7818 6.37365 15.4254 6.77259 15.8903 7.14774C16.3788 7.54204 16.6929 7.92858 16.8791 8.202C16.9118 8.25001 16.9405 8.29448 16.9654 8.33483C16.9407 8.4881 16.9028 8.68799 16.846 8.92098C16.7028 9.50791 16.4459 10.2779 15.9954 11.037C15.1301 12.4947 13.5148 14 10.2608 14C7.00673 14 5.39142 12.4947 4.52618 11.037C4.07565 10.2779 3.81872 9.50791 3.67556 8.92098ZM19.5017 8.18751C19.5017 8.18682 19.5018 8.18615 18.2547 8.1L19.5018 8.18615L19.5215 7.90002L19.4146 7.63389L18.2547 8.1C19.4146 7.63389 19.4143 7.63305 19.4139 7.63221L19.4132 7.63044L19.4116 7.62663L19.4081 7.61792L19.3989 7.59625C19.3919 7.57995 19.3831 7.55997 19.3724 7.53655C19.351 7.48972 19.3218 7.42906 19.284 7.35659C19.2085 7.21174 19.0981 7.01902 18.9455 6.79487C18.6401 6.34642 18.1644 5.77046 17.4603 5.20226C16.0333 4.05061 13.7539 3 10.2608 3C6.76762 3 4.48824 4.05061 3.06122 5.20226C2.35715 5.77046 1.88146 6.34642 1.57608 6.79488C1.42345 7.01902 1.31306 7.21174 1.23752 7.35659C1.19973 7.42906 1.17057 7.48972 1.14914 7.53655C1.13842 7.55997 1.12962 7.57996 1.12263 7.59625L1.11348 7.61792L1.10989 7.62663L1.10834 7.63044L1.10763 7.63221C1.10729 7.63306 1.10695 7.63389 2.2668 8.1L1.10695 7.63389L1 7.90002L1.01977 8.18615L2.2668 8.1C1.01977 8.18615 1.01981 8.18682 1.01986 8.18751L1.01997 8.18903L1.02023 8.19258L1.02091 8.20166L1.02304 8.22762C1.02482 8.24834 1.02737 8.27584 1.03089 8.30966C1.03792 8.37728 1.04887 8.47039 1.06543 8.5854C1.0985 8.81503 1.15427 9.13418 1.24677 9.51339C1.4306 10.2671 1.76591 11.2846 2.37637 12.313C3.63312 14.4303 6.01479 16.5 10.2608 16.5C14.5067 16.5 16.8884 14.4303 18.1452 12.313C18.7556 11.2846 19.0909 10.2671 19.2748 9.51339C19.3673 9.13418 19.423 8.81503 19.4561 8.5854C19.4727 8.4704 19.4836 8.37728 19.4907 8.30966C19.4942 8.27584 19.4967 8.24834 19.4985 8.22762L19.5006 8.20166L19.5013 8.19258L19.5016 8.18903L19.5017 8.18751ZM8.51075 8.25C8.51075 7.2835 9.29425 6.5 10.2608 6.5C11.2273 6.5 12.0108 7.2835 12.0108 8.25C12.0108 9.2165 11.2273 10 10.2608 10C9.29425 10 8.51075 9.2165 8.51075 8.25Z" fill="#FFFAED"/>
</svg>
