<svg width="186" height="200" viewBox="0 0 186 200" fill="none" xmlns="http://www.w3.org/2000/svg">
<g clip-path="url(#clip0_408_2)">
<path d="M93 200C75.4955 200 59.4913 195.857 44.9875 187.571C30.7338 179.284 19.3558 167.608 10.8536 152.542C2.60148 137.476 0 120.025 0 100.188C0 80.6026 2.60148 63.2768 10.8536 48.2109C19.3558 32.8939 30.7338 21.0923 44.9875 12.806C59.4913 4.26868 75.4955 0 93 0C110.505 0 126.384 4.14315 140.637 12.4294C155.141 20.7157 166.519 32.5172 174.771 47.8343C183.274 62.9002 186 80.226 186 99.8117C186 119.397 183.274 136.849 174.771 152.166C166.519 167.232 155.141 179.033 140.637 187.571C126.384 195.857 110.505 200 93 200Z" fill="#1246FF"/>
</g>
<defs>
<clipPath id="clip0_408_2">
<rect width="186" height="200" fill="white"/>
</clipPath>
</defs>
</svg>
