<svg width="122" height="131" viewBox="0 0 122 131" fill="none" xmlns="http://www.w3.org/2000/svg">
<path d="M61 131C49.5185 131 39.0212 128.286 29.5079 122.859C20.1587 117.431 12.6958 109.783 7.11905 99.9153C1.70635 90.0471 0 78.6165 0 65.6234C0 52.7947 1.70635 41.4463 7.11905 31.5782C12.6958 21.5455 20.1587 13.8154 29.5079 8.38794C39.0212 2.79598 49.5185 0 61 0C72.4815 0 82.8968 2.71376 92.246 8.14126C101.759 13.5688 109.222 21.2988 114.635 31.3314C120.212 41.1996 122 52.548 122 65.3766C122 78.2053 120.212 89.6359 114.635 99.6686C109.222 109.537 101.759 117.267 92.246 122.859C82.8968 128.286 72.4815 131 61 131Z" fill="white"/>
</svg>
