<svg width="186" height="200" viewBox="0 0 186 200" fill="none" xmlns="http://www.w3.org/2000/svg">
<path d="M93 196C76.2483 196 60.9325 192.043 47.0526 184.13C33.4119 176.217 22.5233 165.066 14.3868 150.678C6.48959 136.29 4 119.624 4 100.68C4 81.9755 6.48959 65.4294 14.3868 51.0414C22.5233 36.4137 33.4119 25.1431 47.0526 17.2298C60.9325 9.07659 76.2483 5 93 5C109.752 5 124.948 8.95671 138.589 16.8701C152.468 24.7835 163.357 36.054 171.254 50.6817C179.391 65.0697 182 81.6158 182 100.32C182 119.024 179.391 135.691 171.254 150.318C163.357 164.706 152.468 175.977 138.589 184.13C124.948 192.043 109.752 196 93 196Z" fill="black"/>
</svg>
