<?xml version="1.0" encoding="UTF-8" standalone="no"?>
<svg width="400px" height="131px" viewBox="0 0 400 131" version="1.1" xmlns="http://www.w3.org/2000/svg" xmlns:xlink="http://www.w3.org/1999/xlink" xmlns:sketch="http://www.bohemiancoding.com/sketch/ns">
    <!-- Generator: Sketch 3.5.2 (25235) - http://www.bohemiancoding.com/sketch -->
    <title>Slice 1</title>
    <desc>Created with Sketch.</desc>
    <defs></defs>
    <g id="Page-1" stroke="none" stroke-width="1" fill="none" fill-rule="evenodd" sketch:type="MSPage">
        <g id="Group" sketch:type="MSLayerGroup" fill="#313030">
            <path d="M27.9195208,102.284244 C16.3788579,102.284244 7.50710633,98.0286888 1.304,89.5174499 L14.8281468,76.7506553 C18.7231205,81.4390496 22.6540999,83.7832116 26.6212027,83.7832116 C29.3621102,83.7832116 31.489888,82.8816109 33.0046,81.0783823 C34.519312,79.2751537 35.2766567,76.6424794 35.2766567,73.1802806 L35.2766567,25.2507044 L56.1579393,25.2507044 L56.1579393,73.2884737 C56.1579393,82.5210041 53.6695211,89.6256181 48.6926103,94.602529 C43.5714411,99.7236982 36.6471472,102.284244 27.9195208,102.284244 L27.9195208,102.284244 Z M62.78723,100.985926 L95.0287959,24.7097386 L115.260919,24.7097386 L147.502485,100.985926 L124.998305,100.985926 L119.480453,87.4617795 L90.2682962,87.4617795 L84.8586375,100.985926 L62.78723,100.985926 Z M96.4353072,71.1246103 L113.421635,71.1246103 L104.982568,49.5941686 L96.4353072,71.1246103 Z M186.481535,102.284244 C172.199965,102.284244 160.370963,98.1008168 150.994174,89.7338362 L162.679037,75.7769167 C170.252597,81.8357648 178.439132,84.8651434 187.238887,84.8651434 C193.009219,84.8651434 195.894341,83.1340699 195.894341,79.671871 L195.894341,79.4554847 C195.894341,77.8686435 195.028805,76.5523064 193.297705,75.5064338 C191.566606,74.4605612 188.176587,73.3606083 183.127547,72.206542 C178.511282,71.1246048 174.706526,70.0607159 171.713167,69.0148434 C168.719807,67.9689708 165.798621,66.5624736 162.94952,64.7953096 C160.100419,63.0281456 157.990673,60.7921757 156.620219,58.0873328 C155.249765,55.3824899 154.564549,52.1547592 154.564549,48.4040437 L154.564549,48.1876573 C154.564549,41.0468722 157.215255,35.2225312 162.516747,30.7144597 C167.818239,26.2063883 174.940885,23.9523863 183.884899,23.9523863 C196.291112,23.9523863 206.677552,27.3063412 215.044533,34.0143515 L204.549795,48.8368164 C197.481139,43.8599055 190.412589,41.3714874 183.343933,41.3714874 C180.891542,41.3714874 179.016213,41.8222878 177.717888,42.7239021 C176.419563,43.6255163 175.770411,44.7975973 175.770411,46.2401802 L175.770411,46.4565666 C175.770411,48.187666 176.65398,49.5580992 178.421144,50.5679072 C180.188308,51.5777152 183.668487,52.6596361 188.861785,53.8137024 C198.310703,55.9054476 205.379253,58.6823779 210.067647,62.1445768 C214.756041,65.6067757 217.100203,70.691804 217.100203,77.3998144 L217.100203,77.6162007 C217.100203,85.2618899 214.323273,91.284583 208.769329,95.6844608 C203.215385,100.084339 195.786195,102.284244 186.481535,102.284244 L186.481535,102.284244 Z M268.305082,102.500631 C256.69229,102.500631 247.009098,98.7139075 239.255215,91.1403475 C231.501332,83.5667874 227.624448,74.2983315 227.624448,63.3347017 L227.624448,63.1183154 C227.624448,52.1546856 231.537396,42.8501657 239.363408,35.2044765 C247.18942,27.5587873 256.908676,23.736 268.521468,23.736 C280.13426,23.736 289.817453,27.5227232 297.571335,35.0962833 C305.325218,42.6698433 309.202102,51.9382992 309.202102,62.901929 L309.202102,63.1183154 C309.202102,74.0819452 305.289154,83.3864651 297.463142,91.0321543 C289.63713,98.6778435 279.917874,102.500631 268.305082,102.500631 L268.305082,102.500631 Z M268.521468,83.5668253 C274.147541,83.5668253 278.763737,81.6013356 282.370195,77.6702973 C285.976652,73.739259 287.779853,68.9607749 287.779853,63.3347017 L287.779853,63.1183154 C287.779853,57.4922422 285.940588,52.6776941 282.262001,48.6745266 C278.583415,44.6713592 273.931155,42.6698055 268.305082,42.6698055 C262.679009,42.6698055 258.080845,44.6352951 254.510452,48.5663335 C250.94006,52.4973718 249.15489,57.2758558 249.15489,62.901929 L249.15489,63.1183154 C249.15489,68.7443886 250.976124,73.5589367 254.618645,77.5621041 C258.261167,81.5652716 262.895395,83.5668253 268.521468,83.5668253 L268.521468,83.5668253 Z M323.080335,100.985926 L323.080335,25.2507044 L342.6633,25.2507044 L373.822934,65.2821789 L373.822934,25.2507044 L394.596023,25.2507044 L394.596023,100.985926 L376.203184,100.985926 L343.853425,59.4397475 L343.853425,100.985926 L323.080335,100.985926 Z" id="JASON" sketch:type="MSShapeGroup"></path>
        </g>
    </g>
</svg>