<?xml version="1.0" encoding="UTF-8" standalone="no"?>
<svg width="1358px" height="295px" viewBox="0 0 1358 295" version="1.1" xmlns="http://www.w3.org/2000/svg" xmlns:xlink="http://www.w3.org/1999/xlink">
    <!-- Generator: Sketch 3.6.1 (26313) - http://www.bohemiancoding.com/sketch -->
    <title>simple</title>
    <desc>Created with Sketch.</desc>
    <defs></defs>
    <g id="simple" stroke="none" stroke-width="1" fill="none" fill-rule="evenodd">
        <path d="M1123,31.9933088 C1123,26.4741567 1127.47775,22 1132.99698,22 L1313.90257,22 C1319.42375,22 1323.89955,26.4720355 1323.89955,31.9933088 L1323.89955,262.006691 C1323.89955,267.525843 1319.4218,272 1313.90257,272 L1132.99698,272 C1127.4758,272 1123,267.527965 1123,262.006691 L1123,31.9933088 Z" id="e" fill="#313131"></path>
        <path d="M923,31.9933088 C923,26.4741567 927.479341,22 932.996982,22 L1012.74203,22 C1018.26321,22 1022.73901,26.4855424 1022.73901,32.0003228 L1022.73901,178.091986 C1022.73901,183.615012 1027.21233,188.092309 1032.74371,188.092309 L1089.26227,188.092309 C1094.78771,188.092309 1099.26696,192.573887 1099.26696,198.088624 L1099.26696,262.003685 C1099.26696,267.524497 1094.79945,272 1089.26907,272 L932.997885,272 C927.476205,272 923,267.527965 923,262.006691 L923,31.9933088 Z" id="l" fill="#313131"></path>
        <path d="M796.772084,22 C808.928486,22 821.297974,22.9689826 833.880917,24.9069767 C846.46386,26.8449709 857.873646,30.7209012 868.110617,36.5348837 C878.347588,42.3488663 886.718318,50.5313857 893.22306,61.0826873 C899.727802,71.633989 902.980124,95.6194456 902.980124,112.846061 C902.980124,127.919349 900.42092,150.558996 895.302434,160.571966 C890.183949,170.584936 883.359404,178.552126 874.828595,184.473775 C866.297786,190.395424 856.647453,194.594348 845.877307,197.070674 C835.107161,199.547 823.963959,200.785144 812.447367,200.785144 L812.447367,200.785144 C807.637877,200.785144 803.739015,205.26693 803.739015,210.78103 L803.739015,262.004114 C803.739015,267.524689 799.259674,272 793.742033,272 L713.996982,272 C708.475801,272 704,267.527965 704,262.006691 L704,31.9933088 C704,26.4741567 708.47459,22 713.994317,22 L796.772084,22 Z" id="p" fill="#313131"></path>
        <path d="M400.000122,272 C394.477207,272 390,267.527965 390,262.006691 L390,31.9933088 C390,26.4741567 394.480975,22 399.990926,22 L480.14857,22 C485.666406,22 492.762413,25.619114 496.007883,30.0972307 L528.036977,74.2911368 C531.277998,78.7631138 536.528281,78.7692535 539.773752,74.2911368 L571.802845,30.0972307 C575.043866,25.6252537 582.153445,22 587.676866,22 L665.678029,22 C671.203988,22 675.683663,26.4720355 675.683663,31.9933088 L675.683663,262.006691 C675.683663,267.525843 671.210621,272 665.683541,272 L400.000122,272 Z" id="m" fill="#313131"></path>
        <path d="M28,190.154323 C28,184.631186 32.4725688,180.153798 37.9904648,180.153798 L98.0095352,180.153798 C103.527117,180.153798 103.64204,179.163103 98.2504387,177.93743 L67.0039978,170.834175 C45.4626846,165.937187 28,144.062647 28,121.975456 L28,92.009326 C28,53.3442429 59.3404517,22 98.008587,22 L164.991413,22 C203.656088,22 235.090575,53.3383667 235.202329,92.0045573 L235.245106,106.805002 C235.261069,112.327916 230.806771,116.805123 225.275297,116.805123 L165.368076,116.805123 C159.84594,116.805123 159.729238,117.800151 165.123207,119.031183 L196.412674,126.172185 C217.947265,131.086892 235.483118,152.970685 235.58015,175.063241 L235.692547,200.654056 C235.862349,239.314752 204.663275,270.960005 165.997448,271.335805 L98.0025518,271.99666 C59.34121,272.372416 28,241.336751 28,202.669214 L28,190.154323 Z" id="s" fill="#313131"></path>
        <path d="M349.999936,22 C355.522819,22 360,26.4720355 360,31.9933088 L360,262.006691 C360,267.525843 355.525267,272 349.999936,272 L270.000064,272 C264.477181,272 260,267.527965 260,262.006691 L260,31.9933088 C260,26.4741567 264.474733,22 270.000064,22 L349.999936,22 Z" id="i" fill="#313131">
          <animate attributeName="d" dur="500ms" to="1,2,3,4,5" />
        </path>
    </g>
</svg>
