<?xml version="1.0" encoding="UTF-8" standalone="no"?>
<svg width="1358px" height="295px" viewBox="0 0 1358 295" version="1.1" xmlns="http://www.w3.org/2000/svg" xmlns:xlink="http://www.w3.org/1999/xlink">
    <!-- Generator: Sketch 3.6.1 (26313) - http://www.bohemiancoding.com/sketch -->
    <title>simple</title>
    <desc>Created with Sketch.</desc>
    <defs></defs>
    <g id="simple" stroke="none" stroke-width="1" fill="none" fill-rule="evenodd">
        <path d="M1123,26.9938448 C1123,24.2358205 1125.23898,22 1127.99112,22 L1318.90843,22 C1321.66495,22 1323.89955,24.2376287 1323.89955,26.9938448 L1323.89955,267.006155 C1323.89955,269.76418 1321.66056,272 1318.90843,272 L1127.99112,272 C1125.2346,272 1123,269.762371 1123,267.006155 L1123,26.9938448 Z" id="e" fill="#313131"></path>
        <path d="M923,26.9938448 C923,24.2358205 925.246751,22 927.997299,22 L1017.74172,22 C1020.50165,22 1022.73901,24.2378564 1022.73901,26.9934147 L1022.73901,183.098895 C1022.73901,185.856681 1024.9776,188.092309 1027.73071,188.092309 L1094.27527,188.092309 C1097.0321,188.092309 1099.26696,190.336637 1099.26696,193.089836 L1099.26696,267.002473 C1099.26696,269.762531 1097.03829,272 1094.27557,272 L927.991392,272 C925.234722,272 923,269.762371 923,267.006155 L923,26.9938448 Z" id="l" fill="#313131"></path>
        <path d="M796.772084,22 C808.928486,22 821.297974,22.9689826 833.880917,24.9069767 C846.46386,26.8449709 857.873646,30.7209012 868.110617,36.5348837 C878.347588,42.3488663 886.718318,50.5313857 893.22306,61.0826873 C899.727802,71.633989 902.980124,95.6194456 902.980124,112.846061 C902.980124,127.919349 900.42092,150.558996 895.302434,160.571966 C890.183949,170.584936 883.359404,178.552126 874.828595,184.473775 C866.297786,190.395424 856.647453,194.594348 845.877307,197.070674 C835.107161,199.547 823.963959,200.785144 812.447367,200.785144 L803.739015,200.785144 L803.739015,266.99231 C803.739015,269.757981 801.492264,272 798.741716,272 L708.997299,272 C706.237367,272 704,269.762371 704,267.006155 L704,26.9938448 C704,24.2358205 706.247287,22 709.004265,22 L796.772084,22 Z" id="p" fill="#313131"></path>
        <path d="M395.003881,272 C392.240314,272 390,269.762371 390,267.006155 L390,26.9938448 C390,24.2358205 392.231959,22 395.000194,22 L485.139301,22 C487.900833,22 491.449321,23.8073039 493.079057,26.0560208 L530.965803,78.3323467 C532.589278,80.5724251 535.21519,80.5810636 536.844925,78.3323467 L574.731672,26.0560208 C576.355146,23.8159424 579.902513,22 582.666431,22 L670.688464,22 C673.447236,22 675.683663,24.2376287 675.683663,26.9938448 L675.683663,267.006155 C675.683663,269.76418 673.446371,272 670.679782,272 L395.003881,272 Z" id="m" fill="#313131"></path>
        <path d="M28,185.161054 C28,182.395623 30.2442206,180.153798 33.0043583,180.153798 L98.0095352,180.153798 C103.527117,180.153798 103.64204,179.163103 98.2504387,177.93743 L67.0039978,170.834175 C45.4626846,165.937187 28,144.062647 28,121.975456 L28,112.004065 C28,62.2961925 68.2954131,22 118.002953,22 L144.997047,22 C194.704305,22 235.116453,62.2918195 235.260139,112.006117 L235.259567,111.808247 C235.267543,114.567946 233.032463,116.805123 230.275615,116.805123 L165.368076,116.805123 C159.84594,116.805123 159.729238,117.800151 165.123207,119.031183 L196.412674,126.172185 C217.947265,131.086892 235.483118,152.970685 235.58015,175.063241 L235.604709,180.654865 C235.823022,230.360809 195.710585,271.047018 145.996803,271.530195 L118.003197,271.80227 C68.2958038,272.285385 28,232.380959 28,182.676556 L28,185.161054 Z" id="s" fill="#313131"></path>
        <path d="M355.006771,22 C357.764455,22 360,24.2376287 360,26.9938448 L360,267.006155 C360,269.76418 357.77115,272 355.006771,272 L264.993229,272 C262.235545,272 260,269.762371 260,267.006155 L260,26.9938448 C260,24.2358205 262.22885,22 264.993229,22 L355.006771,22 Z" id="i" fill="#313131"></path>
    </g>
</svg>