<?xml version="1.0" encoding="UTF-8" standalone="no"?>
<svg width="1360px" height="300px" viewBox="0 0 1360 300" version="1.1" xmlns="http://www.w3.org/2000/svg" xmlns:xlink="http://www.w3.org/1999/xlink">
    <title>landing_heading</title>
    <defs></defs>
    <g id="landing_heading" stroke="none" stroke-width="1" fill="none" fill-rule="evenodd">
        <g fill="#313131">
            <path d="M1124,32.9933088 C1124,27.4741567 1128.47775,23 1133.99698,23 L1314.90257,23 C1320.42375,23 1324.89955,27.4720355 1324.89955,32.9933088 L1324.89955,263.006691 C1324.89955,268.525843 1320.4218,273 1314.90257,273 L1133.99698,273 C1128.4758,273 1124,268.527965 1124,263.006691 L1124,32.9933088 Z" id="e"></path>
            <path d="M924,32.9933088 C924,27.4741567 928.479341,23 933.996982,23 L1013.74203,23 C1019.26321,23 1023.73901,27.4855424 1023.73901,33.0003228 L1023.73901,179.091986 C1023.73901,184.615012 1028.21233,189.092309 1033.74371,189.092309 L1090.26227,189.092309 C1095.78771,189.092309 1100.26696,193.573887 1100.26696,199.088624 L1100.26696,263.003685 C1100.26696,268.524497 1095.79945,273 1090.26907,273 L933.997885,273 C928.476205,273 924,268.527965 924,263.006691 L924,32.9933088 Z" id="l"></path>
            <path d="M797.772084,23 C809.928486,23 822.297974,23.9689826 834.880917,25.9069767 C847.46386,27.8449709 858.873646,31.7209012 869.110617,37.5348837 C879.347588,43.3488663 887.718318,51.5313857 894.22306,62.0826873 C900.727802,72.633989 903.980124,96.6194456 903.980124,113.846061 C903.980124,128.919349 901.42092,151.558996 896.302434,161.571966 C891.183949,171.584936 884.359404,179.552126 875.828595,185.473775 C867.297786,191.395424 857.647453,195.594348 846.877307,198.070674 C836.107161,200.547 824.963959,201.785144 813.447367,201.785144 L813.447367,201.785144 C808.637877,201.785144 804.739015,206.26693 804.739015,211.78103 L804.739015,263.004114 C804.739015,268.524689 800.259674,273 794.742033,273 L714.996982,273 C709.475801,273 705,268.527965 705,263.006691 L705,32.9933088 C705,27.4741567 709.47459,23 714.994317,23 L797.772084,23 Z" id="p"></path>
            <path d="M401.000122,273 C395.477207,273 391,268.527965 391,263.006691 L391,32.9933088 C391,27.4741567 395.480975,23 400.990926,23 L481.14857,23 C486.666406,23 493.762413,26.619114 497.007883,31.0972307 L529.036977,75.2911368 C532.277998,79.7631138 537.528281,79.7692535 540.773752,75.2911368 L572.802845,31.0972307 C576.043866,26.6252537 583.153445,23 588.676866,23 L666.678029,23 C672.203988,23 676.683663,27.4720355 676.683663,32.9933088 L676.683663,263.006691 C676.683663,268.525843 672.210621,273 666.683541,273 L401.000122,273 Z" id="m"></path>
            <path d="M29,191.154323 C29,185.631186 33.4725688,181.153798 38.9904648,181.153798 L99.0095352,181.153798 C104.527117,181.153798 104.64204,180.163103 99.2504387,178.93743 L68.0039978,171.834175 C46.4626846,166.937187 29,145.062647 29,122.975456 L29,113.004065 C29,63.2961925 69.2954131,23 119.002953,23 L145.997047,23 C195.704305,23 236.116453,63.2918195 236.260139,113.006117 L236.245106,107.805002 C236.261069,113.327916 231.806771,117.805123 226.275297,117.805123 L166.368076,117.805123 C160.84594,117.805123 160.729238,118.800151 166.123207,120.031183 L197.412674,127.172185 C218.947265,132.086892 236.483118,153.970685 236.58015,176.063241 L236.604709,181.654865 C236.823022,231.360809 196.710585,272.047018 146.996803,272.530195 L119.003197,272.80227 C69.2958038,273.285385 29,233.380959 29,183.676556 L29,191.154323 Z" id="s"></path>
            <path d="M350.999936,23 C356.522819,23 361,27.4720355 361,32.9933088 L361,263.006691 C361,268.525843 356.525267,273 350.999936,273 L271.000064,273 C265.477181,273 261,268.527965 261,263.006691 L261,32.9933088 C261,27.4741567 265.474733,23 271.000064,23 L350.999936,23 Z" id="i"></path>
        </g>
    </g>
</svg>
