<?xml version="1.0" encoding="UTF-8" standalone="no"?>
<svg width="597px" height="84px" viewBox="0 0 597 84" version="1.1" xmlns="http://www.w3.org/2000/svg" xmlns:xlink="http://www.w3.org/1999/xlink" xmlns:sketch="http://www.bohemiancoding.com/sketch/ns">
    <!-- Generator: Sketch 3.5.2 (25235) - http://www.bohemiancoding.com/sketch -->
    <title>Slice 1</title>
    <desc>Created with Sketch.</desc>
    <defs></defs>
    <g id="Page-1" stroke="none" stroke-width="1" fill="none" fill-rule="evenodd" sketch:type="MSPage">
        <g id="design-simple" sketch:type="MSLayerGroup" transform="translate(5.000000, 3.000000)">
            <path d="M238.978,20.672 L241.602,20.672 L241.602,30.512 C242.094002,29.3093273 242.777329,28.0656731 243.652,26.781 C244.526671,25.4963269 245.619993,24.3210053 246.932,23.255 C248.244007,22.1889947 249.774658,21.3280033 251.524,20.672 C253.273342,20.0159967 255.268655,19.688 257.51,19.688 C260.243347,19.688 262.662323,20.125329 264.767,21 C266.871677,21.874671 268.648326,23.1183253 270.097,24.731 C271.545674,26.3436747 272.652663,28.2569889 273.418,30.471 C274.183337,32.6850111 274.566,35.1313199 274.566,37.81 L274.566,62 L271.942,62 L271.942,38.22 C271.942,33.4093093 270.684679,29.5280148 268.17,26.576 C265.655321,23.6239852 261.992691,22.148 257.182,22.148 C254.995322,22.148 252.959009,22.5716624 251.073,23.419 C249.186991,24.2663376 247.547007,25.4279926 246.153,26.904 C244.758993,28.3800074 243.652004,30.1293232 242.832,32.152 C242.011996,34.1746768 241.602,36.3613216 241.602,38.712 L241.602,62 L238.978,62 L238.978,20.672 Z" id="Path" stroke="#000000" stroke-width="10" fill="#313030" sketch:type="MSShapeGroup"></path>
            <path d="M0.528,4.6 L19.224,4.6 C23.7066891,4.6 27.8203146,5.33799262 31.565,6.814 C35.3096854,8.29000738 38.5349865,10.3126538 41.241,12.882 C43.9470135,15.4513462 46.0379926,18.4716493 47.514,21.943 C48.9900074,25.4143507 49.728,29.1726464 49.728,33.218 L49.728,33.382 C49.728,37.4273536 48.9900074,41.1856493 47.514,44.657 C46.0379926,48.1283507 43.9470135,51.1486538 41.241,53.718 C38.5349865,56.2873462 35.3096854,58.3099926 31.565,59.786 C27.8203146,61.2620074 23.7066891,62 19.224,62 L0.528,62 L0.528,4.6 Z M19.306,59.458 C23.4060205,59.458 27.1506497,58.78834 30.54,57.449 C33.9293503,56.10966 36.8403212,54.2646784 39.273,51.914 C41.7056788,49.5633216 43.5779934,46.8026825 44.89,43.632 C46.2020066,40.4613175 46.858,37.072018 46.858,33.464 L46.858,33.3 C46.858,29.691982 46.18834,26.289016 44.849,23.091 C43.50966,19.892984 41.6373454,17.1186784 39.232,14.768 C36.8266546,12.4173216 33.9293503,10.5586735 30.54,9.192 C27.1506497,7.8253265 23.3786874,7.142 19.224,7.142 L3.316,7.142 L3.316,59.458 L19.306,59.458 Z" id="Path" stroke="#000000" stroke-width="10" fill="#313030" sketch:type="MSShapeGroup"></path>
            <path d="M69.6878027,46.5055638 C70.8306057,51.8387925 75.5333155,55.4611608 81.2646484,55.5180664 C87.8544922,55.5834961 92.0193682,51.824869 93.4625855,48.973947 L104.48895,53.002552 C101.561014,60.8880592 91.7081246,67.4013672 81.0224609,67.4013672 C69.0583296,67.4013672 58.7768975,56.6050827 57.0805499,46.5297805 C57.078125,46.5297852 57.0735902,46.498768 57.0655178,46.4391411 C56.9497016,45.7300092 56.8765542,45.0246232 56.8484854,44.3270042 C56.77059,43.3274232 56.7028809,42.0528228 56.7028809,40.6420898 C56.7028809,37.8421689 56.9140672,36.4638451 56.9803469,36.1002126 C57.8795646,26.530382 68.4978199,15.1113281 81.0310059,15.1113281 C91.7166695,15.1113281 102.264648,19.0683594 105.573975,36.984375 L105.525108,36.9862045 C106.238976,42.0064596 105.630371,46.4365234 105.630371,46.4365234 L69.6878027,46.5055638 Z M93.4276251,36.0470598 C92.2855575,30.1542957 87.0296366,26.8997404 81.4775391,26.8879395 C76.0059406,26.8763097 70.4614051,30.9475133 69.5520022,36.0162156 L93.4276251,36.0470598 Z" id="e" fill="#000000" sketch:type="MSShapeGroup"></path>
            <path d="M122.205,61.139 C119.225652,60.0729947 116.588011,58.5833429 114.292,56.67 L115.85,54.62 C118.146011,56.424009 120.619653,57.8179951 123.271,58.802 C125.922347,59.7860049 128.58732,60.278 131.266,60.278 C132.906008,60.278 134.450326,60.073002 135.899,59.663 C137.347674,59.2529979 138.604995,58.6653372 139.671,57.9 C140.737005,57.1346628 141.570664,56.2190053 142.172,55.153 C142.773336,54.0869947 143.074,52.9253396 143.074,51.668 L143.074,51.504 C143.074,50.0279926 142.71867,48.7980049 142.008,47.814 C141.29733,46.8299951 140.354339,45.9963367 139.179,45.313 C138.003661,44.6296632 136.664341,44.0420025 135.161,43.55 C133.657659,43.0579975 132.113341,42.5933355 130.528,42.156 C128.614657,41.6093306 126.783342,41.0353363 125.034,40.434 C123.284658,39.8326637 121.754007,39.1220041 120.442,38.302 C119.129993,37.4819959 118.091337,36.4843392 117.326,35.309 C116.560663,34.1336608 116.178,32.6713421 116.178,30.922 L116.178,30.758 C116.178,29.2273257 116.519663,27.8060066 117.203,26.494 C117.886337,25.1819934 118.842994,24.0340049 120.073,23.05 C121.303006,22.0659951 122.778991,21.3006694 124.501,20.754 C126.223009,20.2073306 128.149989,19.934 130.282,19.934 C132.687345,19.934 135.735,20.4728415 137.703,21.123 C139.671,21.7731585 141.516001,22.2877233 143.074,23.0499999 L142.008,25.6208148 C139.83281,24.6118147 138.209822,24.0150671 136.924,23.501 C136.850245,23.471513 136.774427,23.4532961 136.699728,23.4300319 C134.48198,22.7393406 132.315425,22.394 130.2,22.394 C126.755983,22.394 124.00901,23.1729922 121.959,24.731 C119.90899,26.2890078 118.884,28.2159885 118.884,30.512 L118.884,30.676 C118.884,31.9880066 119.225663,33.0949955 119.909,33.997 C120.592337,34.8990045 121.507994,35.6916632 122.656,36.375 C123.804006,37.0583367 125.129659,37.6459975 126.633,38.138 C128.136341,38.6300025 129.735325,39.1219975 131.43,39.614 C133.288676,40.1060025 135.092658,40.6526637 136.842,41.254 C138.591342,41.8553363 140.121993,42.593329 141.434,43.468 C142.746007,44.342671 143.798329,45.4086604 144.591,46.666 C145.383671,47.9233396 145.78,49.453991 145.78,51.258 L145.78,51.422 C145.78,53.1166751 145.397337,54.660993 144.632,56.055 C143.866663,57.449007 142.828007,58.6379951 141.516,59.622 C140.203993,60.6060049 138.659676,61.3713306 136.883,61.918 C135.106324,62.4646694 133.179344,62.738 131.102,62.738 C128.149985,62.738 125.184348,62.2050053 122.205,61.139 Z" id="Path" stroke="#000000" stroke-width="10" fill="#313030" sketch:type="MSShapeGroup"></path>
            <path d="M163.5,13 C167.089851,13 170,10.0898509 170,6.5 C170,2.91014913 167.089851,0 163.5,0 C159.910149,0 157,2.91014913 157,6.5 C157,10.0898509 159.910149,13 163.5,13 Z M156.952187,15.6893281 L169.630962,15.6893281 L169.630962,67.0717989 L157,67.0717989 L156.952187,15.6893281 Z" id="Oval-29" fill="#000000" sketch:type="MSShapeGroup"></path>
            <path d="M183.694,69.97 L185.252,68.838 C190.500026,72.8286866 195.267302,72.824 201.554,72.824 C204.178013,72.824 206.555989,72.4550037 208.688,71.717 C210.820011,70.9789963 212.651326,69.8856739 214.182,68.437 C215.712674,66.9883261 216.901662,65.1706776 217.749,62.984 C218.596338,60.7973224 219.02,58.2553478 219.02,55.358 L219.02,47.896 C217.434659,51.0666825 215.084016,53.7043228 211.968,55.809 C208.851984,57.9136772 205.189354,58.966 200.98,58.966 C198.30132,58.966 195.745679,58.4740049 193.313,57.49 C190.880321,56.5059951 188.734676,55.1393421 186.876,53.39 C185.017324,51.6406579 183.541339,49.5770119 182.448,47.199 C181.354661,44.8209881 180.808,42.2380139 180.808,39.45 C180.808,36.4979861 181.354661,33.9013454 182.448,31.496 C183.541339,29.0906546 185.017324,27.0133421 186.876,25.264 C188.734676,23.5146579 190.880321,22.1480049 193.313,21.164 C195.745679,20.1799951 198.30132,19.688 200.98,19.688 C203.057344,19.688 205.025324,19.9613306 206.884,20.508 C208.742676,21.0546694 210.437326,21.8199951 211.968,22.804 C213.498674,23.7880049 214.851661,24.94966 216.027,26.289 C217.202339,27.62834 218.199996,29.0633257 219.02,30.594 L219.02,20.672 L221.726,20.672 L221.726,55.686 C221.726,58.7473486 221.261338,61.4669881 220.332,63.845 C219.402662,66.2230119 218.090675,68.2593249 216.396,69.954 C214.646658,71.7033421 212.501013,73.042662 209.959,73.972 C207.416987,74.901338 204.615349,75.366 201.554,75.366 C194.611299,75.366 189.324695,74.2340213 183.694,69.97 Z M201.226,56.424 C203.631345,56.424 205.927322,55.986671 208.114,55.112 C210.300678,54.237329 212.213992,53.0483408 213.854,51.545 C215.494008,50.0416591 216.805995,48.2513437 217.79,46.174 C218.774005,44.0966563 219.266,41.8553454 219.266,39.45 L219.266,39.286 C219.266,36.8806546 218.774005,34.6393437 217.79,32.562 C216.805995,30.4846563 215.494008,28.6806743 213.854,27.15 C212.213992,25.6193257 210.300678,24.416671 208.114,23.542 C205.927322,22.667329 203.631345,22.23 201.226,22.23 C198.820655,22.23 196.552011,22.6536624 194.42,23.501 C192.287989,24.3483376 190.429341,25.5373257 188.844,27.068 C187.258659,28.5986743 186.001338,30.3889897 185.072,32.439 C184.142662,34.4890102 183.678,36.7439877 183.678,39.204 L183.678,39.368 C183.678,41.7733454 184.142662,44.0146563 185.072,46.092 C186.001338,48.1693437 187.258659,49.9733257 188.844,51.504 C190.429341,53.0346743 192.287989,54.237329 194.42,55.112 C196.552011,55.986671 198.820655,56.424 201.226,56.424 Z" id="Path" stroke="#000000" stroke-width="10" fill="#313030" sketch:type="MSShapeGroup"></path>
            <path d="M322.205,61.139 C319.225652,60.0729947 316.588011,58.5833429 314.292,56.67 L315.85,54.62 C318.146011,56.424009 320.619653,57.8179951 323.271,58.802 C325.922347,59.7860049 328.58732,60.278 331.266,60.278 C332.906008,60.278 334.450326,60.073002 335.899,59.663 C337.347674,59.2529979 338.604995,58.6653372 339.671,57.9 C340.737005,57.1346628 341.570664,56.2190053 342.172,55.153 C342.773336,54.0869947 343.074,52.9253396 343.074,51.668 L343.074,51.504 C343.074,50.0279926 342.71867,48.7980049 342.008,47.814 C341.29733,46.8299951 340.354339,45.9963367 339.179,45.313 C338.003661,44.6296632 336.664341,44.0420025 335.161,43.55 C333.657659,43.0579975 332.113341,42.5933355 330.528,42.156 C328.614657,41.6093306 326.783342,41.0353363 325.034,40.434 C323.284658,39.8326637 321.754007,39.1220041 320.442,38.302 C319.129993,37.4819959 318.091337,36.4843392 317.326,35.309 C316.560663,34.1336608 316.178,32.6713421 316.178,30.922 L316.178,30.758 C316.178,29.2273257 316.519663,27.8060066 317.203,26.494 C317.886337,25.1819934 318.842994,24.0340049 320.073,23.05 C321.303006,22.0659951 322.778991,21.3006694 324.501,20.754 C326.223009,20.2073306 328.149989,19.934 330.282,19.934 C332.687345,19.934 335.735,20.4728415 337.703,21.123 C339.671,21.7731585 341.516001,22.2877233 343.074,23.0499999 L342.008,25.6208148 C339.83281,24.6118147 338.209822,24.0150671 336.924,23.501 C336.850245,23.471513 336.774427,23.4532961 336.699728,23.4300319 C334.48198,22.7393406 332.315425,22.394 330.2,22.394 C326.755983,22.394 324.00901,23.1729922 321.959,24.731 C319.90899,26.2890078 318.884,28.2159885 318.884,30.512 L318.884,30.676 C318.884,31.9880066 319.225663,33.0949955 319.909,33.997 C320.592337,34.8990045 321.507994,35.6916632 322.656,36.375 C323.804006,37.0583367 325.129659,37.6459975 326.633,38.138 C328.136341,38.6300025 329.735325,39.1219975 331.43,39.614 C333.288676,40.1060025 335.092658,40.6526637 336.842,41.254 C338.591342,41.8553363 340.121993,42.593329 341.434,43.468 C342.746007,44.342671 343.798329,45.4086604 344.591,46.666 C345.383671,47.9233396 345.78,49.453991 345.78,51.258 L345.78,51.422 C345.78,53.1166751 345.397337,54.660993 344.632,56.055 C343.866663,57.449007 342.828007,58.6379951 341.516,59.622 C340.203993,60.6060049 338.659676,61.3713306 336.883,61.918 C335.106324,62.4646694 333.179344,62.738 331.102,62.738 C328.149985,62.738 325.184348,62.2050053 322.205,61.139 Z" id="Path" stroke="#000000" stroke-width="10" fill="#313030" sketch:type="MSShapeGroup"></path>
            <path d="M361.5,13 C365.089851,13 368,10.0898509 368,6.5 C368,2.91014913 365.089851,0 361.5,0 C357.910149,0 355,2.91014913 355,6.5 C355,10.0898509 357.910149,13 361.5,13 Z M354.952187,15.6893281 L367.630962,15.6893281 L367.630962,67.0717989 L355,67.0717989 L354.952187,15.6893281 Z" id="Oval-29" fill="#000000" sketch:type="MSShapeGroup"></path>
            <path d="M379.982,20.672 L382.606,20.672 L382.606,29.938 C383.043336,28.7353273 383.685662,27.5190061 384.533,26.289 C385.380338,25.0589938 386.391661,23.9520049 387.567,22.968 C388.742339,21.9839951 390.095326,21.1913363 391.626,20.59 C393.156674,19.9886637 394.851324,19.688 396.71,19.688 C398.787344,19.688 400.632325,19.9749971 402.245,20.549 C403.857675,21.1230029 405.251661,21.9156616 406.427,22.927 C407.602339,23.9383384 408.599996,25.0999934 409.42,26.412 C410.240004,27.7240066 410.868664,29.1179926 411.306,30.594 C411.798002,29.2273265 412.494995,27.9016731 413.397,26.617 C414.299005,25.3323269 415.37866,24.1706719 416.636,23.132 C417.89334,22.0933281 419.314659,21.2596698 420.9,20.631 C422.485341,20.0023302 424.234657,19.688 426.148,19.688 C430.904024,19.688 434.703319,21.2186514 437.546,24.28 C440.388681,27.3413486 441.81,31.6873052 441.81,37.318 L441.81,62 L439.186,62 L439.186,37.564 C439.186,32.5346415 437.983345,28.7080131 435.578,26.084 C433.172655,23.4599869 429.974687,22.148 425.984,22.148 C424.234658,22.148 422.526342,22.5306628 420.859,23.296 C419.191658,24.0613372 417.715673,25.140993 416.431,26.535 C415.146327,27.929007 414.121337,29.5826571 413.356,31.496 C412.590663,33.4093429 412.208,35.5413216 412.208,37.892 L412.208,62 L409.584,62 L409.584,37.482 C409.584,32.5073085 408.381345,28.7080131 405.976,26.084 C403.570655,23.4599869 400.40002,22.148 396.464,22.148 C394.659991,22.148 392.924342,22.5579959 391.257,23.378 C389.589658,24.1980041 388.113673,25.3186596 386.829,26.74 C385.544327,28.1613404 384.519337,29.8286571 383.754,31.742 C382.988663,33.6553429 382.606,35.7326555 382.606,37.974 L382.606,62 L379.982,62 L379.982,20.672 Z" id="Path" stroke="#000000" stroke-width="10" fill="#313030" sketch:type="MSShapeGroup"></path>
            <path d="M458.57,20.672 L461.194,20.672 L461.194,32.07 C461.90467,30.3753249 462.833994,28.7626743 463.982,27.232 C465.130006,25.7013257 466.482992,24.3893388 468.041,23.296 C469.599008,22.2026612 471.334657,21.3280033 473.248,20.672 C475.161343,20.0159967 477.238655,19.688 479.48,19.688 C482.268014,19.688 484.905654,20.2209947 487.393,21.287 C489.880346,22.3530053 492.039658,23.8426571 493.871,25.756 C495.702342,27.6693429 497.164661,29.9379869 498.258,32.562 C499.351339,35.1860131 499.898,38.0833175 499.898,41.254 L499.898,41.418 C499.898,44.5340156 499.351339,47.4176534 498.258,50.069 C497.164661,52.7203466 495.702342,55.0026571 493.871,56.916 C492.039658,58.8293429 489.880346,60.3189947 487.393,61.385 C484.905654,62.4510053 482.268014,62.984 479.48,62.984 C477.183989,62.984 475.079343,62.6696698 473.166,62.041 C471.252657,61.4123302 469.517008,60.5376723 467.959,59.417 C466.400992,58.2963277 465.061672,56.9980074 463.941,55.522 C462.820328,54.0459926 461.90467,52.4606751 461.194,50.766 L461.194,75.12 L458.57,75.12 L458.57,20.672 Z M479.234,60.442 C481.858013,60.442 484.263322,59.977338 486.45,59.048 C488.636678,58.118662 490.522659,56.8066751 492.108,55.112 C493.693341,53.4173249 494.923329,51.4220115 495.798,49.126 C496.672671,46.8299885 497.11,44.2880139 497.11,41.5 L497.11,41.336 C497.11,38.602653 496.659005,36.0743449 495.757,33.751 C494.854995,31.427655 493.611341,29.4050086 492.026,27.683 C490.440659,25.9609914 488.554678,24.6216714 486.368,23.665 C484.181322,22.7083285 481.803346,22.23 479.234,22.23 C476.664654,22.23 474.273011,22.7219951 472.059,23.706 C469.844989,24.6900049 467.918008,26.0429914 466.278,27.765 C464.637992,29.4870086 463.353338,31.4959885 462.424,33.792 C461.494662,36.0880115 461.03,38.5753199 461.03,41.254 L461.03,41.418 C461.03,44.0966801 461.508329,46.5839885 462.465,48.88 C463.421671,51.1760115 464.719992,53.1849914 466.36,54.907 C468.000008,56.6290086 469.926989,57.9819951 472.141,58.966 C474.355011,59.9500049 476.719321,60.442 479.234,60.442 Z" id="Path" stroke="#000000" stroke-width="10" fill="#313030" sketch:type="MSShapeGroup"></path>
            <path d="M513.936,2.14 L516.642,2.14 L516.642,62 L513.936,62 L513.936,2.14 Z" id="Path" stroke="#000000" stroke-width="10" fill="#313030" sketch:type="MSShapeGroup"></path>
            <path d="M539.687803,46.5055638 C540.830606,51.8387925 545.533316,55.4611608 551.264648,55.5180664 C557.854492,55.5834961 562.019368,51.824869 563.462586,48.973947 L574.48895,53.002552 C571.561014,60.8880592 561.708125,67.4013672 551.022461,67.4013672 C539.05833,67.4013672 528.776897,56.6050827 527.08055,46.5297805 C527.078125,46.5297852 527.07359,46.498768 527.065518,46.4391411 C526.949702,45.7300092 526.876554,45.0246232 526.848485,44.3270042 C526.77059,43.3274232 526.702881,42.0528228 526.702881,40.6420898 C526.702881,37.8421689 526.914067,36.4638451 526.980347,36.1002126 C527.879565,26.530382 538.49782,15.1113281 551.031006,15.1113281 C561.71667,15.1113281 572.264648,19.0683594 575.573975,36.984375 L575.525108,36.9862045 C576.238976,42.0064596 575.630371,46.4365234 575.630371,46.4365234 L539.687803,46.5055638 Z M563.427625,36.0470598 C562.285558,30.1542957 557.029637,26.8997404 551.477539,26.8879395 C546.005941,26.8763097 540.461405,30.9475133 539.552002,36.0162156 L563.427625,36.0470598 Z" id="e" fill="#000000" sketch:type="MSShapeGroup"></path>
            <circle id="Path" fill="#000000" sketch:type="MSShapeGroup" cx="585.5" cy="59.5" r="6.5"></circle>
        </g>
    </g>
</svg>