<svg width="50" height="50" viewBox="0 0 50 50" fill="none" xmlns="http://www.w3.org/2000/svg">
<path d="M6.08309 12.2253C2.55097 12.2253 0 9.5467 0 6.04396C0 2.74726 2.55097 0 6.08309 0C9.61521 0 12.2316 2.67858 12.2316 6.04396C12.2316 9.5467 9.61521 12.2253 6.08309 12.2253ZM0.981144 50V16.4148H11.185V50H0.981144Z" fill="#E1E1E1"/>
<path d="M18.6034 50V16.4148H28.8073V20.3297H28.9381C31.4237 17.3077 34.825 15.7967 38.5533 15.7967C45.1597 15.7967 50 19.2308 50 29.8764V50H39.7961V32.4863C39.7961 26.9231 38.03 25.3434 34.6942 25.3434C31.162 25.3434 28.8073 27.8846 28.8073 33.1044V50H18.6034Z" fill="#E1E1E1"/>
</svg>
