<?xml version="1.0" encoding="UTF-8" standalone="no"?>
<svg width="304px" height="93px" viewBox="0 0 304 93" version="1.1" xmlns="http://www.w3.org/2000/svg" xmlns:xlink="http://www.w3.org/1999/xlink" xmlns:sketch="http://www.bohemiancoding.com/sketch/ns">
    <!-- Generator: Sketch 3.4.4 (17249) - http://www.bohemiancoding.com/sketch -->
    <title>maker</title>
    <desc>Created with Sketch.</desc>
    <defs>
        <filter x="-50%" y="-50%" width="200%" height="200%" filterUnits="objectBoundingBox" id="filter-1">
            <feOffset dx="0" dy="12" in="SourceAlpha" result="shadowOffsetOuter1"></feOffset>
            <feGaussianBlur stdDeviation="7.5" in="shadowOffsetOuter1" result="shadowBlurOuter1"></feGaussianBlur>
            <feColorMatrix values="0 0 0 0 0   0 0 0 0 0   0 0 0 0 0  0 0 0 0.106898211 0" in="shadowBlurOuter1" type="matrix" result="shadowMatrixOuter1"></feColorMatrix>
            <feMerge>
                <feMergeNode in="shadowMatrixOuter1"></feMergeNode>
                <feMergeNode in="SourceGraphic"></feMergeNode>
            </feMerge>
        </filter>
    </defs>
    <g id="Page-1" stroke="none" stroke-width="1" fill="none" fill-rule="evenodd" sketch:type="MSPage">
        <path d="M20,63.3 L20,21.3 L32.3,21.3 L42.32,37.56 L52.34,21.3 L64.64,21.3 L64.64,63.3 L53.06,63.3 L53.06,39.18 L42.32,55.62 L42.08,55.62 L31.4,39.3 L31.4,63.3 L20,63.3 Z M78.72,63.3 L96.6,21 L107.82,21 L125.7,63.3 L113.22,63.3 L110.16,55.8 L93.96,55.8 L90.96,63.3 L78.72,63.3 Z M97.38,46.74 L106.8,46.74 L102.12,34.8 L97.38,46.74 Z M139.78,63.3 L139.78,21.3 L151.42,21.3 L151.42,38.34 L165.88,21.3 L179.68,21.3 L163.78,39.36 L180.22,63.3 L166.24,63.3 L155.68,47.7 L151.42,52.44 L151.42,63.3 L139.78,63.3 Z M193.58,63.3 L193.58,21.3 L227.36,21.3 L227.36,31.2 L205.1,31.2 L205.1,37.56 L225.26,37.56 L225.26,46.74 L205.1,46.74 L205.1,53.4 L227.66,53.4 L227.66,63.3 L193.58,63.3 Z M244.6,63.3 L244.6,21.3 L264.46,21.3 C270.620031,21.3 275.179985,22.8199848 278.14,25.86 C280.620012,28.260012 281.86,31.5199794 281.86,35.64 L281.86,35.76 C281.86,41.9200308 278.980029,46.2199878 273.22,48.66 L283.24,63.3 L269.8,63.3 L261.34,50.58 L261.22,50.58 L256.24,50.58 L256.24,63.3 L244.6,63.3 Z M256.24,41.46 L263.92,41.46 C265.88001,41.46 267.409994,41.0200044 268.51,40.14 C269.610005,39.2599956 270.16,38.0400078 270.16,36.48 L270.16,36.36 C270.16,34.7199918 269.610005,33.4800042 268.51,32.64 C267.409994,31.7999958 265.86001,31.38 263.86,31.38 L256.24,31.38 L256.24,41.46 Z" id="Mask" fill="#FFFFFF" filter="url(#filter-1)" sketch:type="MSShapeGroup"></path>
    </g>
</svg>