<svg width="200" height="200" viewBox="0 0 200 200" fill="none" xmlns="http://www.w3.org/2000/svg">
<path d="M118.465 108.573V107.989C118.955 107.768 119.271 107.594 119.397 107.452C119.476 107.388 119.539 107.294 119.555 107.183C119.634 106.978 119.666 106.52 119.697 105.809C119.745 104.766 119.76 104.134 119.76 103.944V97.7509C119.76 96.7082 119.745 95.697 119.697 94.7017C119.681 93.9749 119.618 93.5483 119.523 93.4061C119.429 93.2639 119.286 93.1691 119.097 93.1059C118.891 93.0427 118.323 92.9953 117.406 92.9953V92.2686C119.35 92.316 120.55 92.3318 121.009 92.3318C121.514 92.3318 122.667 92.316 124.437 92.2686V92.9953C123.489 93.0111 122.904 93.0427 122.715 93.1059C122.509 93.1691 122.367 93.2639 122.288 93.3903C122.193 93.5483 122.13 93.9117 122.114 94.4963C122.099 94.6543 122.083 95.7286 122.051 97.7509V105.477C122.051 106.283 122.067 106.93 122.114 107.452C123.031 107.499 123.126 107.515 124.026 107.515C126.285 107.515 127.96 107.373 128.861 107.104C128.971 106.867 129.066 106.614 129.129 106.314L129.603 104.418H130.393C130.219 105.556 130.046 106.883 129.872 108.431C129.54 108.494 129.287 108.526 129.098 108.542C128.687 108.558 128.039 108.558 127.186 108.558L120.803 108.494C120.045 108.494 119.255 108.526 118.465 108.573Z" fill="black" stroke="black" stroke-width="0.5"/>
<path d="M136.618 94.5121C136.602 94.6701 136.587 95.7444 136.555 97.7667V103.075L136.618 94.5121ZM138.925 107.847V108.573C137.234 108.526 136.128 108.51 135.591 108.51L131.926 108.573V107.847C132.858 107.831 133.411 107.783 133.616 107.72C133.822 107.657 133.964 107.562 134.043 107.452C134.138 107.294 134.201 106.93 134.217 106.346C134.232 106.188 134.248 105.098 134.28 103.075V97.7667C134.28 96.724 134.264 95.7128 134.217 94.7175C134.185 93.9907 134.138 93.5641 134.043 93.4219C133.948 93.2955 133.806 93.185 133.6 93.1218C133.395 93.0586 132.826 93.0112 131.91 93.0112V92.2844C133.427 92.3318 134.596 92.3476 135.417 92.3476C136.207 92.3476 137.377 92.3318 138.909 92.2844V93.0112C137.977 93.027 137.408 93.0586 137.203 93.1218C136.997 93.185 136.855 93.2797 136.776 93.4061C136.681 93.5641 136.618 93.9275 136.602 94.5121C136.587 94.6701 136.571 95.7444 136.539 97.7667V103.075C136.539 104.118 136.555 105.145 136.571 106.125C136.587 106.851 136.65 107.278 136.745 107.42C136.839 107.562 136.982 107.657 137.187 107.72C137.408 107.783 137.977 107.831 138.925 107.847Z" fill="black" stroke="black" stroke-width="0.5"/>
<path d="M141.563 108.573V107.847C142.401 107.847 142.954 107.768 143.206 107.657C143.317 107.61 143.396 107.546 143.443 107.436C143.522 107.278 143.586 106.883 143.617 106.235C143.665 105.224 143.68 104.355 143.68 103.628V94.2909C143.68 94.0381 143.665 93.8643 143.633 93.8011C143.57 93.6589 143.428 93.5009 143.191 93.3113C143.048 93.185 142.875 93.106 142.685 93.0744C142.495 93.0428 142.085 93.0112 141.437 93.0112V92.2844C142.811 92.3318 143.68 92.3476 144.044 92.3476C144.644 92.3476 145.245 92.3318 145.845 92.2844C146.508 93.1376 146.998 93.7537 147.314 94.1645L149.763 97.0874L153.318 101.258C154.455 102.585 155.372 103.628 156.067 104.387C156.509 104.892 156.873 105.287 157.173 105.572V97.2138C157.173 96.4554 157.157 95.5864 157.11 94.5911C157.078 93.9591 157.015 93.5641 156.952 93.4061C156.889 93.2955 156.81 93.2323 156.699 93.1849C156.43 93.0744 155.877 93.027 155.04 93.0112V92.2844C155.988 92.3318 156.936 92.3476 157.916 92.3476C158.832 92.3476 159.653 92.3318 160.396 92.2844V93.0112C159.559 93.0112 159.006 93.0744 158.753 93.1849C158.642 93.2323 158.563 93.3113 158.516 93.4219C158.437 93.5641 158.374 93.9749 158.342 94.6227C158.295 95.618 158.263 96.487 158.263 97.2296V102.743C158.263 103.865 158.295 105.951 158.342 109H157.157L156.857 108.684C156.81 108.668 156.715 108.558 156.667 108.526C156.604 108.479 156.462 108.336 156.209 108.068C155.546 107.341 155.056 106.788 154.756 106.409L153.207 104.513L144.723 94.6859V103.581C144.723 104.339 144.739 105.224 144.802 106.267C144.834 106.914 144.881 107.309 144.96 107.452C145.023 107.562 145.102 107.641 145.213 107.689C145.481 107.799 146.034 107.862 146.872 107.878V108.605C146.177 108.558 145.403 108.542 144.549 108.542C143.649 108.494 142.653 108.526 141.563 108.573Z" fill="black" stroke="black" stroke-width="0.5"/>
<path d="M169.496 107.847V108.573C167.806 108.526 166.7 108.51 166.163 108.51L162.497 108.573V107.847C163.429 107.831 163.998 107.783 164.204 107.72C164.409 107.657 164.551 107.562 164.63 107.452C164.725 107.294 164.772 106.93 164.804 106.346C164.82 106.188 164.836 105.098 164.867 103.075V97.7667C164.867 96.724 164.851 95.7128 164.804 94.7175C164.772 93.9907 164.725 93.5641 164.63 93.4219C164.535 93.2955 164.393 93.185 164.204 93.1218C163.998 93.0586 163.429 93.0112 162.497 93.0112V92.2844C164.014 92.3318 165.183 92.3476 166.005 92.3476C166.795 92.3476 167.964 92.3318 169.496 92.2844V93.0112C168.564 93.027 167.995 93.0586 167.79 93.1218C167.585 93.185 167.458 93.2797 167.363 93.4061C167.269 93.5641 167.205 93.9275 167.19 94.5121C167.174 94.6701 167.158 95.7444 167.126 97.7667V103.075C167.126 104.118 167.142 105.145 167.158 106.125C167.174 106.851 167.237 107.278 167.332 107.42C167.427 107.562 167.569 107.657 167.774 107.72C167.98 107.783 168.548 107.831 169.496 107.847Z" fill="black" stroke="black" stroke-width="0.5"/>
<path d="M186.575 106.535L186.101 107.61C185.169 108.052 184.253 108.384 183.352 108.589C182.452 108.795 181.488 108.889 180.429 108.889C179.197 108.889 178.044 108.747 176.969 108.447C175.911 108.147 174.979 107.72 174.189 107.167C173.399 106.614 172.751 105.998 172.245 105.303C171.74 104.608 171.361 103.865 171.092 103.059C170.823 102.254 170.697 101.369 170.697 100.421C170.697 98.0037 171.582 95.9814 173.367 94.3857C175.137 92.79 177.57 92 180.651 92C181.377 92 182.057 92.0474 182.673 92.1264C183.289 92.2054 184.047 92.3634 184.932 92.5846C185.833 92.8058 186.37 92.9322 186.575 92.9796C186.402 93.3903 186.275 93.8011 186.18 94.2119C186.054 94.8597 185.975 95.618 185.912 96.4712H185.185L185.169 95.1283C185.09 94.3857 184.664 93.8169 183.858 93.4535C183.068 93.0901 181.915 92.9164 180.398 92.9164C179.26 92.9322 178.297 93.0743 177.507 93.3271C176.717 93.5799 176.021 94.0065 175.405 94.5595C174.805 95.1283 174.299 95.8392 173.92 96.7082C173.541 97.5771 173.336 98.6673 173.336 99.9786C173.336 102.285 174.078 104.134 175.547 105.54C177.017 106.946 178.976 107.641 181.409 107.641C182.499 107.641 183.51 107.499 184.458 107.215C185.09 107.025 185.722 106.709 186.354 106.298L186.575 106.535Z" fill="black" stroke="black" stroke-width="0.5"/>
<path d="M115.51 106.535L115.036 107.61C114.104 108.052 113.188 108.384 112.287 108.589C111.387 108.795 110.407 108.889 109.364 108.889C108.132 108.889 106.979 108.747 105.904 108.447C104.846 108.147 103.914 107.72 103.124 107.167C102.334 106.614 101.686 105.998 101.165 105.303C100.659 104.608 100.28 103.865 100.011 103.059C99.7427 102.254 99.6163 101.369 99.6163 100.421C99.6163 98.0037 100.501 95.9814 102.286 94.3857C104.072 92.79 106.505 92 109.57 92C110.297 92 110.976 92.0474 111.592 92.1264C112.208 92.2054 112.967 92.3634 113.851 92.5846C114.736 92.8058 115.289 92.9322 115.495 92.9796C115.321 93.3903 115.194 93.8011 115.1 94.2119C114.973 94.8597 114.894 95.618 114.847 96.4712H114.12L114.104 95.1283C114.025 94.3857 113.599 93.8169 112.793 93.4535C112.003 93.0901 110.85 92.9164 109.333 92.9164C108.195 92.9322 107.232 93.0743 106.442 93.3271C105.652 93.5799 104.941 94.0065 104.34 94.5595C103.74 95.1283 103.234 95.8392 102.855 96.7082C102.476 97.5771 102.271 98.6673 102.271 99.9786C102.271 102.285 103.013 104.134 104.482 105.54C105.952 106.946 107.911 107.641 110.344 107.641C111.434 107.641 112.445 107.499 113.393 107.215C114.025 107.025 114.657 106.709 115.289 106.298L115.51 106.535Z" fill="black" stroke="black" stroke-width="0.5"/>
<path d="M13 93.1375V92.3792C13.8374 92.4424 14.6431 92.474 15.4015 92.474C16.1756 92.474 16.9182 92.4424 17.6292 92.3792C18.3401 93.9117 18.9721 95.2388 19.5567 96.3764L24.1069 105.287L28.2147 97.1348C29.3364 94.9071 30.079 93.3271 30.4582 92.3792C31.2955 92.4424 32.0065 92.474 32.5911 92.474C33.1282 92.474 33.9814 92.4424 35.1821 92.3792V93.1375C34.2342 93.1533 33.6496 93.1849 33.4442 93.2481C33.2388 93.3113 33.0966 93.4061 33.0176 93.5167C32.907 93.6747 32.8596 94.0381 32.8438 94.6069C32.828 94.7649 32.8122 95.8392 32.7807 97.8299V103.091C32.7807 104.134 32.7965 105.129 32.8438 106.109C32.8596 106.82 32.9228 107.246 33.0176 107.388C33.1124 107.531 33.2546 107.625 33.46 107.689C33.6654 107.752 34.2342 107.799 35.1821 107.815V108.542C33.5706 108.479 32.4331 108.447 31.7695 108.447C31.2323 108.447 30.0632 108.479 28.2305 108.542V107.815C29.1784 107.799 29.763 107.752 29.9684 107.689C30.1738 107.625 30.316 107.531 30.395 107.42C30.5056 107.262 30.553 106.899 30.5688 106.314C30.5846 106.156 30.6004 105.082 30.632 103.075V94.7491L26.4926 102.996C25.8448 104.276 25.3392 105.319 24.9758 106.093C24.7072 106.662 24.3123 107.562 23.7751 108.81H23.3011C23.1905 108.51 23.0957 108.273 23.0167 108.115L22.1952 106.441L16.46 95.1282V103.107C16.46 104.134 16.4916 105.145 16.5548 106.125C16.5706 106.851 16.6338 107.262 16.7286 107.404C16.8234 107.546 16.9656 107.641 17.171 107.704C17.3764 107.768 17.9452 107.815 18.9089 107.831V108.558L16.0177 108.463L13 108.558V107.831C13.948 107.815 14.5167 107.768 14.7221 107.704C14.9275 107.641 15.0697 107.546 15.1487 107.436C15.2435 107.278 15.3067 106.914 15.3225 106.33C15.3383 106.172 15.3541 105.098 15.3857 103.091V97.8615C15.3857 96.8346 15.3699 95.8234 15.3225 94.8439C15.3067 94.1329 15.2435 93.7063 15.1487 93.5641C15.0539 93.4377 14.9117 93.3271 14.7063 93.2639C14.5167 93.2007 13.948 93.1533 13 93.1375Z" fill="black" stroke="black" stroke-width="0.5"/>
<path d="M44.5985 95.3652L47.6004 102.238H41.5493L44.5985 95.3652ZM38.5 108.51C39.1794 108.51 40.1905 108.526 41.5335 108.589V107.862C40.7909 107.862 40.2695 107.815 39.9693 107.752C39.7797 107.704 39.6533 107.641 39.5586 107.546C39.4954 107.483 39.4638 107.388 39.4638 107.278C39.4638 107.041 39.5744 106.646 39.8113 106.125L41.1069 103.186H48.0585L49.5437 106.693C49.6543 106.962 49.7017 107.183 49.7017 107.341C49.7017 107.452 49.6701 107.531 49.5911 107.61C49.5279 107.673 49.4015 107.736 49.2119 107.783C49.0223 107.815 48.4693 107.847 47.5846 107.862V108.589L51.4396 108.51C51.9294 108.51 52.8141 108.526 54.0623 108.589V107.862C53.4303 107.862 53.0195 107.815 52.8457 107.72C52.6719 107.641 52.4981 107.467 52.3401 107.199C52.0716 106.725 51.5186 105.556 50.6812 103.691L45.5465 92.2212H44.8039C43.7296 94.6701 43.0344 96.25 42.7026 96.9452L39.7008 103.391C38.8002 105.256 38.2788 106.33 38.1366 106.614C37.8838 107.104 37.6942 107.42 37.5679 107.531C37.4415 107.641 37.2993 107.72 37.1413 107.768C36.9833 107.815 36.5883 107.831 35.9563 107.847V108.573C36.8727 108.526 37.7258 108.51 38.5 108.51Z" fill="black" stroke="black" stroke-width="0.5"/>
<path d="M64.0473 94.8123C64.5213 94.0855 64.7583 93.6589 64.7583 93.5325C64.7583 93.3904 64.6951 93.2956 64.5371 93.2324C64.3791 93.1692 63.6998 93.1218 62.7676 93.106V92.3792C64.2527 92.4266 65.1217 92.4424 65.9433 92.4424C66.7332 92.4424 67.1756 92.4266 68.7397 92.3792V93.106C67.7918 93.1218 67.4442 93.1692 67.2072 93.2324C66.9544 93.2956 66.7648 93.3904 66.591 93.5167C66.3856 93.6747 66.0855 94.0381 65.6589 94.6227L62.1514 99.6469C61.4721 100.705 61.0929 101.353 61.0139 101.59C60.9191 101.827 60.8875 102.064 60.8875 102.27V103.138C60.8875 104.165 60.9033 105.177 60.9507 106.156C60.9665 106.883 61.0297 107.294 61.1245 107.436C61.2193 107.562 61.3615 107.673 61.5669 107.736C61.7565 107.799 62.3252 107.847 63.2574 107.862V108.589C61.9618 108.542 60.8243 108.51 59.8921 108.51C58.9758 108.51 57.7751 108.526 56.2899 108.589V107.862C57.2221 107.847 57.7908 107.799 57.9962 107.736C58.2016 107.673 58.3438 107.578 58.407 107.467C58.5018 107.309 58.5808 106.946 58.5966 106.377C58.6124 106.219 58.6282 105.145 58.6598 103.138V101.811C58.486 101.464 58.328 101.164 58.17 100.895C58.0594 100.705 57.6487 100.058 56.9535 98.9359L53.9042 94.6069C53.5251 94.0223 53.2565 93.6589 53.0669 93.5009C52.9089 93.3746 52.7193 93.2798 52.4823 93.2166C52.2453 93.1534 51.9293 93.106 50.9656 93.0902V92.3634C52.5297 92.4108 53.0037 92.4266 53.7936 92.4266C54.6152 92.4266 56.7323 92.4108 58.2174 92.3634V93.0902C57.3011 93.106 56.4795 93.1534 56.3215 93.2166C56.1635 93.2798 56.0687 93.3746 56.0687 93.5167C56.0687 93.6589 56.2583 94.0855 56.6691 94.7965L60.2397 100.579L64.0473 94.8123Z" fill="black" stroke="black" stroke-width="0.5"/>
<path d="M68.5975 103.786C68.9925 104.876 69.5613 105.809 70.3039 106.567C71.0622 107.325 71.9628 107.91 73.0529 108.305C74.1431 108.684 75.3122 108.889 76.5604 108.889C79.3094 108.889 81.5845 108.036 83.4014 106.33C85.2025 104.624 86.1189 102.491 86.1189 99.9312C86.1189 99.1255 86.0241 98.3829 85.8503 97.6719C85.6765 96.961 85.4237 96.3606 85.1236 95.855C84.7286 95.1598 84.1756 94.5121 83.4962 93.9433C82.8011 93.3587 81.9163 92.8848 80.842 92.5372C79.7676 92.1738 78.5669 92 77.2555 92C75.8336 92 74.5539 92.2054 73.4479 92.6162C72.342 93.027 71.3466 93.6431 70.4619 94.4489C69.5771 95.2704 68.9609 96.1868 68.5817 97.198C68.2026 98.2249 68.013 99.3308 68.013 100.532C68.013 101.622 68.2026 102.696 68.5975 103.786ZM71.236 96.1236C71.71 95.0967 72.4368 94.3225 73.3847 93.7853C74.3485 93.2481 75.4544 92.9796 76.7184 92.9796C77.5873 92.9796 78.4089 93.1059 79.1672 93.3587C79.9256 93.6115 80.5418 93.9275 81.0157 94.3067C81.4897 94.6859 81.9005 95.1282 82.2323 95.6338C82.5799 96.1394 82.8485 96.6924 83.0538 97.3243C83.3856 98.3513 83.5594 99.4572 83.5594 100.674C83.5594 102.096 83.3224 103.344 82.8643 104.434C82.4061 105.524 81.6951 106.362 80.7472 106.946C79.7992 107.546 78.6775 107.831 77.3977 107.831C76.4814 107.831 75.6282 107.689 74.8698 107.388C74.1115 107.088 73.4163 106.63 72.8001 106.014C72.184 105.398 71.6784 104.624 71.2992 103.723C71.0622 103.186 70.8726 102.538 70.7146 101.78C70.5566 101.037 70.4935 100.295 70.4935 99.5836C70.5093 98.3197 70.7462 97.1506 71.236 96.1236Z" fill="black" stroke="black" stroke-width="0.5"/>
</svg>
