<?xml version="1.0" encoding="UTF-8" standalone="no"?>
<svg width="410px" height="240px" viewBox="0 0 410 240" version="1.1" xmlns="http://www.w3.org/2000/svg" xmlns:xlink="http://www.w3.org/1999/xlink" xmlns:sketch="http://www.bohemiancoding.com/sketch/ns">
    <!-- Generator: Sketch 3.4.4 (17249) - http://www.bohemiancoding.com/sketch -->
    <title>ouch</title>
    <desc>Created with Sketch.</desc>
    <defs></defs>
    <g id="Page-1" stroke="none" stroke-width="1" fill="none" fill-rule="evenodd" sketch:type="MSPage">
        <g id="ouch" sketch:type="MSArtboardGroup" stroke="#000000" stroke-width="4" opacity="0.8">
            <path d="M120.328947,145.118421 C134.802631,145.118421 145.723684,134.921053 145.723684,119.592105 C145.723684,104.789474 134.802631,94.0657895 120.328947,94.0657895 C105.855263,94.0657895 95,104.789474 95,119.592105 C95,134.921053 105.855263,145.118421 120.328947,145.118421 L120.328947,145.118421 Z M120.328947,138.210526 C110.592105,138.210526 102.697368,130.907895 102.697368,119.592105 C102.697368,108.210526 110.592105,100.842105 120.328947,100.842105 C130.065789,100.842105 137.960526,108.210526 137.960526,119.592105 C137.960526,130.907895 130.065789,138.210526 120.328947,138.210526 L120.328947,138.210526 Z M178.79386,145.052631 C188.464912,145.052631 198.991228,138.210526 198.662281,123.868421 C198.596491,119.723684 198.530702,116.039474 198.530702,112.289474 C198.530702,108.013158 198.596491,103.539474 198.72807,98.0789474 L198.72807,97.9473684 C198.72807,95.7105263 196.820175,94.5921053 194.912281,94.5921053 C193.596491,94.5921053 191.030702,95.118421 191.096491,98.0789474 C191.162281,100.907895 191.22807,103.802632 191.22807,106.697368 C191.22807,112.486842 191.096491,118.342105 191.096491,124.065789 C191.096491,133.013158 184.714912,137.68421 178.530702,137.68421 C172.54386,137.68421 166.622807,133.407895 166.622807,124.592105 L166.622807,124.394737 L166.622807,121.894737 C166.622807,116.565789 166.491228,111.171053 166.491228,105.776316 C166.491228,103.210526 166.557018,100.644737 166.622807,98.0789474 L166.622807,97.9473684 C166.622807,95.7105263 164.714912,94.5921053 162.872807,94.5921053 C160.241228,94.5921053 158.991228,96.1710526 159.057018,98.0789474 C159.188597,101.894737 159.188597,105.842105 159.188597,109.855263 C159.188597,114.657895 159.188597,119.526316 159.122807,124.131579 L159.122807,124.460526 C159.122807,138.210526 168.925439,145.052631 178.79386,145.052631 L178.79386,145.052631 Z M257.061403,134.460526 C257.061403,132.223684 254.890351,130.25 252.653509,130.25 C251.469298,130.25 250.350877,130.710526 249.429825,131.960526 C246.732456,135.578947 241.798246,137.486842 236.798246,137.486842 C222.916667,137.486842 219.692983,125.118421 219.692983,119.592105 C219.692983,110.710526 225.614035,101.236842 236.732456,101.236842 C240.877193,101.236842 245.02193,102.75 247.587719,105.907895 C248.574561,107.157895 249.758772,107.68421 250.942982,107.68421 C253.048246,107.68421 254.95614,105.842105 254.95614,103.605263 C254.95614,100.052632 247.850877,94 237.390351,94 C221.337719,94 211.929825,106.697368 211.929825,120.052632 C211.929825,132.881579 220.745614,145.052631 237.127193,145.052631 C249.232456,145.052631 257.061403,137.881579 257.061403,134.460526 L257.061403,134.460526 Z M309.407895,141.236842 C309.276316,135.710526 309.210526,126.236842 309.210526,117.026316 C309.210526,109.855263 309.276316,102.815789 309.407895,98.0131579 L309.407895,97.8815789 C309.407895,95.6447368 307.5,94.4605263 305.592105,94.4605263 C303.486842,94.4605263 301.710526,95.8421053 301.776316,98.0131579 C301.842105,100.644737 301.907895,103.276316 301.907895,105.644737 C301.907895,109.263158 301.842105,112.223684 301.776316,113.802632 C301.776316,114.526316 301.513158,114.986842 300.723684,114.986842 C298.355263,115.052632 293.421053,115.052632 288.618421,115.052632 C283.881579,115.052632 279.342105,115.052632 277.697369,114.986842 C277.171053,114.986842 276.644737,114.723684 276.644737,113.736842 C276.578947,112.092105 276.513158,109.131579 276.513158,105.578947 C276.513158,103.276316 276.578947,100.644737 276.644737,98.0131579 L276.644737,97.8815789 C276.644737,95.6447368 274.736842,94.4605263 272.828947,94.4605263 C270.526316,94.4605263 269.013158,95.9078947 269.078947,98.0131579 C269.210526,103.013158 269.276316,109.986842 269.276316,117.355263 C269.276316,125.578947 269.210526,134.263158 269.078947,141.236842 L269.078947,141.302631 C269.078947,143.407895 270.986842,144.460526 272.894737,144.460526 C274.802632,144.460526 276.644737,143.473684 276.644737,141.368421 L276.644737,141.236842 C276.513158,138.210526 276.513158,135.25 276.513158,132.618421 C276.513158,128.276316 276.578947,124.789474 276.644737,123.078947 C276.644737,122.092105 277.368421,122.026316 277.894737,122.026316 C280.460526,121.960526 285.526316,121.894737 290.394737,121.894737 C294.342105,121.894737 298.223684,121.960526 300.526316,122.026316 C301.513158,122.092105 301.776316,122.223684 301.776316,123.276316 C301.842105,125.052632 301.907895,128.473684 301.907895,132.618421 C301.907895,135.315789 301.842105,138.276316 301.776316,141.236842 L301.776316,141.368421 C301.776316,143.473684 303.684211,144.460526 305.592105,144.526316 C307.5,144.526316 309.407895,143.407895 309.407895,141.302631 L309.407895,141.236842 Z" id="OUCH" sketch:type="MSShapeGroup"></path>
        </g>
    </g>
</svg>