<?xml version="1.0" encoding="UTF-8" standalone="no"?>
<svg width="200px" height="200px" viewBox="0 0 200 200" version="1.1" xmlns="http://www.w3.org/2000/svg" xmlns:xlink="http://www.w3.org/1999/xlink">
    <!-- Generator: Sketch 3.7 (28169) - http://www.bohemiancoding.com/sketch -->
    <title>ouch</title>
    <desc>Created with Sketch.</desc>
    <defs></defs>
    <g id="Page-1" stroke="none" stroke-width="1" fill="none" fill-rule="evenodd" opacity="0.8">
        <g id="ouch" stroke="#000000" stroke-width="3">
            <path d="M28.6541272,121.701966 C41.0279142,121.701966 50.3644989,112.98407 50.3644989,99.8791052 C50.3644989,87.2240958 41.0279142,78.0562445 28.6541272,78.0562445 C16.2803402,78.0562445 7,87.2240958 7,99.8791052 C7,112.98407 16.2803402,121.701966 28.6541272,121.701966 L28.6541272,121.701966 Z M28.6541272,115.796295 C20.3299432,115.796295 13.5806049,109.553157 13.5806049,99.8791052 C13.5806049,90.148809 20.3299432,83.8494266 28.6541272,83.8494266 C36.9783112,83.8494266 43.7276495,90.148809 43.7276495,99.8791052 C43.7276495,109.553157 36.9783112,115.796295 28.6541272,115.796295 L28.6541272,115.796295 Z M78.6367275,121.645721 C86.904667,121.645721 95.9037848,115.796295 95.6225624,103.534997 C95.5663179,99.9915941 95.5100734,96.8419029 95.5100734,93.6359672 C95.5100734,89.9800756 95.5663179,86.1554505 95.6788069,81.4871581 L95.6788069,81.3746692 C95.6788069,79.4623566 94.0477168,78.5062004 92.4166267,78.5062004 C91.2917369,78.5062004 89.098202,78.9561563 89.1544464,81.4871581 C89.2106909,83.9056711 89.2669354,86.3804285 89.2669354,88.8551859 C89.2669354,93.8047006 89.1544464,98.8104599 89.1544464,103.70373 C89.1544464,111.35298 83.6987313,115.346339 78.4117496,115.346339 C73.2935013,115.346339 68.2314976,111.690447 68.2314976,104.153686 L68.2314976,103.984953 L68.2314976,101.847662 C68.2314976,97.2918588 68.1190086,92.6798109 68.1190086,88.067763 C68.1190086,85.8742281 68.1752531,83.6806931 68.2314976,81.4871581 L68.2314976,81.3746692 C68.2314976,79.4623566 66.6004074,78.5062004 65.0255618,78.5062004 C62.7757824,78.5062004 61.7071371,79.856068 61.7633816,81.4871581 C61.8758706,84.7493384 61.8758706,88.1240075 61.8758706,91.5549212 C61.8758706,95.6607687 61.8758706,99.8228607 61.8196261,103.759975 L61.8196261,104.041197 C61.8196261,115.796295 70.2000546,121.645721 78.6367275,121.645721 L78.6367275,121.645721 Z M145.548918,112.590359 C145.548918,110.678047 143.69285,108.990712 141.780538,108.990712 C140.768137,108.990712 139.811981,109.384423 139.024558,110.453069 C136.718534,113.546515 132.500197,115.177605 128.225616,115.177605 C116.35803,115.177605 113.60205,104.603642 113.60205,99.8791052 C113.60205,92.2860995 118.664054,84.1868935 128.169372,84.1868935 C131.712775,84.1868935 135.256177,85.4805167 137.449712,88.180252 C138.293379,89.2488973 139.30578,89.6988531 140.318181,89.6988531 C142.118005,89.6988531 143.749095,88.1240075 143.749095,86.211695 C143.749095,83.1744927 137.67469,78 128.731817,78 C115.008162,78 106.965201,88.8551859 106.965201,100.272817 C106.965201,111.240491 114.501962,121.645721 128.506839,121.645721 C138.855824,121.645721 145.548918,115.515072 145.548918,112.590359 L145.548918,112.590359 Z M190.300781,118.383541 C190.188292,113.659004 190.132048,105.559798 190.132048,97.6855702 C190.132048,91.5549212 190.188292,85.5367612 190.300781,81.4309137 L190.300781,81.3184247 C190.300781,79.4061122 188.669691,78.3937114 187.038601,78.3937114 C185.238777,78.3937114 183.720176,79.5748456 183.776421,81.4309137 C183.832665,83.6806931 183.88891,85.9304726 183.88891,87.9552741 C183.88891,91.0487208 183.832665,93.5797227 183.776421,94.9295904 C183.776421,95.5482797 183.551443,95.9419911 182.876509,95.9419911 C180.851708,95.9982356 176.633371,95.9982356 172.527524,95.9982356 C168.477921,95.9982356 164.597051,95.9982356 163.190939,95.9419911 C162.740983,95.9419911 162.291027,95.7170132 162.291027,94.8733459 C162.234783,93.4672337 162.178538,90.9362318 162.178538,87.8990296 C162.178538,85.9304726 162.234783,83.6806931 162.291027,81.4309137 L162.291027,81.3184247 C162.291027,79.4061122 160.659937,78.3937114 159.028847,78.3937114 C157.06029,78.3937114 155.766667,79.6310901 155.822911,81.4309137 C155.9354,85.7054946 155.991645,91.6674102 155.991645,97.9667926 C155.991645,104.997353 155.9354,112.421626 155.822911,118.383541 L155.822911,118.439786 C155.822911,120.239609 157.454001,121.139521 159.085091,121.139521 C160.716181,121.139521 162.291027,120.295854 162.291027,118.49603 L162.291027,118.383541 C162.178538,115.796295 162.178538,113.265293 162.178538,111.015513 C162.178538,107.303377 162.234783,104.32242 162.291027,102.860063 C162.291027,102.016396 162.909716,101.960151 163.359672,101.960151 C165.553207,101.903907 169.884033,101.847662 174.046125,101.847662 C177.420794,101.847662 180.739219,101.903907 182.707776,101.960151 C183.551443,102.016396 183.776421,102.128885 183.776421,103.028796 C183.832665,104.547398 183.88891,107.472111 183.88891,111.015513 C183.88891,113.321537 183.832665,115.852539 183.776421,118.383541 L183.776421,118.49603 C183.776421,120.295854 185.407511,121.139521 187.038601,121.195765 C188.669691,121.195765 190.300781,120.239609 190.300781,118.439786 L190.300781,118.383541 Z" id="OUCH"></path>
        </g>
    </g>
</svg>