<?xml version="1.0" encoding="UTF-8" standalone="no"?>
<svg width="410px" height="240px" viewBox="0 0 410 240" version="1.1" xmlns="http://www.w3.org/2000/svg" xmlns:xlink="http://www.w3.org/1999/xlink" xmlns:sketch="http://www.bohemiancoding.com/sketch/ns">
    <!-- Generator: Sketch 3.4.4 (17249) - http://www.bohemiancoding.com/sketch -->
    <title>penner</title>
    <desc>Created with Sketch.</desc>
    <defs></defs>
    <g id="Page-1" stroke="none" stroke-width="1" fill="none" fill-rule="evenodd" sketch:type="MSPage">
        <g id="penner" sketch:type="MSArtboardGroup" fill="#000000" opacity="0.8">
            <path d="M314.826164,141.296389 C314.458111,141.167147 307.915695,138.856688 307.043373,137.620876 L295.700954,121.552148 C293.644713,118.639086 295.728032,114.618489 299.293709,114.618489 C301.522499,114.618489 302.821845,113.299942 302.821845,109.528232 C302.821845,107.808255 300.944457,105.897195 299.165343,105.895321 C299.062354,105.892313 298.863747,105.88691 298.582867,105.879906 C298.11194,105.868163 297.585272,105.856405 297.016269,105.845425 C295.284785,105.812013 293.547825,105.792938 291.933953,105.795521 C290.115023,105.798431 288.579671,105.829141 287.43987,105.890778 L287.202404,101.499551 L291.600048,101.499551 L291.600048,123.453951 C291.600048,129.512883 289.180585,133.570223 284.274383,135.412664 C281.054737,136.621747 278.325137,136.782573 269.815151,136.737978 C268.509819,136.731137 267.831464,136.728565 267.028196,136.728565 C251.661953,136.728565 246.867647,132.25644 246.867647,117.624985 C246.867647,109.849493 247.36514,105.951038 249.347909,102.714945 C251.836815,98.6527806 256.002815,97.1019071 262.425339,97.1019071 C275.249214,97.1019071 278.780121,101.797001 278.780121,117.624986 C278.780121,119.416234 277.693679,121.028482 276.033454,121.700958 L239.727084,136.406893 C236.835905,137.577968 233.678463,135.450269 233.678463,132.330921 L233.678463,113.394552 L238.076107,113.394552 L233.742735,114.14366 C233.417447,112.261958 233.229624,111.596579 232.705052,110.758241 C231.060177,108.129503 226.619205,106.227918 217.30015,105.894381 L221.855089,101.499551 L221.855089,132.33092 C221.855089,134.759671 219.886197,136.728564 217.457445,136.728563 C217.457445,136.728563 206.924006,136.730361 206.773707,136.738025 C206.40325,136.756916 206.199433,136.76341 205.903924,136.756767 C202.443659,136.678976 200.064144,134.328203 199.475339,130.289819 C199.444706,130.079715 199.429329,129.867668 199.429329,129.655342 L199.429329,113.394551 C199.429329,112.215599 198.8551,110.771324 197.442907,109.499888 C194.999803,107.300294 190.49377,105.897195 183.357517,105.897195 L187.755161,101.499551 L187.755161,132.33092 C187.755161,134.717863 185.851065,136.669005 183.464833,136.727254 C150.001687,137.544103 142.838329,134.163633 142.838329,117.624985 C142.838329,108.832445 144.272218,103.437066 147.832714,100.24214 C150.862132,97.523763 153.476573,97.1019073 160.056691,97.1019071 C171.473331,97.1019074 176.697597,103.969067 174.814114,118.201912 C174.606208,119.772984 173.569073,121.11068 172.099333,121.703432 L138.250326,135.354881 C135.997862,136.263309 133.435453,135.173753 132.527025,132.921289 C131.618597,130.668826 132.708153,128.106417 134.960616,127.197988 L168.809623,113.54654 L166.094842,117.04806 C166.774461,111.91241 166.344837,108.851528 165.266247,107.43375 C164.507305,106.43614 162.968493,105.897195 160.056691,105.897195 C155.760729,105.897195 154.467279,106.105901 153.706775,106.788321 C152.490902,107.879356 151.633617,111.105113 151.633617,117.624985 C151.633617,123.247193 152.182569,124.704436 154.547558,125.820501 C158.437862,127.65638 166.852825,128.334852 183.250201,127.934585 L178.959873,132.33092 L178.959873,101.499551 C178.959873,99.0707992 180.928766,97.1019071 183.357517,97.1019071 C192.505568,97.1019072 199.097045,99.1543765 203.327828,102.963467 C206.696877,105.996715 208.224617,109.839218 208.224616,113.394552 L208.224616,129.655342 L203.826972,129.655342 L208.178605,129.020866 C208.212329,129.252166 208.243596,129.374679 208.249997,129.390283 C208.178138,129.215106 208.03078,128.985418 207.788889,128.746448 C207.222491,128.186892 206.57436,127.974329 206.325775,127.954151 C206.632359,127.938517 206.765836,127.933276 206.983668,127.933276 L217.457445,127.933276 L213.059801,132.33092 L213.059801,101.499551 C213.059801,99.0091285 215.125911,97.0156436 217.61474,97.1047211 C229.572618,97.5327046 236.719572,100.592967 240.161,106.092845 C240.916789,107.300701 241.449139,108.557949 241.8285,109.901869 C241.973144,110.414279 242.091174,110.922318 242.198364,111.468311 C242.238991,111.675249 242.276865,111.881187 242.317903,112.114909 C242.34115,112.247311 242.415467,112.680087 242.409478,112.645445 C242.452248,112.892855 242.473751,113.143473 242.473751,113.394552 L242.473751,132.330921 L236.42513,128.254949 L272.731501,113.549014 L269.984834,117.624986 C269.984834,111.246039 269.505312,108.207525 268.636879,107.052759 C268.081907,106.314805 266.567439,105.897195 262.425339,105.897195 C258.745391,105.897195 257.407997,106.395065 256.847446,107.309945 C256.030111,108.643924 255.662935,111.521194 255.662935,117.624985 C255.662935,122.942752 256.232495,125.343586 257.270674,126.311998 C258.395124,127.360884 261.168377,127.933277 267.028196,127.933277 C267.851327,127.933277 268.541199,127.935893 269.86124,127.942811 C277.017459,127.980312 279.425907,127.838408 281.182305,127.178823 C282.41331,126.71654 282.80476,126.060094 282.80476,123.453951 L282.80476,101.499551 C282.80476,99.1630703 284.631865,97.2344899 286.964937,97.1083232 C288.286355,97.0368642 289.96043,97.0033801 291.919878,97.0002443 C293.602329,96.9975518 295.397876,97.0172707 297.185956,97.0517745 C297.772138,97.0630858 298.315233,97.0752109 298.802113,97.0873514 C299.095918,97.0946776 299.306968,97.1004196 299.422075,97.103781 L299.293709,101.499551 L299.29371,97.1019071 C305.837301,97.1019074 311.617133,102.985405 311.617133,109.528232 C311.617133,118.128799 306.409116,123.413776 299.293709,123.413776 L299.293709,119.016132 L302.886465,116.480117 L314.228885,132.548845 C314.886615,133.480646 314.999991,134.520164 315,135.629071 C315.000009,136.737978 314.842317,141.30205 314.842317,141.30205 C314.842317,141.30205 314.839953,141.301225 314.835306,141.299596 L314.835343,141.30054 L314.826164,141.296389 Z M101.035587,132.042656 C101.345363,131.950092 101.704438,131.842547 102.108713,131.721161 C103.262853,131.374623 104.548516,130.986447 105.932935,130.565757 C109.889579,129.363431 133.309556,121.772045 135.070673,120.672137 C137.006778,119.462939 138.413427,117.858452 139.299111,115.981246 C139.833284,114.849066 140.151265,113.682657 140.310369,112.476704 C140.415556,111.679426 140.437949,111.1011 140.437949,110.182258 C140.437949,102.539108 136.63358,97.0762012 128.354365,97.0762012 C127.990812,97.0762012 127.990812,97.0762012 126.375239,97.0762012 C121.56935,97.0762012 121.56935,97.0762012 114.181681,97.0762012 C111.75293,97.0762013 109.784037,99.0450934 109.784037,101.473845 L109.784037,138.894905 C109.784037,141.323657 111.75293,143.292549 114.181681,143.292549 C116.610433,143.292549 118.579325,141.323657 118.579325,138.894905 L118.579325,105.871488 C125.966993,105.871488 121.56935,105.871489 126.375239,105.871489 C127.990812,105.871489 127.990812,105.871489 128.354365,105.871489 C130.954819,105.871489 131.642661,106.8592 131.642661,110.182258 C131.642661,111.217306 131.573159,111.744104 131.344718,112.228286 C131.170343,112.597874 130.898129,112.908373 130.411585,113.212245 C130.125878,113.390683 128.403821,114.07787 125.921362,114.950459 C123.490712,115.804836 107.30238,120.957215 103.375726,122.150428 C102.00099,122.568175 100.72458,122.953557 99.5794251,123.297398 C99.1789463,123.417644 98.8235974,123.524073 98.5174908,123.615541 C98.2079991,123.707937 98.2079991,123.707937 98.1446513,123.726785 C95.8167604,124.419431 94.4911325,126.86806 95.1837784,129.195951 C95.8764243,131.523842 98.3250532,132.84947 100.652944,132.156824 L101.035587,132.042656 Z" id="Shape" sketch:type="MSShapeGroup"></path>
        </g>
    </g>
</svg>