<?xml version="1.0" encoding="UTF-8" standalone="no"?>
<svg width="200px" height="200px" viewBox="0 0 200 200" version="1.1" xmlns="http://www.w3.org/2000/svg" xmlns:xlink="http://www.w3.org/1999/xlink">
    <!-- Generator: Sketch 3.7 (28169) - http://www.bohemiancoding.com/sketch -->
    <title>penner</title>
    <desc>Created with Sketch.</desc>
    <defs></defs>
    <g id="Page-1" stroke="none" stroke-width="1" fill="none" fill-rule="evenodd" stroke-linecap="round" stroke-linejoin="round">
        <g id="penner" stroke="#000000" stroke-width="8">
            <g id="Group" transform="translate(8.000000, 84.000000)">
                <path d="M31.6987305,25.5942383 L59.4916992,14.5039063 C59.4916992,14.5039063 62.0205078,0.909667969 51.4663086,0.778808594 C40.9121094,0.647949219 40.4257812,6.51025391 40.2543945,15.2900391 C40.4633789,18.9975586 38.9760742,26.9975586 57.5327148,27.003418 C66.7353516,27.1040039 70.5458984,27.0859375 70.5458984,27.0859375 L70.5458984,0.632234944 C70.5458984,0.632234944 87.5678711,0.683105469 87.5678711,11.105957 L87.5678711,26.8081375 L99.4652395,26.8081375 L99.4652395,0.922947632 C99.4652395,0.922947632 116.959961,1.14697266 116.709961,11.2768555 C116.459961,21.4067383 116.454102,27.0014648 116.454102,27.0014648 C116.454102,27.0014648 138.395996,17.3554688 146.082031,14.222168 C146.082031,14.222168 148.75293,0.71875 137.687012,0.474609375 C126.621094,0.23046875 127.959961,9.19482422 127.683594,15.440918 C127.579102,19.6616211 126.970215,27.8847656 143.34375,27.1425781 L157.649414,26.9785156 L157.867676,0.928710938 L168.77832,0.928710938 C172.748535,1.09423828 176.756355,3.65894647 176.680176,7.5546875 C177.108887,13.5805664 169.436523,15.9052734 169.436523,15.9052734 L181.635254,32.3759766" id="Path-80"></path>
                <path d="M12.3310547,32.8818359 L12.3310547,0.881835938 L25.5986852,0.881835938 L27.1342773,1.14550781 C27.1342773,1.14550781 31.0922852,2.22875977 31.3310547,6.88183594 C31.5698242,11.5349121 29.1865234,13.043457 27.3310547,13.8818359 C27.0767806,13.9967277 25.5986852,14.5549433 25.5986852,14.5549433 L0.331054688,22.8818359" id="Path-79"></path>
            </g>
        </g>
    </g>
</svg>