<?xml version="1.0" encoding="UTF-8" standalone="no"?>
<svg width="200px" height="200px" viewBox="0 0 200 200" version="1.1" xmlns="http://www.w3.org/2000/svg" xmlns:xlink="http://www.w3.org/1999/xlink">
    <!-- Generator: Sketch 3.8.3 (29802) - http://www.bohemiancoding.com/sketch -->
    <title>penner</title>
    <desc>Created with Sketch.</desc>
    <defs></defs>
    <g id="logos" stroke="none" stroke-width="1" fill="none" fill-rule="evenodd" stroke-linecap="round" stroke-linejoin="round">
        <g id="penner" stroke="#000000" stroke-width="5.184">
            <path d="M60.5727773,106.393066 L78.5826211,99.2065313 C78.5826211,99.2065313 80.2212891,90.3974648 73.382168,90.312668 C66.5430469,90.2278711 66.2279063,94.0266445 66.1168477,99.7159453 C66.2522695,102.118418 65.2884961,107.302418 77.3131992,107.306215 C83.2765078,107.371395 85.7457422,107.359687 85.7457422,107.359687 L85.7457422,90.2176882 C85.7457422,90.2176882 96.7759805,90.2506523 96.7759805,97.0046602 L96.7759805,107.179673 L104.485475,107.179673 L104.485475,90.4060701 C104.485475,90.4060701 115.822055,90.5512383 115.660055,97.1154023 C115.498055,103.679566 115.494258,107.304949 115.494258,107.304949 C115.494258,107.304949 129.712605,101.054344 134.693156,99.0239648 C134.693156,99.0239648 136.423898,90.27375 129.253184,90.1155469 C122.082469,89.9573437 122.950055,95.7662461 122.770969,99.8137148 C122.703258,102.54873 122.308699,107.877328 132.91875,107.396391 L142.18882,107.290078 L142.330254,90.4098047 L149.400352,90.4098047 C151.973051,90.5170664 154.570118,92.1789973 154.520754,94.7034375 C154.798559,98.608207 149.826867,100.114617 149.826867,100.114617 L157.731645,110.787633" id="Path-80"></path>
            <path d="M48.0225234,111.11543 L48.0225234,90.3794297 L56.619948,90.3794297 L57.6150117,90.5502891 C57.6150117,90.5502891 60.1798008,91.2522363 60.3345234,94.2674297 C60.4892461,97.282623 58.9448672,98.2601602 57.7425234,98.8034297 C57.5777539,98.8778795 56.619948,99.2396033 56.619948,99.2396033 L40.2465234,104.63543" id="Path-79"></path>
        </g>
    </g>
</svg>