<?xml version="1.0" encoding="UTF-8" standalone="no"?>
<svg width="200px" height="200px" viewBox="0 0 200 200" version="1.1" xmlns="http://www.w3.org/2000/svg" xmlns:xlink="http://www.w3.org/1999/xlink">
    <!-- Generator: Sketch 3.6.1 (26313) - http://www.bohemiancoding.com/sketch -->
    <title>piggy</title>
    <desc>Created with Sketch.</desc>
    <defs></defs>
    <g id="Page-1" stroke="none" stroke-width="1" fill="none" fill-rule="evenodd">
        <g id="piggy" stroke="#000000">
            <path d="M83,64 C81.9952484,62.4865474 80.1803297,61.0717345 77.0065444,61.0717346" id="Path-30" stroke-width="4.22231049" stroke-linecap="round" stroke-linejoin="round"></path>
            <path d="M89.0001533,83.6458166 L91.8178175,83.3993029 C91.8178175,83.3993029 92.6823882,78.5054665 90.6527418,78.5054665 C88.6230953,78.5054665 89.0001533,83.6458166 89.0001533,83.6458166 Z" id="Oval-9" stroke-width="4.22" stroke-linecap="round" stroke-linejoin="round" transform="translate(90.486632, 81.075642) rotate(-40.000000) translate(-90.486632, -81.075642) "></path>
            <path d="M108.000153,83.6458166 L110.817817,83.3993029 C110.817817,83.3993029 111.682388,78.5054665 109.652742,78.5054665 C107.623095,78.5054665 108.000153,83.6458166 108.000153,83.6458166 Z" id="Oval-9" stroke-width="4.22" stroke-linecap="round" stroke-linejoin="round" transform="translate(109.486632, 81.075642) scale(-1, 1) rotate(-40.000000) translate(-109.486632, -81.075642) "></path>
            <path d="M99.475,101.161462 C110.535385,101.161462 111.55,96.6594626 111.55,91.1059645 C111.55,85.5524665 106.143838,81.0504669 99.475,81.0504669 C92.8061616,81.0504669 87.4,85.5524665 87.4,91.1059645 C87.4,96.6594626 88.4146146,101.161463 99.475,101.161462 Z" id="Oval-11" stroke-width="4.22231049" stroke-linecap="round" stroke-linejoin="round"></path>
            <path d="M103.040134,89.6306061 L103.259866,92.7982912" id="Path-28" stroke-width="4.22231049" stroke-linecap="round" stroke-linejoin="round"></path>
            <path d="M96.0463843,89.6462858 L95.5536157,92.7826114" id="Path-28" stroke-width="4.22231049" stroke-linecap="round" stroke-linejoin="round"></path>
            <path d="M78.9562992,131.649 L78.9562992,142.868815 C78.9562992,142.868815 78.5377963,148.584575 85.2417315,148.584575 C92.2877598,148.584576 91.5271637,142.868815 91.5271637,142.868815 L91.5271637,139.259618" id="Path-69" stroke-width="4.22231049" stroke-linecap="round" stroke-linejoin="round"></path>
            <path d="M110.104013,133.649 L110.104013,142.868815 C110.104013,142.868815 109.68551,148.584575 116.389445,148.584575 C123.435473,148.584576 122.674877,142.868815 122.674877,142.868815 L122.674877,138.084197" id="Path-69" stroke-width="4" stroke-linecap="round" stroke-linejoin="round" transform="translate(116.398857, 141.116788) scale(-1, 1) translate(-116.398857, -141.116788) "></path>
            <path d="M70.0462948,102.815006 L63.2971108,111.829947 C63.2971108,111.829947 60.2750897,116.1519 65.3152264,120.375456 C70.3553631,124.599012 74.264005,119.097697 74.264005,119.097697 L78.970548,112.935673" id="Path-34" stroke-width="4.22231049" stroke-linecap="round" stroke-linejoin="round" transform="translate(70.684551, 112.392658) rotate(-330.000000) translate(-70.684551, -112.392658) "></path>
            <path d="M86.8640783,136.945064 C86.8640783,136.945064 90.8222323,138.360441 100.479502,138.360441 C104.310257,138.360441 107.348644,138.322599 109.494578,138.053869" id="Path-73" stroke-width="4.22231049" stroke-linecap="round" stroke-linejoin="round"></path>
            <path d="M129.249186,102.815006 L122.500002,111.829947 C122.500002,111.829947 119.477981,116.1519 124.518118,120.375456 C129.558255,124.599012 133.466896,119.097697 133.466896,119.097697 L138.173439,112.935673" id="Path-34" stroke-width="4.22231049" stroke-linecap="round" stroke-linejoin="round" transform="translate(129.887443, 112.392658) scale(-1, 1) rotate(-330.000000) translate(-129.887443, -112.392658) "></path>
            <path d="M120.857778,63.1903967 C119.752336,61.9191568 118.023834,60.6763908 115.490593,60.6763908" id="Path-30" stroke-width="4.22231049" stroke-linecap="round" stroke-linejoin="round" transform="translate(118.174185, 61.933394) scale(-1, 1) translate(-118.174185, -61.933394) "></path>
            <path d="M87,137 C87,137 93,140 110,138" id="Path-75" stroke-width="4.22" stroke-linecap="round" stroke-linejoin="round"></path>
            <path d="M107,61.9444444 C107,61.9444444 110,51.9444444 127,55.9444444 C130,69.9444444 126,73.9444444 126,73.9444444" id="Path-76" stroke-width="4.22"></path>
            <path d="M70,61.9444444 C70,61.9444444 73,51.9444444 90,55.9444444 C93,69.9444444 87.1157025,74.9444444 87.1157025,74.9444444" id="Path-76" stroke-width="4.22" transform="translate(80.426103, 64.972222) scale(-1, 1) translate(-80.426103, -64.972222) "></path>
            <path d="M129,106 L129,87 C129,87 130,61 99,61 C68,61 70,87 70,87 L70,105" id="Path-78" stroke-width="4.22"></path>
            <path d="M122,134 C122,134 129,131 129,120" id="Path-79" stroke-width="4.22"></path>
            <path d="M71,134 C71,134 78,133 78,120" id="Path-79" stroke-width="4.22" transform="translate(74.500000, 127.000000) scale(-1, 1) translate(-74.500000, -127.000000) "></path>
        </g>
    </g>
</svg>