<?xml version="1.0" encoding="UTF-8" standalone="no"?>
<svg width="200px" height="200px" viewBox="0 0 200 200" version="1.1" xmlns="http://www.w3.org/2000/svg" xmlns:xlink="http://www.w3.org/1999/xlink">
    <defs></defs>
    <g stroke="none" stroke-width="1" fill="none" fill-rule="evenodd">
        <g>
            <path d="M74.35,141.957831 C74.35,140.379827 75.6192535,138.974147 77.1911548,138.821585 L97.6269031,137.2608 C99.1998636,137.224892 101.754226,137.211396 103.337115,137.261351 L123.758845,138.821585 C125.327972,138.975682 126.6,140.383038 126.6,141.957831 L126.6,141.957831 C126.6,143.535835 125.33575,144.942999 123.758773,145.098174 L103.321108,146.658124 C101.749246,146.692231 99.1889268,146.705099 97.6146617,146.657586 L77.1912266,145.098174 C75.6220605,144.941815 74.35,143.532624 74.35,141.957831 L74.35,141.957831 Z" fill-opacity="0.15" fill="#000000"></path>
            <g transform="translate(82.704412, 66.633434) rotate(-10.000000) translate(-82.704412, -66.633434) translate(72.729412, 55.680723)">
                <path d="M9.54658906,21.0422997 C9.54658906,21.0422997 -5.71988598,21.0423 2.91207881,0.285458335 C18.5744187,0.285458299 19.5244184,7.80665095 19.5244184,7.80665095 L9.54658906,21.0422997 Z" stroke="#3E3D3E" stroke-width="3.808" stroke-linecap="round" stroke-linejoin="round" fill="#FFADAD"></path>
                <path d="M13.308771,11.2856906 C13.308771,11.2856906 11.6678969,6.60051865 6.97644751,6.60051874 C2.28499808,6.60051884 6.97644754,18.0585796 9.52412109,15.9882048" fill="#F97E7E"></path>
                <path d="M13.308771,11.2856906 C13.308771,11.2856906 11.6678969,6.60051865 6.97644751,6.60051874" stroke="#3E3D3E" stroke-width="3.808" stroke-linecap="round" stroke-linejoin="round" fill="#FFADAD"></path>
            </g>
            <g transform="translate(115.758824, 66.885542) rotate(-350.000000) translate(-115.758824, -66.885542) translate(105.979412, 56.240964)">
                <path d="M9.54658906,21.0422997 C9.54658906,21.0422997 -5.71988598,21.0423 2.91207881,0.285458335 C18.5744187,0.285458299 19.5244184,7.80665095 19.5244184,7.80665095 L9.54658906,21.0422997 Z" stroke="#3E3D3E" stroke-width="3.808" stroke-linecap="round" stroke-linejoin="round" fill="#FFADAD" transform="translate(9.896209, 10.663879) scale(-1, 1) translate(-9.896209, -10.663879) "></path>
                <path d="M14.258771,11.2856906 C14.258771,11.2856906 12.6178969,6.60051865 7.92644751,6.60051874 C3.23499808,6.60051884 7.92644754,18.0585796 10.4741211,15.9882048" fill="#F97E7E" transform="translate(10.091913, 11.419471) scale(-1, 1) translate(-10.091913, -11.419471) "></path>
                <path d="M12.358771,11.2856906 C12.358771,11.2856906 10.7178969,6.60051865 6.02644751,6.60051874" stroke="#3E3D3E" stroke-width="3.808" stroke-linecap="round" stroke-linejoin="round" fill="#FFADAD" transform="translate(9.192609, 8.943105) scale(-1, 1) translate(-9.192609, -8.943105) "></path>
            </g>
            <g transform="translate(72.450000, 61.955422)">
                <path d="M0.95,56.3886868 C0.949999893,51.6291592 0.95,23.4160014 0.95,23.4160014 C0.95,17.7851364 3.40224654,-6.57740955e-07 27.3361921,0 C49.5703371,6.57740962e-07 53.7223833,17.24891 53.7223841,23.4160014 C53.7223841,23.4160014 53.7223833,51.3426923 53.7223841,56.3886868 C53.722385,61.4346813 48.7831414,70.6123426 27.0498701,70.6123415 C5.31659882,70.6123403 0.950000107,61.1482143 0.95,56.3886868 Z" stroke="#3E3D3E" stroke-width="3.808" stroke-linecap="round" stroke-linejoin="round" fill="#FFADAD"></path>
                <path d="M8.38764648,51.7537909 C8.38764648,51.7537909 5.06914076,62.6324835 27.5731935,62.6324835 C50.0772462,62.6324835 49.7274902,51.7537909 49.7274902,51.7537909 L55.0248535,54.6649649 C55.0248535,54.6649649 55.0248535,73.3094997 27.5731934,71.4800175 C-3.72485352,69.6505353 0.34140625,53.9162445 0.34140625,53.9162445 L8.38764648,51.7537909 Z" fill="#F97E7E"></path>
                <path d="M0.95,56.3886868 C0.949999893,51.6291592 0.95,23.4160014 0.95,23.4160014 C0.95,17.7851364 3.40224654,-6.57740955e-07 27.3361921,0 C49.5703371,6.57740962e-07 53.7223833,17.24891 53.7223841,23.4160014 C53.7223841,23.4160014 53.7223833,51.3426923 53.7223841,56.3886868 C53.722385,61.4346813 48.7831414,70.6123426 27.0498701,70.6123415 C5.31659882,70.6123403 0.950000107,61.1482143 0.95,56.3886868 Z" stroke="#3E3D3E" stroke-width="3.808" stroke-linecap="round" stroke-linejoin="round"></path>
            </g>
            <g transform="translate(84.800000, 74.784940)" fill="#3E3D3E">
                <path d="M8.21555103,15.5957078 C12.7252678,15.5957078 11.540551,6.12684799 11.540551,4.28584337 C11.540551,2.44483876 10.0518978,0.952409639 8.21555103,0.952409639 C6.37920423,0.952409639 4.89055103,2.44483876 4.89055103,4.28584337 C4.89055103,6.12684799 3.70583423,15.5957078 8.21555103,15.5957078 Z" transform="translate(8.215551, 8.274059) rotate(-40.000000) translate(-8.215551, -8.274059) "></path>
                <path d="M21.515551,15.5957078 C26.0252678,15.5957078 24.840551,6.12684799 24.840551,4.28584337 C24.840551,2.44483876 23.3518978,0.952409639 21.515551,0.952409639 C19.6792042,0.952409639 18.190551,2.44483876 18.190551,4.28584337 C18.190551,6.12684799 17.0058342,15.5957078 21.515551,15.5957078 Z" transform="translate(21.515551, 8.274059) scale(-1, 1) rotate(-40.000000) translate(-21.515551, -8.274059) "></path>
            </g>
            <g transform="translate(88.600000, 80.499398)">
                <path d="M10.925,21.9054217 C20.7457416,21.9054204 21.85,19.1197494 21.85,13.3337349 C21.85,7.54772043 16.9587109,0.952409639 10.925,0.952409639 C4.89128911,0.952409639 0,7.54772043 0,13.3337349 C0,19.1197494 1.10425844,21.905423 10.925,21.9054217 Z" fill="#F97E7E"></path>
                <path d="M10.925,18.0957831 C20.9320154,18.0957827 21.85,14.0449041 21.85,9.04789157 C21.85,4.05087904 16.9587109,0 10.925,0 C4.89128911,0 0,4.05087904 0,9.04789157 C0,14.0449041 0.917984637,18.0957836 10.925,18.0957831 Z" stroke="#373737" stroke-width="3.808" stroke-linecap="round" stroke-linejoin="round"></path>
                <path d="M14.150597,7.72037064 L14.349403,10.5706395" stroke="#3E3D3E" stroke-width="3.808" stroke-linecap="round" stroke-linejoin="round" fill="#FFADAD"></path>
                <path d="M7.82291911,7.73447923 L7.37708089,10.5565309" stroke="#3E3D3E" stroke-width="3.808" stroke-linecap="round" stroke-linejoin="round" fill="#FFADAD"></path>
            </g>
            <g transform="translate(80.050000, 125.766867)">
                <path d="M0.910461198,0.260862914 L0.910461198,10.3564015 C0.910461198,10.3564015 0.531815732,15.4994168 6.59728084,15.4994171 C12.9722589,15.4994175 12.2841005,10.3564015 12.2841005,10.3564015 L12.2841005,4.25163322" fill="#F97E7E"></path>
                <path d="M0.910461198,0.260862914 L0.910461198,10.3564015 C0.910461198,10.3564015 0.531815732,15.4994168 6.59728084,15.4994171 C12.9722589,15.4994175 12.2841005,10.3564015 12.2841005,10.3564015 L12.2841005,7.10886213" stroke="#3E3D3E" stroke-width="3.808" stroke-linecap="round" stroke-linejoin="round"></path>
            </g>
            <g transform="translate(114.194118, 133.610241) scale(-1, 1) translate(-114.194118, -133.610241) translate(108.047059, 125.766867)">
                <path d="M0.351637668,0.260862914 L0.351637668,10.3564015 C0.351637668,10.3564015 -0.0270077972,15.4994168 6.03845731,15.4994171 C12.4134354,15.4994175 11.725277,10.3564015 11.725277,10.3564015 L11.725277,4.25163322" fill="#F97E7E"></path>
                <path d="M0.351637668,2.22212928 L0.351637668,10.3564015 C0.351637668,10.3564015 -0.0270077972,15.4994168 6.03845731,15.4994171 C12.4134354,15.4994175 11.725277,10.3564015 11.725277,10.3564015 L11.725277,7.10886213" stroke="#3E3D3E" stroke-width="3.808" stroke-linecap="round" stroke-linejoin="round"></path>
            </g>
            <g transform="translate(62.000000, 97.194578)">
                <path d="M10.8990286,2.88845329 L4.79262409,11.0000568 C4.79262409,11.0000568 2.05841451,14.8889313 6.6185382,18.6892677 C11.1786619,22.4896042 14.7150522,17.5395456 14.7150522,17.5395456 L18.9733529,11.9949841" stroke="#3E3D3E" stroke-width="3.808" stroke-linecap="round" stroke-linejoin="round" fill="#FFADAD" transform="translate(11.476499, 11.506382) rotate(-330.000000) translate(-11.476499, -11.506382) "></path>
                <path d="M8.51474609,18.044023 C3.80092773,4.93443886 19.5260254,12.6885262 18.0091797,8.52550693 C16.492334,4.36248768 2.01040039,4.6926763 2.01040039,10.4786908 C2.01040039,16.2647053 8.51474609,18.044023 8.51474609,18.044023 Z" fill="#F97E7E" transform="translate(10.061563, 11.882961) scale(1, -1) translate(-10.061563, -11.882961) "></path>
                <path d="M10.8990286,2.88845329 L4.79262409,11.0000568 C4.79262409,11.0000568 2.05841451,14.8889313 6.6185382,18.6892677 C11.1786619,22.4896042 14.7150522,17.5395456 14.7150522,17.5395456 L18.9733529,11.9949841" stroke="#3E3D3E" stroke-width="3.808" stroke-linecap="round" stroke-linejoin="round" transform="translate(11.476499, 11.506382) rotate(-330.000000) translate(-11.476499, -11.506382) "></path>
            </g>
            <g transform="translate(126.500000, 108.694578) scale(-1, 1) translate(-126.500000, -108.694578) translate(115.000000, 97.194578)">
                <path d="M10.8990286,2.88845329 L4.79262409,11.0000568 C4.79262409,11.0000568 2.05841451,14.8889313 6.6185382,18.6892677 C11.1786619,22.4896042 14.7150522,17.5395456 14.7150522,17.5395456 L18.9733529,11.9949841" stroke="#3E3D3E" stroke-width="3.808" stroke-linecap="round" stroke-linejoin="round" fill="#FFADAD" transform="translate(11.476499, 11.506382) rotate(-330.000000) translate(-11.476499, -11.506382) "></path>
                <path d="M8.51474609,18.044023 C3.80092773,4.93443886 19.5260254,12.6885262 18.0091797,8.52550693 C16.492334,4.36248768 2.01040039,4.6926763 2.01040039,10.4786908 C2.01040039,16.2647053 8.51474609,18.044023 8.51474609,18.044023 Z" fill="#F97E7E" transform="translate(10.061563, 11.882961) scale(1, -1) translate(-10.061563, -11.882961) "></path>
                <path d="M10.8990286,2.88845329 L4.79262409,11.0000568 C4.79262409,11.0000568 2.05841451,14.8889313 6.6185382,18.6892677 C11.1786619,22.4896042 14.7150522,17.5395456 14.7150522,17.5395456 L18.9733529,11.9949841" stroke="#3E3D3E" stroke-width="3.808" stroke-linecap="round" stroke-linejoin="round" transform="translate(11.476499, 11.506382) rotate(-330.000000) translate(-11.476499, -11.506382) "></path>
            </g>
            <path d="M88.1151184,130.793104 C88.1151184,130.793104 91.6963054,132.066655 100.433835,132.066655 C103.899757,132.066655 106.648773,132.032605 108.590332,131.790802" stroke="#3E3D3E" stroke-width="3.808" stroke-linecap="round" stroke-linejoin="round"></path>
            <path d="M100.651589,68.2744793 C100.651588,69.3543017 105.832115,72.4958962 108.230087,72.763211 C110.628058,73.0305259 115.839512,71.1536769 109.76987,68.2744793 C103.700228,65.3952817 100.651589,67.1946569 100.651589,68.2744793 Z" fill="#FFFFFF"></path>
        </g>
    </g>
</svg>