<?xml version="1.0" encoding="UTF-8" standalone="no"?>
<svg width="200px" height="200px" viewBox="0 0 200 200" version="1.1" xmlns="http://www.w3.org/2000/svg" xmlns:xlink="http://www.w3.org/1999/xlink">
    <defs></defs>
    <g stroke="none" stroke-width="1" fill="none" fill-rule="evenodd">
        <g>
            <g transform="translate(33.500000, 15.750000)">
                <path d="M21.6125,154.076054 C21.6125,151.314547 23.8336937,148.854606 26.584521,148.587624 L62.3470804,145.85625 C65.0997613,145.793411 69.5698955,145.769792 72.3276833,145.856732 L108.077979,148.587624 C110.82395,148.857293 113.05,151.320166 113.05,154.076054 L113.05,154.076054 C113.05,156.837561 110.824509,159.301399 108.077853,159.571654 L72.3119383,162.301566 C69.5611801,162.361253 65.1031173,162.384251 62.325658,162.300624 L26.566156,159.569858 C23.8303273,159.297221 21.6125,156.831942 21.6125,154.076054 L21.6125,154.076054 Z" fill-opacity="0.15" fill="#000000"></path>
                <g transform="translate(36.232721, 22.258358) rotate(-10.000000) translate(-36.232721, -22.258358) translate(18.776471, 3.091114)">
                    <path d="M16.7065309,36.8240246 C16.7065309,36.8240246 -10.0098005,36.824025 5.09613792,0.499552087 C32.5052328,0.499552023 34.1677322,13.6616392 34.1677322,13.6616392 L16.7065309,36.8240246 Z" stroke="#3E3D3E" stroke-width="6.664" stroke-linecap="round" stroke-linejoin="round" fill="#FFADAD"></path>
                    <path d="M23.2903492,19.7499586 C23.2903492,19.7499586 20.4188197,11.5509076 12.2087832,11.5509078 C3.99874664,11.550908 12.2087832,31.6025142 16.6672119,27.9793584" fill="#F97E7E"></path>
                    <path d="M23.2903492,19.7499586 C23.2903492,19.7499586 20.4188197,11.5509076 12.2087832,11.5509078" stroke="#3E3D3E" stroke-width="6.664" stroke-linecap="round" stroke-linejoin="round" fill="#FFADAD"></path>
                </g>
                <g transform="translate(94.077941, 22.699548) rotate(-350.000000) translate(-94.077941, -22.699548) translate(76.963971, 4.071536)">
                    <path d="M16.7065309,36.8240246 C16.7065309,36.8240246 -10.0098005,36.824025 5.09613792,0.499552087 C32.5052328,0.499552023 34.1677322,13.6616392 34.1677322,13.6616392 L16.7065309,36.8240246 Z" stroke="#3E3D3E" stroke-width="6.664" stroke-linecap="round" stroke-linejoin="round" fill="#FFADAD" transform="translate(17.318366, 18.661788) scale(-1, 1) translate(-17.318366, -18.661788) "></path>
                    <path d="M24.9528492,19.7499586 C24.9528492,19.7499586 22.0813197,11.5509076 13.8712832,11.5509078 C5.66124664,11.550908 13.8712832,31.6025142 18.3297119,27.9793584" fill="#F97E7E" transform="translate(17.660848, 19.984075) scale(-1, 1) translate(-17.660848, -19.984075) "></path>
                    <path d="M21.6278492,19.7499586 C21.6278492,19.7499586 18.7563197,11.5509076 10.5462832,11.5509078" stroke="#3E3D3E" stroke-width="6.664" stroke-linecap="round" stroke-linejoin="round" fill="#FFADAD" transform="translate(16.087066, 15.650433) scale(-1, 1) translate(-16.087066, -15.650433) "></path>
                </g>
                <g transform="translate(18.287500, 14.071837)">
                    <path d="M1.6625,98.6802019 C1.66249981,90.3510286 1.6625,40.9780025 1.6625,40.9780025 C1.6625,31.1239886 5.95393144,-1.15104667e-06 47.8383361,0 C86.7480899,1.15104668e-06 94.0141708,30.1855925 94.0141723,40.9780025 C94.0141723,40.9780025 94.0141707,89.8497114 94.0141723,98.6802019 C94.0141738,107.510692 85.3704975,123.5716 47.3372727,123.571598 C9.30404794,123.571596 1.66250019,107.009375 1.6625,98.6802019 Z" stroke="#3E3D3E" stroke-width="6.664" stroke-linecap="round" stroke-linejoin="round" fill="#FFADAD"></path>
                    <path d="M14.6783813,90.5691342 C14.6783813,90.5691342 8.87099634,109.606846 48.2530886,109.606846 C87.6351809,109.606846 87.0231079,90.5691342 87.0231079,90.5691342 L96.2934937,95.6636886 C96.2934937,95.6636886 96.2934937,128.291625 48.2530884,125.090031 C-6.51849365,121.888437 0.597460937,94.3534278 0.597460937,94.3534278 L14.6783813,90.5691342 Z" fill="#F97E7E"></path>
                    <path d="M1.6625,98.6802019 C1.66249981,90.3510286 1.6625,40.9780025 1.6625,40.9780025 C1.6625,31.1239886 5.95393144,-1.15104667e-06 47.8383361,0 C86.7480899,1.15104668e-06 94.0141708,30.1855925 94.0141723,40.9780025 C94.0141723,40.9780025 94.0141707,89.8497114 94.0141723,98.6802019 C94.0141738,107.510692 85.3704975,123.5716 47.3372727,123.571598 C9.30404794,123.571596 1.66250019,107.009375 1.6625,98.6802019 Z" stroke="#3E3D3E" stroke-width="6.664" stroke-linecap="round" stroke-linejoin="round"></path>
                </g>
                <g transform="translate(39.900000, 36.523494)" fill="#3E3D3E">
                    <path d="M14.3772143,27.2924887 C22.2692187,27.2924887 20.1959643,10.721984 20.1959643,7.5002259 C20.1959643,4.27846783 17.5908212,1.66671687 14.3772143,1.66671687 C11.1636074,1.66671687 8.5584643,4.27846783 8.5584643,7.5002259 C8.5584643,10.721984 6.4852099,27.2924887 14.3772143,27.2924887 Z" transform="translate(14.377214, 14.479603) rotate(-40.000000) translate(-14.377214, -14.479603) "></path>
                    <path d="M37.6522143,27.2924887 C45.5442187,27.2924887 43.4709643,10.721984 43.4709643,7.5002259 C43.4709643,4.27846783 40.8658212,1.66671687 37.6522143,1.66671687 C34.4386074,1.66671687 31.8334643,4.27846783 31.8334643,7.5002259 C31.8334643,10.721984 29.7602099,27.2924887 37.6522143,27.2924887 Z" transform="translate(37.652214, 14.479603) scale(-1, 1) rotate(-40.000000) translate(-37.652214, -14.479603) "></path>
                </g>
                <g transform="translate(46.550000, 46.523795)">
                    <path d="M19.11875,38.334488 C36.3050477,38.3344857 38.2375,33.4595615 38.2375,23.3340361 C38.2375,13.2085108 29.6777441,1.66671687 19.11875,1.66671687 C8.55975594,1.66671687 2.84217094e-14,13.2085108 2.84217094e-14,23.3340361 C2.84217094e-14,33.4595615 1.93245226,38.3344902 19.11875,38.334488 Z" fill="#F97E7E"></path>
                    <path d="M19.11875,31.6676205 C36.6310269,31.6676197 38.2375,24.5785822 38.2375,15.8338102 C38.2375,7.08903831 29.6777441,0 19.11875,0 C8.55975594,0 2.84217094e-14,7.08903831 2.84217094e-14,15.8338102 C2.84217094e-14,24.5785822 1.60647311,31.6676212 19.11875,31.6676205 Z" stroke="#3E3D3E" stroke-width="6.664" stroke-linecap="round" stroke-linejoin="round"></path>
                    <path d="M24.7635448,13.5106486 L25.1114552,18.4986191" stroke="#3E3D3E" stroke-width="6.664" stroke-linecap="round" stroke-linejoin="round" fill="#FFADAD"></path>
                    <path d="M13.6901084,13.5353386 L12.9098916,18.4739291" stroke="#3E3D3E" stroke-width="6.664" stroke-linecap="round" stroke-linejoin="round" fill="#FFADAD"></path>
                </g>
                <g transform="translate(31.587500, 125.741867)">
                    <path d="M1.5933071,0.4565101 L1.5933071,18.1237026 C1.5933071,18.1237026 0.930677531,27.1239794 11.5452415,27.12398 C22.7014531,27.1239805 21.4971758,18.1237026 21.4971758,18.1237026 L21.4971758,7.44035813" fill="#F97E7E"></path>
                    <path d="M1.5933071,0.4565101 L1.5933071,18.1237026 C1.5933071,18.1237026 0.930677531,27.1239794 11.5452415,27.12398 C22.7014531,27.1239805 21.4971758,18.1237026 21.4971758,18.1237026 L21.4971758,12.4405087" stroke="#3E3D3E" stroke-width="6.664" stroke-linecap="round" stroke-linejoin="round"></path>
                </g>
                <g transform="translate(91.339706, 139.467771) scale(-1, 1) translate(-91.339706, -139.467771) translate(80.582353, 125.741867)">
                    <path d="M0.61536592,0.4565101 L0.61536592,18.1237026 C0.61536592,18.1237026 -0.0472636451,27.1239794 10.5673003,27.12398 C21.7235119,27.1239805 20.5192347,18.1237026 20.5192347,18.1237026 L20.5192347,7.44035813" fill="#F97E7E"></path>
                    <path d="M0.61536592,3.88872623 L0.61536592,18.1237026 C0.61536592,18.1237026 -0.0472636451,27.1239794 10.5673003,27.12398 C21.7235119,27.1239805 20.5192347,18.1237026 20.5192347,18.1237026 L20.5192347,12.4405087" stroke="#3E3D3E" stroke-width="6.664" stroke-linecap="round" stroke-linejoin="round"></path>
                </g>
                <g transform="translate(0.000000, 75.740361)">
                    <path d="M19.0733001,5.05479326 L8.38709216,19.2500994 C8.38709216,19.2500994 3.6022254,26.0556298 11.5824419,32.7062185 C19.5626583,39.3568073 25.7513413,30.6942048 25.7513413,30.6942048 L33.2033676,20.9912221" stroke="#3E3D3E" stroke-width="6.664" stroke-linecap="round" stroke-linejoin="round" fill="#FFADAD" transform="translate(20.083873, 20.136169) rotate(-330.000000) translate(-20.083873, -20.136169) "></path>
                    <path d="M14.9008057,31.5770403 C6.65162354,8.635268 34.1705444,22.2049208 31.5160645,14.9196371 C28.8615845,7.63435344 3.51820068,8.21218353 3.51820068,18.3377089 C3.51820068,28.4632343 14.9008057,31.5770403 14.9008057,31.5770403 Z" fill="#F97E7E" transform="translate(17.607735, 20.795181) scale(1, -1) translate(-17.607735, -20.795181) "></path>
                    <path d="M19.0733001,5.05479326 L8.38709216,19.2500994 C8.38709216,19.2500994 3.6022254,26.0556298 11.5824419,32.7062185 C19.5626583,39.3568073 25.7513413,30.6942048 25.7513413,30.6942048 L33.2033676,20.9912221" stroke="#3E3D3E" stroke-width="6.664" stroke-linecap="round" stroke-linejoin="round" transform="translate(20.083873, 20.136169) rotate(-330.000000) translate(-20.083873, -20.136169) "></path>
                </g>
                <g transform="translate(112.875000, 95.865361) scale(-1, 1) translate(-112.875000, -95.865361) translate(92.750000, 75.740361)">
                    <path d="M19.0733001,5.05479326 L8.38709216,19.2500994 C8.38709216,19.2500994 3.6022254,26.0556298 11.5824419,32.7062185 C19.5626583,39.3568073 25.7513413,30.6942048 25.7513413,30.6942048 L33.2033676,20.9912221" stroke="#3E3D3E" stroke-width="6.664" stroke-linecap="round" stroke-linejoin="round" fill="#FFADAD" transform="translate(20.083873, 20.136169) rotate(-330.000000) translate(-20.083873, -20.136169) "></path>
                    <path d="M14.9008057,31.5770403 C6.65162354,8.635268 34.1705444,22.2049208 31.5160645,14.9196371 C28.8615845,7.63435344 3.51820068,8.21218353 3.51820068,18.3377089 C3.51820068,28.4632343 14.9008057,31.5770403 14.9008057,31.5770403 Z" fill="#F97E7E" transform="translate(17.607735, 20.795181) scale(1, -1) translate(-17.607735, -20.795181) "></path>
                    <path d="M19.0733001,5.05479326 L8.38709216,19.2500994 C8.38709216,19.2500994 3.6022254,26.0556298 11.5824419,32.7062185 C19.5626583,39.3568073 25.7513413,30.6942048 25.7513413,30.6942048 L33.2033676,20.9912221" stroke="#3E3D3E" stroke-width="6.664" stroke-linecap="round" stroke-linejoin="round" transform="translate(20.083873, 20.136169) rotate(-330.000000) translate(-20.083873, -20.136169) "></path>
                </g>
                <path d="M45.7014573,134.537782 C45.7014573,134.537782 51.9685345,136.766495 67.2592121,136.766495 C73.3245742,136.766495 78.1353534,136.706907 81.5330811,136.283753" stroke="#3E3D3E" stroke-width="6.664" stroke-linecap="round" stroke-linejoin="round"></path>
                <path d="M67.6402799,25.1301881 C67.6402799,27.0198774 76.7062013,32.5176677 80.9026514,32.9854687 C85.0991015,33.4532697 94.2191464,30.1687839 83.5972728,25.1301881 C72.9753993,20.0915923 67.6402799,23.2404989 67.6402799,25.1301881 Z" fill="#FFFFFF"></path>
            </g>
        </g>
    </g>
</svg>