<?xml version="1.0" encoding="UTF-8" standalone="no"?>
<svg width="200px" height="200px" viewBox="0 0 200 200" version="1.1" xmlns="http://www.w3.org/2000/svg" xmlns:xlink="http://www.w3.org/1999/xlink" xmlns:sketch="http://www.bohemiancoding.com/sketch/ns">
    <!-- Generator: Sketch 3.4.4 (17249) - http://www.bohemiancoding.com/sketch -->
    <title>piggy_icon</title>
    <desc>Created with Sketch.</desc>
    <defs></defs>
    <g id="Page-1" stroke="none" stroke-width="1" fill="none" fill-rule="evenodd" sketch:type="MSPage">
        <g id="piggy_icon" sketch:type="MSArtboardGroup">
            <g id="pig" sketch:type="MSLayerGroup" transform="translate(30.000000, 19.000000)">
                <g id="left-ear" transform="translate(37.633588, 22.690194) rotate(-10.000000) translate(-37.633588, -22.690194) translate(19.633588, 3.190194)" sketch:type="MSShapeGroup">
                    <path d="M17.585822,38.9760779 C17.585822,38.9760779 -10.5366321,38.9760785 5.3643557,0.528746689 C34.2160345,0.528746622 35.9660339,14.4600466 35.9660339,14.4600466 L17.585822,38.9760779 Z" id="Path-26" stroke="#000000" stroke-width="7.03718415" stroke-linecap="round" stroke-linejoin="round" fill="#FFFFFF"></path>
                    <path d="M24.5161571,20.9041769 C24.5161571,20.9041769 21.4934944,12.2259607 12.8513507,12.2259609 C4.20920699,12.225961 12.8513507,33.4494144 17.5444336,29.6145157" id="Path-30"></path>
                    <path d="M24.5161571,20.9041769 C24.5161571,20.9041769 21.4934944,12.2259607 12.8513507,12.2259609" id="Path-30" stroke="#000000" stroke-width="7.03718415" stroke-linecap="round" stroke-linejoin="round"></path>
                </g>
                <g id="right-ear" transform="translate(99.053180, 23.652004) rotate(-350.000000) translate(-99.053180, -23.652004) translate(81.053180, 4.152004)" sketch:type="MSShapeGroup">
                    <path d="M17.585822,38.9760779 C17.585822,38.9760779 -10.5366321,38.9760785 5.3643557,0.528746689 C34.2160345,0.528746622 35.9660339,14.4600466 35.9660339,14.4600466 L17.585822,38.9760779 Z" id="Path-26" stroke="#000000" stroke-width="7.03718415" stroke-linecap="round" stroke-linejoin="round" fill="#FFFFFF" transform="translate(18.229859, 19.752412) scale(-1, 1) translate(-18.229859, -19.752412) "></path>
                    <path d="M26.2661571,20.9041769 C26.2661571,20.9041769 23.2434944,12.2259607 14.6013507,12.2259609 C5.95920699,12.225961 14.6013507,33.4494144 19.2944336,29.6145157" id="Path-30" transform="translate(18.590366, 21.151975) scale(-1, 1) translate(-18.590366, -21.151975) "></path>
                    <path d="M22.7661571,20.9041769 C22.7661571,20.9041769 19.7434944,12.2259607 11.1013507,12.2259609" id="Path-30" stroke="#000000" stroke-width="7.03718415" stroke-linecap="round" stroke-linejoin="round" transform="translate(16.933754, 16.565069) scale(-1, 1) translate(-16.933754, -16.565069) "></path>
                </g>
                <g id="body" transform="translate(19.250000, 14.735611)" sketch:type="MSShapeGroup">
                    <path d="M1.75,104.447227 C1.7499998,95.6312835 1.75,43.3728208 1.75,43.3728208 C1.75,32.942923 6.26729625,-1.21831563e-06 50.3561433,0 C91.3137789,1.21831565e-06 98.962285,31.9496856 98.9622866,43.3728208 C98.9622866,43.3728208 98.962285,95.1006686 98.9622866,104.447227 C98.9622882,113.793785 89.8636816,130.793316 49.8287081,130.793314 C9.79373467,130.793312 1.7500002,113.26317 1.75,104.447227 Z" stroke="#000000" stroke-width="7.03718415" stroke-linecap="round" stroke-linejoin="round" fill="#FFFFFF"></path>
                    <path d="M15.4509277,95.8621355 C15.4509277,95.8621355 9.33789088,116.012441 50.7927249,116.012441 C92.2475588,116.012441 91.6032715,95.8621355 91.6032715,95.8621355 L101.361572,101.254424 C101.361572,101.254424 101.361572,135.789187 50.7927246,132.400487 C-6.86157227,129.011787 0.62890625,99.8675892 0.62890625,99.8675892 L15.4509277,95.8621355 Z" id="Path-36" fill="#FFFFFF"></path>
                    <path d="M1.75,104.447227 C1.7499998,95.6312835 1.75,43.3728208 1.75,43.3728208 C1.75,32.942923 6.26729625,-1.21831563e-06 50.3561433,0 C91.3137789,1.21831565e-06 98.962285,31.9496856 98.9622866,43.3728208 C98.9622866,43.3728208 98.962285,95.1006686 98.9622866,104.447227 C98.9622882,113.793785 89.8636816,130.793316 49.8287081,130.793314 C9.79373467,130.793312 1.7500002,113.26317 1.75,104.447227 Z" stroke="#000000" stroke-width="7.03718415" stroke-linecap="round" stroke-linejoin="round"></path>
                </g>
                <g id="eyes" transform="translate(42.000000, 38.499377)" fill="#000000" sketch:type="MSShapeGroup">
                    <path d="M15.1339098,28.8875043 C23.4412828,28.8875043 21.2589098,11.3485934 21.2589098,7.93855079 C21.2589098,4.52850815 18.5166539,1.7641224 15.1339098,1.7641224 C11.7511657,1.7641224 9.00890979,4.52850815 9.00890979,7.93855079 C9.00890979,11.3485934 6.82653674,28.8875043 15.1339098,28.8875043 Z" id="Oval-9" transform="translate(15.133910, 15.325813) rotate(-40.000000) translate(-15.133910, -15.325813) "></path>
                    <path d="M39.6339098,28.8875043 C47.9412828,28.8875043 45.7589098,11.3485934 45.7589098,7.93855079 C45.7589098,4.52850815 43.0166539,1.7641224 39.6339098,1.7641224 C36.2511657,1.7641224 33.5089098,4.52850815 33.5089098,7.93855079 C33.5089098,11.3485934 31.3265367,28.8875043 39.6339098,28.8875043 Z" id="Oval-9" transform="translate(39.633910, 15.325813) scale(-1, 1) rotate(-40.000000) translate(-39.633910, -15.325813) "></path>
                </g>
                <g id="nose" transform="translate(49.000000, 49.084111)" stroke="#000000" stroke-width="7.03718415" stroke-linecap="round" sketch:type="MSShapeGroup" stroke-linejoin="round">
                    <path d="M20.125,33.5183256 C38.5589757,33.5183248 40.25,26.0149928 40.25,16.7591628 C40.25,7.50333276 31.2397306,0 20.125,0 C9.01026941,0 0,7.50333276 0,16.7591628 C0,26.0149928 1.69102433,33.5183264 20.125,33.5183256 Z" id="Oval-11" fill="#FFFFFF"></path>
                    <path d="M26.0668893,14.300232 L26.4331107,19.5797072" id="Path-28" fill="#FFADAD"></path>
                    <path d="M14.4106405,14.3263649 L13.5893595,19.5535743" id="Path-28" fill="#FFADAD"></path>
                </g>
                <g id="left-foot" transform="translate(33.250000, 132.931811)" sketch:type="MSShapeGroup">
                    <path d="M1.67716536,0.483189261 L1.67716536,19.18288 C1.67716536,19.18288 0.979660559,28.709147 12.1528858,28.7091476 C23.8962664,28.7091482 22.6286062,19.18288 22.6286062,19.18288 L22.6286062,7.87518425" id="Path-69" fill="#FFFFFF"></path>
                    <path d="M1.67716536,0.483189261 L1.67716536,19.18288 C1.67716536,19.18288 0.979660559,28.709147 12.1528858,28.7091476 C23.8962664,28.7091482 22.6286062,19.18288 22.6286062,19.18288 L22.6286062,13.1675514" id="Path-69" stroke="#000000" stroke-width="7.03718415" stroke-linecap="round" stroke-linejoin="round"></path>
                </g>
                <g id="right-foot" transform="translate(96.446966, 147.800055) scale(-1, 1) translate(-96.446966, -147.800055) translate(85.423344, 132.931811)" sketch:type="MSShapeGroup">
                    <path d="M0.6477536,0.483189261 L0.6477536,19.18288 C0.6477536,19.18288 -0.0497512054,28.709147 11.123474,28.7091476 C22.8668547,28.7091482 21.5991944,19.18288 21.5991944,19.18288 L21.5991944,7.87518425" id="Path-69" fill="#FFFFFF"></path>
                    <path d="M0.6477536,4.11598945 L0.6477536,19.18288 C0.6477536,19.18288 -0.0497512054,28.709147 11.123474,28.7091476 C22.8668547,28.7091482 21.5991944,19.18288 21.5991944,19.18288 L21.5991944,13.1675514" id="Path-69" stroke="#000000" stroke-width="7.03718415" stroke-linecap="round" stroke-linejoin="round"></path>
                </g>
                <g id="left-hand" transform="translate(0.000000, 80.008139)" sketch:type="MSShapeGroup">
                    <path d="M20.077158,5.35020326 L8.82851807,20.3751052 C8.82851807,20.3751052 3.79181621,27.5783614 12.1920441,34.6176209 C20.5922719,41.6568804 27.106675,32.488022 27.106675,32.488022 L34.9509133,22.2179818" id="Path-34" stroke="#000000" stroke-width="7.03718415" stroke-linecap="round" stroke-linejoin="round" fill="#FFFFFF" transform="translate(21.140919, 21.312958) rotate(-330.000000) translate(-21.140919, -21.312958) "></path>
                    <path d="M15.6850586,33.4224518 C7.00170898,9.13992652 35.9689941,23.502611 33.1748047,15.791564 C30.3806152,8.08051696 3.70336914,8.69211633 3.70336914,19.4093932 C3.70336914,30.1266701 15.6850586,33.4224518 15.6850586,33.4224518 Z" id="shadow" fill="#FFFFFF" transform="translate(18.534458, 22.010484) scale(1, -1) translate(-18.534458, -22.010484) "></path>
                    <path d="M20.077158,5.35020326 L8.82851807,20.3751052 C8.82851807,20.3751052 3.79181621,27.5783614 12.1920441,34.6176209 C20.5922719,41.6568804 27.106675,32.488022 27.106675,32.488022 L34.9509133,22.2179818" id="Path-34" stroke="#000000" stroke-width="7.03718415" stroke-linecap="round" stroke-linejoin="round" transform="translate(21.140919, 21.312958) rotate(-330.000000) translate(-21.140919, -21.312958) "></path>
                </g>
                <g id="right-hand" transform="translate(118.815789, 101.309276) scale(-1, 1) translate(-118.815789, -101.309276) translate(97.631579, 80.008139)" stroke="#000000" stroke-width="7.03718415" stroke-linecap="round" sketch:type="MSShapeGroup" stroke-linejoin="round">
                    <path d="M20.077158,5.35020326 L8.82851807,20.3751052 C8.82851807,20.3751052 3.79181621,27.5783614 12.1920441,34.6176209 C20.5922719,41.6568804 27.106675,32.488022 27.106675,32.488022 L34.9509133,22.2179818" id="Path-34" fill="#FFFFFF" transform="translate(21.140919, 21.312958) rotate(-330.000000) translate(-21.140919, -21.312958) "></path>
                    <path d="M20.077158,5.35020326 L8.82851807,20.3751052 C8.82851807,20.3751052 3.79181621,27.5783614 12.1920441,34.6176209 C20.5922719,41.6568804 27.106675,32.488022 27.106675,32.488022 L34.9509133,22.2179818" id="Path-34" transform="translate(21.140919, 21.312958) rotate(-330.000000) translate(-21.140919, -21.312958) "></path>
                </g>
                <path d="M48.1067971,142.241773 C48.1067971,142.241773 54.7037205,144.600735 70.7991707,144.600735 C77.1837623,144.600735 82.2477404,144.537665 85.8242959,144.089781" id="Path-73" stroke="#000000" stroke-width="7.03718415" stroke-linecap="round" stroke-linejoin="round" sketch:type="MSShapeGroup"></path>
                <path d="M71.2002946,26.4402287 C71.2002946,28.4403543 80.7433698,34.259444 85.1606857,34.754584 C89.5780016,35.2497241 99.1780488,31.7732879 87.9971293,26.4402287 C76.8162098,21.1071695 71.2002946,24.440103 71.2002946,26.4402287 Z" id="Path-59" fill="#FFFFFF" sketch:type="MSShapeGroup"></path>
            </g>
        </g>
    </g>
</svg>