<svg width="200" height="200" viewBox="0 0 200 200" fill="none" xmlns="http://www.w3.org/2000/svg">
<path fill-rule="evenodd" clip-rule="evenodd" d="M53.3335 93.269H57.5517C58.3451 93.2514 59.0415 93.4321 59.6409 93.8111C60.0376 94.0403 60.3462 94.3533 60.5666 94.75C60.7781 95.1907 60.8839 95.7329 60.8839 96.3764C60.8839 97.1522 60.6239 97.8574 60.1037 98.4921C59.5572 99.1444 58.7418 99.4794 57.6575 99.4971H53.3335V93.269ZM50.4112 109.785H53.3335V102.261H57.7765C59.76 102.225 61.2674 101.591 62.2988 100.357C63.3037 99.1841 63.8062 97.8838 63.8062 96.4557C63.8062 95.3979 63.6079 94.4811 63.2112 93.7054C62.8321 92.9031 62.3384 92.2861 61.7302 91.8541C61.0073 91.2811 60.2933 90.9021 59.588 90.7169C58.8828 90.5759 58.1511 90.5054 57.393 90.5054H50.4112V109.785ZM74.3626 109.785H77.2849V90.5054H74.3626V109.785ZM95.4975 101.93H99.4248V102.935C99.4071 104.143 99.0281 105.117 98.2876 105.857C97.5471 106.633 96.6083 107.021 95.4711 107.021C94.7835 107.021 94.1928 106.876 93.6992 106.585C93.1967 106.338 92.7912 106.016 92.4827 105.619C92.1036 105.205 91.8524 104.663 91.7289 103.993C91.5879 103.323 91.5174 102.04 91.5174 100.145C91.5174 98.2497 91.5879 96.9582 91.7289 96.2706C91.8524 95.6183 92.1036 95.085 92.4827 94.6706C92.7912 94.2739 93.1967 93.9434 93.6992 93.6789C94.1928 93.4233 94.7835 93.2866 95.4711 93.269C96.4055 93.2866 97.1989 93.5555 97.8512 94.0756C98.4771 94.6221 98.9091 95.2833 99.1471 96.0591H102.241C101.933 94.4458 101.192 93.0927 100.02 91.9996C98.8474 90.9153 97.3311 90.3643 95.4711 90.3467C93.9548 90.3643 92.6898 90.7257 91.676 91.431C90.6446 92.1274 89.8953 92.9208 89.4281 93.8111C89.1372 94.2784 88.9212 94.891 88.7802 95.6491C88.648 96.4073 88.5818 97.9059 88.5818 100.145C88.5818 102.349 88.648 103.839 88.7802 104.614C88.8507 105.029 88.9389 105.373 89.0447 105.646C89.1593 105.91 89.2871 106.188 89.4281 106.479C89.8953 107.369 90.6446 108.154 91.676 108.833C92.6898 109.538 93.9548 109.908 95.4711 109.943C97.4369 109.908 99.0677 109.242 100.364 107.947C101.651 106.642 102.312 105.024 102.347 103.094V99.1665H95.4975V101.93ZM119.912 101.93H123.839V102.935C123.821 104.143 123.442 105.117 122.702 105.857C121.961 106.633 121.022 107.021 119.885 107.021C119.198 107.021 118.607 106.876 118.113 106.585C117.611 106.338 117.205 106.016 116.897 105.619C116.518 105.205 116.267 104.663 116.143 103.993C116.002 103.323 115.932 102.04 115.932 100.145C115.932 98.2497 116.002 96.9582 116.143 96.2706C116.267 95.6183 116.518 95.085 116.897 94.6706C117.205 94.2739 117.611 93.9434 118.113 93.6789C118.607 93.4233 119.198 93.2866 119.885 93.269C120.82 93.2866 121.613 93.5555 122.265 94.0756C122.891 94.6221 123.323 95.2833 123.561 96.0591H126.656C126.347 94.4458 125.606 93.0927 124.434 91.9996C123.262 90.9153 121.745 90.3643 119.885 90.3467C118.369 90.3643 117.104 90.7257 116.09 91.431C115.059 92.1274 114.31 92.9208 113.842 93.8111C113.551 94.2784 113.335 94.891 113.194 95.6491C113.062 96.4073 112.996 97.9059 112.996 100.145C112.996 102.349 113.062 103.839 113.194 104.614C113.265 105.029 113.353 105.373 113.459 105.646C113.573 105.91 113.701 106.188 113.842 106.479C114.31 107.369 115.059 108.154 116.09 108.833C117.104 109.538 118.369 109.908 119.885 109.943C121.851 109.908 123.482 109.242 124.778 107.947C126.065 106.642 126.726 105.024 126.761 103.094V99.1665H119.912V101.93ZM141.43 109.785H144.18V101.851C144.18 101.851 147.118 101.464 148.797 99.0607C150.475 96.6571 150.095 95.7808 150.221 90.5054H146.891C146.863 92.2595 146.921 95.2697 146.659 96.5091C146.264 97.9339 144.739 99.1167 142.805 99.0607C141.448 99.0214 139.519 98.1872 138.997 96.6516C138.596 95.4743 138.719 90.5054 138.719 90.5054H135.561C135.561 95.5433 135.144 96.6107 136.86 98.9788C138.545 101.306 141.43 101.851 141.43 101.851V109.785Z" fill="black" stroke="black" stroke-width="1.2474" stroke-linecap="round" stroke-linejoin="round"/>
</svg>
