<?xml version="1.0" encoding="UTF-8" standalone="no"?>
<svg width="200px" height="200px" viewBox="0 0 200 200" version="1.1" xmlns="http://www.w3.org/2000/svg" xmlns:xlink="http://www.w3.org/1999/xlink">
    <!-- Generator: Sketch 3.7 (28169) - http://www.bohemiancoding.com/sketch -->
    <title>piggy</title>
    <desc>Created with Sketch.</desc>
    <defs></defs>
    <g id="Page-1" stroke="none" stroke-width="1" fill="none" fill-rule="evenodd" stroke-linecap="round" stroke-linejoin="round">
        <g id="piggy" stroke="#000000" stroke-width="2.31" fill="#000000">
            <path d="M13.4116681,87.4116681 L21.2230805,87.4116681 C22.692319,87.3790184 23.9819646,87.7136732 25.0920559,88.4156428 C25.8266751,88.8400894 26.3980371,89.4196137 26.8061589,90.154233 C27.1979558,90.9704766 27.3938514,91.9744412 27.3938514,93.1661569 C27.3938514,94.6027456 26.9122749,95.9087158 25.9491074,97.0841066 C24.9369653,98.2921472 23.4269373,98.912483 21.418978,98.9451328 L13.4116681,98.9451328 L13.4116681,87.4116681 Z M8,117.996164 L13.4116681,117.996164 L13.4116681,104.062955 L21.6393626,104.062955 C25.3124589,103.997655 28.1039702,102.822282 30.0139803,100.5368 C31.8750157,98.3655918 32.8055195,95.9577093 32.8055195,93.31308 C32.8055195,91.3540953 32.4382154,89.656334 31.7035961,88.2197453 C31.0016266,86.7341819 30.0874475,85.591458 28.9610313,84.7915392 C27.6223917,83.7304225 26.3000969,83.0284635 24.9941071,82.6856412 C23.6881173,82.4244433 22.3331733,82.2938462 20.9292342,82.2938462 L8,82.2938462 L8,117.996164 Z M52.3544547,117.996164 L57.7661228,117.996164 L57.7661228,82.2938462 L52.3544547,82.2938462 L52.3544547,117.996164 Z M91.4931388,103.450775 L98.765833,103.450775 L98.765833,105.311801 C98.7331833,107.548309 98.0312243,109.35218 96.659935,110.723469 C95.2886458,112.160058 93.5500729,112.878342 91.4441644,112.878342 C90.1708244,112.878342 89.0770743,112.608985 88.1628815,112.070265 C87.2323637,111.613168 86.4814309,111.017319 85.9100603,110.2827 C85.2080908,109.515431 84.742839,108.511466 84.5142907,107.270776 C84.2530928,106.030086 84.1224958,103.654852 84.1224958,100.145005 C84.1224958,96.6351573 84.2530928,94.2435994 84.5142907,92.9702594 C84.742839,91.7622188 85.2080908,90.7745788 85.9100603,90.0073098 C86.4814309,89.2726906 87.2323637,88.6605171 88.1628815,88.1707709 C89.0770743,87.6973496 90.1708244,87.4443179 91.4441644,87.4116681 C93.1746009,87.4443179 94.6438173,87.942219 95.8518579,88.9053865 C97.0109238,89.9175286 97.8108306,91.1418756 98.2516021,92.5784644 L103.981604,92.5784644 C103.410233,89.5910127 102.038964,87.0851824 99.8677564,85.0608983 C97.6965484,83.052939 94.8887125,82.0326497 91.4441644,82 C88.6362864,82.0326497 86.2937023,82.7019595 84.416342,84.0079493 C82.5063319,85.2976142 81.1187386,86.7668306 80.2535204,88.4156428 C79.7147996,89.280861 79.3148462,90.4154226 79.0536482,91.8193616 C78.8087752,93.2233006 78.6863405,95.9984873 78.6863405,100.145005 C78.6863405,104.226223 78.8087752,106.985085 79.0536482,108.421674 C79.1842472,109.188943 79.3474935,109.825603 79.543392,110.331674 C79.7556153,110.82142 79.9923224,111.335646 80.2535204,111.874367 C81.1187386,113.523179 82.5063319,114.976071 84.416342,116.233086 C86.2937023,117.539076 88.6362864,118.22471 91.4441644,118.29001 C95.0846109,118.22471 98.104667,116.992201 100.504423,114.592445 C102.887855,112.176364 104.112202,109.180794 104.177501,105.605647 L104.177501,98.3329531 L91.4931388,98.3329531 L91.4931388,103.450775 Z M136.704645,103.450775 L143.977339,103.450775 L143.977339,105.311801 C143.94469,107.548309 143.242731,109.35218 141.871441,110.723469 C140.500152,112.160058 138.761579,112.878342 136.655671,112.878342 C135.382331,112.878342 134.288581,112.608985 133.374388,112.070265 C132.44387,111.613168 131.692937,111.017319 131.121567,110.2827 C130.419597,109.515431 129.954345,108.511466 129.725797,107.270776 C129.464599,106.030086 129.334002,103.654852 129.334002,100.145005 C129.334002,96.6351573 129.464599,94.2435994 129.725797,92.9702594 C129.954345,91.7622188 130.419597,90.7745788 131.121567,90.0073098 C131.692937,89.2726906 132.44387,88.6605171 133.374388,88.1707709 C134.288581,87.6973496 135.382331,87.4443179 136.655671,87.4116681 C138.386107,87.4443179 139.855324,87.942219 141.063364,88.9053865 C142.22243,89.9175286 143.022337,91.1418756 143.463108,92.5784644 L149.19311,92.5784644 C148.621739,89.5910127 147.250471,87.0851824 145.079263,85.0608983 C142.908055,83.052939 140.100219,82.0326497 136.655671,82 C133.847793,82.0326497 131.505209,82.7019595 129.627848,84.0079493 C127.717838,85.2976142 126.330245,86.7668306 125.465027,88.4156428 C124.926306,89.280861 124.526352,90.4154226 124.265154,91.8193616 C124.020281,93.2233006 123.897847,95.9984873 123.897847,100.145005 C123.897847,104.226223 124.020281,106.985085 124.265154,108.421674 C124.395753,109.188943 124.559,109.825603 124.754898,110.331674 C124.967122,110.82142 125.203829,111.335646 125.465027,111.874367 C126.330245,113.523179 127.717838,114.976071 129.627848,116.233086 C131.505209,117.539076 133.847793,118.22471 136.655671,118.29001 C140.296117,118.22471 143.316173,116.992201 145.715929,114.592445 C148.099361,112.176364 149.323708,109.180794 149.389007,105.605647 L149.389007,98.3329531 L136.704645,98.3329531 L136.704645,103.450775 Z M176.553457,117.996164 L181.646792,117.996164 L181.646792,103.303852 L192.396667,82.2938462 L186.666665,82.2938462 L179.100125,98.1370556 L171.533584,82.2938462 L165.803583,82.2938462 L176.553457,103.303852 L176.553457,117.996164 Z" id="PIGGY"></path>
        </g>
    </g>
</svg>