<?xml version="1.0" encoding="UTF-8" standalone="no"?>
<svg width="200px" height="200px" viewBox="0 0 200 200" version="1.1" xmlns="http://www.w3.org/2000/svg" xmlns:xlink="http://www.w3.org/1999/xlink">
    <!-- Generator: Sketch 3.6.1 (26313) - http://www.bohemiancoding.com/sketch -->
    <title>project_underdog</title>
    <desc>Created with Sketch.</desc>
    <defs></defs>
    <g id="Page-1" stroke="none" stroke-width="1" fill="none" fill-rule="evenodd" stroke-linecap="round" opacity="0.8" stroke-linejoin="round">
        <g id="project_underdog" stroke="#000000" stroke-width="7.03295939">
            <path d="M77.3855877,133.330528 L128.752363,133.3407 C137.860857,133.333071 138.768672,113.474515 127.132709,112.118441 C126.801229,112.079245 107.776892,116.539249 118.570455,114.223208 C118.922293,114.147712 125.475815,112.377119 125.791451,112.266548 C135.158785,108.985067 128.786526,90.8376618 118.730996,92.2706929 C115.421722,91.9212535 105.75215,95.7377615 105.75215,95.7377615 C105.75215,95.7377615 112.78152,92.8562266 118.097548,92.0958592 C123.413576,91.3354919 118.917016,75.988225 108.428805,71.1492711 C101.903946,67.5071682 95.6251834,67.4032529 94.3869497,67.803019 C92.7209386,68.3408938 96.2068198,69.7424267 97.990332,73.2125565 C101.099409,79.2617998 93.6358815,80.0599093 86.4179006,83.9679791 C79.1999196,87.8760489 78.5766296,90.2775956 76.9459721,93.2114495 C75.3153146,96.1453035 71.2334706,108.281911 86.7068872,111.468658 C92.9857415,112.761786 79.0936854,110.969223 76.075669,105.08097 C73.223891,104.65374 68.4895829,107.333097 66.7694064,111.776836 C62.9680058,122.840984 66.394452,133.959293 77.3855877,133.330528 Z" id="Path-43" transform="translate(100.500000, 100.500000) scale(-1, 1) translate(-100.500000, -100.500000) "></path>
        </g>
    </g>
</svg>