<?xml version="1.0" encoding="UTF-8" standalone="no"?>
<svg width="410px" height="240px" viewBox="0 0 410 240" version="1.1" xmlns="http://www.w3.org/2000/svg" xmlns:xlink="http://www.w3.org/1999/xlink" xmlns:sketch="http://www.bohemiancoding.com/sketch/ns">
    <!-- Generator: Sketch 3.4.4 (17249) - http://www.bohemiancoding.com/sketch -->
    <title>project_underdog</title>
    <desc>Created with Sketch.</desc>
    <defs></defs>
    <g id="Page-1" stroke="none" stroke-width="1" fill="none" fill-rule="evenodd" sketch:type="MSPage">
        <g id="project_underdog" sketch:type="MSArtboardGroup" stroke="#000000" stroke-width="5.4" fill="#FFFFFF" stroke-linecap="round" opacity="0.8" stroke-linejoin="round">
            <path d="M187.282275,148.477973 L226.656081,148.48579 C233.63795,148.479928 234.33381,133.219269 225.41458,132.177171 C225.160492,132.147049 210.577903,135.574419 218.851416,133.794616 C219.121108,133.7366 224.144532,132.375956 224.386475,132.290986 C231.566749,129.769274 226.682268,115.823579 218.974474,116.924817 C216.437841,116.656285 209.025893,119.589148 209.025893,119.589148 C209.025893,119.589148 214.414066,117.374781 218.488922,116.790463 C222.563779,116.206146 219.117063,104.412267 211.07761,100.693688 C206.076157,97.8948492 201.263342,97.8149936 200.314207,98.122201 C199.037172,98.5355404 201.709179,99.6125731 203.076282,102.279256 C205.45946,106.927904 199.738497,107.541225 194.205749,110.54445 C188.673002,113.547676 188.195236,115.393187 186.9453,117.647759 C185.695364,119.90233 182.566537,129.228921 194.427264,131.677833 C199.240149,132.67156 188.591571,131.294033 186.278193,126.769101 C184.09224,126.440789 180.463285,128.499788 179.14473,131.914658 C176.23087,140.417098 178.857319,148.961159 187.282275,148.477973 Z" id="Path-43" sketch:type="MSShapeGroup" transform="translate(205.000000, 123.248774) scale(-1, 1) translate(-205.000000, -123.248774) "></path>
        </g>
    </g>
</svg>