<?xml version="1.0" encoding="UTF-8" standalone="no"?>
<svg width="200px" height="200px" viewBox="0 0 200 200" version="1.1" xmlns="http://www.w3.org/2000/svg" xmlns:xlink="http://www.w3.org/1999/xlink">
    <!-- Generator: Sketch 3.7 (28169) - http://www.bohemiancoding.com/sketch -->
    <title>project_underdog</title>
    <desc>Created with Sketch.</desc>
    <defs></defs>
    <g id="Page-1" stroke="none" stroke-width="1" fill="none" fill-rule="evenodd">
        <g id="project_underdog" fill="#000000">
            <path d="M35.5170234,108.64 C35.5170234,110.32 36.8756371,111.68 38.5539246,111.68 C40.232212,111.68 41.5908257,110.32 41.5908257,108.64 L41.5908257,99.48 C41.5908257,96.6 43.069317,95.12 45.3869521,95.12 C47.7045872,95.12 49.0632008,96.6 49.0632008,99.48 L49.0632008,108.64 C49.0632008,110.32 50.4218145,111.68 52.1001019,111.68 C53.7783894,111.68 55.1370031,110.32 55.1370031,108.64 L55.1370031,97.56 C55.1370031,92.64 52.459735,89.6 47.8644241,89.6 C44.7875637,89.6 42.9893986,91.24 41.5908257,93.04 L41.5908257,92.8 C41.5908257,91.12 40.232212,89.76 38.5539246,89.76 C36.8756371,89.76 35.5170234,91.12 35.5170234,92.8 L35.5170234,108.64 Z M79.4521916,85.04 C79.4521916,83.36 78.093578,82 76.4152905,82 C74.7370031,82 73.3783894,83.36 73.3783894,85.04 L73.3783894,92.8 C71.9398573,91.08 69.941896,89.6 66.7051988,89.6 C61.6303772,89.6 56.9551478,93.52 56.9551478,100.68 L56.9551478,100.76 C56.9551478,107.92 61.7102956,111.84 66.7051988,111.84 C69.8619776,111.84 71.8998981,110.36 73.3783894,108.36 L73.3783894,108.64 C73.3783894,110.32 74.7370031,111.68 76.4152905,111.68 C78.093578,111.68 79.4521916,110.32 79.4521916,108.64 L79.4521916,85.04 Z M68.2636086,94.76 C71.1007136,94.76 73.4583078,97.12 73.4583078,100.68 L73.4583078,100.76 C73.4583078,104.32 71.1007136,106.68 68.2636086,106.68 C65.4265036,106.68 63.0289501,104.32 63.0289501,100.76 L63.0289501,100.68 C63.0289501,97.08 65.4265036,94.76 68.2636086,94.76 Z M100.770438,107.52 C100.770438,106.16 99.7714577,105.12 98.412844,105.12 C97.7734964,105.12 97.3739042,105.28 96.9343527,105.6 C95.6956167,106.52 94.2970438,107.04 92.6187564,107.04 C89.9015291,107.04 88.9498753,106.463653 88.5948873,106.032082 L99.4118247,102.84 C99.9033777,102.84 101.268641,102.069855 101.268641,102.069855 C101.268641,102.069855 102.24893,101.13874 102.24893,99.92 C102.24893,95.48 99.0921509,89.6 91.9394495,89.6 C85.7058104,89.6 81.3502548,94.64 81.3502548,100.76 L81.3502548,100.84 C81.3502548,107.4 86.1054027,111.92 92.5388379,111.92 C95.6556575,111.92 98.0931702,110.92 99.9712538,109.32 C100.410805,108.92 100.770438,108.32 100.770438,107.52 Z M87.279295,101.718243 C86.8077068,101.897262 87.3041794,99.04 87.3041794,99.04 C87.7836901,96.28 89.4220183,94.48 91.9394495,94.48 C94.49684,94.48 96.095209,96.32 96.454842,99.04 C96.454842,99.04 87.7508833,101.539225 87.279295,101.718243 Z M104.386748,108.64 C104.386748,110.32 105.745362,111.68 107.423649,111.68 C109.101937,111.68 110.46055,110.32 110.46055,108.64 L110.46055,102.96 C110.46055,98.64 112.178797,96.28 115.255657,95.56 C116.494393,95.28 117.533333,94.32 117.533333,92.72 C117.533333,91 116.454434,89.76 114.576351,89.76 C112.778186,89.76 111.339653,91.68 110.46055,93.76 L110.46055,92.8 C110.46055,91.12 109.101937,89.76 107.423649,89.76 C105.745362,89.76 104.386748,91.12 104.386748,92.8 L104.386748,108.64 Z M139.730683,85.04 C139.730683,83.36 138.372069,82 136.693782,82 C135.015494,82 133.656881,83.36 133.656881,85.04 L133.656881,92.8 C132.218349,91.08 130.220387,89.6 126.98369,89.6 C121.908869,89.6 117.233639,93.52 117.233639,100.68 L117.233639,100.76 C117.233639,107.92 121.988787,111.84 126.98369,111.84 C130.140469,111.84 132.178389,110.36 133.656881,108.36 L133.656881,108.64 C133.656881,110.32 135.015494,111.68 136.693782,111.68 C138.372069,111.68 139.730683,110.32 139.730683,108.64 L139.730683,85.04 Z M128.5421,94.76 C131.379205,94.76 133.736799,97.12 133.736799,100.68 L133.736799,100.76 C133.736799,104.32 131.379205,106.68 128.5421,106.68 C125.704995,106.68 123.307441,104.32 123.307441,100.76 L123.307441,100.68 C123.307441,97.08 125.704995,94.76 128.5421,94.76 Z M164.805097,100.76 L164.805097,100.68 C164.805097,94.52 159.890112,89.6 153.256881,89.6 C146.58369,89.6 141.628746,94.6 141.628746,100.76 L141.628746,100.84 C141.628746,107 146.543731,111.92 153.176962,111.92 C159.850153,111.92 164.805097,106.92 164.805097,100.76 Z M153.256881,106.68 C149.900306,106.68 147.62263,103.92 147.62263,100.76 L147.62263,100.68 C147.62263,97.52 149.70051,94.84 153.176962,94.84 C156.533537,94.84 158.811213,97.6 158.811213,100.76 L158.811213,100.84 C158.811213,104 156.733333,106.68 153.256881,106.68 Z M176.293374,117.92 C180.449134,117.92 183.525994,117.04 185.523955,115.04 C187.32212,113.24 188.241182,110.44 188.241182,106.6 L188.241182,92.8 C188.241182,91.12 186.882569,89.76 185.204281,89.76 C183.525994,89.76 182.16738,91.12 182.16738,92.76 L182.16738,92.8 C180.529052,91 178.57105,89.6 175.254434,89.6 C170.33945,89.6 165.744139,93.2 165.744139,99.6 L165.744139,99.68 C165.744139,106.04 170.259531,109.68 175.254434,109.68 C178.491131,109.68 180.449134,108.36 182.247299,106.2 L182.247299,107.24 C182.247299,111.08 180.289297,113.08 176.133537,113.08 C173.855861,113.08 171.977778,112.6 170.219572,111.8 C169.939857,111.68 169.620183,111.6 169.220591,111.6 C167.861978,111.6 166.743119,112.72 166.743119,114.08 C166.743119,115.2 167.422426,116.04 168.461366,116.44 C170.978797,117.44 173.456269,117.92 176.293374,117.92 Z M177.01264,104.64 C174.055657,104.64 171.817941,102.64 171.817941,99.68 L171.817941,99.6 C171.817941,96.68 174.055657,94.64 177.01264,94.64 C179.969623,94.64 182.247299,96.68 182.247299,99.6 L182.247299,99.68 C182.247299,102.6 179.969623,104.64 177.01264,104.64 Z M32.8297655,92.8 C32.8297655,91.12 31.4711519,89.76 29.7928644,89.76 C28.114577,89.76 26.7559633,91.12 26.7559633,92.8 L26.7559633,101.96 C26.7559633,104.84 25.277472,106.32 22.9598369,106.32 C20.6422018,106.32 19.2835882,104.84 19.2835882,101.96 L19.2835882,92.8 C19.2835882,91.12 17.9249745,89.76 16.2466871,89.76 C14.5683996,89.76 13.2097859,91.12 13.2097859,92.8 L13.2097859,103.88 C13.2097859,108.8 15.887054,111.84 20.4823649,111.84 C23.5592253,111.84 25.3573904,110.2 26.7559633,108.4 L26.7559633,108.64 C26.7559633,110.32 28.114577,111.68 29.7928644,111.68 C31.4711519,111.68 32.8297655,110.32 32.8297655,108.64 L32.8297655,92.8 Z" id="Underdog-3"></path>
        </g>
    </g>
</svg>