<?xml version="1.0" encoding="UTF-8" standalone="no"?>
<svg width="200px" height="200px" viewBox="0 0 200 200" version="1.1" xmlns="http://www.w3.org/2000/svg" xmlns:xlink="http://www.w3.org/1999/xlink">
    <!-- Generator: Sketch 3.6.1 (26313) - http://www.bohemiancoding.com/sketch -->
    <title>repor</title>
    <desc>Created with Sketch.</desc>
    <defs></defs>
    <g id="Page-1" stroke="none" stroke-width="1" fill="none" fill-rule="evenodd">
        <g id="repor" fill="#000000">
            <path d="M136.563601,115.977612 C132.094245,115.977612 128.367524,114.520235 125.383326,111.605438 C122.399129,108.69064 120.907052,105.123536 120.907052,100.90402 L120.907052,100.82074 C120.907052,96.6012236 122.413008,93.0202402 125.424966,90.0776825 C128.436924,87.1351249 132.177525,85.6638681 136.646881,85.6638681 C141.116237,85.6638681 144.842959,87.1212451 147.827156,90.0360428 C150.811354,92.9508404 152.30343,96.5179441 152.30343,100.737461 L152.30343,100.82074 C152.30343,105.040257 150.797474,108.62124 147.785516,111.563798 C144.773559,114.506356 141.032958,115.977612 136.563601,115.977612 Z M130.921311,96.6876787 L143.320495,96.6876787 C144.233546,96.6876787 144.97372,95.9475049 144.97372,95.0344541 C144.97372,94.1214034 144.233546,93.3812295 143.320495,93.3812295 L130.921311,93.3812295 C130.00826,93.3812295 129.268086,94.1214034 129.268086,95.0344541 C129.268086,95.9475049 130.00826,96.6876787 130.921311,96.6876787 Z M130.921311,102.473965 L132.771869,102.473965 C133.68492,102.473965 134.425094,101.733791 134.425094,100.82074 C134.425094,99.9076895 133.68492,99.1675156 132.771869,99.1675156 L130.921311,99.1675156 C130.00826,99.1675156 129.268086,99.9076895 129.268086,100.82074 C129.268086,101.733791 130.00826,102.473965 130.921311,102.473965 Z M130.921311,108.260251 L139.187434,108.260251 C140.100484,108.260251 140.840658,107.520077 140.840658,106.607026 C140.840658,105.693976 140.100484,104.953802 139.187434,104.953802 L130.921311,104.953802 C130.00826,104.953802 129.268086,105.693976 129.268086,106.607026 C129.268086,107.520077 130.00826,108.260251 130.921311,108.260251 Z M138.360821,102.473965 L143.320495,102.473965 C144.233546,102.473965 144.97372,101.733791 144.97372,100.82074 C144.97372,99.9076895 144.233546,99.1675156 143.320495,99.1675156 L138.360821,99.1675156 C137.447771,99.1675156 136.707597,99.9076895 136.707597,100.82074 C136.707597,101.733791 137.447771,102.473965 138.360821,102.473965 Z M165.183996,115.394656 L165.183996,86.2468247 L178.966756,86.2468247 C183.241792,86.2468247 186.406382,87.3016881 188.460621,89.4114464 C190.181739,91.077045 191.042286,93.3394493 191.042286,96.198727 L191.042286,96.2820065 C191.042286,100.557043 189.043597,103.541196 185.04616,105.234555 L192,115.394656 L182.672694,115.394656 L176.801488,106.567027 L176.718209,106.567027 L173.262109,106.567027 L173.262109,115.394656 L165.183996,115.394656 Z M173.262109,100.237784 L178.591998,100.237784 C179.952237,100.237784 181.01404,99.9324284 181.777439,99.3217089 C182.540839,98.7109894 182.922533,97.8643228 182.922533,96.7816836 L182.922533,96.6984041 C182.922533,95.560245 182.540839,94.6996986 181.777439,94.1167391 C181.01404,93.5337796 179.938357,93.2423042 178.550358,93.2423042 L173.262109,93.2423042 L173.262109,100.237784 Z M85.2078993,115.394656 L85.2078993,86.2468247 L97.6998269,86.2468247 C101.419664,86.2468247 104.369117,87.1559504 106.548276,88.9742289 C108.727434,90.7925075 109.816997,93.2978079 109.816997,96.4902053 L109.816997,96.5734848 C109.816997,99.9046822 108.664975,102.486321 106.360897,104.31848 C104.056818,106.150638 101.031026,107.066704 97.2834293,107.066704 L93.2860125,107.066704 L93.2860125,115.394656 L85.2078993,115.394656 Z M93.2860125,100.737461 L97.1168703,100.737461 C98.5326291,100.737461 99.6568914,100.397406 100.489691,99.7172866 C101.32249,99.0371672 101.738883,98.1141617 101.738883,96.9482427 L101.738883,96.8649632 C101.738883,95.6157642 101.32943,94.6649992 100.510511,94.0126397 C99.6915912,93.3602802 98.5465093,93.0341054 97.0752305,93.0341054 L93.2860125,93.0341054 L93.2860125,100.737461 Z M48.7592307,115.394656 L48.7592307,86.2468247 L72.2024147,86.2468247 L72.2024147,93.1173849 L56.7540643,93.1173849 L56.7540643,97.5311993 L70.7450232,97.5311993 L70.7450232,103.902082 L56.7540643,103.902082 L56.7540643,108.524096 L72.4106135,108.524096 L72.4106135,115.394656 L48.7592307,115.394656 Z M10.1452946,115.394656 L10.1452946,86.2468247 L23.9280547,86.2468247 C28.2030913,86.2468247 31.3676813,87.3016881 33.4219196,89.4114464 C35.1430383,91.077045 36.0035847,93.3394493 36.0035847,96.198727 L36.0035847,96.2820065 C36.0035847,100.557043 34.0048963,103.541196 30.0074594,105.234555 L36.9612991,115.394656 L27.6339932,115.394656 L21.7627873,106.567027 L21.6795077,106.567027 L18.2234078,106.567027 L18.2234078,115.394656 L10.1452946,115.394656 Z M18.2234078,100.237784 L23.5532969,100.237784 C24.9135358,100.237784 25.975339,99.9324284 26.7387384,99.3217089 C27.5021378,98.7109894 27.8838318,97.8643228 27.8838318,96.7816836 L27.8838318,96.6984041 C27.8838318,95.560245 27.5021378,94.6996986 26.7387384,94.1167391 C25.975339,93.5337796 24.899656,93.2423042 23.5116571,93.2423042 L18.2234078,93.2423042 L18.2234078,100.237784 Z" id="Shape"></path>
        </g>
    </g>
</svg>