<?xml version="1.0" encoding="UTF-8" standalone="no"?>
<svg width="200px" height="200px" viewBox="0 0 200 200" version="1.1" xmlns="http://www.w3.org/2000/svg" xmlns:xlink="http://www.w3.org/1999/xlink">
    <!-- Generator: Sketch 3.7 (28169) - http://www.bohemiancoding.com/sketch -->
    <title>repor</title>
    <desc>Created with Sketch.</desc>
    <defs></defs>
    <g id="Page-1" stroke="none" stroke-width="1" fill="none" fill-rule="evenodd">
        <g id="repor" fill="#000000">
            <path d="M136.418307,115.313744 C131.94895,115.313744 128.222229,113.856367 125.238032,110.94157 C122.253834,108.026772 120.761758,104.459668 120.761758,100.240152 L120.761758,100.156872 C120.761758,95.9373555 122.267714,92.3563721 125.279671,89.4138144 C128.291629,86.4712568 132.03223,85 136.501586,85 C140.970943,85 144.697664,86.457377 147.681862,89.3721746 C150.666059,92.2869723 152.158136,95.854076 152.158136,100.073593 L152.158136,100.156872 C152.158136,104.376389 150.652179,107.957372 147.640222,110.89993 C144.628264,113.842487 140.887663,115.313744 136.418307,115.313744 Z M130.776016,96.0238106 L143.1752,96.0238106 C144.088251,96.0238106 144.828425,95.2836368 144.828425,94.370586 C144.828425,93.4575353 144.088251,92.7173614 143.1752,92.7173614 L130.776016,92.7173614 C129.862965,92.7173614 129.122791,93.4575353 129.122791,94.370586 C129.122791,95.2836368 129.862965,96.0238106 130.776016,96.0238106 Z M130.776016,101.810097 L132.626575,101.810097 C133.539625,101.810097 134.279799,101.069923 134.279799,100.156872 C134.279799,99.2438214 133.539625,98.5036475 132.626575,98.5036475 L130.776016,98.5036475 C129.862965,98.5036475 129.122791,99.2438214 129.122791,100.156872 C129.122791,101.069923 129.862965,101.810097 130.776016,101.810097 Z M130.776016,107.596383 L139.042139,107.596383 C139.95519,107.596383 140.695364,106.856209 140.695364,105.943158 C140.695364,105.030107 139.95519,104.289934 139.042139,104.289934 L130.776016,104.289934 C129.862965,104.289934 129.122791,105.030107 129.122791,105.943158 C129.122791,106.856209 129.862965,107.596383 130.776016,107.596383 Z M138.215527,101.810097 L143.1752,101.810097 C144.088251,101.810097 144.828425,101.069923 144.828425,100.156872 C144.828425,99.2438214 144.088251,98.5036475 143.1752,98.5036475 L138.215527,98.5036475 C137.302476,98.5036475 136.562302,99.2438214 136.562302,100.156872 C136.562302,101.069923 137.302476,101.810097 138.215527,101.810097 Z M165.038701,114.730788 L165.038701,85.5829566 L178.821461,85.5829566 C183.096498,85.5829566 186.261088,86.63782 188.315326,88.7475783 C190.036445,90.4131769 190.896991,92.6755812 190.896991,95.5348589 L190.896991,95.6181384 C190.896991,99.893175 188.898302,102.877328 184.900866,104.570687 L191.854705,114.730788 L182.527399,114.730788 L176.656194,105.903159 L176.572914,105.903159 L173.116814,105.903159 L173.116814,114.730788 L165.038701,114.730788 Z M173.116814,99.5739155 L178.446703,99.5739155 C179.806942,99.5739155 180.868745,99.2685603 181.632145,98.6578408 C182.395544,98.0471213 182.777238,97.2004547 182.777238,96.1178155 L182.777238,96.034536 C182.777238,94.8963769 182.395544,94.0358305 181.632145,93.452871 C180.868745,92.8699114 179.793062,92.5784361 178.405063,92.5784361 L173.116814,92.5784361 L173.116814,99.5739155 Z M85.0626047,114.730788 L85.0626047,85.5829566 L97.5545322,85.5829566 C101.274369,85.5829566 104.223823,86.4920823 106.402981,88.3103608 C108.582139,90.1286393 109.671702,92.6339398 109.671702,95.8263372 L109.671702,95.9096167 C109.671702,99.2408141 108.51968,101.822453 106.215602,103.654612 C103.911524,105.48677 100.885732,106.402836 97.1381347,106.402836 L93.1407178,106.402836 L93.1407178,114.730788 L85.0626047,114.730788 Z M93.1407178,100.073593 L96.9715756,100.073593 C98.3873345,100.073593 99.5115967,99.733538 100.344396,99.0534185 C101.177195,98.373299 101.593589,97.4502936 101.593589,96.2843746 L101.593589,96.201095 C101.593589,94.951896 101.184135,94.0011311 100.365216,93.3487716 C99.5462966,92.6964121 98.4012147,92.3702373 96.9299359,92.3702373 L93.1407178,92.3702373 L93.1407178,100.073593 Z M48.6139361,114.730788 L48.6139361,85.5829566 L72.0571201,85.5829566 L72.0571201,92.4535168 L56.6087697,92.4535168 L56.6087697,96.8673312 L70.5997286,96.8673312 L70.5997286,103.238214 L56.6087697,103.238214 L56.6087697,107.860227 L72.2653189,107.860227 L72.2653189,114.730788 L48.6139361,114.730788 Z M10,114.730788 L10,85.5829566 L23.7827601,85.5829566 C28.0577967,85.5829566 31.2223867,86.63782 33.276625,88.7475783 C34.9977436,90.4131769 35.85829,92.6755812 35.85829,95.5348589 L35.85829,95.6181384 C35.85829,99.893175 33.8596016,102.877328 29.8621648,104.570687 L36.8160045,114.730788 L27.4886986,114.730788 L21.6174926,105.903159 L21.5342131,105.903159 L18.0781132,105.903159 L18.0781132,114.730788 L10,114.730788 Z M18.0781132,99.5739155 L23.4080022,99.5739155 C24.7682412,99.5739155 25.8300444,99.2685603 26.5934438,98.6578408 C27.3568432,98.0471213 27.7385371,97.2004547 27.7385371,96.1178155 L27.7385371,96.034536 C27.7385371,94.8963769 27.3568432,94.0358305 26.5934438,93.452871 C25.8300444,92.8699114 24.7543614,92.5784361 23.3663625,92.5784361 L18.0781132,92.5784361 L18.0781132,99.5739155 Z" id="Shape"></path>
        </g>
    </g>
</svg>