<?xml version="1.0" encoding="UTF-8" standalone="no"?>
<svg width="410px" height="240px" viewBox="0 0 410 240" version="1.1" xmlns="http://www.w3.org/2000/svg" xmlns:xlink="http://www.w3.org/1999/xlink" xmlns:sketch="http://www.bohemiancoding.com/sketch/ns">
    <!-- Generator: Sketch 3.4.4 (17249) - http://www.bohemiancoding.com/sketch -->
    <title>repor</title>
    <desc>Created with Sketch.</desc>
    <defs></defs>
    <g id="Page-1" stroke="none" stroke-width="1" fill="none" fill-rule="evenodd" sketch:type="MSPage">
        <g id="repor" sketch:type="MSArtboardGroup" fill="#000000">
            <path d="M247.93543,136.336132 C242.528595,136.336132 238.020168,134.57306 234.410014,131.046863 C230.79986,127.520666 228.99481,123.205338 228.99481,118.100748 L228.99481,118 C228.99481,112.89541 230.816651,108.563291 234.460388,105.003511 C238.104124,101.443731 242.629343,99.6638681 248.036178,99.6638681 C253.443013,99.6638681 257.95144,101.42694 261.561594,104.953137 C265.171748,108.479334 266.976797,112.794662 266.976797,117.899252 L266.976797,118 C266.976797,123.10459 265.154956,127.436709 261.51122,130.996489 C257.867483,134.556269 253.342265,136.336132 247.93543,136.336132 Z M241.109629,113 L256.109629,113 C257.214198,113 258.109629,112.104569 258.109629,111 C258.109629,109.895431 257.214198,109 256.109629,109 L241.109629,109 C240.005059,109 239.109629,109.895431 239.109629,111 C239.109629,112.104569 240.005059,113 241.109629,113 Z M241.109629,120 L243.348355,120 C244.452925,120 245.348355,119.104569 245.348355,118 C245.348355,116.895431 244.452925,116 243.348355,116 L241.109629,116 C240.005059,116 239.109629,116.895431 239.109629,118 C239.109629,119.104569 240.005059,120 241.109629,120 Z M241.109629,127 L251.109629,127 C252.214198,127 253.109629,126.104569 253.109629,125 C253.109629,123.895431 252.214198,123 251.109629,123 L241.109629,123 C240.005059,123 239.109629,123.895431 239.109629,125 C239.109629,126.104569 240.005059,127 241.109629,127 Z M250.109629,120 L256.109629,120 C257.214198,120 258.109629,119.104569 258.109629,118 C258.109629,116.895431 257.214198,116 256.109629,116 L250.109629,116 C249.005059,116 248.109629,116.895431 248.109629,118 C248.109629,119.104569 249.005059,120 250.109629,120 Z M282.559151,135.630896 L282.559151,100.369104 L299.232942,100.369104 C304.404697,100.369104 308.233082,101.645232 310.718211,104.197527 C312.800346,106.212497 313.841398,108.949456 313.841398,112.408487 L313.841398,112.509235 C313.841398,117.680991 311.423471,121.29109 306.587544,123.339643 L315,135.630896 L303.716227,135.630896 L296.613494,124.95161 L296.512746,124.95161 L292.331705,124.95161 L292.331705,135.630896 L282.559151,135.630896 Z M292.331705,117.294764 L298.779576,117.294764 C300.425134,117.294764 301.709658,116.925359 302.633186,116.186536 C303.556714,115.447714 304.01847,114.423453 304.01847,113.113723 L304.01847,113.012975 C304.01847,111.636079 303.556714,110.595027 302.633186,109.889788 C301.709658,109.184548 300.408343,108.831934 298.729202,108.831934 L292.331705,108.831934 L292.331705,117.294764 Z M185.80751,135.630896 L185.80751,100.369104 L200.919707,100.369104 C205.419806,100.369104 208.987928,101.468925 211.62418,103.6686 C214.260431,105.868275 215.578538,108.89908 215.578538,112.761105 L215.578538,112.861853 C215.578538,116.891792 214.184871,120.014948 211.397497,122.231415 C208.610122,124.447882 204.949649,125.556098 200.415967,125.556098 L195.580064,125.556098 L195.580064,135.630896 L185.80751,135.630896 Z M195.580064,117.899252 L200.214471,117.899252 C201.927195,117.899252 203.287279,117.487869 204.294764,116.665089 C205.302249,115.84231 205.805984,114.725698 205.805984,113.315219 L205.805984,113.214471 C205.805984,111.703244 205.310645,110.553049 204.319951,109.763853 C203.329258,108.974656 201.943987,108.580064 200.164097,108.580064 L195.580064,108.580064 L195.580064,117.899252 Z M141.713479,135.630896 L141.713479,100.369104 L170.074034,100.369104 L170.074034,108.680812 L151.385285,108.680812 L151.385285,114.020455 L168.310945,114.020455 L168.310945,121.727675 L151.385285,121.727675 L151.385285,127.319188 L170.325904,127.319188 L170.325904,135.630896 L141.713479,135.630896 Z M95,135.630896 L95,100.369104 L111.67379,100.369104 C116.845546,100.369104 120.67393,101.645232 123.15906,104.197527 C125.241195,106.212497 126.282247,108.949456 126.282247,112.408487 L126.282247,112.509235 C126.282247,117.680991 123.86432,121.29109 119.028393,123.339643 L127.440849,135.630896 L116.157075,135.630896 L109.054343,124.95161 L108.953595,124.95161 L104.772554,124.95161 L104.772554,135.630896 L95,135.630896 Z M104.772554,117.294764 L111.220424,117.294764 C112.865983,117.294764 114.150507,116.925359 115.074034,116.186536 C115.997562,115.447714 116.459319,114.423453 116.459319,113.113723 L116.459319,113.012975 C116.459319,111.636079 115.997562,110.595027 115.074034,109.889788 C114.150507,109.184548 112.849192,108.831934 111.17005,108.831934 L104.772554,108.831934 L104.772554,117.294764 Z" id="Shape" sketch:type="MSShapeGroup"></path>
        </g>
    </g>
</svg>