<?xml version="1.0" encoding="UTF-8" standalone="no"?>
<svg width="200px" height="200px" viewBox="0 0 200 200" version="1.1" xmlns="http://www.w3.org/2000/svg" xmlns:xlink="http://www.w3.org/1999/xlink" xmlns:sketch="http://www.bohemiancoding.com/sketch/ns">
    <!-- Generator: Sketch 3.4.4 (17249) - http://www.bohemiancoding.com/sketch -->
    <title>tinysplash_icon</title>
    <desc>Created with Sketch.</desc>
    <defs></defs>
    <g id="Page-1" stroke="none" stroke-width="1" fill="none" fill-rule="evenodd" sketch:type="MSPage">
        <g id="tinysplash_icon" sketch:type="MSArtboardGroup" stroke="#000000">
            <g id="Group" sketch:type="MSLayerGroup" transform="translate(99.500000, 99.500000) rotate(-20.000000) translate(-99.500000, -99.500000) translate(52.000000, 24.000000)">
                <g id="Path-85-+-Path-82-+-Path-83" transform="translate(6.617862, 49.300368)" stroke-width="11.52" sketch:type="MSShapeGroup">
                    <path d="M3.37507799e-13,66.1795795 L7.95977069,57.6516985 L15.9195414,66.1795795" id="Path-85" stroke-linecap="round" stroke-linejoin="round"></path>
                    <path d="M55.2706372,24.728006 L55.2706372,79.8983768 C55.2706372,79.8983768 55.2920685,99.9322682 31.9270497,99.9322702 C8.56203099,99.9322722 8.01704372,79.8983768 8.01704372,79.8983768 L8.01704372,58.3543141" id="Path-82" stroke-linecap="round" stroke-linejoin="round"></path>
                    <ellipse id="Oval-27" cx="55.6440619" cy="11.4180341" rx="10.0757576" ry="10.0666667"></ellipse>
                </g>
                <ellipse id="Oval-19" stroke-width="4.32" sketch:type="MSShapeGroup" cx="27.5332826" cy="76.1530612" rx="7.1969697" ry="7.19047619"></ellipse>
                <ellipse id="Oval-19" stroke-width="4.32" sketch:type="MSShapeGroup" cx="70.291728" cy="3.74114223" rx="3.59848485" ry="3.5952381"></ellipse>
                <ellipse id="Oval-19" stroke-width="4.32" sketch:type="MSShapeGroup" cx="27.2117859" cy="40.5643273" rx="5.75757576" ry="5.75238095"></ellipse>
                <ellipse id="Oval-19" stroke-width="4.32" sketch:type="MSShapeGroup" cx="91.0704439" cy="71.6193531" rx="3.59848485" ry="3.5952381"></ellipse>
                <ellipse id="Oval-19" stroke-width="4.32" sketch:type="MSShapeGroup" cx="83.0684089" cy="31.0476612" rx="9.35606061" ry="9.34761905"></ellipse>
            </g>
        </g>
    </g>
</svg>