<?xml version="1.0" encoding="UTF-8" standalone="no"?>
<svg width="200px" height="200px" viewBox="0 0 200 200" version="1.1" xmlns="http://www.w3.org/2000/svg" xmlns:xlink="http://www.w3.org/1999/xlink">
    <!-- Generator: Sketch 3.6.1 (26313) - http://www.bohemiancoding.com/sketch -->
    <title>tinysplash</title>
    <desc>Created with Sketch.</desc>
    <defs></defs>
    <g id="Page-1" stroke="none" stroke-width="1" fill="none" fill-rule="evenodd">
        <g id="tinysplash" stroke="#000000">
            <g id="Group" transform="translate(102.857505, 84.603284) rotate(-20.000000) translate(-102.857505, -84.603284) translate(65.357505, 19.603284)">
                <path d="M0.63250333,105.835963 L6.20434281,99.8664465 L11.7761823,105.835963" id="Path-85" stroke-width="8.064" stroke-linecap="round" stroke-linejoin="round"></path>
                <path d="M39.3219494,76.8198617 L39.3219494,115.439121 C39.3219494,115.439121 39.3369513,129.462845 22.9814381,129.462847 C6.62592502,129.462848 6.24443394,115.439121 6.24443394,115.439121 L6.24443394,100.358277" id="Path-82" stroke-width="8.064" stroke-linecap="round" stroke-linejoin="round"></path>
                <ellipse id="Oval-27" stroke-width="8.064" cx="39.5833467" cy="67.5028814" rx="7.0530303" ry="7.04666667"></ellipse>
                <ellipse id="Oval-19" stroke-width="3.024" cx="15.2732978" cy="78.3071429" rx="5.03787879" ry="5.03333333"></ellipse>
                <ellipse id="Oval-19" stroke-width="3.024" cx="45.2042096" cy="27.6187996" rx="2.51893939" ry="2.51666667"></ellipse>
                <ellipse id="Oval-19" stroke-width="3.024" cx="11.2894796" cy="52.0269485" rx="4.03030303" ry="4.02666667"></ellipse>
                <ellipse id="Oval-19" stroke-width="3.024" cx="59.7493107" cy="75.1335471" rx="2.51893939" ry="2.51666667"></ellipse>
                <path d="M71.1129802,55.7207084 C70.3000918,54.8724088 69.6818909,52.169143 69.6818909,52.169143 C69.6818909,52.169143 69.0817186,54.7821071 68.2778446,55.5852558 C67.4253784,56.4369528 64.7128704,57.1336801 64.7128704,57.1336801 C64.7128704,57.1336801 67.3767862,57.8046319 68.2049563,58.6434412 C69.0331263,59.4822505 69.6818907,62.1665356 69.6818907,62.1665356 C69.6818907,62.1665356 70.3000917,59.5240039 71.11298,58.7060714 C71.9258684,57.8881389 74.5592209,57.2589406 74.5592209,57.2589406 C74.5592209,57.2589406 71.9258685,56.569008 71.1129802,55.7207084 Z" id="Path-86" stroke-width="3.024" stroke-linecap="round" stroke-linejoin="round"></path>
                <path d="M31.8726049,37.9519881 C31.0407774,37.0978105 30.4081732,34.3758131 30.4081732,34.3758131 C30.4081732,34.3758131 29.7940177,37.006883 28.9714144,37.8155969 C28.0990869,38.6731955 25.323381,39.3747506 25.323381,39.3747506 C25.323381,39.3747506 28.0493626,40.0503516 28.8968279,40.8949731 C29.7442933,41.7395946 30.408173,44.4424798 30.408173,44.4424798 C30.408173,44.4424798 31.0407772,41.7816374 31.8726048,40.9580373 C32.7044324,40.1344372 35.3991386,39.500879 35.3991386,39.500879 C35.3991386,39.500879 32.7044325,38.8061658 31.8726049,37.9519881 Z" id="Path-86" stroke-width="3.024" stroke-linecap="round" stroke-linejoin="round"></path>
                <path d="M30.8016794,12.4870078 C30.3888928,12.0627474 30.0749689,10.710762 30.0749689,10.710762 C30.0749689,10.710762 29.7702,12.0175848 29.3619909,12.4192639 C28.9291066,12.8452234 27.5516886,13.1936779 27.5516886,13.1936779 C27.5516886,13.1936779 28.9044314,13.5292413 29.3249781,13.9487554 C29.7455248,14.3682694 30.0749688,15.710762 30.0749688,15.710762 C30.0749688,15.710762 30.3888927,14.3891515 30.8016794,13.9800786 C31.214466,13.5710057 32.5516886,13.2563245 32.5516886,13.2563245 C32.5516886,13.2563245 31.214466,12.9112683 30.8016794,12.4870078 Z" id="Path-86" stroke-width="3.024" stroke-linecap="round" stroke-linejoin="round"></path>
                <path d="M55.7518944,2.41294353 C55.3391078,1.98868311 55.0251839,0.636697672 55.0251839,0.636697672 C55.0251839,0.636697672 54.720415,1.94352046 54.3122059,2.34519956 C53.8793216,2.77115912 52.5019036,3.11961363 52.5019036,3.11961363 C52.5019036,3.11961363 53.8546464,3.45517704 54.2751931,3.87469105 C54.6957398,4.29420505 55.0251838,5.63669767 55.0251838,5.63669767 C55.0251838,5.63669767 55.3391077,4.31508724 55.7518944,3.90601433 C56.164681,3.49694141 57.5019036,3.18226019 57.5019036,3.18226019 C57.5019036,3.18226019 56.164681,2.83720395 55.7518944,2.41294353 Z" id="Path-86" stroke-width="3.024" stroke-linecap="round" stroke-linejoin="round"></path>
                <ellipse id="Oval-19" stroke-width="3.024" cx="54.1478862" cy="46.7333628" rx="6.54924242" ry="6.54333333"></ellipse>
            </g>
        </g>
    </g>
</svg>