<?xml version="1.0" encoding="UTF-8" standalone="no"?>
<svg width="200px" height="200px" viewBox="0 0 200 200" version="1.1" xmlns="http://www.w3.org/2000/svg" xmlns:xlink="http://www.w3.org/1999/xlink">
    <!-- Generator: Sketch 3.7 (28169) - http://www.bohemiancoding.com/sketch -->
    <title>tinysplash</title>
    <desc>Created with Sketch.</desc>
    <defs></defs>
    <g id="Page-1" stroke="none" stroke-width="1" fill="none" fill-rule="evenodd">
        <g id="tinysplash" fill="#000000">
            <path d="M7.6064,107.384 L7.6064,94.9168 L3.8176,94.9168 C3.32266419,94.9168 2.89600179,94.7376018 2.5376,94.3792 C2.17919821,94.0207982 2,93.5941358 2,93.0992 C2,92.6042642 2.17919821,92.1776018 2.5376,91.8192 C2.89600179,91.4607982 3.32266419,91.2816 3.8176,91.2816 L15.3376,91.2816 C15.8325358,91.2816 16.2591982,91.4607982 16.6176,91.8192 C16.9760018,92.1776018 17.1552,92.6042642 17.1552,93.0992 C17.1552,93.5941358 16.9760018,94.0207982 16.6176,94.3792 C16.2591982,94.7376018 15.8325358,94.9168 15.3376,94.9168 L11.5488,94.9168 L11.5488,107.384 C11.5488,107.930136 11.3568019,108.395198 10.9728,108.7792 C10.5887981,109.163202 10.1237361,109.3552 9.5776,109.3552 C9.03146394,109.3552 8.56640192,109.163202 8.1824,108.7792 C7.79839808,108.395198 7.6064,107.930136 7.6064,107.384 L7.6064,107.384 Z M23.4016,107.384 L23.4016,93.0992 C23.4016,92.5530639 23.5935981,92.0880019 23.9776,91.704 C24.3616019,91.3199981 24.8266639,91.128 25.3728,91.128 C25.9189361,91.128 26.3839981,91.3199981 26.768,91.704 C27.1520019,92.0880019 27.344,92.5530639 27.344,93.0992 L27.344,107.384 C27.344,107.930136 27.1520019,108.395198 26.768,108.7792 C26.3839981,109.163202 25.9189361,109.3552 25.3728,109.3552 C24.8266639,109.3552 24.3616019,109.163202 23.9776,108.7792 C23.5935981,108.395198 23.4016,107.930136 23.4016,107.384 L23.4016,107.384 Z M35.024,107.4096 L35.024,93.1504 C35.024,92.6042639 35.2159981,92.1392019 35.6,91.7552 C35.9840019,91.3711981 36.4490639,91.1792 36.9952,91.1792 L37.4048,91.1792 C38.1728038,91.1792 38.8554637,91.5631962 39.4528,92.3312 L47.056,102.3152 L47.056,93.0736 C47.056,92.5274639 47.2437315,92.0666685 47.6192,91.6912 C47.9946685,91.3157315 48.4554639,91.128 49.0016,91.128 C49.5477361,91.128 50.0085315,91.3157315 50.384,91.6912 C50.7594685,92.0666685 50.9472,92.5274639 50.9472,93.0736 L50.9472,107.3328 C50.9472,107.878936 50.7552019,108.343998 50.3712,108.728 C49.9871981,109.112002 49.5221361,109.304 48.976,109.304 L48.848,109.304 C48.0799962,109.304 47.3973363,108.920004 46.8,108.152 L38.9152,97.8096 L38.9152,107.4096 C38.9152,107.955736 38.7274685,108.416531 38.352,108.792 C37.9765315,109.167469 37.5157361,109.3552 36.9696,109.3552 C36.4234639,109.3552 35.9626685,109.167469 35.5872,108.792 C35.2117315,108.416531 35.024,107.955736 35.024,107.4096 L35.024,107.4096 Z M63.1328,107.384 L63.1328,102.2896 L57.3472,94.4304 C57.0229317,93.9866644 56.8608,93.5173358 56.8608,93.0224 C56.8608,92.4933307 57.0527981,92.0453352 57.4368,91.6784 C57.8208019,91.3114648 58.2858639,91.128 58.832,91.128 C59.5829371,91.128 60.2314639,91.5290627 60.7776,92.3312 L65.1296,98.6032 L69.5584,92.28 C70.0874693,91.4949294 70.7189297,91.1024 71.4528,91.1024 C72.0330696,91.1024 72.4981316,91.2858648 72.848,91.6528 C73.1978684,92.0197352 73.3728,92.4762639 73.3728,93.0224 C73.3728,93.4661356 73.202135,93.9269309 72.8608,94.4048 L67.0752,102.2128 L67.0752,107.384 C67.0752,107.930136 66.8832019,108.395198 66.4992,108.7792 C66.1151981,109.163202 65.6501361,109.3552 65.104,109.3552 C64.5578639,109.3552 64.0928019,109.163202 63.7088,108.7792 C63.3247981,108.395198 63.1328,107.930136 63.1328,107.384 L63.1328,107.384 Z M85.1232,109.4576 C82.6314542,109.4576 80.38721,108.740807 78.3904,107.3072 C77.8954642,106.965865 77.648,106.470937 77.648,105.8224 C77.648,105.310397 77.8271982,104.879468 78.1856,104.5296 C78.5440018,104.179732 78.9791974,104.0048 79.4912,104.0048 C79.900802,104.0048 80.276265,104.124265 80.6176,104.3632 C82.0853407,105.438405 83.6127921,105.976 85.2,105.976 C86.0021373,105.976 86.6335977,105.826668 87.0944,105.528 C87.5552023,105.229332 87.7856,104.815469 87.7856,104.2864 L87.7856,104.2352 C87.7856,103.723197 87.5466691,103.309335 87.0688,102.9936 C86.5909309,102.677865 85.6266739,102.332269 84.176,101.9568 C83.1519949,101.700799 82.3242698,101.449068 81.6928,101.2016 C81.0613302,100.954132 80.4597362,100.625602 79.888,100.216 C79.3162638,99.806398 78.8981347,99.2986697 78.6336,98.6928 C78.3690653,98.0869303 78.2368,97.3488044 78.2368,96.4784 L78.2368,96.4272 C78.2368,94.8058586 78.8213275,93.5002716 79.9904,92.5104 C81.1594725,91.5205284 82.6655908,91.0256 84.5088,91.0256 C86.6250772,91.0256 88.5194583,91.5546614 90.192,92.6128 C90.7722696,92.954135 91.0624,93.4746632 91.0624,94.1744 C91.0624,94.6864026 90.8832018,95.1173316 90.5248,95.4672 C90.1663982,95.8170684 89.7312026,95.992 89.2192,95.992 C88.877865,95.992 88.5450683,95.8981343 88.2208,95.7104 C86.8554598,94.9082627 85.6010724,94.5072 84.4576,94.5072 C83.7237297,94.5072 83.1562687,94.6522652 82.7552,94.9424 C82.3541313,95.2325348 82.1536,95.6079977 82.1536,96.0688 L82.1536,96.12 C82.1536,96.7002696 82.4010642,97.1354652 82.896,97.4256 C83.3909358,97.7157348 84.4319921,98.065598 86.0192,98.4752 C87.9648097,98.9872026 89.3983954,99.639996 90.32,100.4336 C91.2416046,101.227204 91.7024,102.366393 91.7024,103.8512 L91.7024,103.9024 C91.7024,105.643209 91.100806,107.004262 89.8976,107.9856 C88.694394,108.966938 87.1029432,109.4576 85.1232,109.4576 L85.1232,109.4576 Z M98.3328,107.384 L98.3328,93.2528 C98.3328,92.7066639 98.5247981,92.2416019 98.9088,91.8576 C99.2928019,91.4735981 99.7578639,91.2816 100.304,91.2816 L105.6544,91.2816 C107.770677,91.2816 109.443194,91.849061 110.672,92.984 C111.900806,94.118939 112.5152,95.616524 112.5152,97.4768 L112.5152,97.528 C112.5152,99.52481 111.83254,101.073594 110.4672,102.1744 C109.10186,103.275206 107.36961,103.8256 105.2704,103.8256 L102.2752,103.8256 L102.2752,107.384 C102.2752,107.930136 102.083202,108.395198 101.6992,108.7792 C101.315198,109.163202 100.850136,109.3552 100.304,109.3552 C99.7578639,109.3552 99.2928019,109.163202 98.9088,108.7792 C98.5247981,108.395198 98.3328,107.930136 98.3328,107.384 L98.3328,107.384 Z M102.2752,100.3184 L105.3984,100.3184 C106.354138,100.3184 107.113597,100.062403 107.6768,99.5504 C108.240003,99.0383974 108.5216,98.3898706 108.5216,97.6048 L108.5216,97.5536 C108.5216,96.6831956 108.240003,96.0133357 107.6768,95.544 C107.113597,95.0746643 106.328538,94.84 105.3216,94.84 L102.2752,94.84 L102.2752,100.3184 Z M118.6336,107.2304 L118.6336,93.0992 C118.6336,92.5530639 118.825598,92.0880019 119.2096,91.704 C119.593602,91.3199981 120.058664,91.128 120.6048,91.128 C121.150936,91.128 121.615998,91.3199981 122,91.704 C122.384002,92.0880019 122.576,92.5530639 122.576,93.0992 L122.576,105.6176 L129.872,105.6176 C130.366936,105.6176 130.789332,105.792532 131.1392,106.1424 C131.489068,106.492268 131.664,106.914664 131.664,107.4096 C131.664,107.904536 131.489068,108.326932 131.1392,108.6768 C130.789332,109.026668 130.366936,109.2016 129.872,109.2016 L120.6048,109.2016 C120.058664,109.2016 119.593602,109.009602 119.2096,108.6256 C118.825598,108.241598 118.6336,107.776536 118.6336,107.2304 L118.6336,107.2304 Z M136.4512,107.512 C136.4512,107.290132 136.527999,107.008535 136.6816,106.6672 L142.928,92.5616 C143.388802,91.5205281 144.156795,91 145.232,91 L145.4624,91 C146.520539,91 147.279998,91.5205281 147.7408,92.5616 L153.9872,106.6672 C154.123734,106.974402 154.192,107.238932 154.192,107.4608 C154.192,107.989869 154.012802,108.437865 153.6544,108.8048 C153.295998,109.171735 152.852269,109.3552 152.3232,109.3552 C151.452796,109.3552 150.821335,108.902938 150.4288,107.9984 L149.2256,105.1824 L141.3408,105.1824 L140.0864,108.1264 C139.727998,108.945604 139.122138,109.3552 138.2688,109.3552 C137.756797,109.3552 137.325868,109.176002 136.976,108.8176 C136.626132,108.459198 136.4512,108.024003 136.4512,107.512 L136.4512,107.512 Z M142.8,101.7008 L147.7664,101.7008 L145.2832,95.7872 L142.8,101.7008 Z M166.736,109.4576 C164.244254,109.4576 162.00001,108.740807 160.0032,107.3072 C159.508264,106.965865 159.2608,106.470937 159.2608,105.8224 C159.2608,105.310397 159.439998,104.879468 159.7984,104.5296 C160.156802,104.179732 160.591997,104.0048 161.104,104.0048 C161.513602,104.0048 161.889065,104.124265 162.2304,104.3632 C163.698141,105.438405 165.225592,105.976 166.8128,105.976 C167.614937,105.976 168.246398,105.826668 168.7072,105.528 C169.168002,105.229332 169.3984,104.815469 169.3984,104.2864 L169.3984,104.2352 C169.3984,103.723197 169.159469,103.309335 168.6816,102.9936 C168.203731,102.677865 167.239474,102.332269 165.7888,101.9568 C164.764795,101.700799 163.93707,101.449068 163.3056,101.2016 C162.67413,100.954132 162.072536,100.625602 161.5008,100.216 C160.929064,99.806398 160.510935,99.2986697 160.2464,98.6928 C159.981865,98.0869303 159.8496,97.3488044 159.8496,96.4784 L159.8496,96.4272 C159.8496,94.8058586 160.434127,93.5002716 161.6032,92.5104 C162.772273,91.5205284 164.278391,91.0256 166.1216,91.0256 C168.237877,91.0256 170.132258,91.5546614 171.8048,92.6128 C172.38507,92.954135 172.6752,93.4746632 172.6752,94.1744 C172.6752,94.6864026 172.496002,95.1173316 172.1376,95.4672 C171.779198,95.8170684 171.344003,95.992 170.832,95.992 C170.490665,95.992 170.157868,95.8981343 169.8336,95.7104 C168.46826,94.9082627 167.213872,94.5072 166.0704,94.5072 C165.33653,94.5072 164.769069,94.6522652 164.368,94.9424 C163.966931,95.2325348 163.7664,95.6079977 163.7664,96.0688 L163.7664,96.12 C163.7664,96.7002696 164.013864,97.1354652 164.5088,97.4256 C165.003736,97.7157348 166.044792,98.065598 167.632,98.4752 C169.57761,98.9872026 171.011195,99.639996 171.9328,100.4336 C172.854405,101.227204 173.3152,102.366393 173.3152,103.8512 L173.3152,103.9024 C173.3152,105.643209 172.713606,107.004262 171.5104,107.9856 C170.307194,108.966938 168.715743,109.4576 166.736,109.4576 L166.736,109.4576 Z M179.9456,107.384 L179.9456,93.0992 C179.9456,92.5530639 180.137598,92.0880019 180.5216,91.704 C180.905602,91.3199981 181.370664,91.128 181.9168,91.128 C182.462936,91.128 182.927998,91.3199981 183.312,91.704 C183.696002,92.0880019 183.888,92.5530639 183.888,93.0992 L183.888,98.3728 L191.1584,98.3728 L191.1584,93.0992 C191.1584,92.5530639 191.350398,92.0880019 191.7344,91.704 C192.118402,91.3199981 192.583464,91.128 193.1296,91.128 C193.675736,91.128 194.140798,91.3199981 194.5248,91.704 C194.908802,92.0880019 195.1008,92.5530639 195.1008,93.0992 L195.1008,107.384 C195.1008,107.930136 194.908802,108.395198 194.5248,108.7792 C194.140798,109.163202 193.675736,109.3552 193.1296,109.3552 C192.583464,109.3552 192.118402,109.163202 191.7344,108.7792 C191.350398,108.395198 191.1584,107.930136 191.1584,107.384 L191.1584,102.008 L183.888,102.008 L183.888,107.384 C183.888,107.930136 183.696002,108.395198 183.312,108.7792 C182.927998,109.163202 182.462936,109.3552 181.9168,109.3552 C181.370664,109.3552 180.905602,109.163202 180.5216,108.7792 C180.137598,108.395198 179.9456,107.930136 179.9456,107.384 L179.9456,107.384 Z" id="TINYSPLASH"></path>
        </g>
    </g>
</svg>