<?xml version="1.0" encoding="UTF-8" standalone="no"?>
<svg width="200px" height="200px" viewBox="0 0 200 200" version="1.1" xmlns="http://www.w3.org/2000/svg" xmlns:xlink="http://www.w3.org/1999/xlink">
    <defs></defs>
    <g stroke="none" stroke-width="1" fill="none" fill-rule="evenodd">
        <g>
            <g transform="translate(100.000000, 91.000000) rotate(-20.000000) translate(-100.000000, -91.000000) translate(53.030000, 3.220000)">
                <circle stroke="#4990E2" stroke-width="4.62" cx="30.3595486" cy="82.4074207" r="5.39"></circle>
                <circle stroke="#48C4FA" stroke-width="4.62" cx="27.1209943" cy="3.89537809" r="3.85"></circle>
                <circle stroke="#F6A623" stroke-width="4.62" cx="17.4355748" cy="56.873245" r="5.39"></circle>
                <circle stroke="#F6A623" stroke-width="4.62" cx="89.8121399" cy="72.2964086" r="3.85"></circle>
                <path d="M65.2205374,32.8647414 C63.9781018,31.5670115 63.0332305,27.4315518 63.0332305,27.4315518 C63.0332305,27.4315518 62.1159145,31.4288678 60.8872565,32.6575258 C59.5843293,33.960453 55.4384749,35.0263073 55.4384749,35.0263073 C55.4384749,35.0263073 59.51006,36.0527303 60.7758525,37.3359418 C62.0416451,38.6191533 63.0332301,42.7255763 63.0332301,42.7255763 C63.0332301,42.7255763 63.9781016,38.6830279 65.2205373,37.4317536 C66.462973,36.1804794 70.4878444,35.2179309 70.4878444,35.2179309 C70.4878444,35.2179309 66.4629731,34.1624712 65.2205374,32.8647414 Z" stroke="#4990E2" stroke-width="4.62" stroke-linecap="round" stroke-linejoin="round"></path>
                <path d="M10.2878318,104.399697 C9.01644902,103.092975 8.04956344,98.9288598 8.04956344,98.9288598 C8.04956344,98.9288598 7.11087521,102.953874 5.85359111,104.191046 C4.52030743,105.503001 0.277860101,106.576241 0.277860101,106.576241 C0.277860101,106.576241 4.44430775,107.609776 5.73959158,108.901879 C7.03487542,110.193983 8.04956311,114.32886 8.04956311,114.32886 C8.04956311,114.32886 9.0164488,110.2583 10.2878316,108.998355 C11.5592145,107.738411 15.6778601,106.769192 15.6778601,106.769192 C15.6778601,106.769192 11.5592146,105.706419 10.2878318,104.399697 Z" stroke="#49C4F9" stroke-width="4.62" stroke-linecap="round" stroke-linejoin="round"></path>
                <path d="M3.08,138.6 L13.86,129.36 L24.64,138.6" stroke="#2A2A2A" stroke-width="12.32" stroke-linecap="round" stroke-linejoin="round"></path>
                <path d="M63.1399999,95.48 L63.1399999,154.227245 C63.1399999,154.227245 63.1623502,175.559998 38.7953543,175.56 C14.4283583,175.560002 13.86,154.227245 13.86,154.227245 L13.86,131.28641" stroke="#2A2A2A" stroke-width="12.32" stroke-linecap="round" stroke-linejoin="round"></path>
                <circle stroke="#2A2A2A" stroke-width="12.32" cx="63.14" cy="80.08" r="10.78"></circle>
                <path d="M52.36,109.34 L73.92,109.34" stroke="#2A2A2A" stroke-width="12.32" stroke-linecap="round" stroke-linejoin="round"></path>
            </g>
        </g>
    </g>
</svg>