<?xml version="1.0" encoding="UTF-8" standalone="no"?>
<svg width="200px" height="200px" viewBox="0 0 200 200" version="1.1" xmlns="http://www.w3.org/2000/svg" xmlns:xlink="http://www.w3.org/1999/xlink">
    <defs></defs>
    <g stroke="none" stroke-width="1" fill="none" fill-rule="evenodd">
        <g>
            <g transform="translate(99.000000, 95.000000) rotate(-20.000000) translate(-99.000000, -95.000000) translate(68.500000, 38.000000)">
                <circle stroke="#4990E2" stroke-width="3" cx="19.7139926" cy="53.5113121" r="3.5"></circle>
                <circle stroke="#48C4FA" stroke-width="3" cx="17.6110352" cy="2.52946629" r="2.5"></circle>
                <circle stroke="#F6A623" stroke-width="3" cx="11.3218018" cy="36.9306786" r="3.5"></circle>
                <circle stroke="#F6A623" stroke-width="3" cx="58.3195714" cy="46.9457198" r="2.5"></circle>
                <path d="M42.3509983,21.3407411 C41.5442219,20.4980594 40.9306691,17.812696 40.9306691,17.812696 C40.9306691,17.812696 40.3350094,20.4083557 39.5371796,21.2061856 C38.6911229,22.0522422 35.9990097,22.7443554 35.9990097,22.7443554 C35.9990097,22.7443554 38.6428961,23.4108639 39.4648393,24.2441181 C40.2867825,25.0773723 40.9306689,27.7438807 40.9306689,27.7438807 C40.9306689,27.7438807 41.5442218,25.1188493 42.3509982,24.3063335 C43.1577747,23.4938178 45.7713276,22.8687863 45.7713276,22.8687863 C45.7713276,22.8687863 43.1577747,22.1834229 42.3509983,21.3407411 Z" stroke="#4990E2" stroke-width="3" stroke-linecap="round" stroke-linejoin="round"></path>
                <path d="M6.68041026,67.7920111 C5.85483703,66.9434902 5.22698925,64.2395193 5.22698925,64.2395193 C5.22698925,64.2395193 4.61745144,66.8531649 3.80103319,67.6565231 C2.93526457,68.5084422 0.180428637,69.2053513 0.180428637,69.2053513 C0.180428637,69.2053513 2.88591412,69.8764781 3.72700752,70.7155061 C4.56810092,71.5545341 5.22698903,74.2395193 5.22698903,74.2395193 C5.22698903,74.2395193 5.85483688,71.5962985 6.68041015,70.7781527 C7.50598342,69.9600068 10.1804286,69.3306444 10.1804286,69.3306444 C10.1804286,69.3306444 7.50598349,68.6405319 6.68041026,67.7920111 Z" stroke="#49C4F9" stroke-width="3" stroke-linecap="round" stroke-linejoin="round"></path>
                <path d="M2,90 L9,84 L16,90" stroke="#2A2A2A" stroke-width="8" stroke-linecap="round" stroke-linejoin="round"></path>
                <path d="M41,62 L41,100.147561 C41,100.147561 41.0145131,113.999999 25.1917885,114 C9.36906384,114.000001 9,100.147561 9,100.147561 L9,85.2509159" stroke="#2A2A2A" stroke-width="8" stroke-linecap="round" stroke-linejoin="round"></path>
                <circle stroke="#2A2A2A" stroke-width="8" cx="41" cy="52" r="7"></circle>
                <path d="M34,71 L48,71" stroke="#2A2A2A" stroke-width="8" stroke-linecap="round" stroke-linejoin="round"></path>
            </g>
        </g>
    </g>
</svg>