<svg width="64" height="55" viewBox="0 0 64 55" fill="none" xmlns="http://www.w3.org/2000/svg">
<g clip-path="url(#clip0_237_184)">
<path d="M32 34.25L48 44.25L32 54.25L16 44.25L32 34.25Z" fill="white"/>
<path d="M32 34.25L48 44.25L32 54.25L16 44.25L32 34.25Z" fill="white"/>
<path d="M48 20L64 30L48 40L32 30L48 20Z" fill="white"/>
<path d="M48 20L64 30L48 40L32 30L48 20Z" fill="white"/>
<path d="M16 20L32 30L16 40L0 30L16 20Z" fill="white"/>
<path d="M16 20L32 30L16 40L0 30L16 20Z" fill="white"/>
<path d="M48 0L64 10L48 20L32 10L48 0Z" fill="white"/>
<path d="M48 0L64 10L48 20L32 10L48 0Z" fill="white"/>
<path d="M16 0L32 10L16 20L0 10L16 0Z" fill="white"/>
<path d="M16 0L32 10L16 20L0 10L16 0Z" fill="white"/>
</g>
<defs>
<clipPath id="clip0_237_184">
<rect width="64" height="55" fill="white"/>
</clipPath>
</defs>
</svg>
