<svg width="200" height="200" viewBox="0 0 200 200" fill="none" xmlns="http://www.w3.org/2000/svg">
<path fill-rule="evenodd" clip-rule="evenodd" d="M200 0H0V200H200V0ZM135.232 116.645C153.213 108.831 155.08 96.632 155.08 86.8108V60.7754H135.232H115.385V73.5614H131.086V107.534C131.086 109.912 130.959 112.198 130.706 114.39C132.099 115.193 133.586 115.935 135.232 116.645ZM109.465 55H135.232H161V83.3209C161 102.222 151.187 112.784 135.264 118.683C133.586 118.066 131.972 117.417 130.421 116.676C127.604 133.755 116.619 143.947 100.19 150C83.6975 143.916 72.6814 133.693 69.9274 116.521C68.2813 117.324 66.5719 118.066 64.7675 118.714C48.8132 112.815 39 102.253 39 83.3518V55.0309H64.7675H90.535V70.7819H84.6155V60.8371H64.7675H44.9196V86.8726C44.9196 96.6938 46.7872 108.862 64.7675 116.707C82.7478 108.893 84.6155 96.6938 84.6155 86.8726V79.4603H75.2138V106.391C73.5994 108.028 71.7001 109.603 69.3576 111.086C69.2942 109.943 69.2626 108.77 69.2626 107.596V73.5923H84.6155H90.535H100.19H106.363V79.4295H100.19H90.535V83.3518C90.535 97.6821 84.932 107.225 75.2455 113.557C75.5937 125.046 79.6772 139.067 100.19 147.993C121.779 138.573 125.166 123.563 125.166 111.765V79.4295H115.416V86.8417C115.416 93.3891 116.271 101.048 122.19 107.719V111.673C114.087 105.372 109.465 96.3231 109.465 83.3209V55Z" fill="#FFFAED"/>
</svg>
