<svg width="63" height="50" viewBox="0 0 63 50" fill="none" xmlns="http://www.w3.org/2000/svg">
<path d="M58.9459 17.1529C58.9459 22.231 58.0037 28.5386 48.9334 32.5788C48.103 32.2115 47.3525 31.8282 46.6499 31.413C46.7776 30.2792 46.8415 29.0976 46.8415 27.868V10.3022H38.9209V3.69113H48.9334H58.9459V17.1529V17.1529ZM48.9334 0.704956H35.9348V15.3484C35.9348 22.0713 38.2662 26.7501 42.3542 30.0078V27.9638C39.3681 24.5145 38.9369 20.5542 38.9369 17.1688V13.3363H43.8553V30.0557C43.8553 36.1558 42.1466 43.9166 31.2559 48.7871C20.9081 44.1721 18.8481 36.9223 18.6725 30.9819C23.5589 27.7083 26.3854 22.7739 26.3854 15.3643V13.3363H31.2559H34.3698V10.3182H31.2559H26.3854H23.3992H15.6543V27.8999C15.6543 28.5067 15.6703 29.1135 15.7023 29.7044C16.8839 28.9379 17.8421 28.1235 18.6565 27.2771V13.3523H23.3992V17.1848C23.3992 22.2629 22.4571 28.5706 13.3868 32.6107C4.31647 28.5546 3.37431 22.2629 3.37431 17.1848V3.72307H13.3868H23.3992V8.86503H26.3854V0.720926H13.3868H0.388138V15.3643C0.388138 25.1373 5.33848 30.5986 13.3868 33.6487C14.297 33.3133 15.1593 32.9301 15.9897 32.5149C17.379 41.3936 22.9361 46.6792 31.2559 49.8251C39.5437 46.6952 45.0849 41.4255 46.5061 32.5947C47.2886 32.978 48.103 33.3133 48.9494 33.6327C56.9817 30.5827 61.932 25.1213 61.932 15.3484V0.704956H48.9334Z" fill="#FFFAED"/>
</svg>
