<svg width="30" height="51" viewBox="0 0 30 51" fill="none" xmlns="http://www.w3.org/2000/svg">
<g clip-path="url(#clip0_240_184)">
<path fill-rule="evenodd" clip-rule="evenodd" d="M15.0612 1.40354C16.4677 1.36649 17.8672 1.61302 19.1763 2.12843C20.4855 2.64385 21.6775 3.41759 22.6812 4.40354L23.4812 3.24354C21.2086 1.10024 18.1843 -0.063485 15.0612 0.00354133C11.9361 -0.0725445 8.90584 1.07996 6.62118 3.21354L7.42118 4.37354C8.42974 3.39054 9.62609 2.6209 10.9388 2.11061C12.2514 1.60031 13.6535 1.35984 15.0612 1.40354ZM20.3812 5.91354C18.8612 4.80678 17.0211 4.22734 15.1412 4.26354C13.2646 4.22879 11.4281 4.8082 9.91118 5.91354C9.59556 6.15093 9.30414 6.41889 9.04118 6.71354L8.23118 5.54354C9.15032 4.65529 10.2378 3.95974 11.4296 3.49779C12.6214 3.03583 13.8935 2.81679 15.1712 2.85354C17.6844 2.79048 20.1235 3.7087 21.9712 5.41354L21.1712 6.58354C20.9365 6.33994 20.6823 6.11587 20.4112 5.91354H20.3812ZM15.0612 7.24354C16.7176 7.18716 18.3334 7.76272 19.5812 8.85354L20.3912 7.69354C18.8943 6.46501 17.0177 5.79353 15.0812 5.79353C13.1447 5.79353 11.2681 6.46501 9.77118 7.69354L10.5812 8.86354C11.8167 7.77778 13.417 7.19912 15.0612 7.24354ZM5.18118 28.9735V38.3435C5.63991 38.8873 5.89765 39.5723 5.91118 40.2835C5.91222 40.7214 5.81899 41.1543 5.63781 41.5529C5.45662 41.9515 5.19175 42.3064 4.86118 42.5935L4.06118 41.7735C4.28853 41.5996 4.47268 41.3756 4.5993 41.1189C4.72592 40.8622 4.79158 40.5798 4.79118 40.2935C4.80977 40.0425 4.77638 39.7904 4.6931 39.5528C4.60981 39.3153 4.47841 39.0975 4.30713 38.9131C4.13584 38.7286 3.92835 38.5815 3.69762 38.4809C3.46689 38.3803 3.21789 38.3284 2.96618 38.3284C2.71447 38.3284 2.46547 38.3803 2.23474 38.4809C2.00401 38.5815 1.79652 38.7286 1.62523 38.9131C1.45395 39.0975 1.32255 39.3153 1.23926 39.5528C1.15598 39.7904 1.12259 40.0425 1.14118 40.2935C1.14113 40.5773 1.20599 40.8572 1.33078 41.112C1.45558 41.3668 1.637 41.5897 1.86118 41.7635L1.06118 42.5835C0.728773 42.3017 0.461752 41.9509 0.278694 41.5554C0.0956355 41.1599 0.000935983 40.7293 0.00118023 40.2935C-0.0191141 39.5821 0.222911 38.8881 0.681181 38.3435V23.7935C0.705201 23.5279 0.824932 23.28 1.01809 23.096C1.21125 22.9121 1.46467 22.8046 1.73118 22.7935H27.9912C28.2588 22.8043 28.5135 22.9115 28.7083 23.0952C28.9031 23.279 29.0249 23.527 29.0512 23.7935V38.3535C29.4762 38.9126 29.7141 39.5915 29.7312 40.2935C29.7327 40.7285 29.6395 41.1587 29.4582 41.5541C29.2769 41.9495 29.0118 42.3008 28.6812 42.5835L27.8712 41.7735C28.0945 41.5966 28.2751 41.3717 28.3997 41.1155C28.5244 40.8594 28.5898 40.5784 28.5912 40.2935C28.5882 39.9825 28.506 39.6773 28.3522 39.4069C28.1985 39.1364 27.9784 38.9096 27.7127 38.7479C27.4469 38.5861 27.1444 38.4948 26.8335 38.4825C26.5227 38.4703 26.2138 38.5374 25.9362 38.6777C25.6585 38.8179 25.4212 39.0266 25.2466 39.2841C25.072 39.5416 24.966 39.8393 24.9384 40.1492C24.9109 40.4591 24.9628 40.7708 25.0893 41.055C25.2158 41.3392 25.4126 41.5865 25.6612 41.7735L24.8612 42.5935C24.5275 42.3106 24.2597 41.9582 24.0766 41.5609C23.8935 41.1636 23.7995 40.731 23.8012 40.2935C23.8284 39.5819 24.0844 38.8981 24.5312 38.3435V29.0535H23.2512V48.7235L24.0112 49.2235V50.8535H15.2012V49.2235L16.2012 48.7435V42.6635H13.6212V48.7235L14.5212 49.2235V50.8535H5.63118V49.2235L6.54118 48.7235V28.9735H5.18118ZM8.27118 10.3935H21.6212C21.8864 10.3935 22.1407 10.4989 22.3283 10.6864C22.5158 10.874 22.6212 11.1283 22.6212 11.3935V20.2535C22.6212 20.5188 22.5158 20.7731 22.3283 20.9606C22.1407 21.1482 21.8864 21.2535 21.6212 21.2535H8.27118C8.00596 21.2535 7.75161 21.1482 7.56407 20.9606C7.37654 20.7731 7.27118 20.5188 7.27118 20.2535V11.4135C7.26852 11.2805 7.29242 11.1484 7.34148 11.0247C7.39054 10.9011 7.46378 10.7885 7.55691 10.6935C7.65003 10.5985 7.76117 10.523 7.88382 10.4715C8.00647 10.42 8.13816 10.3935 8.27118 10.3935ZM11.5412 16.8535C11.1974 16.8595 10.8596 16.7629 10.571 16.576C10.2823 16.3891 10.0559 16.1205 9.92067 15.8043C9.78541 15.4882 9.74743 15.1389 9.81157 14.8011C9.87571 14.4633 10.0391 14.1522 10.2808 13.9077C10.5225 13.6631 10.8316 13.4961 11.1686 13.4281C11.5057 13.36 11.8554 13.3939 12.1731 13.5254C12.4908 13.657 12.7621 13.8802 12.9523 14.1666C13.1425 14.4531 13.2431 14.7897 13.2412 15.1335C13.2425 15.3581 13.1996 15.5807 13.1148 15.7887C13.0301 15.9967 12.9053 16.1859 12.7474 16.3456C12.5896 16.5053 12.4018 16.6324 12.1948 16.7196C11.9878 16.8067 11.7657 16.8522 11.5412 16.8535ZM16.6612 15.1335C16.6612 15.588 16.841 16.024 17.1614 16.3462C17.4818 16.6685 17.9167 16.8509 18.3712 16.8535C18.7146 16.8575 19.0514 16.7592 19.3387 16.5711C19.6261 16.3829 19.8509 16.1136 19.9846 15.7972C20.1184 15.4809 20.1549 15.1319 20.0896 14.7948C20.0243 14.4576 19.8601 14.1475 19.618 13.9039C19.3759 13.6604 19.0667 13.4944 18.7299 13.4272C18.3932 13.3599 18.044 13.3944 17.7269 13.5263C17.4098 13.6581 17.1391 13.8814 16.9493 14.1676C16.7595 14.4539 16.6592 14.7901 16.6612 15.1335ZM12.4112 15.1335C12.4072 15.3047 12.3529 15.4709 12.2549 15.6113C12.157 15.7517 12.0198 15.8601 11.8605 15.9229C11.7012 15.9857 11.5269 16.0001 11.3595 15.9643C11.1921 15.9285 11.039 15.8441 10.9193 15.7217C10.7996 15.5993 10.7187 15.4442 10.6867 15.276C10.6547 15.1079 10.6731 14.934 10.7395 14.7762C10.8059 14.6183 10.9174 14.4836 11.06 14.3889C11.2026 14.2941 11.37 14.2436 11.5412 14.2435C11.7737 14.2469 11.9959 14.34 12.1612 14.5035C12.328 14.6821 12.4178 14.9192 12.4112 15.1635V15.1335ZM17.5012 15.1335C17.5012 15.3643 17.5928 15.5856 17.756 15.7487C17.9192 15.9119 18.1404 16.0035 18.3712 16.0035C18.6019 16.0035 18.8232 15.9119 18.9864 15.7487C19.1495 15.5856 19.2412 15.3643 19.2412 15.1335C19.2412 14.9028 19.1495 14.6815 18.9864 14.5184C18.8232 14.3552 18.6019 14.2635 18.3712 14.2635C18.1404 14.2635 17.9192 14.3552 17.756 14.5184C17.5928 14.6815 17.5012 14.9028 17.5012 15.1335Z" fill="white"/>
</g>
<defs>
<clipPath id="clip0_240_184">
<rect width="30" height="51" fill="white"/>
</clipPath>
</defs>
</svg>
