<svg width="30" height="50" viewBox="0 0 30 50" fill="none" xmlns="http://www.w3.org/2000/svg">
<g clip-path="url(#clip0_240_184)">
<path fill-rule="evenodd" clip-rule="evenodd" d="M14.7659 1.37602C16.1448 1.33969 17.5168 1.58139 18.8003 2.0867C20.0838 2.59201 21.2524 3.35058 22.2364 4.3172L23.0208 3.17994C20.7927 1.07867 17.8278 -0.0622402 14.7659 0.0034719C11.7021 -0.0711221 8.73121 1.05879 6.49135 3.15053L7.27567 4.28779C8.26445 3.32405 9.43735 2.56951 10.7243 2.06922C12.0112 1.56893 13.3858 1.33317 14.7659 1.37602ZM19.9815 5.79759C18.4914 4.71253 16.6873 4.14445 14.8443 4.17994C13.0045 4.14588 11.204 4.71392 9.71684 5.79759C9.40741 6.03032 9.12171 6.29303 8.8639 6.5819L8.06978 5.43484C8.9709 4.56401 10.037 3.8821 11.2055 3.42921C12.3739 2.97631 13.6211 2.76156 14.8737 2.79759C17.3377 2.73576 19.7289 3.63598 21.5404 5.30739L20.7561 6.45445C20.5259 6.21563 20.2767 5.99595 20.011 5.79759H19.9815ZM14.7659 7.10151C16.3898 7.04624 17.9739 7.61051 19.1972 8.67994L19.9914 7.54269C18.5238 6.33824 16.684 5.67993 14.7855 5.67993C12.8869 5.67993 11.0471 6.33824 9.57959 7.54269L10.3737 8.68975C11.585 7.62528 13.1539 7.05796 14.7659 7.10151ZM5.07959 28.4054V37.5917C5.52932 38.1248 5.78201 38.7963 5.79527 39.4937C5.7963 39.9229 5.70489 40.3474 5.52726 40.7382C5.34963 41.1289 5.08995 41.4769 4.76586 41.7584L3.98155 40.9545C4.20444 40.784 4.38498 40.5643 4.50912 40.3127C4.63325 40.061 4.69763 39.7841 4.69723 39.5035C4.71546 39.2574 4.68273 39.0102 4.60107 38.7773C4.51942 38.5444 4.3906 38.3309 4.22267 38.1501C4.05475 37.9692 3.85132 37.825 3.62512 37.7264C3.39891 37.6277 3.15479 37.5768 2.90802 37.5768C2.66125 37.5768 2.41713 37.6277 2.19092 37.7264C1.96472 37.825 1.76129 37.9692 1.59336 38.1501C1.42544 38.3309 1.29662 38.5444 1.21496 38.7773C1.13331 39.0102 1.10057 39.2574 1.1188 39.5035C1.11876 39.7816 1.18234 40.0561 1.30469 40.3059C1.42704 40.5557 1.60491 40.7742 1.82469 40.9446L1.04037 41.7486C0.714483 41.4723 0.452698 41.1283 0.273229 40.7406C0.0937603 40.3529 0.000917631 39.9307 0.00115709 39.5035C-0.0187393 38.806 0.218541 38.1256 0.667824 37.5917V23.327C0.691374 23.0666 0.808757 22.8235 0.998126 22.6432C1.1875 22.4628 1.43595 22.3574 1.69724 22.3466H27.4423C27.7047 22.3572 27.9544 22.4622 28.1454 22.6424C28.3363 22.8226 28.4557 23.0657 28.4815 23.327V37.6015C28.8982 38.1496 29.1315 38.8152 29.1482 39.5035C29.1497 39.9299 29.0583 40.3516 28.8806 40.7393C28.7028 41.127 28.4429 41.4714 28.1188 41.7486L27.3247 40.9545C27.5436 40.781 27.7207 40.5605 27.8429 40.3094C27.9651 40.0582 28.0292 39.7828 28.0306 39.5035C28.0276 39.1985 27.947 38.8993 27.7963 38.6342C27.6456 38.369 27.4298 38.1467 27.1693 37.9881C26.9088 37.8295 26.6121 37.74 26.3074 37.728C26.0026 37.7159 25.6999 37.7818 25.4276 37.9193C25.1554 38.0568 24.9227 38.2614 24.7516 38.5138C24.5804 38.7663 24.4764 39.0582 24.4495 39.362C24.4225 39.6657 24.4734 39.9714 24.5973 40.25C24.7213 40.5287 24.9143 40.7711 25.158 40.9545L24.3737 41.7584C24.0465 41.481 23.784 41.1355 23.6045 40.746C23.425 40.3564 23.3328 39.9324 23.3345 39.5035C23.3612 38.8058 23.6122 38.1354 24.0502 37.5917V28.4839H22.7953V47.7682L23.5404 48.2584V49.8564H14.9031V48.2584L15.8835 47.7878V41.827H13.3541V47.7682L14.2364 48.2584V49.8564H5.52076V48.2584L6.41292 47.7682V28.4054H5.07959ZM8.109 10.1897H21.1972C21.4573 10.1897 21.7066 10.293 21.8905 10.4769C22.0743 10.6608 22.1776 10.9101 22.1776 11.1701V19.8564C22.1776 20.1164 22.0743 20.3658 21.8905 20.5497C21.7066 20.7335 21.4573 20.8368 21.1972 20.8368H8.109C7.84898 20.8368 7.59962 20.7335 7.41576 20.5497C7.2319 20.3658 7.12861 20.1164 7.12861 19.8564V11.1897C7.126 11.0594 7.14943 10.9298 7.19753 10.8085C7.24563 10.6873 7.31743 10.5769 7.40873 10.4838C7.50003 10.3907 7.60899 10.3167 7.72923 10.2662C7.84948 10.2157 7.97859 10.1897 8.109 10.1897ZM11.3149 16.5231C10.9778 16.5289 10.6467 16.4342 10.3637 16.251C10.0807 16.0678 9.85876 15.8044 9.72615 15.4944C9.59354 15.1845 9.5563 14.8421 9.61919 14.5109C9.68207 14.1797 9.84222 13.8747 10.0792 13.635C10.3162 13.3952 10.6192 13.2315 10.9497 13.1648C11.2801 13.098 11.6229 13.1312 11.9344 13.2602C12.2459 13.3892 12.5118 13.608 12.6983 13.8889C12.8848 14.1697 12.9834 14.4997 12.9815 14.8368C12.9828 15.057 12.9408 15.2752 12.8577 15.4791C12.7746 15.683 12.6522 15.8685 12.4975 16.0251C12.3427 16.1817 12.1586 16.3063 11.9557 16.3917C11.7528 16.4772 11.535 16.5218 11.3149 16.5231ZM16.3345 14.8368C16.3345 15.2823 16.5108 15.7098 16.8249 16.0257C17.139 16.3417 17.5654 16.5205 18.011 16.5231C18.3476 16.527 18.6779 16.4306 18.9595 16.2461C19.2412 16.0617 19.4617 15.7976 19.5928 15.4875C19.7239 15.1774 19.7597 14.8352 19.6957 14.5047C19.6317 14.1741 19.4707 13.8701 19.2333 13.6313C18.996 13.3925 18.6929 13.2298 18.3627 13.1639C18.0325 13.0979 17.6902 13.1318 17.3793 13.2611C17.0684 13.3903 16.803 13.6092 16.617 13.8898C16.4309 14.1705 16.3326 14.5001 16.3345 14.8368ZM12.1678 14.8368C12.164 15.0046 12.1107 15.1676 12.0146 15.3052C11.9186 15.4429 11.7841 15.5491 11.6279 15.6107C11.4718 15.6723 11.3009 15.6864 11.1368 15.6513C10.9726 15.6162 10.8225 15.5335 10.7052 15.4134C10.5878 15.2934 10.5085 15.1414 10.4772 14.9765C10.4458 14.8116 10.4638 14.6411 10.5289 14.4864C10.594 14.3317 10.7033 14.1996 10.8431 14.1068C10.9829 14.0139 11.147 13.9643 11.3149 13.9643C11.5428 13.9675 11.7606 14.0589 11.9227 14.2192C12.0863 14.3943 12.1743 14.6267 12.1678 14.8662V14.8368ZM17.158 14.8368C17.158 15.063 17.2479 15.28 17.4078 15.4399C17.5678 15.5999 17.7847 15.6897 18.011 15.6897C18.2372 15.6897 18.4541 15.5999 18.6141 15.4399C18.774 15.28 18.8639 15.063 18.8639 14.8368C18.8639 14.6106 18.774 14.3936 18.6141 14.2337C18.4541 14.0737 18.2372 13.9839 18.011 13.9839C17.7847 13.9839 17.5678 14.0737 17.4078 14.2337C17.2479 14.3936 17.158 14.6106 17.158 14.8368Z" fill="#FFFAED"/>
</g>
<defs>
<clipPath id="clip0_240_184">
<rect width="29.4118" height="50" fill="white"/>
</clipPath>
</defs>
</svg>
