<?xml version="1.0" encoding="UTF-8"?>
<svg width="2400px" height="1300px" viewBox="0 0 2400 1300" version="1.1" xmlns="http://www.w3.org/2000/svg" xmlns:xlink="http://www.w3.org/1999/xlink" style="background: #FFFFFF;">
    <!-- Generator: Sketch 42 (36781) - http://www.bohemiancoding.com/sketch -->
    <title>tinysplash</title>
    <desc>Created with Sketch.</desc>
    <defs>
        <filter x="-50%" y="-50%" width="200%" height="200%" filterUnits="objectBoundingBox" id="filter-1">
            <feOffset dx="0" dy="0" in="SourceAlpha" result="shadowOffsetOuter1"></feOffset>
            <feGaussianBlur stdDeviation="7" in="shadowOffsetOuter1" result="shadowBlurOuter1"></feGaussianBlur>
            <feColorMatrix values="0 0 0 0 0   0 0 0 0 0.321568627   0 0 0 0 1  0 0 0 1 0" type="matrix" in="shadowBlurOuter1" result="shadowMatrixOuter1"></feColorMatrix>
            <feMerge>
                <feMergeNode in="shadowMatrixOuter1"></feMergeNode>
                <feMergeNode in="SourceGraphic"></feMergeNode>
            </feMerge>
        </filter>
        <path d="M546.986773,672.622702 L546.986773,583.103366 L519.781719,583.103366 C516.227887,583.103366 513.164286,581.816654 510.590822,579.24319 C508.017358,576.669726 506.730645,573.606124 506.730645,570.052293 C506.730645,566.498462 508.017358,563.43486 510.590822,560.861396 C513.164286,558.287932 516.227887,557.001219 519.781719,557.001219 L602.499791,557.001219 C606.053622,557.001219 609.117224,558.287932 611.690688,560.861396 C614.264152,563.43486 615.550865,566.498462 615.550865,570.052293 C615.550865,573.606124 614.264152,576.669726 611.690688,579.24319 C609.117224,581.816654 606.053622,583.103366 602.499791,583.103366 L575.294736,583.103366 L575.294736,672.622702 C575.294736,676.544171 573.916115,679.883497 571.158832,682.64078 C568.401549,685.398063 565.062224,686.776684 561.140755,686.776684 C557.219286,686.776684 553.87996,685.398063 551.122677,682.64078 C548.365394,679.883497 546.986773,676.544171 546.986773,672.622702 L546.986773,672.622702 Z M660.402442,672.622702 L660.402442,570.052293 C660.402442,566.130824 661.781062,562.791498 664.538345,560.034215 C667.295628,557.276932 670.634954,555.898312 674.556423,555.898312 C678.477892,555.898312 681.817218,557.276932 684.5745,560.034215 C687.331783,562.791498 688.710404,566.130824 688.710404,570.052293 L688.710404,672.622702 C688.710404,676.544171 687.331783,679.883497 684.5745,682.64078 C681.817218,685.398063 678.477892,686.776684 674.556423,686.776684 C670.634954,686.776684 667.295628,685.398063 664.538345,682.64078 C661.781062,679.883497 660.402442,676.544171 660.402442,672.622702 L660.402442,672.622702 Z M743.855786,672.80652 L743.855786,570.419929 C743.855786,566.49846 745.234406,563.159134 747.991689,560.401851 C750.748972,557.644568 754.088298,556.265947 758.009767,556.265947 L760.950854,556.265947 C766.46542,556.265947 771.367182,559.023189 775.656289,564.537755 L830.250217,636.226751 L830.250217,569.868475 C830.250217,565.947006 831.598201,562.638316 834.294211,559.942306 C836.990221,557.246296 840.298911,555.898312 844.22038,555.898312 C848.141849,555.898312 851.450539,557.246296 854.146549,559.942306 C856.842559,562.638316 858.190543,565.947006 858.190543,569.868475 L858.190543,672.255067 C858.190543,676.176536 856.811923,679.515861 854.05464,682.273144 C851.297357,685.030427 847.958031,686.409048 844.036562,686.409048 L843.117472,686.409048 C837.602907,686.409048 832.701144,683.651806 828.412037,678.137241 L771.796112,603.874793 L771.796112,672.80652 C771.796112,676.727989 770.448128,680.036679 767.752118,682.732689 C765.056108,685.428699 761.747418,686.776684 757.825949,686.776684 C753.90448,686.776684 750.59579,685.428699 747.89978,682.732689 C745.20377,680.036679 743.855786,676.727989 743.855786,672.80652 L743.855786,672.80652 Z M945.687882,672.622702 L945.687882,636.042933 L904.145028,579.610826 C901.816656,576.424632 900.652487,573.05467 900.652487,569.500839 C900.652487,565.701916 902.031108,562.485134 904.788391,559.850397 C907.545674,557.21566 910.884999,555.898312 914.806468,555.898312 C920.198488,555.898312 924.855163,558.778097 928.776632,564.537755 L960.025681,609.57315 L991.826185,564.170119 C995.625108,558.533007 1000.15924,555.714494 1005.42871,555.714494 C1009.59527,555.714494 1012.9346,557.031842 1015.44679,559.666579 C1017.95898,562.301316 1019.21506,565.57937 1019.21506,569.500839 C1019.21506,572.687033 1017.98962,575.995722 1015.5387,579.427008 L973.995845,635.491479 L973.995845,672.622702 C973.995845,676.544171 972.617224,679.883497 969.859941,682.64078 C967.102658,685.398063 963.763332,686.776684 959.841863,686.776684 C955.920394,686.776684 952.581069,685.398063 949.823786,682.64078 C947.066503,679.883497 945.687882,676.544171 945.687882,672.622702 L945.687882,672.622702 Z M1103.58749,687.511955 C1085.69579,687.511955 1069.58124,682.365105 1055.24337,672.071249 C1051.68954,669.620331 1049.91265,666.066553 1049.91265,661.409808 C1049.91265,657.733431 1051.19937,654.639193 1053.77283,652.127002 C1056.34629,649.614811 1059.47117,648.358735 1063.14754,648.358735 C1066.08865,648.358735 1068.78462,649.216543 1071.23553,650.932186 C1081.77448,658.652578 1092.74218,662.512716 1104.13895,662.512716 C1109.8986,662.512716 1114.43273,661.440455 1117.74147,659.295902 C1121.05021,657.151349 1122.70456,654.179655 1122.70456,650.380732 L1122.70456,650.013096 C1122.70456,646.336719 1120.98894,643.365025 1117.55765,641.097926 C1114.12637,638.830827 1107.20263,636.349309 1096.78623,633.6533 C1089.43347,631.815111 1083.49009,630.007586 1078.95589,628.23067 C1074.42169,626.453755 1070.10201,624.094781 1065.99672,621.15368 C1061.89144,618.212578 1058.88911,614.566892 1056.98964,610.216512 C1055.09018,605.866133 1054.14047,600.566102 1054.14047,594.316261 L1054.14047,593.948625 C1054.14047,582.306764 1058.3376,572.932143 1066.73199,565.82448 C1075.12639,558.716818 1085.9409,555.16304 1099.17586,555.16304 C1114.37155,555.16304 1127.97394,558.961906 1139.98344,566.559752 C1144.15,569.01067 1146.23325,572.748264 1146.23325,577.772646 C1146.23325,581.449023 1144.94654,584.543261 1142.37308,587.055452 C1139.79961,589.567643 1136.67474,590.82372 1132.99836,590.82372 C1130.54744,590.82372 1128.15783,590.149727 1125.82946,588.801723 C1116.02579,583.042065 1107.0188,580.162279 1098.80822,580.162279 C1093.53875,580.162279 1089.46416,581.203904 1086.58433,583.287184 C1083.7045,585.370465 1082.26461,588.066434 1082.26461,591.375174 L1082.26461,591.74281 C1082.26461,595.90937 1084.0415,599.034244 1087.59533,601.117524 C1091.14916,603.200805 1098.62435,605.712958 1110.02112,608.65406 C1123.99135,612.330437 1134.28505,617.017748 1140.90253,622.716132 C1147.52001,628.414517 1150.8287,636.594333 1150.8287,647.255827 L1150.8287,647.623463 C1150.8287,660.123145 1146.50902,669.896034 1137.86954,676.942424 C1129.23005,683.988814 1117.80282,687.511955 1103.58749,687.511955 L1103.58749,687.511955 Z M1198.43755,672.622702 L1198.43755,571.1552 C1198.43755,567.233731 1199.81617,563.894406 1202.57345,561.137123 C1205.33073,558.37984 1208.67006,557.001219 1212.59153,557.001219 L1251.00948,557.001219 C1266.20517,557.001219 1278.21449,561.075809 1287.03779,569.225112 C1295.8611,577.374415 1300.27269,588.127657 1300.27269,601.48516 L1300.27269,601.852796 C1300.27269,616.190667 1295.37092,627.311541 1285.56725,635.215752 C1275.76358,643.119963 1263.32536,647.072009 1248.25221,647.072009 L1226.74551,647.072009 L1226.74551,672.622702 C1226.74551,676.544171 1225.36689,679.883497 1222.60961,682.64078 C1219.85232,685.398063 1216.513,686.776684 1212.59153,686.776684 C1208.67006,686.776684 1205.33073,685.398063 1202.57345,682.64078 C1199.81617,679.883497 1198.43755,676.544171 1198.43755,672.622702 L1198.43755,672.622702 Z M1226.74551,621.888951 L1249.1713,621.888951 C1256.03387,621.888951 1261.48708,620.05079 1265.5311,616.374413 C1269.57511,612.698036 1271.59709,608.041362 1271.59709,602.40425 L1271.59709,602.036614 C1271.59709,595.786773 1269.57511,590.976918 1265.5311,587.606906 C1261.48708,584.236894 1255.85005,582.551913 1248.61984,582.551913 L1226.74551,582.551913 L1226.74551,621.888951 Z M1344.20517,671.519795 L1344.20517,570.052293 C1344.20517,566.130824 1345.58379,562.791498 1348.34108,560.034215 C1351.09836,557.276932 1354.43769,555.898312 1358.35915,555.898312 C1362.28062,555.898312 1365.61995,557.276932 1368.37723,560.034215 C1371.13451,562.791498 1372.51314,566.130824 1372.51314,570.052293 L1372.51314,659.939265 L1424.90125,659.939265 C1428.45508,659.939265 1431.48804,661.195341 1434.00024,663.707532 C1436.51243,666.219724 1437.7685,669.252689 1437.7685,672.80652 C1437.7685,676.360352 1436.51243,679.393317 1434.00024,681.905508 C1431.48804,684.417699 1428.45508,685.673776 1424.90125,685.673776 L1358.35915,685.673776 C1354.43769,685.673776 1351.09836,684.295155 1348.34108,681.537872 C1345.58379,678.78059 1344.20517,675.441264 1344.20517,671.519795 L1344.20517,671.519795 Z M1472.14246,673.541792 C1472.14246,671.948695 1472.69391,669.926718 1473.79682,667.4758 L1518.6484,566.192116 C1521.95714,558.716816 1527.47162,554.979222 1535.19201,554.979222 L1536.84637,554.979222 C1544.44422,554.979222 1549.89743,558.716816 1553.20617,566.192116 L1598.05775,667.4758 C1599.03811,669.681626 1599.52829,671.58106 1599.52829,673.174156 C1599.52829,676.973079 1598.24158,680.189861 1595.66811,682.824598 C1593.09465,685.459335 1589.9085,686.776684 1586.10958,686.776684 C1579.85974,686.776684 1575.32561,683.529266 1572.50705,677.034333 L1563.86761,656.81436 L1507.25168,656.81436 L1498.24461,677.953423 C1495.67114,683.835626 1491.32083,686.776684 1485.19353,686.776684 C1481.51715,686.776684 1478.42292,685.489971 1475.91073,682.916507 C1473.39853,680.343043 1472.14246,677.218169 1472.14246,673.541792 L1472.14246,673.541792 Z M1517.72931,631.81512 L1553.38999,631.81512 L1535.55965,589.353176 L1517.72931,631.81512 Z M1689.59908,687.511955 C1671.70738,687.511955 1655.59283,682.365105 1641.25496,672.071249 C1637.70113,669.620331 1635.92424,666.066553 1635.92424,661.409808 C1635.92424,657.733431 1637.21095,654.639193 1639.78442,652.127002 C1642.35788,649.614811 1645.48276,648.358735 1649.15913,648.358735 C1652.10023,648.358735 1654.7962,649.216543 1657.24712,650.932186 C1667.78607,658.652578 1678.75376,662.512716 1690.15053,662.512716 C1695.91019,662.512716 1700.44432,661.440455 1703.75306,659.295902 C1707.0618,657.151349 1708.71614,654.179655 1708.71614,650.380732 L1708.71614,650.013096 C1708.71614,646.336719 1707.00053,643.365025 1703.56924,641.097926 C1700.13796,638.830827 1693.21422,636.349309 1682.79782,633.6533 C1675.44506,631.815111 1669.50167,630.007586 1664.96748,628.23067 C1660.43328,626.453755 1656.1136,624.094781 1652.00831,621.15368 C1647.90302,618.212578 1644.90069,614.566892 1643.00123,610.216512 C1641.10177,605.866133 1640.15205,600.566102 1640.15205,594.316261 L1640.15205,593.948625 C1640.15205,582.306764 1644.34919,572.932143 1652.74358,565.82448 C1661.13798,558.716818 1671.95249,555.16304 1685.18745,555.16304 C1700.38314,555.16304 1713.98553,558.961906 1725.99503,566.559752 C1730.16159,569.01067 1732.24484,572.748264 1732.24484,577.772646 C1732.24484,581.449023 1730.95813,584.543261 1728.38466,587.055452 C1725.8112,589.567643 1722.68633,590.82372 1719.00995,590.82372 C1716.55903,590.82372 1714.16942,590.149727 1711.84105,588.801723 C1702.03738,583.042065 1693.03039,580.162279 1684.81981,580.162279 C1679.55034,580.162279 1675.47575,581.203904 1672.59592,583.287184 C1669.71609,585.370465 1668.2762,588.066434 1668.2762,591.375174 L1668.2762,591.74281 C1668.2762,595.90937 1670.05309,599.034244 1673.60692,601.117524 C1677.16075,603.200805 1684.63594,605.712958 1696.03271,608.65406 C1710.00294,612.330437 1720.29664,617.017748 1726.91412,622.716132 C1733.5316,628.414517 1736.84029,636.594333 1736.84029,647.255827 L1736.84029,647.623463 C1736.84029,660.123145 1732.52061,669.896034 1723.88112,676.942424 C1715.24164,683.988814 1703.8144,687.511955 1689.59908,687.511955 L1689.59908,687.511955 Z M1784.44914,672.622702 L1784.44914,570.052293 C1784.44914,566.130824 1785.82776,562.791498 1788.58504,560.034215 C1791.34232,557.276932 1794.68165,555.898312 1798.60312,555.898312 C1802.52459,555.898312 1805.86391,557.276932 1808.62119,560.034215 C1811.37848,562.791498 1812.7571,566.130824 1812.7571,570.052293 L1812.7571,607.918788 L1864.96139,607.918788 L1864.96139,570.052293 C1864.96139,566.130824 1866.34001,562.791498 1869.0973,560.034215 C1871.85458,557.276932 1875.1939,555.898312 1879.11537,555.898312 C1883.03684,555.898312 1886.37617,557.276932 1889.13345,560.034215 C1891.89073,562.791498 1893.26936,566.130824 1893.26936,570.052293 L1893.26936,672.622702 C1893.26936,676.544171 1891.89073,679.883497 1889.13345,682.64078 C1886.37617,685.398063 1883.03684,686.776684 1879.11537,686.776684 C1875.1939,686.776684 1871.85458,685.398063 1869.0973,682.64078 C1866.34001,679.883497 1864.96139,676.544171 1864.96139,672.622702 L1864.96139,634.020935 L1812.7571,634.020935 L1812.7571,672.622702 C1812.7571,676.544171 1811.37848,679.883497 1808.62119,682.64078 C1805.86391,685.398063 1802.52459,686.776684 1798.60312,686.776684 C1794.68165,686.776684 1791.34232,685.398063 1788.58504,682.64078 C1785.82776,679.883497 1784.44914,676.544171 1784.44914,672.622702 L1784.44914,672.622702 Z" id="path-2"></path>
        <filter x="-50%" y="-50%" width="200%" height="200%" filterUnits="objectBoundingBox" id="filter-3">
            <feOffset dx="0" dy="22" in="SourceAlpha" result="shadowOffsetOuter1"></feOffset>
            <feGaussianBlur stdDeviation="17" in="shadowOffsetOuter1" result="shadowBlurOuter1"></feGaussianBlur>
            <feColorMatrix values="0 0 0 0 0.192156863   0 0 0 0 0.321568627   0 0 0 0 1  0 0 0 0.266332654 0" type="matrix" in="shadowBlurOuter1"></feColorMatrix>
        </filter>
    </defs>
    <g id="Page-1" stroke="none" stroke-width="1" fill="none" fill-rule="evenodd">
        <g id="tinysplash">
            <g id="bubbles" filter="url(#filter-1)" opacity="0.263756793" transform="translate(642.559998, 178.398038)">
                <g id="Group-4" transform="translate(-0.000000, 78.000000)" fill="#469DFF">
                    <path d="M985.909037,334.548323 C998.985472,336.090582 1000.63402,327.955722 1000.63402,319.823337 C1000.63402,311.690952 994.041422,305.098352 985.909037,305.098352 C977.776652,305.098352 971.184052,311.690952 971.184052,319.823337 C971.184052,327.955722 972.832602,333.006063 985.909037,334.548323 Z" id="Oval-19" transform="translate(985.909037, 319.918118) scale(-1, -1) translate(-985.909037, -319.918118) "></path>
                    <path d="M158.787786,798.922518 C160.921594,798.922518 164.731386,797.194286 164.731386,795.062404 C164.731386,792.930522 163.001594,791.20229 160.867786,791.20229 C158.733979,791.20229 157.004187,792.930522 157.004187,795.062404 C157.004187,797.194286 156.653979,798.922518 158.787786,798.922518 Z" id="Oval-19" opacity="0.5"></path>
                    <ellipse id="Oval-19" transform="translate(880.909589, 112.980878) scale(-1, 1) translate(-880.909589, -112.980878) " cx="880.909589" cy="112.980878" rx="9.06971273" ry="9.06152953"></ellipse>
                    <ellipse id="Oval-19" transform="translate(1056.745362, 358.427280) scale(1, -1) translate(-1056.745362, -358.427280) " cx="1056.74536" cy="358.42728" rx="9.06152953" ry="9.06152953"></ellipse>
                    <path d="M246.87116,254.21969 C255.003545,254.21969 261.596145,247.62709 261.596145,239.494705 C261.596145,231.36232 255.003545,224.769719 246.87116,224.769719 C238.738775,224.769719 231.665383,224.355948 232.146174,239.494705 C232.626965,254.633461 238.738775,254.21969 246.87116,254.21969 Z" id="Oval-19"></path>
                    <path d="M914.890325,212.635849 C921.679298,212.264001 923.960038,208.578864 923.960038,203.574319 C923.960038,198.569775 919.899389,194.51279 914.890325,194.51279 C909.881261,194.51279 905.820612,198.569775 905.820612,203.574319 C905.820612,208.578864 908.101352,213.007697 914.890325,212.635849 Z" id="Oval-19" transform="translate(914.890325, 203.585246) scale(-1, -1) translate(-914.890325, -203.585246) "></path>
                    <ellipse id="Oval-19" transform="translate(759.370799, 365.320546) scale(-1, 1) translate(-759.370799, -365.320546) " cx="759.370799" cy="365.320546" rx="14.7249855" ry="14.7249855"></ellipse>
                    <path d="M138.816167,457.914544 C151.892602,459.456804 153.541153,451.321944 153.541153,443.189559 C153.541153,435.057174 146.948552,428.464573 138.816167,428.464573 C130.683782,428.464573 124.091182,435.057174 124.091182,443.189559 C124.091182,451.321944 125.739732,456.372284 138.816167,457.914544 Z" id="Oval-19"></path>
                    <ellipse id="Oval-19" cx="733.602957" cy="45.1734754" rx="9.06152953" ry="9.05335372"></ellipse>
                    <path d="M546.584996,535.351798 C551.589541,535.351798 555.646526,531.298474 555.646526,526.298444 C555.646526,521.298415 551.589541,517.245091 546.584996,517.245091 C541.580452,517.245091 537.523467,521.298415 537.523467,526.298444 C537.523467,531.298474 541.580452,535.351798 546.584996,535.351798 Z" id="Oval-19" transform="translate(546.584996, 526.298444) scale(-1, 1) translate(-546.584996, -526.298444) "></path>
                    <ellipse id="Oval-19" transform="translate(1084.453171, 212.657703) scale(-1, -1) translate(-1084.453171, -212.657703) " cx="1084.45317" cy="212.657703" rx="9.06152953" ry="9.05335372"></ellipse>
                    <path d="M454.053335,142.716488 C459.057879,142.716488 463.114864,138.663164 463.114864,133.663135 C463.114864,128.663105 459.057879,124.609781 454.053335,124.609781 C449.04879,124.609781 444.991805,128.663105 444.991805,133.663135 C444.991805,138.663164 449.04879,142.716488 454.053335,142.716488 Z" id="Oval-19" transform="translate(454.053335, 133.663135) scale(-1, 1) translate(-454.053335, -133.663135) "></path>
                    <path d="M868.032004,507.390281 C876.164389,507.390281 882.75699,500.79768 882.75699,492.665295 C882.75699,484.53291 876.164389,477.94031 868.032004,477.94031 C859.899619,477.94031 852.826228,477.526539 853.307019,492.665295 C853.78781,507.804052 859.899619,507.390281 868.032004,507.390281 Z" id="Oval-19" transform="translate(868.020422, 492.665295) scale(-1, -1) translate(-868.020422, -492.665295) "></path>
                    <path d="M10.7243017,22.1961989 C16.1076662,22.1961989 20.4717454,16.1110074 20.4717454,10.727643 C20.4717454,5.34427848 16.1076662,0.980199307 10.7243017,0.980199307 C5.34093723,0.980199307 0.976858052,5.34427848 0.976858052,10.727643 C0.976858052,16.1110074 5.34093723,22.1961989 10.7243017,22.1961989 Z" id="Oval-19" transform="translate(10.724302, 11.588199) scale(-1, 1) translate(-10.724302, -11.588199) "></path>
                </g>
                <g id="Group-2" transform="translate(76.700000, 71.500000)" fill="#4668DF">
                    <path d="M667.246646,183.096967 C672.25571,183.096967 677.356359,181.119982 677.356359,176.115437 C677.356359,171.110893 673.29571,167.053908 668.286646,167.053908 C663.277582,167.053908 659.216934,171.110893 659.216934,176.115437 C659.216934,181.119982 662.237582,183.096967 667.246646,183.096967 Z" id="Oval-19"></path>
                    <ellipse id="Oval-19" transform="translate(527.407633, 628.303978) scale(1, -1) translate(-527.407633, -628.303978) " cx="527.407633" cy="628.303978" rx="9.06152953" ry="9.05335372"></ellipse>
                    <path d="M674.905594,708.472122 C679.910139,708.472122 681.887124,702.338797 681.887124,697.338768 C681.887124,692.338739 677.830139,688.285414 672.825594,688.285414 C667.82105,688.285414 663.764065,692.338739 663.764065,697.338768 C663.764065,702.338797 669.90105,708.472122 674.905594,708.472122 Z" id="Oval-19" transform="translate(672.825594, 698.378768) scale(1, -1) translate(-672.825594, -698.378768) "></path>
                    <ellipse id="Oval-19" transform="translate(838.190325, 643.802181) scale(-1, -1) translate(-838.190325, -643.802181) " cx="838.190325" cy="643.802181" rx="9.06971273" ry="9.06152953"></ellipse>
                    <path d="M1020.39816,737.679801 C1028.53054,737.679801 1037.20314,731.0872 1037.20314,722.954815 C1037.20314,714.82243 1030.61054,708.22983 1022.47816,708.22983 C1014.34577,708.22983 1007.75317,714.82243 1007.75317,722.954815 C1007.75317,731.0872 1012.26577,737.679801 1020.39816,737.679801 Z" id="Oval-19" transform="translate(1022.478156, 722.954815) scale(1, -1) translate(-1022.478156, -722.954815) "></path>
                    <path d="M10.0205557,612.086828 C20.4299052,613.250307 19.0902684,608.029843 19.0902684,603.025298 C19.0902684,598.020754 15.0296197,593.963769 10.0205557,593.963769 C5.01149166,593.963769 0.950842958,598.020754 0.950842958,603.025298 C0.950842958,608.029843 -0.388793849,610.923349 10.0205557,612.086828 Z" id="Oval-19" transform="translate(10.020556, 603.107507) scale(-1, 1) translate(-10.020556, -603.107507) "></path>
                    <path d="M505.311618,292.659736 C510.316163,292.659736 514.373148,288.606411 514.373148,283.606382 C514.373148,278.606353 510.316163,274.553029 505.311618,274.553029 C500.307074,274.553029 496.250089,278.606353 496.250089,283.606382 C496.250089,288.606411 500.307074,292.659736 505.311618,292.659736 Z" id="Oval-19" transform="translate(505.311618, 283.606382) scale(-1, -1) translate(-505.311618, -283.606382) "></path>
                    <ellipse id="Oval-19" transform="translate(706.457314, 563.210686) scale(-1, 1) translate(-706.457314, -563.210686) " cx="706.457314" cy="563.210686" rx="9.06152953" ry="9.05335372"></ellipse>
                    <path d="M250.763318,18.1641735 C257.552291,17.7923252 259.83303,14.1071886 259.83303,9.10264399 C259.83303,4.09809942 255.772382,0.0411144569 250.763318,0.0411144569 C245.754253,0.0411144569 241.693605,4.09809942 241.693605,9.10264399 C241.693605,14.1071886 243.974344,18.5360218 250.763318,18.1641735 Z" id="Oval-19"></path>
                </g>
                <g id="Group" transform="translate(123.500000, 0.000000)" fill="#466DFF">
                    <path d="M259.857043,774.039878 C264.861587,774.039878 268.918572,769.986554 268.918572,764.986525 C268.918572,759.986495 264.861587,755.933171 259.857043,755.933171 C254.852498,755.933171 248.715513,757.906495 248.715513,762.906525 C248.715513,767.906554 254.852498,774.039878 259.857043,774.039878 Z" id="Oval-19" transform="translate(258.817043, 764.986525) scale(-1, -1) translate(-258.817043, -764.986525) "></path>
                    <path d="M904.659444,222.531813 C915.068794,223.695292 913.729157,218.474828 913.729157,213.470284 C913.729157,208.465739 909.668508,204.408754 904.659444,204.408754 C899.65038,204.408754 895.589732,208.465739 895.589732,213.470284 C895.589732,218.474828 894.250095,221.368334 904.659444,222.531813 Z" id="Oval-19" transform="translate(904.659444, 213.552493) scale(1, -1) translate(-904.659444, -213.552493) "></path>
                    <path d="M200.542985,579.96612 C205.547529,579.96612 210.644514,570.712796 210.644514,565.712766 C210.644514,560.712737 206.587529,556.659413 201.582985,556.659413 C196.57844,556.659413 192.521455,560.712737 192.521455,565.712766 C192.521455,570.712796 195.53844,579.96612 200.542985,579.96612 Z" id="Oval-19"></path>
                    <ellipse id="Oval-19" cx="117.323335" cy="412.737884" rx="9.06152953" ry="9.05335372"></ellipse>
                    <path d="M291.757778,332.32126 C296.762323,332.32126 300.819308,328.267936 300.819308,323.267907 C300.819308,318.267878 299.10494,313.765702 291.757778,314.214553 C284.410616,314.663404 282.696249,318.267878 282.696249,323.267907 C282.696249,328.267936 286.753234,332.32126 291.757778,332.32126 Z" id="Oval-19" transform="translate(291.757778, 323.252433) scale(-1, -1) translate(-291.757778, -323.252433) "></path>
                    <ellipse id="Oval-19" transform="translate(350.941776, 382.541439) scale(-1, -1) translate(-350.941776, -382.541439) " cx="350.941776" cy="382.541439" rx="20.3884415" ry="20.3884415"></ellipse>
                    <path d="M10.7008946,288.184911 C15.7099586,288.184911 18.7306073,283.087926 18.7306073,278.083381 C18.7306073,273.078837 14.6699586,269.021852 9.66089455,269.021852 C4.65183053,269.021852 0.591181819,273.078837 0.591181819,278.083381 C0.591181819,283.087926 5.69183053,288.184911 10.7008946,288.184911 Z" id="Oval-19" transform="translate(9.660895, 278.603381) scale(-1, 1) translate(-9.660895, -278.603381) "></path>
                    <ellipse id="Oval-19" transform="translate(825.314284, 9.904356) scale(-1, -1) translate(-825.314284, -9.904356) " cx="825.314284" cy="9.90435628" rx="9.06152953" ry="9.05335372"></ellipse>
                    <ellipse id="Oval-19" transform="translate(428.872367, 271.556022) scale(-1, 1) translate(-428.872367, -271.556022) " cx="428.872367" cy="271.556022" rx="9.06152953" ry="9.05335372"></ellipse>
                    <ellipse id="Oval-19" transform="translate(110.470411, 697.179122) scale(1, -1) translate(-110.470411, -697.179122) " cx="110.470411" cy="697.179122" rx="9.06971273" ry="9.06152953"></ellipse>
                    <ellipse id="Oval-19" cx="551.951338" cy="366.780881" rx="14.7249855" ry="14.7249855"></ellipse>
                    <path d="M565.722222,605.176394 C570.726766,605.176394 574.783751,601.123069 574.783751,596.12304 C574.783751,591.123011 573.069384,586.620836 565.722222,587.069687 C558.37506,587.518537 556.660692,591.123011 556.660692,596.12304 C556.660692,601.123069 560.717677,605.176394 565.722222,605.176394 Z" id="Oval-19"></path>
                </g>
                <g id="Group-3" transform="translate(48.100000, 62.400000)" fill="#0052FF">
                    <path d="M803.351435,369.31556 C823.739877,369.31556 823.739877,357.067344 823.739877,345.807119 C823.739877,334.546894 814.61166,325.418677 803.351435,325.418677 C792.09121,325.418677 782.962994,334.546894 782.962994,345.807119 C782.962994,357.067344 782.962994,369.31556 803.351435,369.31556 Z" id="Oval-19"></path>
                    <ellipse id="Oval-19" transform="translate(933.619105, 547.676619) scale(1, -1) translate(-933.619105, -547.676619) " cx="933.619105" cy="547.676619" rx="9.06971273" ry="9.06152953"></ellipse>
                    <path d="M498.58118,762.879769 C503.585724,762.879769 506.602709,757.786445 506.602709,752.786416 C506.602709,747.786386 502.545724,743.733062 497.54118,743.733062 C492.536635,743.733062 488.47965,747.786386 488.47965,752.786416 C488.47965,757.786445 493.576635,762.879769 498.58118,762.879769 Z" id="Oval-19" transform="translate(497.541180, 753.306416) scale(-1, -1) translate(-497.541180, -753.306416) "></path>
                    <ellipse id="Oval-19" transform="translate(174.600276, 113.587105) scale(1, -1) translate(-174.600276, -113.587105) " cx="174.600276" cy="113.587105" rx="9.06152953" ry="9.05335372"></ellipse>
                    <ellipse id="Oval-19" transform="translate(391.328662, 458.979119) scale(-1, -1) translate(-391.328662, -458.979119) " cx="391.328662" cy="458.979119" rx="14.7249855" ry="14.7249855"></ellipse>
                    <path d="M593.370602,239.817483 C601.502987,239.817483 609.638276,238.134005 608.095588,225.092497 C606.552899,212.050989 601.502987,210.367512 593.370602,210.367512 C585.238217,210.367512 578.645617,216.960112 578.645617,225.092497 C578.645617,233.224882 585.238217,239.817483 593.370602,239.817483 Z" id="Oval-19"></path>
                    <ellipse id="Oval-19" transform="translate(437.660505, 616.656063) scale(-1, -1) translate(-437.660505, -616.656063) " cx="437.660505" cy="616.656063" rx="9.06971273" ry="9.06152953"></ellipse>
                    <path d="M521.13882,18.586938 C526.143365,18.586938 530.20035,14.5336135 530.20035,9.53358432 C530.20035,4.53355513 526.143365,0.480230601 521.13882,0.480230601 C516.134276,0.480230601 512.077291,4.53355513 512.077291,9.53358432 C512.077291,14.5336135 516.134276,18.586938 521.13882,18.586938 Z" id="Oval-19"></path>
                    <ellipse id="Oval-19" transform="translate(10.034638, 389.332720) scale(-1, 1) translate(-10.034638, -389.332720) " cx="10.0346383" cy="389.33272" rx="9.06152953" ry="9.06152953"></ellipse>
                    <ellipse id="Oval-19" transform="translate(307.409201, 382.439454) scale(1, -1) translate(-307.409201, -382.439454) " cx="307.409201" cy="382.439454" rx="14.7249855" ry="14.7249855"></ellipse>
                </g>
            </g>
            <g id="TINYSPLASH">
                <use fill="black" fill-opacity="1" filter="url(#filter-3)" xlink:href="#path-2"></use>
                <use fill="#3152FF" fill-rule="evenodd" xlink:href="#path-2"></use>
            </g>
        </g>
    </g>
</svg>