<?xml version="1.0" encoding="UTF-8" standalone="no"?>
<svg width="156px" height="298px" viewBox="0 0 156 298" version="1.1" xmlns="http://www.w3.org/2000/svg" xmlns:xlink="http://www.w3.org/1999/xlink">
    <!-- Generator: Sketch 3.6.1 (26313) - http://www.bohemiancoding.com/sketch -->
    <title>tinysplash</title>
    <desc>Created with Sketch.</desc>
    <defs></defs>
    <g id="Page-1" stroke="none" stroke-width="1" fill="none" fill-rule="evenodd">
        <g id="Group" transform="translate(77.978434, 206.223041) rotate(-20.000000) translate(-77.978434, -206.223041) translate(31.478434, 136.723041)" stroke-width="16.128">
            <path d="M0.265006659,91.6719264 L11.4086856,79.732893 L22.5523646,91.6719264" id="Path-85" stroke="#313131" stroke-linecap="round" stroke-linejoin="round"></path>
            <path d="M77.6438988,33.6397234 L77.6438988,110.878243 C77.6438988,110.878243 77.6739025,138.925691 44.9628763,138.925693 C12.25185,138.925696 11.4888679,110.878243 11.4888679,110.878243 L11.4888679,80.7165547" id="Path-82" stroke="#303030" stroke-linecap="round" stroke-linejoin="round"></path>
            <ellipse id="Oval-27" stroke="#303030" cx="78.1666933" cy="15.0057628" rx="14.1060606" ry="14.0933333"></ellipse>
        </g>
        <ellipse id="Oval-19" stroke="#53F1FF" stroke-width="6.048" cx="52.9645081" cy="181.17219" rx="10.0757576" ry="10.0666667"></ellipse>
        <ellipse id="Oval-19" stroke="#DF00FF" stroke-width="6.048" cx="75.9610332" cy="63.4087127" rx="5.03787879" ry="5.03333333"></ellipse>
        <ellipse id="Oval-19" stroke="#53F1FF" stroke-width="6.048" cx="31.0677394" cy="133.696031" rx="8.06060606" ry="8.05333333"></ellipse>
        <ellipse id="Oval-19" stroke="#DF00FF" stroke-width="6.048" cx="132.798883" cy="145.757793" rx="5.03787879" ry="5.03333333"></ellipse>
        <path d="M143.636646,103.280084 C142.010869,101.583484 140.774467,96.1769527 140.774467,96.1769527 C140.774467,96.1769527 139.574123,101.402881 137.966375,103.009178 C136.261443,104.712572 130.836426,106.106027 130.836426,106.106027 C130.836426,106.106027 136.164258,107.447931 137.820598,109.125549 C139.476938,110.803168 140.774467,116.171738 140.774467,116.171738 C140.774467,116.171738 142.010869,110.886675 143.636646,109.25081 C145.262423,107.614945 150.529128,106.356548 150.529128,106.356548 C150.529128,106.356548 145.262423,104.976683 143.636646,103.280084 Z" id="Path-86" stroke="#FF7070" stroke-width="6.048" stroke-linecap="round" stroke-linejoin="round"></path>
        <path d="M52.1651824,90.85231 C50.5015272,89.1439547 49.2363188,83.69996 49.2363188,83.69996 C49.2363188,83.69996 48.0080078,88.9620998 46.3628013,90.5795276 C44.6181464,92.2947248 39.0667346,93.697835 39.0667346,93.697835 C39.0667346,93.697835 44.5186977,95.049037 46.2136284,96.73828 C47.908559,98.4275231 49.2363184,103.833293 49.2363184,103.833293 C49.2363184,103.833293 50.5015269,98.5116087 52.1651822,96.8644084 C53.8288374,95.2172082 59.2182497,93.9500918 59.2182497,93.9500918 C59.2182497,93.9500918 53.8288375,92.5606653 52.1651824,90.85231 Z" id="Path-86" stroke="#FF7070" stroke-width="6.048" stroke-linecap="round" stroke-linejoin="round"></path>
        <path d="M47.1370287,41.2329205 C46.3114554,40.3843997 45.6836077,37.6804288 45.6836077,37.6804288 C45.6836077,37.6804288 45.0740699,40.2940744 44.2576516,41.0974326 C43.391883,41.9493517 40.6370471,42.6462607 40.6370471,42.6462607 C40.6370471,42.6462607 43.3425325,43.3173875 44.1836259,44.1564155 C45.0247193,44.9954436 45.6836075,47.6804288 45.6836075,47.6804288 C45.6836075,47.6804288 46.3114553,45.0372079 47.1370286,44.2190621 C47.9626018,43.4009163 50.6370471,42.7715538 50.6370471,42.7715538 C50.6370471,42.7715538 47.9626019,42.0814413 47.1370287,41.2329205 Z" id="Path-86" stroke="#EB00FF" stroke-width="6.048" stroke-linecap="round" stroke-linejoin="round"></path>
        <path d="M85.1370287,7.23292051 C84.3114554,6.38439967 83.6836077,3.68042879 83.6836077,3.68042879 C83.6836077,3.68042879 83.0740699,6.29407437 82.2576516,7.09743256 C81.391883,7.94935168 78.6370471,8.6462607 78.6370471,8.6462607 C78.6370471,8.6462607 81.3425325,9.31738752 82.1836259,10.1564155 C83.0247193,10.9954436 83.6836075,13.6804288 83.6836075,13.6804288 C83.6836075,13.6804288 84.3114553,11.0372079 85.1370286,10.2190621 C85.9626018,9.40091627 88.6370471,8.77155382 88.6370471,8.77155382 C88.6370471,8.77155382 85.9626019,8.08144135 85.1370287,7.23292051 Z" id="Path-86" stroke="#EB00FF" stroke-width="6.048" stroke-linecap="round" stroke-linejoin="round"></path>
        <ellipse id="Oval-19" stroke="#53F1FF" stroke-width="6.048" cx="103.57649" cy="96.4570708" rx="13.0984848" ry="13.0866667"></ellipse>
    </g>
</svg>